<svg height="512" viewBox="0 0 64 64" width="512" xmlns="http://www.w3.org/2000/svg"><g id="Air_conditioner" data-name="Air conditioner"><path d="m6 32h52v4h-52z" fill="#57a4ff"/><circle cx="8" cy="22" fill="#57a4ff" r="2"/><g fill="#004fac"><path d="m60 15h-56a3 3 0 0 0 -3 3v20a3 3 0 0 0 3 3h56a3 3 0 0 0 3-3v-20a3 3 0 0 0 -3-3zm1 23a1 1 0 0 1 -1 1h-56a1 1 0 0 1 -1-1v-20a1 1 0 0 1 1-1h56a1 1 0 0 1 1 1z"/><path d="m58 31h-52a1 1 0 0 0 -1 1v4a1 1 0 0 0 1 1h52a1 1 0 0 0 1-1v-4a1 1 0 0 0 -1-1zm-51 4v-2h4v2zm6 0v-2h8v2zm10 0v-2h8v2zm10 0v-2h8v2zm10 0v-2h8v2zm14 0h-4v-2h4z"/><path d="m8 25a3 3 0 1 0 -3-3 3 3 0 0 0 3 3zm0-4a1 1 0 1 1 -1 1 1 1 0 0 1 1-1z"/><path d="m58 22h-7a1 1 0 0 0 0 2h7a1 1 0 0 0 0-2z"/><path d="m46 24h2a1 1 0 0 0 0-2h-2a1 1 0 0 0 0 2z"/><path d="m58 19h-4a1 1 0 0 0 0 2h4a1 1 0 0 0 0-2z"/><path d="m32.554 46.165a2.573 2.573 0 0 0 1.446-2.165 1 1 0 0 0 -2 0c0 .112-.164.239-.554.5a2.344 2.344 0 0 0 0 4.33c.391.261.555.388.555.5s-.164.241-.555.5a2.576 2.576 0 0 0 -1.446 2.17 1 1 0 0 0 2 0c0-.114.164-.241.555-.5a2.346 2.346 0 0 0 0-4.332c-.391-.261-.555-.389-.555-.5s.164-.243.554-.503z"/><path d="m12.554 46.165a2.573 2.573 0 0 0 1.446-2.165 1 1 0 0 0 -2 0c0 .112-.164.239-.554.5a2.344 2.344 0 0 0 0 4.33c.391.261.555.388.555.5s-.164.241-.555.5a2.576 2.576 0 0 0 -1.446 2.17 1 1 0 0 0 2 0c0-.114.164-.241.555-.5a2.346 2.346 0 0 0 0-4.332c-.391-.261-.555-.389-.555-.5s.164-.243.554-.503z"/><path d="m22.554 46.165a2.573 2.573 0 0 0 1.446-2.165 1 1 0 0 0 -2 0c0 .112-.164.239-.554.5a2.344 2.344 0 0 0 0 4.33c.391.261.555.388.555.5s-.164.241-.555.5a2.576 2.576 0 0 0 -1.446 2.17 1 1 0 0 0 2 0c0-.114.164-.241.555-.5a2.346 2.346 0 0 0 0-4.332c-.391-.261-.555-.389-.555-.5s.164-.243.554-.503z"/><path d="m42.554 46.165a2.573 2.573 0 0 0 1.446-2.165 1 1 0 0 0 -2 0c0 .112-.164.239-.554.5a2.344 2.344 0 0 0 0 4.33c.391.261.555.388.555.5s-.164.241-.555.5a2.576 2.576 0 0 0 -1.446 2.17 1 1 0 0 0 2 0c0-.114.164-.241.555-.5a2.346 2.346 0 0 0 0-4.332c-.391-.261-.555-.389-.555-.5s.164-.243.554-.503z"/><path d="m52.554 46.165a2.573 2.573 0 0 0 1.446-2.165 1 1 0 0 0 -2 0c0 .112-.164.239-.554.5a2.344 2.344 0 0 0 0 4.33c.391.261.555.388.555.5s-.164.241-.555.5a2.576 2.576 0 0 0 -1.446 2.17 1 1 0 0 0 2 0c0-.114.164-.241.555-.5a2.346 2.346 0 0 0 0-4.332c-.391-.261-.555-.389-.555-.5s.164-.243.554-.503z"/></g></g></svg>