<svg width="20" height="20" viewBox="0 0 20 20" fill="none" xmlns="http://www.w3.org/2000/svg">
<g clip-path="url(#clip0_246_662)">
<path d="M19.2208 0.780776C18.1815 -0.258959 16.4962 -0.25933 15.4564 0.779951C15.4498 0.786546 15.4433 0.793141 15.4368 0.799777L12.0767 4.71994L9.46867 3.93757C9.64641 3.73783 9.74414 3.47947 9.74315 3.21209C9.74756 2.91267 9.62971 2.62439 9.41682 2.41381C8.9785 1.97619 8.2686 1.97619 7.83024 2.41381L7.03621 3.20784L6.1257 2.93469L6.14919 2.91119C6.58429 2.47184 6.58429 1.764 6.14919 1.32461C5.71087 0.886995 5.00097 0.886995 4.56261 1.32461L3.68482 2.20244L2.1057 1.72872C1.24041 1.46921 0.328572 1.96028 0.0690608 2.82558C-0.13497 3.50589 0.123345 4.24016 0.7084 4.64286L7.90316 9.58899L4.92348 13.0653L2.00468 13.3786C1.7354 13.3972 1.50214 13.5723 1.40907 13.8257C1.30924 14.1247 1.39098 14.4544 1.61896 14.6722L2.6934 15.7468C2.42053 16.3355 2.67658 17.034 3.2653 17.3068C3.57869 17.4521 3.94009 17.4521 4.25343 17.3068L5.32684 18.3803C5.48355 18.5401 5.69719 18.6315 5.92109 18.6345C6.00719 18.6347 6.09268 18.6196 6.17355 18.59C6.42445 18.4988 6.59892 18.2693 6.61974 18.0031L6.93378 15.0773L10.4109 12.097L15.3571 19.2915C15.6318 19.692 16.0708 19.9491 16.5544 19.9929C16.6049 19.9974 16.6551 19.9998 16.7052 19.9998C17.6095 19.9982 18.3413 19.2638 18.3397 18.3595C18.3394 18.2018 18.3163 18.045 18.2712 17.8939L17.7976 16.3152L18.6751 15.4374C19.1132 15.0008 19.1144 14.2918 18.6779 13.8537C18.4682 13.6434 18.1835 13.5249 17.8865 13.5244C17.5868 13.5182 17.298 13.6364 17.0886 13.8509L17.0653 13.8742L16.7921 12.9636L17.586 12.1697C18.0236 11.7314 18.0236 11.0215 17.586 10.5831C17.3783 10.372 17.0938 10.2543 16.7977 10.2568C16.5276 10.2572 16.2666 10.3548 16.0625 10.5317L15.28 7.92352L19.2001 4.56347C19.2069 4.55762 19.2138 4.55144 19.22 4.54509C20.2597 3.50585 20.26 1.82051 19.2208 0.780776ZM8.32762 2.91119C8.49118 2.74817 8.7558 2.74809 8.91944 2.91103C8.9992 2.99058 9.04268 3.09948 9.03967 3.21213C9.04083 3.32148 8.99742 3.42654 8.91944 3.50325L8.71199 3.71062L7.80143 3.43747L8.32762 2.91119ZM5.06003 1.82195C5.22359 1.65881 5.48833 1.65881 5.65185 1.82195C5.73161 1.90138 5.77513 2.01016 5.77208 2.12268C5.77324 2.23203 5.72983 2.3371 5.65185 2.41381L5.36043 2.7051L4.45 2.43199L5.06003 1.82195ZM1.10686 4.0632C0.683133 3.77051 0.576954 3.18974 0.869687 2.76606C1.09927 2.43376 1.51673 2.28702 1.90373 2.40264L5.32647 3.42943L5.32808 3.42988L11.5759 5.30417L8.36365 9.05175L1.10686 4.0632ZM3.11572 15.1743L2.11634 14.1748C2.06482 14.1231 2.06585 14.0788 2.07067 14.0788H2.071L4.25574 13.8443L3.11572 15.1743ZM5.93147 17.9296C5.89017 17.933 5.84994 17.9154 5.82431 17.8829L4.82575 16.8844L6.1583 15.7422L5.93147 17.9296ZM17.586 14.3481C17.6667 14.2705 17.7746 14.2274 17.8865 14.2278C17.9959 14.2269 18.101 14.2704 18.1778 14.3482C18.341 14.5118 18.341 14.7765 18.1778 14.94L17.5681 15.5499L17.2949 14.6393L17.586 14.3481ZM16.4968 11.0805C16.5748 11.0021 16.6812 10.9587 16.7918 10.9603H16.7977C16.9071 10.9584 17.0124 11.0019 17.0886 11.0805C17.2517 11.2441 17.2517 11.5088 17.0886 11.6723L16.5625 12.1984L16.2893 11.288L16.4968 11.0805ZM16.5702 14.6727L16.5703 14.673L17.5973 18.0961C17.7455 18.5891 17.4658 19.1088 16.9728 19.257C16.5851 19.3735 16.1665 19.2263 15.9369 18.8929L10.9482 11.6365L14.6956 8.4244L16.5702 14.6727ZM18.7319 4.03851L6.39221 14.6152C6.38228 14.6228 6.3728 14.631 6.36377 14.6396L4.07801 16.5988C3.87674 16.7713 3.5737 16.7481 3.40116 16.5468C3.24708 16.3671 3.247 16.1019 3.40099 15.9222L5.36604 13.6294C5.37127 13.6234 5.37647 13.6179 5.38125 13.6116L15.9523 1.27738C16.7173 0.512361 17.9576 0.512361 18.7227 1.27733C19.4841 2.03876 19.4882 3.27202 18.7319 4.03851Z" fill="#4B5362"/>
</g>
<defs>
<clipPath id="clip0_246_662">
<rect width="20" height="20" fill="white"/>
</clipPath>
</defs>
</svg>
