<?xml version="1.0" encoding="utf-8"?>
<!-- Generator: Adobe Illustrator 13.0.0, SVG Export Plug-In . SVG Version: 6.00 Build 14948)  -->
<!DOCTYPE svg PUBLIC "-//W3C//DTD SVG 1.1//EN" "http://www.w3.org/Graphics/SVG/1.1/DTD/svg11.dtd">
<svg version="1.1" id="Layer_1" xmlns="http://www.w3.org/2000/svg" xmlns:xlink="http://www.w3.org/1999/xlink" x="0px" y="0px"
	 width="140.219px" height="104px" viewBox="-22 -6.5 140.219 104" enable-background="new -22 -6.5 140.219 104"
	 xml:space="preserve">
<g>
	<defs>
		
			<rect id="SVGID_1_" x="-16.581" y="-16.581" transform="matrix(0.9998 0.0205 -0.0205 0.9998 0.9968 -0.9766)" width="129.202" height="129.201"/>
	</defs>
	<clipPath id="SVGID_2_">
		<use xlink:href="#SVGID_1_"  overflow="visible"/>
	</clipPath>
	<g clip-path="url(#SVGID_2_)">
		<path fill="#0D4DA7" d="M-2.115,37.617l10.68,0.219c5.202-19.833,24.655-32.699,46.3-32.254
			C78.144,6.06,95.737,22.775,97.665,45.308c6.055,1.294,14.82,8.832,14.604,19.347l-0.257,12.525l-121.12-2.487l0.267-13.027
			l-8.016-0.166l0.228-11.054C-16.468,42.62-9.936,37.313-2.115,37.617z"/>
		<path fill="#0D55BA" d="M-16.684,61.18l128.968,2.652l-0.274,13.354l-128.968-2.651L-16.684,61.18z"/>
		<path fill="#FFFFFF" d="M87.674,43.181c0.268-13.065-14.421-29.452-32.949-29.833c-18.529-0.381-33.879,15.389-34.148,28.454
			L87.674,43.181z"/>
		<path fill="#EBF0F3" d="M20.577,41.802c0.268-13.065,15.619-28.834,34.147-28.454l-0.6,29.143L20.577,41.802z"/>
		<path fill="#2F4859" d="M79.836,91.252c-8.139-0.166-14.6-6.897-14.431-15.036c0.166-8.138,6.898-14.599,15.035-14.43
			c8.138,0.166,14.599,6.898,14.432,15.034C94.705,84.959,87.974,91.42,79.836,91.252z"/>
		<path fill="#D5D6DB" d="M79.941,86.092c-5.287-0.107-9.485-4.482-9.377-9.77c0.109-5.287,4.484-9.485,9.771-9.375
			c5.286,0.106,9.484,4.482,9.375,9.769C89.603,82.003,85.229,86.201,79.941,86.092z"/>
		<path fill="#3A556A" d="M80.054,80.649c-2.281-0.049-4.092-1.935-4.045-4.215c0.047-2.281,1.933-4.093,4.214-4.045
			c2.282,0.047,4.092,1.933,4.046,4.214C84.221,78.885,82.334,80.694,80.054,80.649z"/>
		<path fill="#E2CC00" d="M-9.027,38.786l-0.239,11.646l-7.362,0.013C-16.629,50.445-17.167,42.717-9.027,38.786z"/>
		<path fill="#E2CC00" d="M112.287,63.826l-5.78-0.118l0.266-12.832C113.132,57.236,112.287,63.826,112.287,63.826z"/>
		<path fill="#2F4859" d="M2.064,89.654c-8.137-0.166-14.599-6.897-14.431-15.036C-12.2,66.48-5.468,60.02,2.669,60.188
			c8.138,0.166,14.599,6.897,14.431,15.034C16.933,83.361,10.201,89.822,2.064,89.654z"/>
		<path fill="#D5D6DB" d="M2.17,84.494c-5.288-0.109-9.485-4.483-9.377-9.77c0.109-5.287,4.483-9.485,9.77-9.376
			c5.287,0.107,9.485,4.483,9.376,9.77C11.831,80.405,7.457,84.604,2.17,84.494z"/>
		<path fill="#3A556A" d="M2.282,79.052c-2.281-0.049-4.092-1.935-4.045-4.215c0.046-2.281,1.934-4.093,4.214-4.046
			s4.092,1.934,4.045,4.215S4.563,79.097,2.282,79.052z"/>
	</g>
</g>
</svg>
