<svg width="16" height="18" viewBox="0 0 16 18" fill="none" xmlns="http://www.w3.org/2000/svg">
<path d="M14.2222 1.77778H11.5556V0H9.77778V1.77778H6.22222V0H4.44444V1.77778H1.77778C0.797333 1.77778 0 2.57511 0 3.55556V16C0 16.9804 0.797333 17.7778 1.77778 17.7778H14.2222C15.2027 17.7778 16 16.9804 16 16V3.55556C16 2.57511 15.2027 1.77778 14.2222 1.77778ZM1.77778 16V4.44444H14.2222V3.55556L14.224 16H1.77778Z" fill="#475F7B"/>
<path d="M11.2252 9.05118L9.62522 7.45207L10.843 6.2334L12.443 7.83251L11.2252 9.05118ZM4.44922 12.6227V14.2218H6.04833L10.4714 9.80406L8.87233 8.20495L4.44922 12.6227Z" fill="#475F7B"/>
</svg>
