<svg width="19" height="17" viewBox="0 0 19 17" fill="none" xmlns="http://www.w3.org/2000/svg">
<path d="M12.9529 0.427072L4.79534 7.44015L6.80544 12.667L7.44063 12.6515L7.24637 14.6582C7.22411 14.8864 7.25117 15.1167 7.32574 15.3335C7.4003 15.5503 7.52061 15.7486 7.67851 15.9148C7.83642 16.0811 8.02822 16.2114 8.24092 16.297C8.45362 16.3826 8.68224 16.4215 8.91128 16.411L12.3516 16.2545C12.7355 16.2345 13.0996 16.078 13.3782 15.8132C13.6569 15.5484 13.8318 15.1927 13.8713 14.8103L14.0959 12.4903L17.56 12.4069C17.6881 12.4038 17.8135 12.3699 17.9258 12.3082C18.0381 12.2465 18.1339 12.1587 18.2052 12.0523C18.2765 11.9458 18.3211 11.8238 18.3354 11.6965C18.3497 11.5691 18.3332 11.4403 18.2874 11.3206L14.2206 0.746062C14.1745 0.626522 14.1004 0.5198 14.0045 0.434875C13.9086 0.349949 13.7937 0.289305 13.6694 0.258043C13.5452 0.226782 13.4152 0.225818 13.2905 0.255233C13.1658 0.284647 13.05 0.343579 12.9529 0.427072ZM12.2787 14.6565L8.8392 14.8127L9.05179 12.613L12.4846 12.5306L12.2787 14.6565ZM3.81869 13.8156L5.31207 13.2413L3.30197 8.01446L1.80859 8.58878C0.984998 8.90551 0.5728 9.83287 0.889534 10.6565L1.75101 12.8965C2.06774 13.7201 2.9951 14.1323 3.81869 13.8156Z" fill="#475F7B"/>
</svg>
