<svg width="16" height="16" viewBox="0 0 16 16" fill="none" xmlns="http://www.w3.org/2000/svg">
<path d="M2.42004 15.0217C2.39263 15.139 2.39213 15.261 2.41859 15.3786C2.44505 15.4961 2.49778 15.6062 2.57282 15.7005C2.64786 15.7947 2.74327 15.8708 2.85189 15.923C2.96052 15.9751 3.07954 16.002 3.20004 16.0017C3.35807 16.0017 3.51256 15.9549 3.64404 15.8673L8.00007 12.9632L12.3561 15.8673C12.4924 15.9577 12.6531 16.0043 12.8166 16.0007C12.9801 15.9971 13.1386 15.9436 13.2708 15.8472C13.403 15.7508 13.5025 15.6163 13.5559 15.4617C13.6093 15.3071 13.6142 15.1399 13.5697 14.9825L12.1065 9.86243L15.7353 6.59681C15.8515 6.49216 15.9345 6.35574 15.974 6.20442C16.0136 6.0531 16.0079 5.89351 15.9576 5.7454C15.9074 5.59729 15.8149 5.46714 15.6915 5.37106C15.5681 5.27498 15.4192 5.21718 15.2633 5.2048L10.7025 4.8416L8.72887 0.472777C8.66602 0.332066 8.56378 0.212553 8.43451 0.128661C8.30523 0.0447692 8.15444 8.47037e-05 8.00033 1.20304e-07C7.84622 -8.44631e-05 7.69537 0.0444345 7.566 0.128184C7.43664 0.211934 7.33427 0.331335 7.27126 0.471977L5.29765 4.8416L0.736825 5.204C0.583589 5.21614 0.437094 5.27217 0.314867 5.36539C0.19264 5.45861 0.099856 5.58506 0.0476158 5.72963C-0.00462433 5.8742 -0.0141088 6.03076 0.0202971 6.18057C0.054703 6.33039 0.131542 6.46712 0.241623 6.57441L3.61284 9.86003L2.42004 15.0217ZM8.00007 2.74479L9.63368 6.36161L10.1041 6.39921L13.2825 6.65121L10.6657 9.00642L10.6649 9.00803L10.2945 9.34083L10.4313 9.81843V9.82083L11.4337 13.3289L8.00007 11.04V2.74479Z" fill="#475F7B"/>
</svg>
