<svg width="24" height="18" viewBox="0 0 24 18" fill="none" xmlns="http://www.w3.org/2000/svg">
<path d="M5.62498 12.3562C4.70623 12.3562 3.97498 13.1062 3.97498 14.025C3.97498 14.9437 4.72498 15.6937 5.62498 15.6937C6.52498 15.6937 7.27498 14.9437 7.27498 14.025C7.27498 13.1062 6.52498 12.3562 5.62498 12.3562ZM5.62498 14.925C5.11873 14.925 4.72498 14.5125 4.72498 14.0062C4.72498 13.5 5.13748 13.0875 5.62498 13.0875C6.11248 13.0875 6.52498 13.5 6.52498 14.0062C6.52498 14.5125 6.11248 14.925 5.62498 14.925Z" fill="#4B5362"/>
<path d="M23.625 11.7375C23.6625 10.2375 22.6313 8.86875 21.1875 8.45625L18.4313 7.7625C18.15 7.55625 16.95 6.69375 15.7313 5.925C14.8875 5.4 13.9312 5.0625 12.9375 4.9125V4.125H14.0625C14.2688 4.125 14.4375 3.95625 14.4375 3.75C14.4375 3.54375 14.2688 3.375 14.0625 3.375H13.725V2.15625C13.725 1.95 13.5562 1.78125 13.35 1.78125H9.1125V1.125C9.1125 0.91875 8.94375 0.75 8.7375 0.75H3.45C3.24375 0.75 3.075 0.91875 3.075 1.125V3.39375H2.8125C2.60625 3.39375 2.4375 3.5625 2.4375 3.76875C2.4375 3.975 2.60625 4.14375 2.8125 4.14375H3.9375V4.85625C3.5625 4.85625 3.20625 4.95 2.9625 5.26875L1.40625 7.18125C1.03125 7.65 0.825 8.23125 0.825 8.83125V10.5938L0.46875 11.0438C0.39375 11.1 0.375 11.1937 0.375 11.2687V12.9938C0.375 13.1438 0.46875 13.2937 0.61875 13.35L2.41875 14.0438C2.4375 15.8063 3.8625 17.25 5.625 17.25C7.275 17.25 8.64375 15.9937 8.8125 14.3812H14.8312C15.0187 15.9937 16.3687 17.25 18.0187 17.25C19.6687 17.25 21.0375 15.9937 21.2062 14.3812C22.5187 14.25 23.6063 13.0875 23.625 11.7375ZM22.575 10.4437C22.7063 10.6687 22.8 10.9313 22.8375 11.2313C22.4813 11.1375 22.0312 10.9312 21.9 10.4437H22.575ZM12.1875 4.14375V4.875C12.0938 4.875 4.6875 4.85625 4.6875 4.85625V4.14375H12.1875ZM12.975 2.55V3.39375H9.1125V2.55H12.975ZM3.825 1.5H8.3625V3.39375H3.825V1.5ZM1.125 11.4L1.48125 10.95C1.5375 10.875 1.55625 10.8 1.55625 10.725V8.83125C1.55625 8.4 1.70625 7.9875 1.96875 7.66875L3.54375 5.75625C3.61875 5.68125 3.7125 5.625 3.825 5.625H11.9062C13.125 5.625 14.3063 5.9625 15.3375 6.6C16.7063 7.44375 18.0375 8.4375 18.0563 8.45625C18.0938 8.49375 18.15 8.5125 18.1875 8.5125L21 9.20625C21.0375 9.225 21.4875 9.35625 21.9188 9.69375H21.4688C21.2625 9.69375 21.0938 9.8625 21.0938 10.0687C21.0938 11.1 21.7688 11.8125 22.8375 12C22.8188 12.1313 22.7812 12.2625 22.725 12.3937H22.0125C21.8062 12.3937 21.6375 12.5625 21.6375 12.7687C21.6375 12.975 21.8062 13.1437 22.0125 13.1437H22.2C21.9188 13.4062 21.5625 13.575 21.1688 13.6312C20.9813 12.0375 19.6313 10.8 17.9813 10.8C16.35 10.8 14.9813 12.0375 14.7938 13.65H8.775C8.5875 12.0563 7.2375 10.8187 5.5875 10.8187C4.06875 10.8187 2.8125 11.8875 2.475 13.3125L1.125 12.75V11.4ZM5.625 16.5C4.275 16.5 3.16875 15.3938 3.16875 14.025C3.16875 12.6563 4.25625 11.5312 5.625 11.5312C6.99375 11.5312 8.08125 12.6375 8.08125 14.0062C8.08125 15.375 6.975 16.5 5.625 16.5ZM18 16.5C16.65 16.5 15.5438 15.3938 15.5438 14.025C15.5438 12.6563 16.65 11.5312 18 11.5312C19.35 11.5312 20.4562 12.6375 20.4562 14.0062C20.4562 15.375 19.3687 16.5 18 16.5Z" fill="#4B5362"/>
<path d="M18 12.3562C17.0812 12.3562 16.35 13.1062 16.35 14.025C16.35 14.9437 17.1 15.6937 18 15.6937C18.9187 15.6937 19.65 14.9437 19.65 14.025C19.65 13.1062 18.9187 12.3562 18 12.3562ZM18 14.925C17.4937 14.925 17.1 14.5125 17.1 14.0062C17.1 13.5 17.5125 13.0875 18 13.0875C18.5062 13.0875 18.9 13.5 18.9 14.0062C18.9 14.5125 18.5062 14.925 18 14.925Z" fill="#4B5362"/>
<path d="M10.7438 9.24373H16.4063C16.7625 9.24373 16.9313 8.83123 16.7063 8.56873C15.6 7.29373 13.4625 6.13123 12.1875 6.13123H10.7438C10.5375 6.13123 10.3688 6.29998 10.3688 6.50623V8.86873C10.3688 9.07498 10.5375 9.24373 10.7438 9.24373ZM11.1188 6.89998H12.1875C13.0688 6.89998 14.5313 7.63123 15.5625 8.51248H11.1188V6.89998Z" fill="#4B5362"/>
<path d="M6.9375 9.24378H9.09375C9.3 9.24378 9.46875 9.07502 9.46875 8.86877V6.52502C9.46875 6.31877 9.3 6.15002 9.09375 6.15002H6.9375C6.73125 6.15002 6.5625 6.31877 6.5625 6.52502V8.88752C6.5625 9.07502 6.73125 9.24378 6.9375 9.24378ZM7.3125 6.90002H8.71875V8.51252H7.3125V6.90002Z" fill="#4B5362"/>
<path d="M3.16877 9.24378H5.32502C5.53127 9.24378 5.70002 9.07502 5.70002 8.86877V6.52502C5.70002 6.31877 5.53127 6.15002 5.32502 6.15002H5.30627C3.95627 6.15002 2.77502 7.42502 2.77502 8.88752C2.79377 9.07502 2.94377 9.24378 3.16877 9.24378ZM4.95002 6.93752V8.49377H3.56252C3.71252 7.74377 4.27502 7.10627 4.95002 6.93752Z" fill="#4B5362"/>
<path d="M9.28125 12.4688V12.7313C9.28125 12.9375 9.45 13.1063 9.65625 13.1063H14.2125C14.4188 13.1063 14.5875 12.9375 14.5875 12.7313V12.4688C14.5875 12.2625 14.4188 12.0938 14.2125 12.0938C14.0438 12.0938 13.9125 12.2063 13.8563 12.3563H10.0125C9.95625 12.2063 9.825 12.0938 9.65625 12.0938C9.45 12.0938 9.28125 12.2625 9.28125 12.4688Z" fill="#4B5362"/>
</svg>
