<svg width="58" height="59" viewBox="0 0 58 59" fill="none" xmlns="http://www.w3.org/2000/svg">
<path d="M57.6967 25.0993C57.639 24.6825 57.5724 24.2669 57.4967 23.8526C57.4623 23.6659 57.426 23.4793 57.3879 23.2861C55.9199 16.0909 51.8086 9.71272 45.8703 5.41794C44.0515 4.10397 42.0847 3.0096 40.0106 2.15747C37.3517 1.06767 34.5456 0.381715 31.6851 0.122244C31.4656 0.101093 31.2458 0.0836736 31.0256 0.0699872C30.6759 0.045725 30.3215 0.0270617 29.9709 0.0158638C29.756 0.0074653 29.5412 0.00279949 29.3254 0C29.2119 0 29.0984 0 28.9831 0H28.9524C28.0502 0 27.1604 0.0416813 26.283 0.125044C23.423 0.384698 20.6177 1.07065 17.9594 2.16027C15.8853 3.0124 13.9184 4.10677 12.0996 5.42074C6.16226 9.71345 2.05043 16.0887 0.580159 23.2815C0.541095 23.4681 0.50575 23.6547 0.471336 23.8479C0.395066 24.261 0.328408 24.6781 0.271361 25.0993C-0.258928 28.9666 -0.0103307 32.9013 1.00243 36.6705C1.15497 37.2425 1.32611 37.808 1.51214 38.3661C1.70374 38.939 1.9127 39.5039 2.13903 40.0607C3.13164 42.5097 4.45079 44.8122 6.0604 46.9054C6.5081 47.4852 6.97749 48.0492 7.4686 48.5972C8.8583 50.148 10.4103 51.5443 12.0978 52.7619C12.388 52.9697 12.6822 53.1735 12.9805 53.3732C14.915 54.6621 16.999 55.7097 19.1862 56.4927C21.9569 57.4841 24.8623 58.0449 27.8019 58.1556C28.1739 58.1706 28.5487 58.1783 28.9264 58.179H29.0417C29.4187 58.179 29.7935 58.1712 30.1662 58.1556C30.6474 58.137 31.1248 58.1059 31.5986 58.0623C31.9533 58.0318 32.3049 57.9945 32.6533 57.9503C32.8487 57.9261 33.0434 57.8996 33.2374 57.871C33.5118 57.8309 33.7853 57.788 34.056 57.7404C34.7808 57.6159 35.4939 57.4629 36.1952 57.2813L36.7198 57.1413C36.8947 57.0937 37.0677 57.048 37.2407 56.9929C37.5867 56.8903 37.9308 56.782 38.2703 56.6672C38.4408 56.6094 38.6101 56.5503 38.7781 56.4899L38.9846 56.4162C39.1902 56.3406 39.3957 56.2632 39.5994 56.182C39.7359 56.1285 39.8717 56.0741 40.0068 56.0187L40.4105 55.8489C40.524 55.8003 40.6365 55.7555 40.7491 55.7005L40.8718 55.6454L41.2076 55.4924L41.4048 55.3991C41.5362 55.3369 41.6668 55.2746 41.7964 55.2124C42.8986 54.6694 43.9645 54.0554 44.9876 53.3741C45.062 53.3237 45.1364 53.2752 45.2108 53.2239C45.359 53.1231 45.506 53.0214 45.6517 52.9187L45.8703 52.7629C46.0814 52.6098 46.2907 52.4549 46.4981 52.2963C46.5753 52.2375 46.6525 52.1787 46.7297 52.1181C46.9604 51.9383 47.1883 51.7551 47.4133 51.5684C47.6142 51.4017 47.8124 51.2328 48.0077 51.0617C48.203 50.89 48.3955 50.7165 48.5871 50.541C48.6802 50.4477 48.7732 50.3637 48.8662 50.2741C49.0522 50.095 49.2382 49.9136 49.4242 49.7301C49.7907 49.3624 50.1488 48.9836 50.4948 48.5982C50.9859 48.0526 51.4553 47.488 51.903 46.9045C53.5127 44.8115 54.8315 42.5089 55.8234 40.0597C55.8802 39.9198 55.936 39.7798 55.9899 39.6407C56.0439 39.5017 56.0978 39.3608 56.1508 39.218C56.2039 39.0753 56.2541 38.9381 56.3043 38.7934C56.3545 38.6488 56.4029 38.5079 56.4513 38.3651C56.6373 37.8052 56.8072 37.24 56.961 36.6696C56.9814 36.594 57.0019 36.5175 57.0214 36.4409C57.0791 36.2179 57.1349 35.9939 57.187 35.7691C57.2177 35.6393 57.2475 35.5096 57.28 35.3781C57.342 35.0987 57.3997 34.8188 57.453 34.5382C57.4744 34.4234 57.4949 34.3105 57.5144 34.1967L57.5339 34.0856C57.5516 33.9848 57.5683 33.8841 57.5851 33.7833L57.6269 33.5173C57.6409 33.4287 57.6539 33.3391 57.6669 33.2505C57.6976 33.0396 57.7265 32.8277 57.7516 32.615C57.7637 32.5086 57.7767 32.4022 57.7888 32.2958C57.8009 32.1894 57.8102 32.0989 57.8195 32C57.8195 31.9804 57.8241 31.9608 57.826 31.9403C57.8344 31.8526 57.8427 31.7639 57.8502 31.6753L57.8558 31.6212C57.8623 31.5381 57.8697 31.455 57.8762 31.372C57.8874 31.2348 57.8967 31.0976 57.905 30.9605L57.9218 30.702C57.9385 30.3953 57.9506 30.0867 57.9581 29.7763C57.9581 29.7175 57.9581 29.6596 57.9581 29.6009C57.9581 29.5421 57.9581 29.4553 57.9581 29.3816C57.9581 29.2742 57.9581 29.166 57.9581 29.0578V29.0419C57.9605 27.7232 57.8732 26.406 57.6967 25.0993ZM12.1071 38.3642C12.1081 37.798 12.1439 37.2323 12.214 36.6705C12.214 36.6584 12.214 36.6462 12.214 36.6332H16.2861C16.4274 36.6332 16.5683 36.6457 16.7074 36.6705H16.7158C16.7967 36.6854 16.8758 36.7032 16.953 36.7255C17.2374 36.8177 17.5037 36.9589 17.7399 37.1427C17.7975 37.1884 17.8524 37.236 17.9064 37.2864C17.924 37.305 17.9426 37.3237 17.9594 37.3433C18.0412 37.432 18.1184 37.5243 18.1928 37.6177C18.2142 37.6447 18.2365 37.6727 18.257 37.7007C18.2905 37.7436 18.3221 37.7875 18.35 37.8323C18.35 37.8323 18.35 37.8369 18.3556 37.8388L18.4058 37.9116C18.4244 37.9433 18.4449 37.9751 18.4626 38.0049C18.5237 38.1204 18.5765 38.2402 18.6207 38.3633L12.1071 38.3642ZM42.0847 27.6916L42.2214 27.9286L42.2577 27.9911L42.2363 28.0369L41.9266 28.0882L41.2457 28.1964C41.1155 28.217 40.9853 28.2366 40.8542 28.2552L40.563 28.2991C40.191 28.3532 39.8155 28.4049 39.4367 28.454C39.0144 28.51 38.59 28.5622 38.1633 28.6108L37.809 28.65C37.3352 28.7022 36.8609 28.7501 36.3859 28.7937C36.1478 28.8161 35.9087 28.8366 35.6697 28.8571L35.3116 28.886C35.0319 28.9078 34.7529 28.928 34.4745 28.9467C34.2345 28.9635 33.9943 28.9787 33.7537 28.9924C33.5137 29.0055 33.2728 29.0186 33.0319 29.0298C32.791 29.041 32.5492 29.0531 32.3073 29.0634C32.0655 29.0736 31.8237 29.082 31.5809 29.0895C31.2572 29.0988 30.9332 29.1069 30.6089 29.1137C30.1222 29.1243 29.6345 29.1296 29.1459 29.1296H28.8306C27.5284 29.1296 26.2334 29.0963 24.9455 29.0298C24.4637 29.0064 23.9819 28.9794 23.5029 28.9467C23.2238 28.928 22.9448 28.9066 22.6658 28.886C21.7096 28.8108 20.759 28.719 19.814 28.6108C19.0079 28.5181 18.208 28.4142 17.4143 28.2991C16.9586 28.2325 16.504 28.1622 16.0508 28.0882L15.741 28.0369L15.7197 27.9911L15.755 27.9286C15.8461 27.77 15.9376 27.6117 16.0294 27.4536C16.4715 26.6965 16.9254 25.9472 17.3911 25.2057C17.6236 24.8374 17.8586 24.4706 18.0961 24.1055C18.5184 23.4606 19.841 21.3993 20.094 21.1361C20.133 21.0951 20.173 21.0549 20.214 21.0158C20.4948 20.7462 20.8154 20.5218 21.1645 20.3504C21.1744 20.3463 21.184 20.3416 21.1934 20.3364C21.5046 20.1876 21.8348 20.0828 22.1747 20.0247C22.3851 19.9882 22.5982 19.9701 22.8118 19.9706H22.8434C24.0395 19.8779 25.2447 19.812 26.4588 19.7728C27.2574 19.7473 28.0598 19.7333 28.8659 19.7308H29.0975C29.9086 19.7308 30.7162 19.7448 31.5205 19.7728C32.7339 19.812 33.9388 19.8779 35.1349 19.9706H35.1581C35.3717 19.9702 35.5848 19.9883 35.7953 20.0247C36.1351 20.0826 36.4654 20.1875 36.7765 20.3364L36.8063 20.3513C36.9372 20.4159 37.0645 20.4875 37.1876 20.566C37.2695 20.6182 37.3486 20.6742 37.4258 20.733C37.503 20.7918 37.5774 20.8534 37.6499 20.9196C37.6862 20.9514 37.7215 20.984 37.7569 21.0176L37.8769 21.138L37.8917 21.1548C37.9941 21.2696 38.2191 21.5943 38.4879 21.9946C38.9019 22.6096 39.4181 23.4037 39.725 23.8815L39.7855 23.9748C39.8143 24.0205 39.8441 24.0681 39.8738 24.112C39.9938 24.2986 40.1119 24.4778 40.2291 24.6616C40.3463 24.8455 40.4635 25.0284 40.5798 25.2122C40.8421 25.6302 41.1003 26.0502 41.3546 26.472L41.6076 26.8947C41.7201 27.0813 41.8308 27.2679 41.9424 27.4602L42.0847 27.6916ZM33.9369 36.7004L33.6458 38.3642L33.3509 40.0364C33.3491 40.0429 33.3452 40.0486 33.3398 40.0527C33.3344 40.0567 33.3279 40.0589 33.3212 40.0588H24.6478C24.6407 40.0591 24.6338 40.0568 24.6283 40.0523C24.6236 40.0483 24.62 40.0432 24.6181 40.0373L24.606 39.9683L24.3269 38.3679L24.0358 36.706C24.035 36.7032 24.035 36.7003 24.0358 36.6976C24.0371 36.6947 24.039 36.6922 24.0414 36.6901L24.0479 36.6845H24.0553H33.9062C33.9123 36.6839 33.9184 36.685 33.9239 36.6879C33.9293 36.6907 33.9339 36.695 33.9369 36.7004ZM39.1288 50.1855C39.1283 50.1905 39.1265 50.1953 39.1235 50.1994C39.1206 50.2035 39.1166 50.2067 39.1121 50.2088C38.8898 50.3161 38.6647 50.4206 38.4387 50.5205L38.2052 50.6231L37.9708 50.7221C37.5792 50.8854 37.1821 51.0393 36.7784 51.1812C36.6984 51.2101 36.6175 51.2381 36.5366 51.2652L36.2817 51.351C36.1217 51.4033 35.9627 51.4537 35.8027 51.5022L35.5553 51.5759L35.307 51.6468C34.7247 51.8092 34.1335 51.9495 33.5332 52.0677L33.3584 52.1013C33.3128 52.1097 33.2654 52.119 33.2207 52.1265C33.0663 52.1545 32.9128 52.1815 32.7556 52.2067C32.5817 52.2347 32.4059 52.2608 32.2301 52.2851C32.1055 52.3028 31.979 52.3187 31.8525 52.3336C31.726 52.3486 31.5995 52.3635 31.473 52.3765L31.1754 52.4055C31.087 52.4139 30.9987 52.4213 30.9094 52.4279C30.6446 52.4503 30.378 52.4674 30.1095 52.4792C29.7504 52.496 29.3914 52.5044 29.0277 52.5053H28.9347C28.2099 52.5053 27.4943 52.472 26.788 52.4055C24.0333 52.156 21.3457 51.412 18.8532 50.2088C18.8479 50.2064 18.8435 50.2024 18.8405 50.1974C18.8375 50.1924 18.8361 50.1866 18.8365 50.1808C18.8365 49.3883 18.8582 48.5994 18.9016 47.8143C18.9018 47.81 18.9029 47.8057 18.9048 47.8018C18.9068 47.7979 18.9095 47.7945 18.9128 47.7917C18.9161 47.7889 18.92 47.7868 18.9241 47.7856C18.9283 47.7843 18.9326 47.7839 18.9369 47.7845C21.2821 48.0793 23.6619 48.2703 26.0765 48.3574C26.988 48.3891 27.9042 48.4056 28.825 48.4069H29.1375C30.0571 48.4069 30.9732 48.3904 31.886 48.3574C32.2773 48.3437 32.6679 48.3269 33.0579 48.307L33.2393 48.2977C33.5239 48.2828 33.8067 48.2669 34.0904 48.2492C34.4054 48.2293 34.7201 48.2078 35.0344 48.1848L35.4065 48.1559C35.8846 48.1173 36.3611 48.075 36.8361 48.0289C37.1244 48.0009 37.4118 47.9698 37.6983 47.9356C38.0046 47.902 38.3097 47.8669 38.6135 47.8302L39.0218 47.7798H39.0265C39.0345 47.7798 39.0421 47.7829 39.0479 47.7885C39.0536 47.7941 39.0569 47.8016 39.0572 47.8097C39.0674 47.9963 39.0758 48.1894 39.0832 48.3789C39.0916 48.6 39.099 48.8203 39.1046 49.0414C39.1102 49.2225 39.1139 49.4026 39.1167 49.5827V49.5892C39.1204 49.7839 39.1226 49.9796 39.1232 50.1762C39.1243 50.1762 39.1253 50.1765 39.1263 50.1771C39.1272 50.1776 39.128 50.1784 39.1285 50.1793C39.1291 50.1802 39.1294 50.1813 39.1294 50.1824C39.1295 50.1834 39.1293 50.1845 39.1288 50.1855ZM39.3437 38.3642C39.3881 38.2411 39.4413 38.1213 39.5027 38.0058C39.5204 37.9741 39.539 37.9433 39.5576 37.9125C39.6432 37.7875 39.7334 37.6652 39.8292 37.5486L39.9222 37.4413C39.9529 37.4068 39.9836 37.3713 40.0152 37.3368L40.0626 37.2864C40.1166 37.236 40.1724 37.1875 40.2301 37.1417C40.4666 36.9579 40.7331 36.8168 41.0179 36.7246C41.0951 36.7022 41.1741 36.6845 41.2541 36.6696H45.7568C45.8266 37.2321 45.8623 37.7983 45.8638 38.3651L39.3437 38.3642ZM52.3151 29.1473V29.2453C52.3151 29.2957 52.3151 29.3452 52.3151 29.3956C52.3151 29.4459 52.3151 29.5103 52.3151 29.5682C52.3151 29.6447 52.315 29.7203 52.3085 29.7968C52.3085 29.8155 52.3085 29.8332 52.3085 29.8519V29.8584C52.3085 29.9209 52.303 29.9825 52.3011 30.045C52.2992 30.1076 52.2946 30.2009 52.2899 30.2783C52.2899 30.283 52.2899 30.2867 52.2899 30.2905C52.2899 30.3402 52.2871 30.3897 52.2816 30.4388C52.2816 30.4724 52.2797 30.5035 52.276 30.5321C52.276 30.5527 52.276 30.5723 52.276 30.5919C52.276 30.6423 52.2695 30.6908 52.2658 30.7402V30.7766C52.2658 30.8438 52.2555 30.9119 52.2499 30.9791C52.2444 31.0463 52.2397 31.1088 52.2332 31.1742C52.2332 31.205 52.2276 31.2348 52.2248 31.2675C52.2202 31.3188 52.2155 31.3711 52.209 31.4243C52.209 31.4578 52.2025 31.4924 52.1988 31.5269C52.1913 31.6025 52.1839 31.6771 52.1746 31.7518L52.1495 31.9636C52.1486 31.9736 52.1486 31.9835 52.1495 31.9935L52.1383 32.0775C52.1388 32.0802 52.1388 32.0831 52.1383 32.0859C52.1393 32.0964 52.1393 32.107 52.1383 32.1176C52.1383 32.1288 52.1383 32.1409 52.1383 32.1512C52.1383 32.1615 52.1383 32.1726 52.1383 32.1838L52.13 32.2417C52.1234 32.2968 52.1151 32.3518 52.1067 32.4059C52.1067 32.4451 52.0955 32.4853 52.09 32.5245C52.0816 32.5832 52.0723 32.642 52.0639 32.7008C52.0555 32.7596 52.0453 32.8184 52.0351 32.8763C52.009 33.0377 51.9811 33.1973 51.9514 33.3568C51.9514 33.3736 51.9458 33.3886 51.943 33.4044C51.9337 33.4548 51.9235 33.5043 51.9142 33.5556C51.9145 33.559 51.9145 33.5624 51.9142 33.5659C51.9142 33.5771 51.9142 33.5883 51.9077 33.6004L51.8993 33.6442C51.8937 33.6685 51.8891 33.6937 51.8844 33.718V33.731C51.8751 33.7796 51.8649 33.8243 51.8556 33.8747C51.8463 33.9251 51.8333 33.9783 51.8212 34.0306L51.7877 34.1864L51.757 34.3217C51.7467 34.3674 51.7365 34.415 51.7254 34.458C51.7254 34.4673 51.7254 34.4766 51.7179 34.4869C51.6984 34.5718 51.6789 34.6558 51.6575 34.7398C51.6575 34.7528 51.6509 34.7678 51.6472 34.7818C51.6379 34.8219 51.6268 34.863 51.6165 34.904L51.5793 35.0487C51.5793 35.0543 51.5793 35.0608 51.5793 35.0664C51.5682 35.1102 51.5561 35.1541 51.544 35.198C51.544 35.2138 51.5356 35.2278 51.531 35.2437C51.5217 35.2819 51.5105 35.3202 51.5003 35.3575C51.5007 35.3619 51.5007 35.3663 51.5003 35.3706C51.5003 35.379 51.4956 35.3883 51.4928 35.3967C51.477 35.4536 51.4621 35.5106 51.4454 35.5666C51.4286 35.6226 51.4082 35.6963 51.3877 35.7607C51.385 35.7737 51.3813 35.7865 51.3766 35.7989C51.3642 35.8425 51.3511 35.8863 51.3375 35.9305C51.3208 35.9856 51.3049 36.0387 51.2873 36.0929L51.2789 36.1199C51.2705 36.1498 51.2594 36.1806 51.2501 36.2132L51.2417 36.244C51.2194 36.3084 51.1989 36.3737 51.1775 36.44L51.0631 36.6705C50.9906 36.887 50.9134 37.1007 50.8343 37.3134C50.768 37.4907 50.6997 37.6671 50.6297 37.8425C50.5596 38.018 50.4871 38.1919 50.412 38.3642C50.3897 38.4164 50.3665 38.4687 50.3432 38.521C50.3293 38.5517 50.3153 38.5835 50.3004 38.6143C50.0902 39.0753 49.7916 39.6855 49.7219 39.8274L49.7154 39.8404C49.713 39.8465 49.7102 39.8525 49.707 39.8582L49.6028 40.0588L49.5098 40.2221C49.481 40.2762 49.4512 40.3304 49.4215 40.3845C49.3629 40.4937 49.3024 40.6019 49.2419 40.7092C49.0169 41.1058 48.7769 41.4921 48.5341 41.8738C48.3159 42.211 48.0889 42.542 47.8533 42.8667C47.8161 42.9189 47.7779 42.9703 47.7398 43.0225L47.6366 43.1616L47.631 43.169C47.5752 43.2446 47.5175 43.3202 47.4598 43.3949L47.3975 43.476C47.3557 43.5311 47.312 43.5852 47.2692 43.6394C47.2264 43.6935 47.1706 43.7653 47.1194 43.826C47.1145 43.8296 47.1086 43.8318 47.1025 43.8321C47.0963 43.8325 47.0902 43.831 47.0849 43.828C47.0796 43.8249 47.0752 43.8204 47.0725 43.8149C47.0697 43.8094 47.0685 43.8032 47.0692 43.7971C47.0766 43.7383 47.0831 43.6804 47.0897 43.6216C47.1008 43.5283 47.112 43.435 47.1222 43.3417C47.1222 43.3239 47.1269 43.3043 47.1287 43.2866C47.1427 43.1578 47.1576 43.0281 47.1706 42.8984C47.2022 42.5942 47.231 42.29 47.2571 41.9839C47.271 41.8253 47.2841 41.6666 47.2961 41.5061C47.3082 41.3456 47.3213 41.1851 47.3315 41.0237C47.3529 40.7008 47.3724 40.3779 47.3882 40.0541C47.3882 39.9832 47.3957 39.9114 47.3985 39.8404C47.4068 39.6258 47.4161 39.3739 47.4236 39.1742C47.4236 39.1312 47.4236 39.0892 47.4236 39.0473C47.4236 39.0053 47.4236 38.9381 47.4291 38.883V38.8569C47.4294 38.8538 47.4294 38.8507 47.4291 38.8476V38.6861C47.4291 38.5779 47.4338 38.4687 47.4357 38.3595C47.4425 38.0485 47.4456 37.7374 47.445 37.4264C47.445 37.3778 47.445 37.333 47.445 37.2817C47.445 37.2304 47.445 37.1725 47.445 37.1221C47.445 37.0214 47.445 36.9402 47.445 36.9402C47.445 36.8469 47.445 36.7535 47.445 36.6658C47.445 36.5371 47.4403 36.4073 47.4375 36.2776C47.4375 36.2207 47.4375 36.1647 47.4375 36.1078V36.0341C47.4384 36.0179 47.4384 36.0017 47.4375 35.9855C47.3904 34.7408 47.0873 33.5192 46.5474 32.3975C46.4674 32.2327 46.3868 32.0678 46.3056 31.903L46.1744 31.6379L46.1223 31.5316C46.1177 31.5241 46.114 31.5157 46.1093 31.5073C46.0944 31.4784 46.0796 31.4494 46.0656 31.4205L46.0191 31.3272C46.007 31.3039 45.994 31.2796 45.9828 31.2554L45.9642 31.219C45.9587 31.2093 45.9537 31.1993 45.9493 31.1891C45.9454 31.1825 45.942 31.1757 45.9391 31.1686L45.9345 31.1602L45.8768 31.0473C45.8191 30.9334 45.7596 30.8196 45.7019 30.7048C45.6996 30.7005 45.6984 30.6956 45.6984 30.6907C45.6983 30.6858 45.6994 30.681 45.7016 30.6766C45.7038 30.6723 45.707 30.6685 45.7109 30.6656C45.7149 30.6627 45.7194 30.6608 45.7243 30.66L45.7791 30.6525L45.8768 30.6367C46.1581 30.5895 46.435 30.519 46.7046 30.4258C46.793 30.395 46.8813 30.3623 46.9678 30.3269C47.0543 30.2914 47.1436 30.2531 47.2292 30.2121C47.4034 30.1306 47.573 30.0393 47.737 29.9387C47.7621 29.9228 47.7872 29.9079 47.8124 29.8901C47.8375 29.8724 47.8654 29.8575 47.8905 29.8407L47.9342 29.8108C47.9714 29.7866 48.0068 29.7614 48.0421 29.7371L48.0709 29.7156L48.1798 29.6344C48.191 29.6266 48.2019 29.6182 48.2123 29.6092L48.3128 29.5309L48.3555 29.4935C48.3862 29.4693 48.416 29.4431 48.4486 29.418L48.4811 29.389C48.5192 29.3554 48.5574 29.3209 48.5946 29.2854C48.6318 29.25 48.6671 29.2164 48.7025 29.1809L48.7415 29.1417C48.7685 29.1156 48.7946 29.0876 48.8206 29.0606L48.8634 29.0139C48.8857 28.9906 48.9062 28.9672 48.9276 28.9439L48.9834 28.8804C49.0029 28.8571 49.0234 28.8338 49.0429 28.8095L49.0903 28.7526L49.1127 28.7246C49.1182 28.7171 49.1247 28.7097 49.1303 28.7013C49.1618 28.6564 49.1848 28.6061 49.1982 28.5529C49.1987 28.5504 49.1987 28.5479 49.1982 28.5454C49.2005 28.5381 49.2024 28.5306 49.2038 28.5231C49.2038 28.5007 49.2113 28.4773 49.214 28.4549C49.2168 28.4325 49.2233 28.3924 49.2271 28.3616C49.2345 28.3019 49.2401 28.2412 49.2447 28.1806C49.2522 28.0873 49.2559 27.9939 49.2559 27.9006C49.2565 27.6879 49.2382 27.4755 49.201 27.2661C49.1889 27.198 49.175 27.1298 49.1601 27.0627C49.1229 26.9022 49.0751 26.7445 49.0169 26.5905C49.0029 26.555 48.989 26.5186 48.9741 26.4841C48.9592 26.4496 48.9508 26.43 48.9387 26.4038C48.8536 26.2181 48.7495 26.0417 48.6281 25.8775C48.4941 25.6937 48.3379 25.5272 48.163 25.382L48.1109 25.341L48.0626 25.3036C48.0543 25.2969 48.0456 25.2907 48.0365 25.285L47.9593 25.2299L47.9026 25.1917C47.8905 25.1833 47.8784 25.1749 47.8654 25.1674C47.8524 25.1599 47.8245 25.1403 47.8031 25.1282C47.7519 25.0955 47.6998 25.0657 47.6468 25.0349L47.6319 25.0256L47.5575 24.9864L47.4738 24.9444L47.4105 24.9145C47.3454 24.8846 47.2803 24.8567 47.2134 24.8305L47.1445 24.8044L47.0831 24.7829L47.0348 24.7661L46.9418 24.7372L46.8488 24.7101C46.8454 24.7107 46.8419 24.7107 46.8385 24.7101C46.7455 24.6859 46.6581 24.6644 46.566 24.6476L46.459 24.6327C46.4358 24.628 46.4116 24.6252 46.3874 24.6215C46.3391 24.614 46.2944 24.6084 46.2423 24.6038L46.1688 24.5972C46.0712 24.5888 45.9707 24.5842 45.8703 24.5842H45.8303C45.8303 24.5842 45.3829 24.6252 45.0108 24.698C44.8063 24.7375 44.6215 24.8462 44.4872 25.006C44.4305 25.0731 44.3746 25.1422 44.3216 25.2141L44.2807 25.271C44.2668 25.2906 44.2519 25.3102 44.2389 25.3307C44.2258 25.3512 44.2156 25.3652 44.2044 25.382C44.1933 25.3988 44.1728 25.4296 44.1579 25.4539L44.1319 25.4949C44.1133 25.5257 44.0956 25.5556 44.0789 25.5883C44.0491 25.6374 44.0212 25.6878 43.9952 25.7394C43.9756 25.7768 43.957 25.815 43.9384 25.8533C43.9198 25.8915 43.9068 25.9195 43.8919 25.9541C43.8894 25.9585 43.8872 25.9632 43.8854 25.9681C43.8677 26.0072 43.8519 26.0464 43.8361 26.0856C43.8203 26.1248 43.8045 26.1649 43.7905 26.2051C43.7617 26.2853 43.7347 26.3674 43.7096 26.4496C43.7099 26.452 43.7099 26.4545 43.7096 26.457C43.6892 26.5307 43.6696 26.6063 43.652 26.6819V26.7006C43.6427 26.7435 43.6334 26.7855 43.6259 26.8284C43.6244 26.8343 43.6212 26.8395 43.6167 26.8435C43.6123 26.8476 43.6067 26.8502 43.6008 26.8511C43.5948 26.852 43.5888 26.8511 43.5833 26.8486C43.5779 26.846 43.5733 26.842 43.5701 26.8368C43.4817 26.6857 43.3924 26.5363 43.3041 26.387C43.2157 26.2377 43.1255 26.0884 43.0353 25.9391L42.7851 25.5304L42.281 24.7195C42.1117 24.4507 41.9408 24.1829 41.7685 23.916C41.5955 23.6491 41.4225 23.3832 41.2457 23.1182C41.069 22.8532 40.8923 22.59 40.7146 22.3268L40.4933 22.004L40.2701 21.6811C40.1956 21.5747 40.1212 21.4674 40.0459 21.361C39.8965 21.147 39.7458 20.9343 39.5939 20.7227L39.366 20.4064C39.3474 20.3812 39.3288 20.356 39.3092 20.3317C39.1037 20.0557 38.8692 19.8026 38.6098 19.5768C38.366 19.3637 38.1 19.1776 37.8164 19.0216L37.715 18.9684L37.6815 18.9507L37.6592 18.9404C37.6406 18.9311 37.622 18.9208 37.6025 18.9124C37.5829 18.904 37.5392 18.8816 37.5095 18.8676C37.4797 18.8536 37.4434 18.8368 37.4099 18.8228L37.3951 18.8163L37.2537 18.7566C37.2053 18.737 37.156 18.7183 37.1058 18.6996C36.9505 18.6427 36.7924 18.5933 36.6296 18.5494C36.5229 18.5202 36.4141 18.495 36.3031 18.4738C36.2473 18.4626 36.1924 18.4524 36.1366 18.443C36.025 18.4234 35.9125 18.4085 35.799 18.3964C35.7804 18.374 31.5837 18.0623 29.2389 18.0371H28.9598C26.669 18.0427 22.1998 18.373 22.1812 18.3973C21.7345 18.4444 21.2954 18.5463 20.8734 18.7006C20.6766 18.7739 20.4838 18.8577 20.2958 18.9516C19.6267 19.2947 19.0493 19.794 18.6123 20.4073C18.3066 20.8291 18.0049 21.254 17.7073 21.682C17.5576 21.8967 17.4097 22.1113 17.2627 22.3278C16.5434 23.3779 15.8511 24.4451 15.1858 25.5295L14.9393 25.9391C14.7588 26.2371 14.5806 26.5363 14.4045 26.8368C14.4012 26.8423 14.3964 26.8466 14.3906 26.8492C14.3848 26.8518 14.3784 26.8525 14.3722 26.8513C14.3659 26.8501 14.3603 26.8469 14.3559 26.8423C14.3515 26.8378 14.3487 26.8319 14.3477 26.8256C14.2236 26.1541 13.9267 25.5269 13.4864 25.006C13.3516 24.8466 13.1665 24.7383 12.9619 24.6989C12.5898 24.6262 12.1415 24.5851 12.1415 24.5851H12.1024C11.3171 24.5841 10.5525 24.8374 9.92224 25.3074C9.48592 25.635 9.15193 26.0808 8.95957 26.5923C8.88172 26.7982 8.82227 27.0105 8.78192 27.2269C8.70174 27.6562 8.6989 28.0965 8.77355 28.5268C8.78684 28.6009 8.81887 28.6703 8.86656 28.7283C9.43143 29.4371 10.168 29.9887 11.0058 30.3306C11.3571 30.4737 11.723 30.5776 12.0969 30.6404C12.1471 30.6497 12.1973 30.6572 12.2485 30.6637C12.2534 30.6644 12.258 30.6662 12.2621 30.669C12.2661 30.6719 12.2694 30.6756 12.2717 30.68C12.274 30.6844 12.2752 30.6893 12.2752 30.6943C12.2752 30.6992 12.274 30.7041 12.2717 30.7085C12.2131 30.8233 12.1545 30.9362 12.0969 31.051L12.0392 31.1639L11.8532 31.5372C11.7908 31.6603 11.7295 31.7845 11.6671 31.9104C11.5909 32.0635 11.5165 32.2174 11.4411 32.3705C10.8751 33.5377 10.5649 34.813 10.5315 36.1106C10.5315 36.2972 10.5231 36.4839 10.5203 36.6705V36.9448C10.5203 36.9448 10.5203 37.2687 10.5203 37.431C10.5203 37.7427 10.5203 38.0553 10.5277 38.3642L10.5389 38.8522C10.5389 38.8522 10.5649 39.6575 10.5845 40.0588C10.6465 41.318 10.7528 42.5656 10.9035 43.8017C10.9046 43.8085 10.9034 43.8155 10.9001 43.8215C10.8967 43.8275 10.8915 43.8323 10.8852 43.8349C10.8789 43.8376 10.8718 43.8381 10.8652 43.8363C10.8586 43.8345 10.8527 43.8306 10.8486 43.8251C10.3459 43.1994 9.87525 42.5485 9.43858 41.8747C9.1921 41.494 8.95585 41.1077 8.73076 40.7111C8.60892 40.4965 8.49079 40.279 8.37453 40.0579L8.26943 39.8572C8.26943 39.8572 7.7839 38.87 7.56626 38.3642C7.32815 37.8093 7.11112 37.2441 6.91518 36.6686C6.0804 34.2154 5.65581 31.6406 5.65859 29.0484C5.65819 27.9355 5.73839 26.8239 5.89856 25.7226C6.03111 24.7957 6.2206 23.8779 6.46593 22.9745C6.63521 22.3436 6.83085 21.7215 7.05283 21.1081C8.15718 18.0579 9.87647 15.2687 12.1034 12.915C14.067 10.8374 16.3964 9.14168 18.9741 7.91322C19.3313 7.74338 19.695 7.58195 20.0614 7.43077C22.8841 6.26846 25.9059 5.67092 28.9571 5.67176H29.1105C29.1794 5.67176 29.2482 5.67176 29.317 5.67176C29.441 5.67176 29.565 5.67456 29.6891 5.68016L29.9114 5.68763C30.0974 5.69509 30.2834 5.70473 30.4694 5.71655C30.5671 5.72215 30.6647 5.72962 30.7624 5.73708L31.0033 5.75575L31.3688 5.79027C31.5549 5.80894 31.7409 5.82978 31.9269 5.8528L32.1399 5.87986L32.2329 5.89292C32.4431 5.92092 32.6515 5.95358 32.8598 5.98624L33.0672 6.02077H33.084C33.3283 6.06369 33.5717 6.11035 33.8141 6.16074C33.9574 6.1906 34.0997 6.2214 34.241 6.25406C34.2745 6.26277 34.308 6.27023 34.3415 6.27645C34.4847 6.31098 34.6289 6.34551 34.7721 6.3819L35.0093 6.44349L35.213 6.49854C35.5485 6.59559 35.8833 6.69917 36.2175 6.80929C36.3505 6.85221 36.4826 6.89701 36.6138 6.9418H36.6184L36.9449 7.05751C37.2704 7.17509 37.5919 7.29951 37.9094 7.43077C38.0024 7.4681 38.0954 7.50636 38.1884 7.54555C38.3745 7.62394 38.5521 7.70512 38.7316 7.78724C38.8247 7.8283 38.9112 7.87123 39.0004 7.91322C39.8119 8.29865 40.5999 8.73209 41.3601 9.21125C43.014 10.2516 44.5306 11.4969 45.874 12.9178C46.0811 13.138 46.2848 13.3616 46.4851 13.5887C46.8832 14.0441 47.2636 14.5138 47.6263 14.9978C48.0486 15.5633 48.4455 16.1465 48.8169 16.7475C48.975 17.005 49.13 17.2657 49.2819 17.5295C49.481 17.8816 49.6707 18.2384 49.8512 18.5998C49.9442 18.7799 50.0288 18.9619 50.1153 19.1457C50.4139 19.7868 50.6864 20.4428 50.9273 21.1109C51.0389 21.4161 51.1422 21.724 51.2408 22.0357C51.2659 22.1132 51.2891 22.1906 51.3133 22.269C51.384 22.5032 51.4519 22.7356 51.5151 22.9745C51.5458 23.0864 51.5756 23.1994 51.6082 23.3123C51.6937 23.6507 51.7722 23.9929 51.8435 24.3387C51.9384 24.7972 52.0193 25.2595 52.0862 25.7254C52.1058 25.8607 52.1244 25.9979 52.142 26.1351C52.1597 26.2723 52.1755 26.4094 52.1904 26.5466C52.2806 27.3784 52.3259 28.2145 52.3262 29.0512C52.315 29.0811 52.315 29.1119 52.3141 29.1473H52.3151Z" fill="#4F4ED6"/>
</svg>
