<?xml version="1.0" encoding="utf-8"?>
<!-- Generator: Adobe Illustrator 13.0.0, SVG Export Plug-In . SVG Version: 6.00 Build 14948)  -->
<!DOCTYPE svg PUBLIC "-//W3C//DTD SVG 1.0//EN" "http://www.w3.org/TR/2001/REC-SVG-20010904/DTD/svg10.dtd">
<svg version="1.0" id="Layer_1" xmlns="http://www.w3.org/2000/svg" xmlns:xlink="http://www.w3.org/1999/xlink" x="0px" y="0px"
	 width="273.457px" height="88.956px" viewBox="47.97 156.339 273.457 88.956"
	 enable-background="new 47.97 156.339 273.457 88.956" xml:space="preserve">
<g>
	<g>
		<g>
			<path fill="#1C4FA2" d="M97.129,157.949h15.679v53.759c0,10.617-2.132,18.426-6.388,23.43
				c-5.733,6.769-14.369,10.157-25.907,10.157c-6.158,0-11.334-0.774-15.519-2.318c-4.189-1.535-7.729-3.796-10.618-6.777
				c-2.88-2.973-5.017-6.596-6.406-10.865h17.377c1.531,1.77,3.508,3.102,5.928,3.999c2.429,0.907,5.295,1.362,8.6,1.362
				c4.234,0,7.636-0.654,10.21-1.964c2.57-1.31,4.389-3.004,5.451-5.079c1.062-2.079,1.592-5.648,1.592-10.723
				c-2.774,2.773-5.68,4.769-8.724,5.98c-3.035,1.203-6.472,1.805-10.316,1.805c-8.423,0-15.537-3.034-21.341-9.113
				c-5.805-6.073-8.707-13.767-8.707-23.075c0-9.953,3.07-17.951,9.219-23.995c5.579-5.459,12.232-8.193,19.961-8.193
				c3.61,0,7.017,0.668,10.229,2c3.22,1.323,6.445,3.503,9.679,6.547V157.949z M80.796,171.044c-4.955,0-9.051,1.663-12.281,4.99
				c-3.234,3.327-4.849,7.512-4.849,12.546c0,5.237,1.65,9.533,4.955,12.882c3.313,3.341,7.468,5.009,12.458,5.009
				c4.884,0,8.91-1.633,12.086-4.902c3.172-3.265,4.76-7.556,4.76-12.865c0-5.224-1.602-9.471-4.795-12.74
				C89.945,172.685,85.83,171.044,80.796,171.044z"/>
		</g>
	</g>
</g>
<g>
	<g>
		<g>
			<path fill="#1C4FA2" d="M158.216,156.339c5.919,0,11.485,1.482,16.687,4.441c5.211,2.964,9.277,6.985,12.192,12.068
				c2.925,5.074,4.389,10.547,4.389,16.421c0,5.924-1.469,11.463-4.406,16.617c-2.938,5.158-6.95,9.184-12.033,12.086
				c-5.074,2.902-10.666,4.353-16.775,4.353c-9.003,0-16.687-3.193-23.058-9.591c-6.362-6.406-9.538-14.183-9.538-23.341
				c0-9.803,3.597-17.969,10.794-24.508C142.767,159.188,150.014,156.339,158.216,156.339z M158.446,171.168
				c-4.884,0-8.954,1.708-12.21,5.114c-3.247,3.397-4.866,7.75-4.866,13.059c0,5.464,1.602,9.888,4.813,13.271
				c3.208,3.376,7.273,5.062,12.192,5.062c4.928,0,9.029-1.708,12.299-5.132c3.265-3.42,4.902-7.821,4.902-13.201
				c0-5.388-1.61-9.768-4.831-13.13C167.532,172.849,163.436,171.168,158.446,171.168z"/>
		</g>
	</g>
</g>
<g>
	<g>
		<g>
			<path fill="#F36E32" d="M201.636,157.949h48.167l-28.277,49.441h26.649v13.324H197.3l28.384-49.441h-24.048V157.949z"/>
		</g>
	</g>
</g>
<g>
	<g>
		<g>
			<path fill="#1C4FA2" d="M288.159,156.339c5.919,0,11.484,1.482,16.687,4.441c5.212,2.964,9.277,6.985,12.192,12.068
				c2.925,5.074,4.389,10.547,4.389,16.421c0,5.924-1.469,11.463-4.406,16.617c-2.938,5.158-6.95,9.184-12.033,12.086
				c-5.074,2.902-10.666,4.353-16.775,4.353c-9.003,0-16.688-3.193-23.058-9.591c-6.361-6.406-9.538-14.183-9.538-23.341
				c0-9.803,3.597-17.969,10.794-24.508C272.71,159.188,279.957,156.339,288.159,156.339z M288.389,171.168
				c-4.884,0-8.954,1.708-12.21,5.114c-3.247,3.397-4.866,7.75-4.866,13.059c0,5.464,1.602,9.888,4.813,13.271
				c3.207,3.376,7.272,5.062,12.192,5.062c4.928,0,9.029-1.708,12.298-5.132c3.266-3.42,4.902-7.821,4.902-13.201
				c0-5.388-1.61-9.768-4.831-13.13C297.476,172.849,293.379,171.168,288.389,171.168z"/>
		</g>
	</g>
</g>
<g>
	<defs>
		<rect id="SVGID_1_" x="278.81" y="174.848" width="18.687" height="26.332"/>
	</defs>
	<clipPath id="SVGID_2_">
		<use xlink:href="#SVGID_1_"  overflow="visible"/>
	</clipPath>
	<g clip-path="url(#SVGID_2_)">
		<path fill="#1C4FA2" d="M288.154,174.853c-5.163,0-9.344,4.127-9.344,9.21c0,6.91,9.344,17.112,9.344,17.112
			s9.343-10.202,9.343-17.112C297.496,178.98,293.312,174.853,288.154,174.853z M288.154,187.354c-1.845,0-3.34-1.473-3.34-3.292
			c0-1.814,1.495-3.287,3.34-3.287c1.84,0,3.336,1.473,3.336,3.287C291.49,185.881,289.993,187.354,288.154,187.354z"/>
	</g>
</g>
</svg>
