<svg width="26" height="11" viewBox="0 0 26 11" fill="none" xmlns="http://www.w3.org/2000/svg">
<path fill-rule="evenodd" clip-rule="evenodd" d="M18.2296 9.1142H6.86501C6.71377 9.1142 6.59104 8.98975 6.59104 8.83613C6.59104 8.6825 6.71372 8.55801 6.86493 8.55801L18.2296 8.558C18.3808 8.558 18.5035 8.68255 18.5035 8.83613C18.5036 8.98971 18.3808 9.11425 18.2296 9.1142ZM23.8355 9.1142H21.9438C21.7927 9.1142 21.6699 8.98975 21.6699 8.83613C21.6699 8.6825 21.7926 8.55801 21.9438 8.55801L23.8355 8.558C24.3222 8.558 24.4808 8.10997 24.5281 7.73409C24.6531 6.74023 24.0825 5.39632 23.1592 5.15319C22.8198 5.06371 22.1675 4.95151 21.477 4.83273C19.7116 4.52914 18.4316 4.29127 18.0338 3.99311C14.6136 1.42857 8.54542 1.02144 5.0486 3.12185C4.934 3.19229 2.27024 4.81945 0.838526 5.13002C0.6885 5.56472 0.282716 7.00085 0.826542 8.55801L3.15078 8.558C3.30203 8.558 3.4246 8.68255 3.4246 8.83613C3.42463 8.98971 3.30193 9.11425 3.15071 9.11425L0.637781 9.1142C0.525294 9.1142 0.424824 9.04501 0.383154 8.93943C-0.463052 6.79055 0.351221 4.85473 0.386596 4.77339C0.42425 4.6859 0.503574 4.62425 0.596586 4.61C1.87136 4.41409 4.73876 2.66207 4.7673 2.64441C6.59282 1.54807 9.0493 1.05325 11.6873 1.24962C14.234 1.43928 16.666 2.2762 18.3591 3.54563C18.6827 3.78795 20.419 4.08667 21.5683 4.28431C22.3016 4.41038 22.9344 4.51927 23.2973 4.61481C24.5379 4.9417 25.2283 6.5582 25.0714 7.8045C24.9687 8.62461 24.5064 9.11425 23.8355 9.1142Z" fill="#4B5362"/>
<path fill-rule="evenodd" clip-rule="evenodd" d="M5.03956 4.30029H16.6856C15.1089 3.38075 13.0095 2.81823 10.8827 2.76678C8.82571 2.71658 6.93513 3.14902 5.55993 3.98332L5.51834 4.00872C5.37171 4.0986 5.21128 4.19694 5.03956 4.30029ZM17.6082 4.85649H3.99819C3.87211 4.85649 3.76302 4.76969 3.7322 4.64587C3.70199 4.52205 3.75846 4.39302 3.86916 4.33298C4.39017 4.0511 4.85864 3.76366 5.23468 3.53265L5.27747 3.5065C6.74178 2.6183 8.73719 2.1584 10.8959 2.21068C13.494 2.27355 16.064 3.07508 17.7708 4.3547C17.8661 4.42602 17.9055 4.55129 17.8684 4.66539C17.8313 4.77944 17.7263 4.85654 17.6082 4.85649Z" fill="#4B5362"/>
<path fill-rule="evenodd" clip-rule="evenodd" d="M10.8896 4.85658C10.7379 4.85658 10.6157 4.7321 10.6157 4.57849L10.6158 2.4888C10.6158 2.33515 10.7378 2.21069 10.8896 2.21069C11.0409 2.21066 11.1635 2.3352 11.1635 2.48881L11.1636 4.57844C11.1636 4.73207 11.0408 4.85663 10.8896 4.85658Z" fill="#4B5362"/>
<path fill-rule="evenodd" clip-rule="evenodd" d="M13.1486 5.84582H12.0211C11.8698 5.84582 11.7471 5.72127 11.7471 5.56767C11.7472 5.41404 11.8698 5.28957 12.021 5.28957L13.1486 5.28955C13.3003 5.28955 13.4224 5.41407 13.4224 5.56767C13.4224 5.72125 13.3003 5.84586 13.1486 5.84582Z" fill="#4B5362"/>
<path fill-rule="evenodd" clip-rule="evenodd" d="M6.39907 5.84582H5.27153C5.12027 5.84582 4.99756 5.72127 4.99756 5.56767C4.99767 5.41404 5.12022 5.28957 5.27146 5.28957L6.39907 5.28955C6.5503 5.28955 6.67292 5.41407 6.67292 5.56767C6.67292 5.72125 6.55024 5.84586 6.39907 5.84582Z" fill="#4B5362"/>
<path fill-rule="evenodd" clip-rule="evenodd" d="M20.0869 7.22848C19.2138 7.22848 18.5039 7.94972 18.5039 8.83616C18.5039 9.72264 19.2137 10.4438 20.0868 10.4438C20.9599 10.4438 21.6703 9.72264 21.6703 8.83616C21.6703 7.94965 20.9598 7.22853 20.0869 7.22848ZM20.0869 11.0001C18.912 11.0001 17.9561 10.0293 17.9561 8.83616C17.9561 7.64299 18.9119 6.67224 20.0868 6.67224C21.2623 6.67221 22.2181 7.64299 22.2181 8.83616C22.2182 10.0293 21.2623 11.0001 20.0869 11.0001Z" fill="#4B5362"/>
<path fill-rule="evenodd" clip-rule="evenodd" d="M20.0867 8.27457C19.7819 8.27457 19.5337 8.52654 19.5337 8.83612C19.5337 9.14568 19.7819 9.39762 20.0866 9.39762C20.3919 9.3976 20.6401 9.14571 20.6401 8.83612C20.6402 8.52651 20.3919 8.27462 20.0867 8.27457ZM20.0867 9.95382C19.48 9.95382 18.9858 9.45244 18.9858 8.83612C18.9859 8.21974 19.48 7.71838 20.0866 7.71838C20.6939 7.71835 21.1879 8.21979 21.1879 8.83612C21.1879 9.45243 20.6937 9.95386 20.0867 9.95382Z" fill="#4B5362"/>
<path fill-rule="evenodd" clip-rule="evenodd" d="M5.00834 7.22848C4.13529 7.22848 3.42473 7.94972 3.42473 8.83616C3.42476 9.72264 4.13517 10.4438 5.00823 10.4438C5.8814 10.4438 6.59117 9.72264 6.59117 8.83616C6.59117 7.94965 5.8813 7.22853 5.00834 7.22848ZM5.00834 11.0001C3.83279 11.0001 2.87695 10.0293 2.87695 8.83616C2.87705 7.64299 3.83274 6.67224 5.00823 6.67224C6.18325 6.67221 7.13896 7.64299 7.13896 8.83616C7.13899 10.0293 6.18316 11.0001 5.00834 11.0001Z" fill="#4B5362"/>
<path fill-rule="evenodd" clip-rule="evenodd" d="M5.00856 8.27457C4.70325 8.27457 4.45552 8.52654 4.45552 8.83612C4.45559 9.14568 4.70318 9.39762 5.00845 9.39762C5.31324 9.3976 5.56139 9.14571 5.56139 8.83612C5.56142 8.52651 5.31317 8.27462 5.00856 8.27457ZM5.00856 9.95382C4.40141 9.95382 3.90771 9.45244 3.90771 8.83612C3.90775 8.21974 4.40131 7.71838 5.00845 7.71838C5.61509 7.71835 6.1092 8.21979 6.1092 8.83612C6.10926 9.45243 5.61504 9.95386 5.00856 9.95382Z" fill="#4B5362"/>
<path fill-rule="evenodd" clip-rule="evenodd" d="M23.8406 6.74203C23.5934 6.74203 23.356 6.68779 23.1306 6.57921C22.1531 6.10866 21.7839 4.77662 21.7691 4.72013C21.7292 4.57196 21.8147 4.41908 21.9608 4.3785C22.1069 4.33788 22.257 4.42509 22.2975 4.57294C22.3003 4.58436 22.617 5.71779 23.3668 6.07739C23.6973 6.23583 24.0619 6.22078 24.4813 6.03138C24.6194 5.96876 24.7814 6.03213 24.8431 6.17251C24.9042 6.31281 24.8419 6.47723 24.7038 6.53963C24.4048 6.67459 24.1166 6.74208 23.8406 6.74203Z" fill="#4B5362"/>
<path fill-rule="evenodd" clip-rule="evenodd" d="M0.306015 6.58491C0.167366 6.58491 0.0486014 6.47884 0.0337825 6.33601C0.0177996 6.18317 0.126762 6.04635 0.277427 6.03019C0.876086 5.96599 1.29428 5.7693 1.52083 5.44546C1.81127 5.02925 1.69715 4.51656 1.69601 4.51145C1.66184 4.36248 1.75191 4.21249 1.89858 4.17667C2.0447 4.14085 2.19188 4.23097 2.22838 4.37954C2.23587 4.41 2.40529 5.13387 1.97218 5.76019C1.65156 6.22425 1.10085 6.50132 0.335063 6.58335C0.325424 6.5844 0.315671 6.58491 0.306015 6.58491Z" fill="#4B5362"/>
<path fill-rule="evenodd" clip-rule="evenodd" d="M11.9817 1.83222C11.8304 1.83222 11.7077 1.70771 11.7077 1.55413V0.669223C11.7077 0.607953 11.6569 0.556254 11.5964 0.556254H10.0107C9.95025 0.556254 9.89936 0.608003 9.89936 0.669239L9.89942 1.51863C9.89942 1.67219 9.77666 1.79678 9.62547 1.79678C9.47431 1.79676 9.35156 1.67224 9.35156 1.51866L9.35158 0.669223C9.35158 0.300223 9.64712 3.30174e-05 10.0106 3.30174e-05L11.5965 0C11.96 0 12.2555 0.300223 12.2555 0.669239L12.2555 1.5541C12.2555 1.70766 12.1328 1.83223 11.9817 1.83222Z" fill="#4B5362"/>
</svg>
