<svg width="15" height="15" viewBox="0 0 15 15" fill="none" xmlns="http://www.w3.org/2000/svg">
<path d="M9.44803 3.61215L12.6115 6.7756C12.7686 6.93288 12.8568 7.14608 12.8568 7.36836C12.8568 7.59065 12.7686 7.80385 12.6115 7.96113L9.44859 11.1251C9.29123 11.2825 9.0778 11.3709 8.85526 11.3709C8.63273 11.3709 8.4193 11.2825 8.26194 11.1251C8.10458 10.9678 8.01618 10.7544 8.01618 10.5318C8.01618 10.3093 8.10458 10.0959 8.26194 9.9385L9.99326 8.20718H3.54276C3.3203 8.20718 3.10694 8.1188 2.94963 7.9615C2.79232 7.80419 2.70395 7.59083 2.70395 7.36836C2.70395 7.1459 2.79232 6.93254 2.94963 6.77523C3.10694 6.61792 3.3203 6.52955 3.54276 6.52955H9.99326L8.2625 4.79823C8.10522 4.64087 8.01688 4.42748 8.01694 4.20499C8.01699 3.9825 8.10542 3.76915 8.26278 3.61187C8.42014 3.45458 8.63353 3.36625 8.85602 3.3663C9.07851 3.36635 9.29186 3.45479 9.44915 3.61215H9.44803Z" fill="#4F4ED6"/>
</svg>
