<?xml version="1.0" encoding="utf-8"?>
<!-- Generator: Adobe Illustrator 13.0.0, SVG Export Plug-In . SVG Version: 6.00 Build 14948)  -->
<!DOCTYPE svg PUBLIC "-//W3C//DTD SVG 1.1//EN" "http://www.w3.org/Graphics/SVG/1.1/DTD/svg11.dtd">
<svg version="1.1" id="Layer_1" xmlns="http://www.w3.org/2000/svg" xmlns:xlink="http://www.w3.org/1999/xlink" x="0px" y="0px"
	 width="1440px" height="720px" viewBox="0 0 1440 720" enable-background="new 0 0 1440 720" xml:space="preserve">
<g>
	<g>
		<path fill="#0D4DA7" d="M1075.606,349.394l-225-225c-5.86-5.86-15.353-5.86-21.211,0c-5.859,5.859-5.859,15.352,0,21.21
			L1028.789,345H375c-8.291,0-15,6.709-15,15c0,8.292,6.709,15.001,15,15.001h653.789L829.395,574.394
			c-5.859,5.859-5.859,15.352,0,21.211c2.93,2.929,6.769,4.395,10.605,4.395c3.838,0,7.676-1.466,10.606-4.395l225-225.001
			C1081.465,364.746,1081.465,355.254,1075.606,349.394z"/>
	</g>
</g>
</svg>
