<?xml version="1.0" encoding="utf-8"?>
<!-- Generator: Adobe Illustrator 13.0.0, SVG Export Plug-In . SVG Version: 6.00 Build 14948)  -->
<!DOCTYPE svg PUBLIC "-//W3C//DTD SVG 1.1//EN" "http://www.w3.org/Graphics/SVG/1.1/DTD/svg11.dtd">
<svg version="1.1" id="Layer_1" xmlns="http://www.w3.org/2000/svg" xmlns:xlink="http://www.w3.org/1999/xlink" x="0px" y="0px"
	 width="1440px" height="720px" viewBox="0 0 1440 720" enable-background="new 0 0 1440 720" xml:space="preserve">
<path fill="#FBBB00" d="M519.567,435.105l-25.062,93.561l-91.603,1.938C375.528,479.828,360,421.734,360,360
	c0-59.696,14.518-115.991,40.252-165.561h0.02l81.552,14.951l35.724,81.063c-7.477,21.798-11.552,45.198-11.552,69.547
	C505.998,386.427,510.785,411.746,519.567,435.105z"/>
<path fill="#518EF8" d="M1073.709,292.748c4.135,21.777,6.291,44.267,6.291,67.252c0,25.774-2.71,50.915-7.873,75.166
	c-17.524,82.522-63.316,154.582-126.751,205.575l-0.02-0.02l-102.718-5.241l-14.538-90.752
	c42.092-24.686,74.987-63.316,92.314-109.563H727.914V292.748h195.31H1073.709L1073.709,292.748z"/>
<path fill="#28B446" d="M945.356,640.721l0.02,0.02C883.682,690.33,805.311,720,720,720c-137.098,0-256.292-76.628-317.098-189.395
	l116.664-95.499C549.969,516.245,628.24,574.004,720,574.004c39.44,0,76.392-10.662,108.098-29.275L945.356,640.721z"/>
<path fill="#ED3E3A" d="M949.786,82.879l-116.624,95.479c-32.815-20.511-71.605-32.36-113.162-32.36
	c-93.838,0-173.572,60.408-202.451,144.456l-117.277-96.014h-0.02C460.167,78.923,580.865,0,720,0
	C807.349,0,887.439,31.115,949.786,82.879z"/>
</svg>
