<svg width="19" height="18" viewBox="0 0 19 18" fill="none" xmlns="http://www.w3.org/2000/svg">
<path d="M3.79948 14.8282L3.79963 14.8279L4.99238 12.5384L5.04894 12.4298V12.3074V7.52232C5.04894 5.10778 7.01437 3.14258 9.429 3.14258C11.8438 3.14258 13.8092 5.10778 13.8092 7.52232V12.3074V12.4297L13.8657 12.5382L15.0191 14.7538L15.0283 14.7716L15.039 14.7886C15.0704 14.8387 15.0711 14.8649 15.0712 14.8681C15.0712 14.8716 15.0709 14.8732 15.0685 14.877C15.065 14.8826 15.057 14.8915 15.044 14.8987C15.0309 14.906 15.0206 14.9073 15.017 14.9073H3.84778C3.83481 14.9073 3.82727 14.9043 3.8218 14.9011C3.81512 14.8972 3.80773 14.8904 3.80184 14.8807C3.79594 14.871 3.7934 14.8614 3.79302 14.8538C3.79271 14.8475 3.79353 14.8396 3.79948 14.8282ZM8.05709 8.7443C7.969 8.65406 7.86476 8.57525 7.74402 8.51192C7.76276 8.50999 7.7817 8.50761 7.80065 8.50469C7.86749 8.49441 7.96116 8.47376 8.05769 8.42487C8.05729 8.43845 8.05709 8.45207 8.05709 8.46574V8.7443ZM7.65234 8.08926C7.65229 8.0893 7.65096 8.0891 7.64853 8.08853L7.64858 8.08853C7.6512 8.08894 7.65239 8.08922 7.65234 8.08926ZM5.96606 10.3389C5.96606 10.4978 6.01377 10.6621 6.12841 10.7959L5.87436 11.0499H6.67014C6.7504 11.0572 6.82623 11.0565 6.88413 11.0552C6.92548 11.0543 6.9563 11.0531 6.98302 11.0521C7.01144 11.0511 7.03523 11.0502 7.06213 11.0499H7.08147C7.6474 11.0499 8.04264 10.7647 8.25155 10.3793C8.49132 10.7791 8.92894 11.0471 9.42847 11.0471H9.42858C9.84095 11.0471 10.2111 10.8644 10.4626 10.5758C10.4978 10.6804 10.559 10.7794 10.652 10.8617C10.7857 10.98 10.9387 11.0214 11.0404 11.0386V11.0499H11.1289C11.2091 11.0572 11.285 11.0565 11.3429 11.0552C11.3842 11.0543 11.4151 11.0531 11.4418 11.0521C11.4702 11.0511 11.494 11.0502 11.5209 11.0499H11.5404C13.0191 11.0499 13.3315 9.10426 12.2027 8.51193C12.2215 8.51 12.2405 8.50762 12.2595 8.5047C12.3605 8.48915 12.5229 8.44992 12.6638 8.32521C12.8255 8.18204 12.891 7.98856 12.891 7.80245C12.891 7.61642 12.8256 7.42292 12.6639 7.27971C12.523 7.15492 12.3606 7.11569 12.2595 7.10015C12.1535 7.08385 12.0481 7.08439 11.973 7.08611C11.9317 7.08706 11.9009 7.08819 11.8741 7.08918C11.8391 7.09047 11.811 7.09151 11.7755 7.09151C11.2135 7.09151 10.817 7.37722 10.6062 7.76309C10.3664 7.36263 9.92829 7.09425 9.42837 7.09425C9.01597 7.09425 8.64577 7.27692 8.39427 7.56562C8.3591 7.46101 8.29797 7.36204 8.20498 7.2797C8.06407 7.15492 7.90163 7.11569 7.80055 7.10015C7.69452 7.08385 7.58919 7.08439 7.51405 7.08611C7.47272 7.08705 7.4419 7.08819 7.41517 7.08918C7.38006 7.09047 7.352 7.09151 7.31645 7.09151C5.8514 7.09151 5.51069 9.03382 6.65432 9.6294C6.63556 9.63133 6.61662 9.6337 6.59765 9.63662C6.4966 9.65217 6.33422 9.69138 6.19334 9.81604C6.03159 9.95917 5.96606 10.1527 5.96606 10.3389ZM11.0565 9.63662C10.9896 9.6469 10.8959 9.66753 10.7994 9.71641C10.7998 9.70285 10.8 9.68924 10.8 9.67558V9.39928C10.8881 9.48843 10.9924 9.56643 11.1133 9.62938C11.0945 9.63131 11.0755 9.63369 11.0565 9.63662ZM12.1113 8.08926C12.1112 8.0893 12.1099 8.0891 12.1075 8.08853L12.1075 8.08853C12.1101 8.08894 12.1113 8.08922 12.1113 8.08926ZM10.6308 16.8313C10.306 17.2641 9.86694 17.5002 9.42847 17.5003H9.42837C8.99041 17.5002 8.55141 17.2642 8.22635 16.8313H10.6308Z" fill="#475F7B" stroke="#475F7B"/>
<path fill-rule="evenodd" clip-rule="evenodd" d="M9.43003 3.75091C8.39591 3.75091 7.55469 2.90968 7.55469 1.87556C7.55469 0.841433 8.39591 0 9.43003 0C10.4644 0 11.3058 0.841644 11.3058 1.87577C11.3058 2.90989 10.4645 3.75101 9.43003 3.75101V3.75091ZM9.43003 1.10869C9.00742 1.10869 8.66359 1.45284 8.66359 1.87566C8.66359 2.29849 9.00731 2.64221 9.43003 2.64221C9.85318 2.64221 10.1966 2.29838 10.1966 1.87566C10.1966 1.45294 9.85307 1.10869 9.43003 1.10869ZM17.0746 8.03496C16.6685 8.03496 16.3902 7.60021 16.5823 7.22696C17.6552 5.14278 16.834 2.57756 14.7498 1.50483C14.1009 1.17081 14.6084 0.186048 15.2571 0.51933C17.887 1.87028 18.9189 5.10724 17.5679 7.73448C17.4699 7.92506 17.2761 8.03485 17.0746 8.03485V8.03496Z" fill="#475F7B"/>
<path fill-rule="evenodd" clip-rule="evenodd" d="M15.6847 7.31924C15.2786 7.31924 15.0001 6.88449 15.1923 6.51124C15.8708 5.1934 15.3509 3.57329 14.0338 2.89523C13.3852 2.56131 13.8924 1.57602 14.5412 1.90972C16.401 2.86622 17.1373 5.15975 16.1779 7.01949C16.0796 7.20955 15.8859 7.31924 15.6847 7.31924ZM1.78431 8.03495C1.58329 8.03495 1.38922 7.92516 1.29114 7.73426C-0.0602409 5.1066 0.972197 1.87091 3.60186 0.519217C4.25144 0.185302 4.7577 1.17144 4.10917 1.50472C2.02415 2.57618 1.20444 5.1433 2.27674 7.22632C2.4688 7.59947 2.18984 8.03495 1.7842 8.03495H1.78431Z" fill="#475F7B"/>
<path fill-rule="evenodd" clip-rule="evenodd" d="M3.17358 7.31923C2.97266 7.31923 2.7786 7.20954 2.68041 7.01864C1.72317 5.15722 2.4546 2.86706 4.31719 1.90887C4.96603 1.57506 5.47323 2.56035 4.82439 2.89437C3.50665 3.57265 2.98817 5.19339 3.66602 6.51091C3.85818 6.88448 3.57932 7.31933 3.17348 7.31933L3.17358 7.31923Z" fill="#475F7B"/>
</svg>
