<svg width="257" height="112" viewBox="0 0 257 112" fill="none" xmlns="http://www.w3.org/2000/svg">
<path d="M8 50C8 44.4772 12.4772 40 18 40H249C249.552 40 250 40.4477 250 41V61H8V50Z" fill="#EAEAEA"/>
<rect x="36" y="85" width="37" height="17" fill="#EAEAEA"/>
<rect x="184" y="85" width="37" height="17" fill="#EAEAEA"/>
<path d="M54.2347 77.9502C50.3884 77.9502 47.2722 81.0714 47.2722 84.9182C47.2722 88.7646 50.3884 91.8863 54.2347 91.8863C58.0866 91.8863 61.2028 88.7651 61.2028 84.9182C61.2028 81.0714 58.0866 77.9502 54.2347 77.9502Z" fill="#8D8D8D"/>
<path d="M239.535 24.5452L190.576 4.92389C182.426 1.65518 173.84 0 165.054 0H135.044C124.292 0 113.541 2.57462 103.956 7.45134L59.5947 30.0101L27.7718 34.65C20.058 35.7747 13.0056 39.6421 7.90353 45.5432C2.80599 51.4397 0 58.9804 0 66.773V85.5537C0 88.4545 2.3543 90.8083 5.25464 90.8083H27.7979C28.9276 95.9214 31.5183 100.598 35.3436 104.329C40.4301 109.274 47.1407 112.001 54.2397 112.001C61.3337 112.001 68.0443 109.274 73.1308 104.329C76.9616 100.593 79.5573 95.9054 80.682 90.8083H174.864C175.994 95.9214 178.584 100.598 182.415 104.324C187.497 109.274 194.207 112.001 201.301 112.001C208.4 112.001 215.11 109.274 220.192 104.329C224.023 100.598 226.613 95.9209 227.743 90.8083H251.705C254.606 90.8083 256.96 88.454 256.96 85.5537V50.3045C256.96 38.9014 250.119 28.7916 239.535 24.5452ZM186.667 14.6768L224.459 29.8265H195.941L183.387 13.4789C184.486 13.8467 185.579 14.2462 186.667 14.6768ZM139.973 10.5098H165.054C166.01 10.5098 166.961 10.5308 167.907 10.578L182.689 29.8265H139.973V10.5098ZM108.717 16.8209C115.175 13.5366 122.253 11.4874 129.463 10.7883V29.8265H83.1417L108.717 16.8209ZM28.4759 45.1914C26.3163 52.5007 19.8687 57.9867 12.0601 58.733C14.7973 51.8653 20.9297 46.5841 28.4759 45.1914ZM54.2347 101.492C45.081 101.492 37.6612 94.072 37.6612 84.9183C37.6612 75.7646 45.081 68.3449 54.2347 68.3449C63.3884 68.3449 70.8081 75.7646 70.8081 84.9183C70.8086 94.072 63.3889 101.492 54.2347 101.492ZM201.307 101.492C192.153 101.492 184.728 94.072 184.728 84.9183C184.728 75.7646 192.153 68.3449 201.307 68.3449C210.46 68.3449 217.88 75.7646 217.88 84.9183C217.88 94.072 210.46 101.492 201.307 101.492ZM246.45 80.2991H227.985C225.783 67.5615 214.664 57.8346 201.301 57.8346C187.943 57.8346 176.824 67.5615 174.623 80.2991H80.9239C78.7222 67.5615 67.5976 57.8346 54.2402 57.8346C40.8773 57.8346 29.7582 67.5615 27.5565 80.2991H10.5098V69.3271C25.3969 69.1906 37.6823 57.9872 39.5162 43.5573L61.6127 40.3362H193.351C193.351 40.3362 193.351 40.3362 193.356 40.3362C193.356 40.3362 193.356 40.3362 193.361 40.3362H226.613V47.1778C226.613 56.7942 234.438 64.6185 244.049 64.6185H246.45V80.2991ZM246.45 54.1092H244.049C240.234 54.1092 237.123 50.9986 237.123 47.1783V40.3367H243.287C245.3 43.1849 246.45 46.6317 246.45 50.305V54.1092Z" fill="#8D8D8D"/>
<path d="M201.307 77.9502C197.455 77.9502 194.339 81.0714 194.339 84.9182C194.339 88.7646 197.455 91.8863 201.307 91.8863C205.153 91.8863 208.269 88.7651 208.269 84.9182C208.269 81.0714 205.153 77.9502 201.307 77.9502Z" fill="#8D8D8D"/>
<path d="M145.644 55.0637H110.791C107.888 55.0637 105.536 57.4165 105.536 60.3184C105.536 63.2202 107.889 65.573 110.791 65.573H145.644C148.546 65.573 150.898 63.2202 150.898 60.3184C150.898 57.4165 148.546 55.0637 145.644 55.0637Z" fill="#8D8D8D"/>
<path d="M54.2347 77.9502C50.3884 77.9502 47.2722 81.0714 47.2722 84.9182C47.2722 88.7646 50.3884 91.8863 54.2347 91.8863C58.0866 91.8863 61.2028 88.7651 61.2028 84.9182C61.2028 81.0714 58.0866 77.9502 54.2347 77.9502Z" fill="#8D8D8D"/>
<path d="M201.307 77.9502C197.455 77.9502 194.339 81.0714 194.339 84.9182C194.339 88.7646 197.455 91.8863 201.307 91.8863C205.153 91.8863 208.269 88.7651 208.269 84.9182C208.269 81.0714 205.153 77.9502 201.307 77.9502Z" fill="#8D8D8D"/>
<path d="M54.2347 77.9502C50.3884 77.9502 47.2722 81.0714 47.2722 84.9182C47.2722 88.7646 50.3884 91.8863 54.2347 91.8863C58.0866 91.8863 61.2028 88.7651 61.2028 84.9182C61.2028 81.0714 58.0866 77.9502 54.2347 77.9502Z" fill="#8D8D8D"/>
<path d="M201.307 77.9502C197.455 77.9502 194.339 81.0714 194.339 84.9182C194.339 88.7646 197.455 91.8863 201.307 91.8863C205.153 91.8863 208.269 88.7651 208.269 84.9182C208.269 81.0714 205.153 77.9502 201.307 77.9502Z" fill="#8D8D8D"/>
</svg>
