<?xml version="1.0" encoding="iso-8859-1"?>
<!-- Generator: Adobe Illustrator 21.0.0, SVG Export Plug-In . SVG Version: 6.00 Build 0)  -->
<svg version="1.1" id="road-trip-car-rental" xmlns="http://www.w3.org/2000/svg" xmlns:xlink="http://www.w3.org/1999/xlink"
	 x="0px" y="0px" viewBox="0 0 64 64" style="enable-background:new 0 0 64 64;" xml:space="preserve">
<path d="M22.899,58h21.202c0.465,2.279,2.484,4,4.899,4s4.434-1.721,4.899-4H61c0.553,0,1-0.448,1-1v-5
	c0-6.291-4.865-11.466-11.03-11.961C50.472,32.214,43.948,26,36,26h-1c-7.944,0-14.466,6.208-14.969,14.027
	c-3.782,0.213-7.229,1.678-9.955,3.973H10v0.061C6.335,47.182,4,51.82,4,57c0,0.552,0.447,1,1,1h8.101c0.465,2.279,2.484,4,4.899,4
	S22.434,60.279,22.899,58z M49,60c-1.654,0-3-1.346-3-3s1.346-3,3-3s3,1.346,3,3S50.654,60,49,60z M10,46.83V48H9.017
	C9.324,47.592,9.654,47.204,10,46.83z M7.754,50H11c0.553,0,1-0.448,1-1v-3.98c2.51-1.89,5.623-3.02,9-3.02c0.553,0,1-0.448,1-1
	c0-7.168,5.832-13,13-13h1c7.168,0,13,5.832,13,13c0,0.552,0.447,1,1,1c3.261,0,6.154,1.577,7.981,4H55v2h4.159
	C59.697,49.226,60,50.578,60,52v4h-6.101c0-0.001-0.001-0.002-0.001-0.003c-0.004-0.018-0.012-0.035-0.016-0.053
	c-0.062-0.288-0.15-0.565-0.259-0.832c-0.039-0.096-0.092-0.184-0.137-0.277c-0.088-0.182-0.179-0.361-0.288-0.531
	c-0.064-0.099-0.137-0.191-0.208-0.285c-0.112-0.149-0.227-0.293-0.354-0.429c-0.084-0.089-0.171-0.172-0.261-0.255
	c-0.134-0.124-0.274-0.239-0.422-0.348c-0.098-0.073-0.196-0.143-0.3-0.208c-0.159-0.1-0.325-0.187-0.495-0.269
	c-0.106-0.051-0.209-0.105-0.319-0.149c-0.192-0.077-0.393-0.133-0.596-0.185c-0.099-0.026-0.193-0.06-0.295-0.08
	C49.642,52.036,49.326,52,49,52s-0.642,0.036-0.95,0.096c-0.101,0.02-0.196,0.054-0.295,0.08c-0.203,0.053-0.404,0.109-0.596,0.185
	c-0.11,0.044-0.213,0.098-0.319,0.149c-0.17,0.082-0.336,0.169-0.495,0.269c-0.104,0.065-0.202,0.136-0.3,0.208
	c-0.147,0.109-0.287,0.224-0.422,0.348c-0.09,0.083-0.177,0.166-0.261,0.255c-0.127,0.135-0.242,0.28-0.354,0.429
	c-0.071,0.094-0.144,0.186-0.208,0.285c-0.109,0.169-0.2,0.348-0.288,0.531c-0.045,0.093-0.098,0.181-0.137,0.277
	c-0.109,0.267-0.197,0.544-0.259,0.832c-0.004,0.018-0.012,0.035-0.016,0.053c0,0.001-0.001,0.002-0.001,0.003H22.899
	c0-0.001-0.001-0.002-0.001-0.003c-0.004-0.018-0.012-0.035-0.016-0.053c-0.062-0.288-0.15-0.565-0.259-0.832
	c-0.039-0.096-0.092-0.184-0.137-0.277c-0.088-0.182-0.179-0.361-0.288-0.531c-0.064-0.099-0.137-0.191-0.208-0.285
	c-0.112-0.149-0.227-0.293-0.354-0.429c-0.084-0.089-0.171-0.172-0.261-0.255c-0.134-0.124-0.274-0.239-0.422-0.348
	c-0.098-0.073-0.196-0.143-0.3-0.208c-0.159-0.1-0.325-0.187-0.495-0.269c-0.106-0.051-0.209-0.105-0.319-0.149
	c-0.192-0.077-0.393-0.133-0.596-0.185c-0.099-0.026-0.193-0.06-0.295-0.08C18.642,52.036,18.326,52,18,52s-0.642,0.036-0.95,0.096
	c-0.101,0.02-0.196,0.054-0.295,0.08c-0.203,0.053-0.404,0.109-0.596,0.185c-0.11,0.044-0.213,0.098-0.319,0.149
	c-0.17,0.082-0.336,0.169-0.495,0.269c-0.104,0.065-0.202,0.136-0.3,0.208c-0.147,0.109-0.287,0.224-0.422,0.348
	c-0.09,0.083-0.177,0.166-0.261,0.255c-0.127,0.135-0.242,0.28-0.354,0.429c-0.071,0.094-0.144,0.186-0.208,0.285
	c-0.109,0.169-0.2,0.348-0.288,0.531c-0.045,0.093-0.098,0.181-0.137,0.277c-0.109,0.267-0.197,0.544-0.259,0.832
	c-0.004,0.018-0.012,0.035-0.016,0.053c0,0.001-0.001,0.002-0.001,0.003H6.033C6.176,53.842,6.791,51.815,7.754,50z M18,60
	c-1.654,0-3-1.346-3-3s1.346-3,3-3s3,1.346,3,3S19.654,60,18,60z"/>
<polygon points="18,62 0,62 0,64 64,64 64,62 49,62 "/>
<path d="M25.003,42c0.012,0,0.023,0,0.035,0H34c0.553,0,1-0.448,1-1V31c0-0.552-0.475-1-1.027-1c-5.424,0-9.878,4.42-9.929,9.854
	c-0.004,0.435-0.009,0.761-0.019,0.924c-0.075,0.328,0.02,0.676,0.26,0.922C24.478,41.896,24.738,42,25.003,42z M26.044,39.873
	c0.037-4.003,3.066-7.319,6.956-7.81V40h-6.957C26.043,39.958,26.044,39.916,26.044,39.873z"/>
<path d="M37,42h8.962c0.012,0,0.023,0,0.035,0c0.265,0,0.525-0.104,0.718-0.301c0.24-0.246,0.335-0.594,0.26-0.922
	c-0.01-0.163-0.015-0.489-0.019-0.924C46.905,34.42,42.451,30,37,30c-0.553,0-1,0.448-1,1v10C36,41.552,36.447,42,37,42z M38,32.06
	c3.879,0.481,6.919,3.801,6.956,7.813c0,0.043,0.001,0.085,0.001,0.127H38V32.06z"/>
<rect x="30" y="43" width="4" height="2"/>
<rect x="43" y="43" width="4" height="2"/>
<path d="M4,11h12.5c0.827,0,1.5,0.673,1.5,1.5S17.327,14,16.5,14H11c-2.206,0-4,1.794-4,4s1.794,4,4,4h24v-2H11
	c-1.103,0-2-0.897-2-2s0.897-2,2-2h5.5c1.93,0,3.5-1.57,3.5-3.5S18.43,9,16.5,9H4C2.897,9,2,8.103,2,7s0.897-2,2-2h25V3H4
	C1.794,3,0,4.794,0,7S1.794,11,4,11z"/>
<path d="M53,19.5c0-2.481-2.019-4.5-4.5-4.5H39v2h9.5c1.379,0,2.5,1.122,2.5,2.5c0,2.481,2.019,4.5,4.5,4.5H64v-2h-8.5
	C54.121,22,53,20.878,53,19.5z"/>
<rect x="53" y="31" width="8" height="2"/>
<rect x="28" y="9" width="14" height="2"/>
<rect x="46" y="9" width="7" height="2"/>
<rect x="40" y="4" width="15" height="2"/>
<rect x="60" width="4" height="2"/>
</svg>
