<svg width="1048" height="292" viewBox="0 0 1048 292" fill="none" xmlns="http://www.w3.org/2000/svg">
<rect x="1.5" y="1.5" width="1045" height="289" rx="28.5" fill="white" stroke="#808285" stroke-width="3"/>
<path fill-rule="evenodd" clip-rule="evenodd" d="M67.2842 46.3373C64.8567 48.9464 63.4614 52.962 63.4614 58.1801V243.785C63.4614 249.003 64.8567 253.018 67.375 255.537L68.0329 256.092L172.031 152.094V149.757L67.9422 45.7815L67.2842 46.3373V46.3373Z" fill="url(#paint0_linear_4305_52)"/>
<path fill-rule="evenodd" clip-rule="evenodd" d="M206.629 186.896L171.94 152.196V149.769L206.641 115.068L207.389 115.533L248.431 138.856C260.183 145.481 260.183 156.393 248.431 163.109L207.389 186.431C207.378 186.431 206.629 186.896 206.629 186.896V186.896Z" fill="url(#paint1_linear_4305_52)"/>
<path fill-rule="evenodd" clip-rule="evenodd" d="M207.378 186.431L171.941 150.982L67.2842 255.639C71.107 259.745 77.5388 260.21 84.7307 256.195L207.378 186.431Z" fill="url(#paint2_linear_4305_52)"/>
<path fill-rule="evenodd" clip-rule="evenodd" d="M207.378 115.545L84.7307 45.8722C77.5502 41.7658 71.107 42.3217 67.2842 46.4281L171.929 150.982L207.378 115.545Z" fill="url(#paint3_linear_4305_52)"/>
<path opacity="0.2" fill-rule="evenodd" clip-rule="evenodd" d="M206.629 185.682L84.8215 254.89C78.0153 258.804 71.9465 258.531 68.0329 254.981L67.375 255.639L68.0329 256.195C71.9465 259.734 78.0153 260.017 84.8215 256.104L207.469 186.431L206.629 185.682V185.682Z" fill="black"/>
<path opacity="0.12" fill-rule="evenodd" clip-rule="evenodd" d="M248.419 161.895L206.539 185.682L207.287 186.431L248.329 163.109C254.205 159.751 257.097 155.372 257.097 150.982C256.723 154.998 253.739 158.821 248.419 161.895V161.895Z" fill="black"/>
<path opacity="0.25" fill-rule="evenodd" clip-rule="evenodd" d="M84.7307 47.086L248.419 140.081C253.74 143.064 256.723 146.978 257.188 150.994C257.188 146.615 254.295 142.225 248.419 138.867L84.7307 45.8722C72.9787 39.1568 63.4614 44.7492 63.4614 58.18V59.3938C63.4614 45.9629 72.9787 40.4613 84.7307 47.086Z" fill="white"/>
<path fill-rule="evenodd" clip-rule="evenodd" d="M297.14 145.095C297.14 115.363 322.13 91.156 351.862 91.156C368.299 91.156 379.994 97.6105 388.82 106.016L378.429 116.407C372.122 110.486 363.569 105.891 351.851 105.891C330.139 105.891 313.169 123.372 313.169 145.084C313.169 166.795 330.139 184.299 351.839 184.299C365.917 184.299 373.925 178.649 379.064 173.499C383.273 169.291 386.029 163.245 387.095 154.953H351.862V140.251H401.456C401.978 142.883 402.25 146.037 402.25 149.451C402.25 160.488 399.222 174.18 389.478 183.924C379.994 193.793 367.902 199.057 351.851 199.057C322.108 199.057 297.118 174.872 297.118 145.118L297.14 145.095ZM442.339 129.577C423.134 129.577 407.457 144.187 407.457 164.3C407.457 184.31 423.123 199.023 442.339 199.023C461.555 199.023 477.198 184.287 477.198 164.288C477.198 144.176 461.544 129.566 442.339 129.577V129.577ZM442.339 185.365C431.823 185.365 422.737 176.687 422.737 164.311C422.737 151.81 431.812 143.257 442.339 143.257C452.854 143.257 461.929 151.799 461.929 164.311C461.929 176.676 452.866 185.365 442.339 185.365ZM518.398 129.577C499.193 129.577 483.539 144.187 483.539 164.3C483.539 184.31 499.193 199.023 518.398 199.023C537.603 199.023 553.257 184.287 553.257 164.288C553.257 144.176 537.614 129.566 518.398 129.577V129.577ZM518.398 185.365C507.882 185.365 498.796 176.687 498.796 164.311C498.796 151.81 507.871 143.257 518.398 143.257C528.914 143.257 538 151.799 538 164.311C538 176.676 528.914 185.365 518.398 185.365ZM611.745 131.687V137.336H611.223C607.808 133.241 601.229 129.566 592.948 129.566C575.581 129.566 559.643 144.834 559.643 164.447C559.643 183.902 575.57 199.045 592.948 199.045C601.229 199.045 607.808 195.37 611.223 191.161H611.745V196.153C611.745 209.436 604.644 216.549 593.198 216.549C583.851 216.549 578.065 209.833 575.695 204.195L562.4 209.72C566.211 218.919 576.353 230.24 593.187 230.24C611.064 230.24 626.196 219.702 626.196 194.054V131.675L611.745 131.687ZM594.253 185.365C583.737 185.365 574.901 176.54 574.901 164.447C574.901 152.219 583.726 143.269 594.253 143.269C604.644 143.269 612.8 152.207 612.8 164.447C612.811 176.54 604.655 185.365 594.253 185.365ZM636.735 94.8427H652.003V196.935H636.735V94.8427ZM693.85 185.365C686.091 185.365 680.555 181.803 677.027 174.849L723.468 155.622L721.869 151.674C718.987 143.927 710.162 129.577 692.137 129.577C674.248 129.577 659.377 143.654 659.377 164.311C659.377 183.765 674.112 199.034 693.85 199.034C709.776 199.034 718.987 189.312 722.799 183.641L710.956 175.757C706.997 181.553 701.598 185.376 693.85 185.365V185.365ZM692.659 142.996C698.705 142.996 703.832 146.025 705.545 150.358L674.486 163.256C674.101 149.837 684.889 142.996 692.659 142.996V142.996Z" fill="#808285"/>
<path fill-rule="evenodd" clip-rule="evenodd" d="M790.464 94.8427H753.96V196.935H769.194V158.265H790.475C807.366 158.265 823.973 146.036 823.973 126.548C823.973 107.094 807.377 94.854 790.498 94.854L790.464 94.8427ZM790.861 144.051H769.194V109.045H790.861C802.25 109.045 808.738 118.494 808.738 126.548C808.738 134.466 802.25 144.051 790.861 144.051V144.051ZM847.602 196.935V94.8427H832.367V196.935H847.602ZM916.038 196.754V157.618C916.038 139.491 902.493 129.384 885.013 129.384C873.998 129.384 862.575 134.25 857.845 145.016L871.367 150.653C874.259 145.016 879.636 143.167 885.297 143.167C893.169 143.167 901.178 147.897 901.302 156.314V157.369C898.546 155.792 892.647 153.421 885.41 153.421C870.833 153.421 855.996 161.43 855.996 176.403C855.996 190.072 867.952 198.864 881.349 198.864C891.604 198.864 897.241 194.27 900.781 188.893H901.302V196.777H916.026L916.038 196.754ZM883.198 185.342C878.207 185.342 871.242 182.847 871.242 176.687C871.242 168.803 879.92 165.763 887.406 165.763C894.111 165.763 897.253 167.204 901.336 169.177C900.168 178.343 892.42 185.229 883.198 185.342V185.342ZM969.614 131.619L952.145 175.87H951.623L933.496 131.619H917.081L944.261 193.487L928.754 227.892H944.646L986.538 131.619H969.614Z" fill="#808285"/>
<path d="M325.604 40.1243C325.261 39.0471 324.799 38.0824 324.219 37.2301C323.651 36.366 322.971 35.6321 322.178 35.0284C321.384 34.4129 320.479 33.9453 319.461 33.6257C318.455 33.3061 317.348 33.1463 316.141 33.1463C314.093 33.1463 312.246 33.6731 310.601 34.7266C308.955 35.7801 307.653 37.3248 306.695 39.3608C305.748 41.3849 305.274 43.8648 305.274 46.8004C305.274 49.7479 305.754 52.2396 306.712 54.2756C307.671 56.3116 308.985 57.8563 310.654 58.9098C312.323 59.9633 314.223 60.4901 316.354 60.4901C318.33 60.4901 320.053 60.0876 321.521 59.2827C323 58.4777 324.143 57.3414 324.947 55.8736C325.764 54.3939 326.173 52.6539 326.173 50.6534L327.593 50.9197H317.188V46.392H331.482V50.5291C331.482 53.5831 330.83 56.2346 329.528 58.4837C328.238 60.7209 326.451 62.4491 324.166 63.6683C321.893 64.8875 319.289 65.4972 316.354 65.4972C313.063 65.4972 310.175 64.7396 307.689 63.2244C305.215 61.7093 303.286 59.5608 301.901 56.7791C300.516 53.9856 299.823 50.6712 299.823 46.8359C299.823 43.9358 300.226 41.3317 301.031 39.0234C301.835 36.7152 302.966 34.7562 304.422 33.1463C305.89 31.5246 307.612 30.2876 309.589 29.4354C311.577 28.5713 313.75 28.1392 316.105 28.1392C318.07 28.1392 319.899 28.4292 321.592 29.0092C323.296 29.5893 324.811 30.4119 326.137 31.4773C327.475 32.5426 328.581 33.8092 329.457 35.277C330.333 36.733 330.925 38.3487 331.233 40.1243H325.604ZM338.446 65V28.6364H361.244V33.3594H343.933V44.4389H360.055V49.1442H343.933V60.277H361.458V65H338.446ZM366.78 33.3594V28.6364H394.923V33.3594H383.577V65H378.108V33.3594H366.78ZM419.86 28.6364V65H414.374V28.6364H419.86ZM426.057 33.3594V28.6364H454.2V33.3594H442.854V65H437.385V33.3594H426.057ZM505.239 46.8182C505.239 50.7008 504.528 54.0388 503.108 56.8324C501.688 59.6141 499.74 61.7566 497.266 63.2599C494.804 64.7514 492.005 65.4972 488.868 65.4972C485.719 65.4972 482.908 64.7514 480.434 63.2599C477.972 61.7566 476.031 59.6082 474.61 56.8146C473.19 54.0211 472.479 50.6889 472.479 46.8182C472.479 42.9356 473.19 39.6035 474.61 36.8217C476.031 34.0282 477.972 31.8857 480.434 30.3942C482.908 28.8909 485.719 28.1392 488.868 28.1392C492.005 28.1392 494.804 28.8909 497.266 30.3942C499.74 31.8857 501.688 34.0282 503.108 36.8217C504.528 39.6035 505.239 42.9356 505.239 46.8182ZM499.805 46.8182C499.805 43.8589 499.326 41.3672 498.367 39.343C497.42 37.3071 496.118 35.7682 494.461 34.7266C492.816 33.6731 490.951 33.1463 488.868 33.1463C486.773 33.1463 484.902 33.6731 483.257 34.7266C481.612 35.7682 480.31 37.3071 479.351 39.343C478.404 41.3672 477.93 43.8589 477.93 46.8182C477.93 49.7775 478.404 52.2751 479.351 54.3111C480.31 56.3352 481.612 57.8741 483.257 58.9276C484.902 59.9692 486.773 60.4901 488.868 60.4901C490.951 60.4901 492.816 59.9692 494.461 58.9276C496.118 57.8741 497.42 56.3352 498.367 54.3111C499.326 52.2751 499.805 49.7775 499.805 46.8182ZM541.429 28.6364V65H536.387L517.903 38.331H517.566V65H512.079V28.6364H517.157L535.659 55.3409H535.996V28.6364H541.429Z" fill="#808285"/>
<defs>
<linearGradient id="paint0_linear_4305_52" x1="162.693" y1="56.185" x2="-3.89478" y2="100.572" gradientUnits="userSpaceOnUse">
<stop stop-color="#00A0FF"/>
<stop offset="0.007" stop-color="#00A1FF"/>
<stop offset="0.26" stop-color="#00BEFF"/>
<stop offset="0.512" stop-color="#00D2FF"/>
<stop offset="0.76" stop-color="#00DFFF"/>
<stop offset="1" stop-color="#00E3FF"/>
</linearGradient>
<linearGradient id="paint1_linear_4305_52" x1="263.723" y1="150.987" x2="60.605" y2="150.987" gradientUnits="userSpaceOnUse">
<stop stop-color="#FFE000"/>
<stop offset="0.409" stop-color="#FFBD00"/>
<stop offset="0.775" stop-color="#FFA500"/>
<stop offset="1" stop-color="#FF9C00"/>
</linearGradient>
<linearGradient id="paint2_linear_4305_52" x1="188.108" y1="170.267" x2="54.3711" y2="395.355" gradientUnits="userSpaceOnUse">
<stop stop-color="#FF3A44"/>
<stop offset="1" stop-color="#C31162"/>
</linearGradient>
<linearGradient id="paint3_linear_4305_52" x1="40.9396" y1="-15.4038" x2="100.604" y2="85.1242" gradientUnits="userSpaceOnUse">
<stop stop-color="#32A071"/>
<stop offset="0.069" stop-color="#2DA771"/>
<stop offset="0.476" stop-color="#15CF74"/>
<stop offset="0.801" stop-color="#06E775"/>
<stop offset="1" stop-color="#00F076"/>
</linearGradient>
</defs>
</svg>
