<?xml version="1.0" encoding="utf-8"?>
<!-- Generator: Adobe Illustrator 13.0.0, SVG Export Plug-In . SVG Version: 6.00 Build 14948)  -->
<!DOCTYPE svg PUBLIC "-//W3C//DTD SVG 1.1//EN" "http://www.w3.org/Graphics/SVG/1.1/DTD/svg11.dtd">
<svg version="1.1" id="Layer_1" xmlns="http://www.w3.org/2000/svg" xmlns:xlink="http://www.w3.org/1999/xlink" x="0px" y="0px"
	 width="344.824px" height="199.189px" viewBox="0 0 344.824 199.189" enable-background="new 0 0 344.824 199.189"
	 xml:space="preserve">
<g>
	<g>
		<g>
			<polygon fill="#7E9CCA" points="170.522,127.658 170.522,140.698 159.143,140.698 159.143,127.658 100.455,127.658 
				108.993,144.001 224.767,144.001 229.035,127.658 			"/>
		</g>
	</g>
	<polygon fill="#1C4FA2" points="106.312,64.576 88.428,44.028 88.43,44.028 91.782,41.108 108.336,60.127 250.965,60.127 
		250.965,64.576 	"/>
	<path fill="#1C4FA2" d="M157.865,61.594v-27.85c0-1.229,0.995-2.224,2.226-2.224l0,0c1.227,0,2.223,0.995,2.223,2.224l0,0v27.85
		c0,1.229-0.996,2.224-2.223,2.224l0,0C158.861,63.818,157.865,62.823,157.865,61.594L157.865,61.594z"/>
	<path fill="#1C4FA2" d="M157.865,107.541V73.778c0-1.229,0.995-2.222,2.226-2.222l0,0c1.227,0,2.223,0.991,2.223,2.222l0,0v33.763
		c0,1.228-0.996,2.226-2.223,2.226l0,0C158.861,109.766,157.865,108.768,157.865,107.541L157.865,107.541z"/>
	<path fill="#1C4FA2" d="M157.865,138.678v-20.416c0-1.229,0.995-2.227,2.226-2.227l0,0c1.227,0,2.223,0.996,2.223,2.227l0,0v20.416
		c0,1.229-0.996,2.224-2.223,2.224l0,0C158.861,140.901,157.865,139.906,157.865,138.678L157.865,138.678z"/>
	<path fill="#1C4FA2" d="M65.332,70.844V48.603c0-1.229,0.996-2.224,2.223-2.224l0,0c1.229,0,2.225,0.995,2.225,2.224l0,0v22.241
		c0,1.229-0.996,2.223-2.225,2.223l0,0C66.327,73.067,65.332,72.072,65.332,70.844L65.332,70.844z"/>
	<path fill="#1C4FA2" d="M96.467,91.972c-1.229,0-2.224-0.996-2.224-2.225l0,0c0-1.229,0.995-2.224,2.224-2.224l0,0h22.242
		c1.228,0,2.224,0.996,2.224,2.224l0,0c0,1.229-0.996,2.225-2.224,2.225l0,0H96.467L96.467,91.972z"/>
	<path fill="#1C4FA2" d="M87.183,19.402l-8.791-5.089c-1.063-0.615-1.426-1.978-0.809-3.04l0,0c0.613-1.063,1.977-1.426,3.04-0.81
		l0,0l8.791,5.09c1.062,0.616,1.426,1.977,0.809,3.04l0,0c-0.412,0.711-1.157,1.109-1.925,1.109l0,0
		C87.919,19.703,87.535,19.606,87.183,19.402L87.183,19.402z"/>
	<path fill="#1C4FA2" d="M15.289,127.558c-1.229,0-2.223-0.996-2.223-2.225l0,0c0-1.229,0.994-2.226,2.223-2.226l0,0h22.241
		c1.229,0,2.226,0.995,2.226,2.226l0,0c0,1.229-0.996,2.225-2.226,2.225l0,0H15.289L15.289,127.558z"/>
	<path fill="#1C4FA2" d="M172.087,91.973c-1.231,0-2.228-0.997-2.228-2.225l0,0c0-1.229,0.996-2.227,2.228-2.227l0,0h22.239
		c1.229,0,2.225,0.998,2.225,2.227l0,0c0,1.228-0.996,2.225-2.225,2.225l0,0H172.087L172.087,91.973z"/>
	<path fill="#1C4FA2" d="M202.806,91.973c-1.229,0-2.224-0.996-2.224-2.226l0,0c0-1.228,0.995-2.224,2.224-2.224l0,0h10.843
		c1.229,0,2.225,0.997,2.225,2.224l0,0c0,1.229-0.996,2.226-2.225,2.226l0,0H202.806L202.806,91.973z"/>
	<path fill="#1C4FA2" d="M316.649,126.445c-1.229,0-2.223-0.997-2.223-2.225l0,0c0-1.229,0.993-2.225,2.223-2.225l0,0h10.842
		c1.229,0,2.227,0.995,2.227,2.225l0,0c0,1.228-0.998,2.225-2.227,2.225l0,0H316.649L316.649,126.445z"/>
	<path fill="#1C4FA2" d="M314.426,140.901V130.06c0-1.229,0.995-2.225,2.223-2.225l0,0c1.23,0,2.227,0.995,2.227,2.225l0,0v10.842
		c0,1.229-0.995,2.225-2.227,2.225l0,0C315.421,143.126,314.426,142.13,314.426,140.901L314.426,140.901z"/>
	<path fill="#7E9CCA" d="M24.836,104.687c0,3.315-1.593,6.005-3.56,6.005h-0.296c-1.965,0-3.559-2.689-3.559-6.005V90.007
		c0-3.315,1.594-6.004,3.559-6.004h0.296c1.966,0,3.56,2.688,3.56,6.004V104.687z"/>
	<circle fill="#7E9CCA" cx="74.995" cy="145.04" r="22.413"/>
	<circle fill="#7E9CCA" cx="256.255" cy="145.04" r="22.413"/>
	<g>
		<g>
			<path fill="#7E9CCA" d="M105.879,72.614c0,2.219,1.8,4.02,4.02,4.02h45.011v-8.036h-45.011
				C107.68,68.596,105.879,70.396,105.879,72.614z M240.909,68.596h-75.82v8.036h75.82c2.22,0,4.02-1.8,4.02-4.02
				C244.929,70.396,243.129,68.596,240.909,68.596z"/>
		</g>
	</g>
	<path fill="#7E9CCA" d="M181.118,25.4v31.615h52.243C233.362,57.015,221.842,36.117,181.118,25.4z"/>
	<g>
		<g>
			<path fill="#1C4FA2" d="M255.363,111.431c-18.228,0-33.003,14.772-33.003,33.002c0,2.218,0.224,4.383,0.641,6.478h4.563
				c-0.485-2.082-0.753-4.248-0.757-6.478c0.029-15.771,12.784-28.525,28.556-28.555c15.772,0.028,28.527,12.784,28.555,28.555
				c-0.026,15.77-12.783,28.527-28.555,28.557c-11.61-0.021-21.58-6.946-26.048-16.89h-4.827
				c4.715,12.468,16.756,21.337,30.875,21.34c18.231-0.004,33.002-14.779,33.006-33.007
				C288.365,126.204,273.593,111.431,255.363,111.431z"/>
		</g>
	</g>
	<g>
		<g>
			<path fill="#1C4FA2" d="M314.646,102.871v-0.668c0.008-3.191,2.591-5.775,5.785-5.783h1.778v-4.446h-1.778
				c-5.652,0-10.229,4.578-10.232,10.229v0.668c0.003,5.65,4.58,10.229,10.232,10.229h12.158v-4.45h-12.158
				C317.237,108.646,314.654,106.062,314.646,102.871z M342.227,94.197c0-1.228-0.996-2.224-2.225-2.224h-13.715v4.446h13.715
				C341.23,96.42,342.227,95.426,342.227,94.197z M340.002,108.652v-0.002h-4.076v4.45h4.076c1.229,0,2.225-0.997,2.225-2.225
				S341.23,108.652,340.002,108.652z"/>
		</g>
	</g>
	<g>
		<g>
			<path fill="#1C4FA2" d="M6.95,94.197H2.503v3.336H6.95V94.197z M10.21,133.629c-1.208-1.726-2.07-3.278-2.625-4.39
				c-0.278-0.556-0.479-0.998-0.605-1.293c-0.011-0.024-0.021-0.051-0.029-0.072v-26.172H2.503l-0.001,27.007l0.141,0.38
				c0.111,0.216,4.611,12.443,17.207,18.798l0.471,0.234h10.261v-4.448h-9.199C16.199,140.965,12.56,136.987,10.21,133.629z
				 M36.975,148.121h8.341v-4.448h-8.341V148.121z M130.199,17.622h-3.706v4.45h3.706V17.622z M6.95,84.336
				C6.94,79.62,8.342,73.9,9.775,69.443c0.714-2.233,1.434-4.16,1.968-5.52c0.117-0.302,0.227-0.572,0.324-0.813h9.062v-4.449H9.141
				l-0.586,1.323c-0.029,0.141-6.004,13.328-6.051,24.352v6.247H6.95V84.336z M155.406,148.121h70.058v-4.448h-70.058V148.121z
				 M107.223,22.067l0.058,0.005h14.395v-4.45h-14.35c-0.088-0.003-0.226-0.005-0.41-0.005c-4.333-0.044-36.072,1.524-63.776,41.045
				H26.411v4.449h19.057l0.664-0.961c26.981-39.072,57.31-40.041,60.783-40.085C107.147,22.064,107.223,22.07,107.223,22.067z
				 M343.847,92.014c-0.582-3.327-2.426-6.141-4.982-8.377c-8.97-7.727-26.629-10.441-44.286-13.125
				c-8.813-1.302-17.586-2.508-25.092-4.058c-7.494-1.535-13.735-3.493-17.264-5.938c-16.224-11.01-26.541-32.501-71.104-42.837
				l-0.253-0.059h-46.958v4.45h46.448c43.16,10.203,51.711,29.917,69.354,42.116c5.189,3.515,13.081,5.551,22.252,7.282
				c13.728,2.556,30.295,4.209,43.652,7.25c6.669,1.511,12.523,3.384,16.71,5.751c4.22,2.396,6.573,5.086,7.145,8.316
				c0.628,3.559,0.908,6.94,0.908,10.15c0,13.209-4.75,23.505-9.524,30.548c-2.386,3.517-4.774,6.206-6.553,8.002
				c-0.89,0.9-1.626,1.574-2.132,2.02c-0.068,0.062-0.132,0.115-0.189,0.165h-35.723v4.448h37.292l0.603-0.471
				c0.195-0.174,20.621-16.048,20.676-44.712C344.824,99.47,344.521,95.824,343.847,92.014z M106.106,148.121h42.257v-4.448h-42.257
				V148.121z"/>
		</g>
	</g>
	<g>
		<g>
			<path fill="#1C4FA2" d="M27.522,97.533v9.786c-0.005,3.192-2.59,5.776-5.783,5.782h-0.664c-3.193-0.006-5.778-2.59-5.785-5.782
				l0.002-19.571c0.004-3.193,2.589-5.777,5.783-5.783h0.664c3.193,0.006,5.778,2.59,5.783,5.783v4.227h4.448v-4.227
				c0-5.649-4.58-10.23-10.231-10.23h-0.664c-5.653,0-10.23,4.581-10.23,10.23l-0.003,19.571c0.003,5.65,4.58,10.229,10.233,10.229
				h0.664c5.651-0.002,10.231-4.579,10.231-10.229v-9.786H27.522z"/>
		</g>
	</g>
	<g>
		<g>
			<path fill="#1C4FA2" d="M75.082,172.989c-15.773-0.027-28.53-12.788-28.558-28.557c0.021-11.708,7.061-21.75,17.14-26.159v-4.813
				c-12.603,4.646-21.586,16.756-21.588,30.974c0.002,18.228,14.773,33.003,33.006,33.006c13.609-0.002,25.289-8.238,30.336-19.996
				h-4.936C95.748,166.66,86.163,172.97,75.082,172.989z M75.082,111.431c-1.612,0-3.195,0.121-4.746,0.345v4.511
				c1.544-0.261,3.128-0.404,4.746-0.407c15.771,0.028,28.526,12.784,28.554,28.555c-0.004,2.412-0.309,4.752-0.874,6.987h4.575
				c0.485-2.253,0.748-4.59,0.748-6.987C108.085,126.202,93.31,111.431,75.082,111.431z"/>
		</g>
	</g>
</g>
<path fill="#F36E32" d="M244.244,28.17C244.246,12.612,256.857,0,272.416,0l0,0c15.56,0,28.17,12.612,28.173,28.17l0,0
	c-0.003,15.563-12.613,28.171-28.173,28.174l0,0C256.857,56.341,244.246,43.732,244.244,28.17L244.244,28.17z M248.692,28.17
	c0.022,13.104,10.623,23.7,23.725,23.726l0,0c13.102-0.025,23.697-10.622,23.724-23.726l0,0
	c-0.024-13.103-10.622-23.698-23.724-23.722l0,0C259.315,4.471,248.715,15.068,248.692,28.17L248.692,28.17z"/>
<path fill="#F9B799" d="M271.768,51.896c-12.743,0-23.075-10.331-23.075-23.075s10.332-23.075,23.075-23.075V51.896z"/>
<polygon fill="#F36E32" points="257.005,27.766 260.148,24.62 268.122,32.596 284.854,19.032 287.656,22.485 267.813,38.574 "/>
<line fill="none" stroke="#1C4FA2" stroke-width="4" stroke-linecap="round" x1="8.396" y1="185.329" x2="321.245" y2="185.329"/>
<line fill="none" stroke="#1C4FA2" stroke-width="4" stroke-linecap="round" x1="25.447" y1="197.189" x2="66.221" y2="197.189"/>
<line fill="none" stroke="#1C4FA2" stroke-width="4" stroke-linecap="round" x1="101.806" y1="197.189" x2="129.977" y2="197.189"/>
<line fill="none" stroke="#1C4FA2" stroke-width="4" stroke-linecap="round" x1="293.816" y1="197.189" x2="313.83" y2="197.189"/>
<line fill="none" stroke="#1C4FA2" stroke-width="4" stroke-linecap="round" x1="156.666" y1="197.189" x2="197.439" y2="197.189"/>
<line fill="none" stroke="#1C4FA2" stroke-width="4" stroke-linecap="round" x1="227.094" y1="197.189" x2="277.506" y2="197.189"/>
</svg>
