<?xml version="1.0" encoding="utf-8"?>
<!-- Generator: Adobe Illustrator 13.0.0, SVG Export Plug-In . SVG Version: 6.00 Build 14948)  -->
<!DOCTYPE svg PUBLIC "-//W3C//DTD SVG 1.1//EN" "http://www.w3.org/Graphics/SVG/1.1/DTD/svg11.dtd">
<svg version="1.1" id="Layer_1" xmlns="http://www.w3.org/2000/svg" xmlns:xlink="http://www.w3.org/1999/xlink" x="0px" y="0px"
	 width="353.216px" height="310.526px" viewBox="0 0 353.216 310.526" enable-background="new 0 0 353.216 310.526"
	 xml:space="preserve">
<g>
	<g>
		<rect x="161.325" y="124.17" fill="#D8D8D8" width="11.535" height="28.311"/>
		<rect x="135.811" y="125.219" fill="#D8D8D8" width="11.533" height="28.311"/>
		<g>
			<path fill="#FFFFFF" d="M201.17,152.365c0,0-5.59-42.409-48-42.874c0,0-41.01,1.398-45.205,43.806
				c0,0-42.406,6.059-33.553,51.263h175.689C250.102,204.56,251.967,161.221,201.17,152.365z"/>
			<g>
				<g>
					<path fill="#454545" d="M75.195,192.762c0.04-16.533,8.166-25.626,16.462-30.984c4.147-2.65,8.333-4.289,11.465-5.254
						c1.565-0.483,2.866-0.798,3.767-0.99s1.358-0.254,1.358-0.257l1.553-0.22l0.156-1.562c0.264-2.607,0.667-5.046,1.189-7.332
						h-4.084c-0.371,1.745-0.698,3.541-0.926,5.442c-2.963,0.623-9.75,2.413-16.633,6.803c-9.089,5.75-18.347,16.39-18.308,34.354
						c0,3.74,0.392,7.794,1.255,12.184l0.317,1.615h63.181v-4H76.076C75.467,199.03,75.195,195.771,75.195,192.762z
						 M140.948,206.561h3.5v-4h-3.5V206.561z M114.058,137.33h-4.313c-0.56,1.386-1.083,2.819-1.54,4.333h4.186
						C112.89,140.14,113.451,138.7,114.058,137.33z M251.264,195.496h-4.07c0.59,3.004,0.81,5.481,0.882,7.064h-4.628v4h8.576
						l0.075-1.924c0.002-0.025,0.009-0.252,0.009-0.66C252.106,202.684,252.008,199.59,251.264,195.496z M149.448,206.561h83.25v-4
						h-83.25V206.561z M250.448,191.746c-1.022-4.04-2.66-8.676-5.32-13.408c-6.421-11.464-18.938-23.293-42.223-27.69
						c-0.636-3.336-2.677-11.902-8.139-20.609c-6.894-11.063-19.662-22.346-41.574-22.547h-0.051l-0.039,0.002
						c-0.171,0.013-10.676,0.359-21.891,6.227c-7.398,3.843-15.083,10.251-20.07,20.442h4.489
						c4.542-8.311,11.054-13.518,17.439-16.9c5.171-2.712,10.253-4.165,14.024-4.931c1.886-0.383,3.443-0.594,4.518-0.708
						c0.968-0.104,1.51-0.126,1.608-0.131c20.451,0.289,31.663,10.428,38.16,20.674c3.224,5.13,5.189,10.283,6.336,14.138
						c0.575,1.925,0.945,3.527,1.17,4.638c0.225,1.107,0.297,1.686,0.3,1.686l0.192,1.456l1.448,0.253
						c23.14,4.066,34.721,15.208,40.814,25.965c2.247,3.982,3.713,7.929,4.674,11.445H250.448z M237.198,206.561h2.5v-4h-2.5
						V206.561z"/>
				</g>
			</g>
		</g>
		<g>
			<circle fill="#FFFFFF" cx="209.094" cy="204.56" r="13.514"/>
			<path fill="#454545" d="M193.58,204.561c0.002-8.569,6.944-15.514,15.514-15.516l0,0c8.568,0.002,15.513,6.946,15.516,15.516l0,0
				c-0.003,8.568-6.947,15.511-15.516,15.513l0,0C200.524,220.071,193.582,213.129,193.58,204.561L193.58,204.561z M209.093,216.073
				c6.357-0.011,11.503-5.155,11.514-11.513l0,0c-0.011-6.36-5.156-11.504-11.514-11.516l0,0
				c-6.36,0.012-11.503,5.155-11.514,11.516l0,0C197.59,210.918,202.733,216.063,209.093,216.073L209.093,216.073z"/>
		</g>
		<path fill="#D8D8D8" d="M209.175,193.045c-6.404,0-11.595,5.192-11.595,11.596c0,6.405,5.19,11.596,11.595,11.596V193.045z"/>
		<path fill="#D8D8D8" d="M148.543,153.081v-29.825c0,0-27.031,0-27.496,29.825H148.543z"/>
		<path fill="#454545" d="M118.514,154.831l0.033-2.031c0.178-15.535,7.628-23.884,14.959-27.821l0,0
			c7.313-3.981,14.353-3.962,14.536-3.973l0,0l0.483,0.059l1.518,0.379v31.389v1.999H118.514L118.514,154.831z M148.042,152.832
			v-2.002V152.832L148.042,152.832z M146.041,150.83v-25.674c-0.539,0.064-1.17,0.154-1.87,0.283l0,0
			c-2.39,0.436-5.583,1.316-8.745,3.05l0,0c-5.991,3.348-11.983,9.452-12.796,22.341l0,0H146.041L146.041,150.83z"/>
		<path fill="#D8D8D8" d="M104.665,156.547c0,0-35.869,4.8-29.13,46.199h28.443L104.665,156.547z"/>
		<path fill="#454545" d="M230.997,164.948v13.515h12.582C243.579,178.463,240.315,170.541,230.997,164.948z"/>
		<rect x="158.879" y="160.171" fill="#454545" width="12.582" height="6.292"/>
		<rect x="136.743" y="192.094" fill="#454545" width="49.398" height="6.291"/>
		<rect x="117.985" y="160.171" fill="#454545" width="12.584" height="6.292"/>
		<rect x="78.141" y="169.607" fill="#454545" width="12.232" height="6.99"/>
		<g>
			<circle fill="#FFFFFF" cx="111.694" cy="204.56" r="13.514"/>
			<path fill="#454545" d="M96.178,204.56c0.003-8.569,6.945-15.515,15.516-15.515l0,0c8.569,0,15.512,6.945,15.515,15.515l0,0
				c-0.003,8.568-6.945,15.513-15.515,15.515l0,0C103.125,220.072,96.181,213.128,96.178,204.56L96.178,204.56z M111.694,216.074
				c6.358-0.013,11.501-5.155,11.512-11.515l0,0c-0.011-6.358-5.153-11.503-11.512-11.514l0,0
				c-6.357,0.011-11.504,5.155-11.515,11.514l0,0C100.19,210.919,105.334,216.062,111.694,216.074L111.694,216.074z"/>
		</g>
		<g>
			<g>
				<path fill="#454545" d="M174.948,154.831h13.808l-0.032-2.032c-0.181-15.533-7.631-23.881-14.962-27.819
					c-7.314-3.983-14.35-3.964-14.532-3.975c-0.53,0-1.012,0.206-1.369,0.541c-0.016,0.015-0.032,0.029-0.048,0.045
					c-0.014,0.014-0.026,0.028-0.04,0.042c-0.338,0.358-0.546,0.841-0.546,1.372c0,0.008,0.001,0.017,0.001,0.024
					c-0.005,0.062-0.004,0.124,0.002,0.188l-0.003,31.613h7.972v-4h-3.969v-25.676c2.836,0.335,8.187,1.43,12.968,4.797
					c5.105,3.627,9.744,9.673,10.446,20.879h-9.695V154.831z M168.948,154.831h2.25v-4h-2.25V154.831z"/>
			</g>
		</g>
		<g>
			<g>
				<path fill="#454545" d="M64.625,225.2h80.323v-3.999H64.625V225.2z M153.948,221.201v3.999h111.067v-3.999H153.948z"/>
			</g>
			<g>
				<path fill="none" stroke="#454545" stroke-linecap="round" d="M64.625,225.2h80.323v-3.999H64.625V225.2z M153.948,221.201
					v3.999h111.067v-3.999H153.948z"/>
			</g>
		</g>
	</g>
	<g>
		<path fill="#454545" d="M316.44,92.63c0-7.825,6.34-14.165,14.166-14.167l0,0c7.822,0.002,14.162,6.342,14.162,14.167l0,0
			c0,7.823-6.34,14.163-14.162,14.165l0,0C322.78,106.793,316.44,100.453,316.44,92.63L316.44,92.63z M320.438,92.63
			c0.012,5.613,4.552,10.154,10.168,10.165l0,0c5.613-0.011,10.153-4.552,10.164-10.165l0,0
			c-0.011-5.613-4.551-10.156-10.164-10.167l0,0C324.99,82.474,320.45,87.017,320.438,92.63L320.438,92.63z"/>
		<path fill="#454545" d="M328.605,129.997v-23.812c0-1.103,0.895-2,2-2l0,0c1.105,0,2.001,0.896,2.001,2l0,0v23.812
			c0,1.105-0.896,1.999-2.001,1.999l0,0C329.5,131.996,328.605,131.103,328.605,129.997L328.605,129.997z"/>
	</g>
	<g>
		<g>
			<path fill="#454545" d="M222.948,130.417c2.24-0.778,4.462-1.481,6.667-2.116v-4.161c-2.205,0.615-4.429,1.302-6.667,2.054
				V130.417z M332.099,137.166c-0.182-0.105-27.766-17.83-67.346-17.846c-8.743-0.006-18.073,0.874-27.806,2.998v4.092
				c9.744-2.193,19.07-3.085,27.806-3.09c19.183,0,35.519,4.316,47.045,8.637c5.762,2.158,10.32,4.317,13.425,5.928
				c1.553,0.806,2.74,1.473,3.537,1.938c0.797,0.464,1.175,0.708,1.177,0.708c0.929,0.596,2.166,0.328,2.763-0.603
				C333.297,138.999,333.028,137.762,332.099,137.166z M82.329,200.492c-17.59,0-31.558-5.655-41.151-11.319
				c-4.794-2.831-8.486-5.661-10.968-7.773c-1.239-1.056-2.179-1.931-2.801-2.538c-0.622-0.604-0.9-0.913-0.902-0.913
				c-0.747-0.813-2.013-0.87-2.827-0.123c-0.813,0.745-0.87,2.011-0.123,2.825c0.175,0.172,21.811,23.809,58.772,23.844h0.032
				c23.452,0,52.845-9.646,86.277-40.486c15.938-14.685,31.782-24.495,46.977-30.799v-4.313c-16.11,6.46-32.907,16.686-49.688,32.17
				C132.993,191.41,104.662,200.482,82.329,200.492z"/>
		</g>
	</g>
	<g>
		<g>
			<path fill="#454545" d="M22.12,164.204h4v-2.265h-4V164.204z M25.078,125.511v-4.001c-0.318-0.021-0.635-0.049-0.959-0.049
				c-0.628,0-1.242,0.056-1.849,0.135v4.044c0.6-0.111,1.216-0.178,1.849-0.179C24.442,125.462,24.762,125.48,25.078,125.511z
				 M22.12,172.995c0,1.106,0.894,2.001,1.999,2.001s2.001-0.895,2.001-2.001v-6.179h-4V172.995z M28.017,122.018v4.226
				c3.676,1.532,6.26,5.152,6.268,9.384c-0.01,5.614-4.552,10.156-10.166,10.167c-5.613-0.011-10.155-4.553-10.166-10.167
				c0.007-3.881,2.182-7.247,5.378-8.961v-4.356c-5.463,1.966-9.376,7.177-9.378,13.317c0.002,7.144,5.292,13.035,12.167,14.009
				v9.692h4v-9.692c6.874-0.975,12.163-6.865,12.165-14.009C38.283,129.156,33.942,123.714,28.017,122.018z"/>
		</g>
	</g>
</g>
</svg>
