<?xml version="1.0" encoding="utf-8"?>
<!-- Generator: Adobe Illustrator 13.0.0, SVG Export Plug-In . SVG Version: 6.00 Build 14948)  -->
<!DOCTYPE svg PUBLIC "-//W3C//DTD SVG 1.1//EN" "http://www.w3.org/Graphics/SVG/1.1/DTD/svg11.dtd">
<svg version="1.1" id="Layer_1" xmlns="http://www.w3.org/2000/svg" xmlns:xlink="http://www.w3.org/1999/xlink" x="0px" y="0px"
	 width="307.837px" height="310.726px" viewBox="0 0 307.837 310.726" enable-background="new 0 0 307.837 310.726"
	 xml:space="preserve">
<g>
	<g>
		<g>
			<g>
				<polygon fill="#D8D8D8" points="151.094,265.96 151.094,277.686 140.861,277.686 140.861,265.96 88.085,265.96 95.763,280.657 
					199.874,280.657 203.712,265.96 				"/>
			</g>
		</g>
		<polygon fill="#4B4B4B" points="93.352,209.233 77.27,190.755 77.272,190.755 80.287,188.129 95.172,205.233 223.433,205.233 
			223.433,209.233 93.352,209.233 		"/>
		<path fill="#4B4B4B" d="M139.712,206.551v-25.043c0-1.105,0.896-2,2.001-2l0,0c1.104,0,1.999,0.895,1.999,2l0,0v25.043
			c0,1.105-0.896,2-1.999,2l0,0C140.608,208.551,139.712,207.657,139.712,206.551L139.712,206.551z"/>
		<path fill="#4B4B4B" d="M139.712,247.87v-30.361c0-1.105,0.896-1.998,2.001-1.998l0,0c1.104,0,1.999,0.893,1.999,1.998l0,0v30.361
			c0,1.104-0.896,2.001-1.999,2.001l0,0C140.608,249.871,139.712,248.973,139.712,247.87L139.712,247.87z"/>
		<path fill="#4B4B4B" d="M139.712,275.87V257.51c0-1.105,0.896-2.001,2.001-2.001l0,0c1.104,0,1.999,0.896,1.999,2.001l0,0v18.359
			c0,1.104-0.896,2-1.999,2l0,0C140.608,277.87,139.712,276.974,139.712,275.87L139.712,275.87z"/>
		<path fill="#4B4B4B" d="M56.5,214.87v-20.001c0-1.104,0.895-1.999,1.999-1.999l0,0c1.104,0,2.001,0.895,2.001,1.999l0,0v20.001
			c0,1.104-0.896,1.999-2.001,1.999l0,0C57.396,216.869,56.5,215.974,56.5,214.87L56.5,214.87z"/>
		<path fill="#4B4B4B" d="M84.5,233.869c-1.104,0-2-0.896-2-2l0,0c0-1.104,0.896-2,2-2l0,0H104.5c1.104,0,2,0.896,2,2l0,0
			c0,1.104-0.896,2-2,2l0,0H84.5L84.5,233.869z"/>
		<path fill="#4B4B4B" d="M76.151,168.61l-7.905-4.576c-0.956-0.553-1.282-1.777-0.728-2.733l0,0
			c0.553-0.956,1.777-1.282,2.733-0.728l0,0l7.905,4.576c0.955,0.555,1.282,1.777,0.728,2.733l0,0
			c-0.371,0.64-1.041,0.998-1.731,0.998l0,0C76.813,168.88,76.467,168.793,76.151,168.61L76.151,168.61z"/>
		<path fill="#4B4B4B" d="M11.5,265.87c-1.105,0-1.999-0.896-1.999-2l0,0c0-1.105,0.894-2.001,1.999-2.001l0,0H31.5
			c1.105,0,2,0.896,2,2.001l0,0c0,1.104-0.896,2-2,2l0,0H11.5L11.5,265.87z"/>
		<path fill="#4B4B4B" d="M152.5,233.87c-1.106,0-2.002-0.896-2.002-2l0,0c0-1.104,0.896-2.002,2.002-2.002l0,0h20
			c1.104,0,2,0.897,2,2.002l0,0c0,1.104-0.896,2-2,2l0,0H152.5L152.5,233.87z"/>
		<path fill="#4B4B4B" d="M180.125,233.87c-1.105,0-2-0.896-2-2.001l0,0c0-1.104,0.895-2,2-2l0,0h9.75c1.104,0,2,0.896,2,2l0,0
			c0,1.105-0.896,2.001-2,2.001l0,0H180.125L180.125,233.87z"/>
		<path fill="#4B4B4B" d="M282.5,264.87c-1.106,0-1.999-0.896-1.999-2.001l0,0c0-1.104,0.893-1.999,1.999-1.999l0,0h9.749
			c1.104,0,2.001,0.895,2.001,1.999l0,0c0,1.104-0.896,2.001-2.001,2.001l0,0H282.5L282.5,264.87z"/>
		<path fill="#4B4B4B" d="M280.5,277.87v-9.75c0-1.104,0.895-2,1.999-2l0,0c1.105,0,2.001,0.896,2.001,2l0,0v9.75
			c0,1.104-0.896,2-2.001,2l0,0C281.395,279.87,280.5,278.974,280.5,277.87L280.5,277.87z"/>
		<path fill="#D8D8D8" d="M20.084,245.303c0,2.981-1.433,5.4-3.2,5.4h-0.267c-1.767,0-3.2-2.419-3.2-5.4v-13.201
			c0-2.982,1.433-5.399,3.2-5.399h0.267c1.767,0,3.2,2.417,3.2,5.399V245.303z"/>
		<circle fill="#D8D8D8" cx="65.19" cy="281.59" r="20.155"/>
		<circle fill="#D8D8D8" cx="228.19" cy="281.59" r="20.155"/>
		<g>
			<g>
				<path fill="#D8D8D8" d="M92.963,216.461c0,1.995,1.619,3.614,3.614,3.614h40.476v-7.228H96.578
					C94.583,212.848,92.963,214.466,92.963,216.461z M214.39,212.848h-68.182v7.228h68.182c1.996,0,3.614-1.619,3.614-3.614
					S216.386,212.848,214.39,212.848z"/>
			</g>
		</g>
		<path fill="#D8D8D8" d="M160.623,174.004v28.43h46.98C207.603,202.434,197.244,183.641,160.623,174.004z"/>
		<g>
			<g>
				<path fill="#4B4B4B" d="M227.388,251.368c-16.392,0-29.678,13.285-29.678,29.678c0,1.994,0.2,3.94,0.575,5.824h4.104
					c-0.437-1.872-0.676-3.819-0.68-5.824c0.025-14.182,11.496-25.652,25.679-25.678c14.184,0.025,25.653,11.496,25.678,25.678
					c-0.024,14.181-11.496,25.653-25.678,25.679c-10.442-0.019-19.408-6.247-23.424-15.188h-4.341
					c4.238,11.212,15.065,19.188,27.765,19.19c16.395-0.003,29.678-13.29,29.68-29.681
					C257.066,264.653,243.781,251.368,227.388,251.368z"/>
			</g>
		</g>
		<g>
			<g>
				<path fill="#4B4B4B" d="M305.5,235.87c0-1.104-0.896-2-2.001-2h-12.332v3.999H303.5C304.605,237.869,305.5,236.975,305.5,235.87
					z M280.699,243.67v-0.602c0.007-2.87,2.33-5.193,5.202-5.2h1.6v-3.999h-1.6c-5.083,0-9.198,4.117-9.201,9.199v0.602
					c0.003,5.081,4.118,9.197,9.201,9.199h10.934v-4.002h-10.934C283.029,248.864,280.706,246.54,280.699,243.67z M303.5,248.87
					v-0.002h-3.665v4.002h3.665c1.105,0,2.001-0.896,2.001-2C305.5,249.764,304.605,248.87,303.5,248.87z"/>
			</g>
		</g>
		<g>
			<g>
				<path fill="#4B4B4B" d="M4,235.87H0.001v3H4V235.87z M6.933,271.33c-1.087-1.552-1.862-2.949-2.36-3.947
					c-0.25-0.5-0.43-0.898-0.544-1.163c-0.01-0.022-0.019-0.045-0.027-0.064V242.62h-4L0,266.906l0.127,0.341
					c0.1,0.193,4.146,11.189,15.474,16.903l0.423,0.212h9.227v-4h-8.272C12.317,277.926,9.045,274.35,6.933,271.33z
					 M114.833,167.009H111.5v4.002h3.333V167.009z M4,227.002c-0.009-4.241,1.252-9.385,2.54-13.393
					c0.642-2.008,1.288-3.741,1.769-4.963c0.106-0.271,0.204-0.516,0.292-0.731h8.149v-4.001H5.971l-0.527,1.189
					c-0.026,0.127-5.399,11.985-5.441,21.898l0,5.617H4V227.002z M31,284.362h7.5v-4H31V284.362z M306.958,233.907
					c-0.523-2.992-2.182-5.521-4.48-7.533c-8.066-6.947-23.946-9.39-39.826-11.803c-7.925-1.17-15.814-2.255-22.563-3.648
					c-6.74-1.38-12.353-3.141-15.524-5.34c-14.59-9.9-23.868-29.227-63.941-38.521l-0.228-0.052h-42.228v4.002h41.771
					c38.813,9.175,46.501,26.903,62.365,37.873c4.668,3.161,11.764,4.991,20.01,6.548c12.346,2.299,27.244,3.785,39.256,6.52
					c5.998,1.358,11.263,3.043,15.026,5.172c3.794,2.155,5.911,4.574,6.424,7.479c0.565,3.199,0.817,6.241,0.817,9.128
					c0,11.879-4.271,21.137-8.565,27.47c-2.145,3.163-4.293,5.581-5.893,7.196c-0.799,0.81-1.462,1.416-1.917,1.816
					c-0.062,0.054-0.117,0.104-0.17,0.148h-32.124v4h33.535l0.542-0.424c0.176-0.156,18.544-14.431,18.593-40.207
					C307.837,240.612,307.564,237.333,306.958,233.907z M137.5,284.362h63v-4h-63V284.362z M94.171,171.006l0.052,0.005h12.944
					v-4.002H94.263c-0.078-0.003-0.202-0.005-0.369-0.005c-3.896-0.04-32.438,1.371-57.351,36.91H21.5v4.001h17.137l0.597-0.864
					c24.264-35.136,51.536-36.008,54.659-36.047C94.104,171.004,94.171,171.009,94.171,171.006z M93.167,284.362h38v-4h-38V284.362z
					"/>
			</g>
		</g>
		<g>
			<g>
				<path fill="#4B4B4B" d="M22.5,238.87v8.8c-0.004,2.871-2.329,5.194-5.2,5.2h-0.598c-2.872-0.006-5.196-2.329-5.202-5.2
					l0.002-17.6c0.004-2.872,2.329-5.196,5.2-5.2h0.598c2.872,0.004,5.196,2.328,5.2,5.2v3.8h4v-3.8c0-5.081-4.119-9.2-9.2-9.2
					h-0.598c-5.083,0-9.2,4.119-9.2,9.2l-0.002,17.6c0.002,5.081,4.119,9.198,9.202,9.2h0.598c5.082-0.002,9.2-4.119,9.2-9.2v-8.8
					H22.5z"/>
			</g>
		</g>
		<g>
			<g>
				<path fill="#4B4B4B" d="M65.268,306.724c-14.185-0.024-25.656-11.499-25.68-25.679c0.018-10.529,6.349-19.56,15.413-23.525
					v-4.328c-11.332,4.178-19.412,15.068-19.413,27.854c0.002,16.391,13.286,29.678,29.681,29.68
					c12.238-0.002,22.741-7.408,27.28-17.98H88.11C83.853,301.034,75.233,306.707,65.268,306.724z M65.268,251.368
					c-1.45,0-2.874,0.109-4.268,0.31v4.057c1.389-0.234,2.813-0.363,4.268-0.366c14.183,0.025,25.653,11.496,25.678,25.678
					c-0.004,2.168-0.278,4.272-0.786,6.283h4.115c0.437-2.026,0.672-4.127,0.672-6.283C94.947,264.651,81.66,251.368,65.268,251.368
					z"/>
			</g>
		</g>
	</g>
	<g>
		<circle fill="none" stroke="#4B4C4C" stroke-width="4" cx="247.896" cy="166.439" r="36.997"/>
		<circle fill="#D8D8D8" cx="248.581" cy="168.038" r="32.201"/>
		<circle fill="#4B4C4C" cx="247.895" cy="166.439" r="2.467"/>
		
			<line fill="none" stroke="#4B4C4C" stroke-width="4" stroke-linecap="round" x1="248.101" y1="133.553" x2="248.101" y2="166.439"/>
		
			<line fill="none" stroke="#4B4C4C" stroke-width="4" stroke-linecap="round" x1="248.448" y1="166.748" x2="231.73" y2="179.806"/>
	</g>
</g>
</svg>
