<?xml version="1.0" encoding="utf-8"?>
<!-- Generator: Adobe Illustrator 13.0.0, SVG Export Plug-In . SVG Version: 6.00 Build 14948)  -->
<!DOCTYPE svg PUBLIC "-//W3C//DTD SVG 1.1//EN" "http://www.w3.org/Graphics/SVG/1.1/DTD/svg11.dtd">
<svg version="1.1" id="Layer_1" xmlns="http://www.w3.org/2000/svg" xmlns:xlink="http://www.w3.org/1999/xlink" x="0px" y="0px"
	 width="342.082px" height="251.473px" viewBox="0 0 342.082 251.473" enable-background="new 0 0 342.082 251.473"
	 xml:space="preserve">
<g>
	<polyline fill="#D8D8D8" points="21.361,50.104 96.459,42.837 164.289,100.977 231.309,87.25 274.913,119.549 331.035,77.155 
		272.491,92.095 232.118,84.02 157.828,88.057 	"/>
	<g>
		<circle fill="none" stroke="#454545" stroke-width="4" cx="20.963" cy="11.522" r="9.523"/>
		<line fill="none" stroke="#454545" stroke-width="4" stroke-linecap="round" x1="20.962" y1="22.133" x2="20.962" y2="40.771"/>
	</g>
	<g>
		<circle fill="none" stroke="#454545" stroke-width="4" cx="149.048" cy="28.853" r="9.523"/>
		<line fill="none" stroke="#454545" stroke-width="4" stroke-linecap="round" x1="149.048" y1="39.463" x2="149.048" y2="58.102"/>
	</g>
	<g>
		<circle fill="none" stroke="#454545" stroke-width="4" cx="330.56" cy="37.015" r="9.522"/>
		<line fill="none" stroke="#454545" stroke-width="4" stroke-linecap="round" x1="330.561" y1="47.626" x2="330.561" y2="66.264"/>
	</g>
	<g>
		<circle fill="none" stroke="#454545" stroke-width="4" cx="232.454" cy="73.351" r="9.522"/>
		<line fill="none" stroke="#454545" stroke-width="4" stroke-linecap="round" x1="232.454" y1="83.962" x2="232.454" y2="102.6"/>
	</g>
	<polyline fill="none" stroke="#454545" stroke-width="4" stroke-linecap="round" points="331.729,78.434 231.815,117.26 
		146.24,68.295 18.598,50.477 	"/>
	<line fill="none" stroke="#454545" stroke-width="4" stroke-linecap="round" x1="28.225" y1="59.998" x2="83.336" y2="67.871"/>
	<line fill="none" stroke="#454545" stroke-width="4" stroke-linecap="round" x1="266.837" y1="112.683" x2="318.318" y2="91.494"/>
	<line fill="none" stroke="#454545" stroke-width="4" stroke-linecap="round" x1="145.181" y1="77.689" x2="175.864" y2="95.151"/>
	<g>
		<g>
			<g>
				<polygon fill="#D8D8D8" points="150.428,207.559 150.428,219.061 140.388,219.061 140.388,207.559 88.616,207.559 
					96.149,221.975 198.279,221.975 202.045,207.559 				"/>
			</g>
		</g>
		<polygon fill="#4B4B4B" points="93.784,151.911 78.008,133.786 78.009,133.786 80.967,131.208 95.57,147.987 221.391,147.987 
			221.391,151.911 93.784,151.911 		"/>
		<path fill="#4B4B4B" d="M139.262,149.282v-24.568c0-1.083,0.88-1.963,1.963-1.963l0,0c1.083,0,1.961,0.88,1.961,1.963l0,0v24.568
			c0,1.084-0.879,1.961-1.961,1.961l0,0C140.142,151.243,139.262,150.366,139.262,149.282L139.262,149.282z"/>
		<path fill="#4B4B4B" d="M139.262,189.813V160.03c0-1.086,0.88-1.961,1.963-1.961l0,0c1.083,0,1.961,0.875,1.961,1.961l0,0v29.783
			c0,1.082-0.879,1.963-1.961,1.963l0,0C140.142,191.776,139.262,190.895,139.262,189.813L139.262,189.813z"/>
		<path fill="#4B4B4B" d="M139.262,217.28v-18.01c0-1.084,0.88-1.963,1.963-1.963l0,0c1.083,0,1.961,0.879,1.961,1.963l0,0v18.01
			c0,1.084-0.879,1.963-1.961,1.963l0,0C140.142,219.243,139.262,218.364,139.262,217.28L139.262,217.28z"/>
		<path fill="#4B4B4B" d="M57.633,157.442v-19.621c0-1.084,0.877-1.963,1.961-1.963l0,0c1.083,0,1.963,0.879,1.963,1.963l0,0v19.621
			c0,1.082-0.88,1.959-1.963,1.959l0,0C58.51,159.401,57.633,158.524,57.633,157.442L57.633,157.442z"/>
		<path fill="#4B4B4B" d="M85.099,176.079c-1.083,0-1.961-0.879-1.961-1.963l0,0c0-1.084,0.878-1.961,1.961-1.961l0,0h19.621
			c1.084,0,1.961,0.877,1.961,1.961l0,0c0,1.084-0.877,1.963-1.961,1.963l0,0H85.099L85.099,176.079z"/>
		<path fill="#4B4B4B" d="M76.909,112.06l-7.753-4.487c-0.938-0.543-1.258-1.744-0.715-2.683l0,0
			c0.543-0.938,1.745-1.258,2.682-0.714l0,0l7.755,4.489c0.937,0.544,1.258,1.743,0.714,2.682l0,0
			c-0.364,0.628-1.022,0.979-1.698,0.979l0,0C77.559,112.326,77.221,112.24,76.909,112.06L76.909,112.06z"/>
		<path fill="#4B4B4B" d="M13.488,207.471c-1.084,0-1.96-0.879-1.96-1.963l0,0c0-1.084,0.876-1.963,1.96-1.963l0,0h19.621
			c1.083,0,1.963,0.879,1.963,1.963l0,0c0,1.084-0.879,1.963-1.963,1.963l0,0H13.488L13.488,207.471z"/>
		<path fill="#4B4B4B" d="M151.807,176.081c-1.086,0-1.963-0.881-1.963-1.963l0,0c0-1.084,0.877-1.963,1.963-1.963l0,0h19.619
			c1.083,0,1.963,0.879,1.963,1.963l0,0c0,1.082-0.88,1.963-1.963,1.963l0,0H151.807L151.807,176.081z"/>
		<path fill="#4B4B4B" d="M178.906,176.081c-1.084,0-1.962-0.881-1.962-1.965l0,0c0-1.082,0.878-1.961,1.962-1.961l0,0h9.564
			c1.084,0,1.964,0.879,1.964,1.961l0,0c0,1.084-0.88,1.965-1.964,1.965l0,0H178.906L178.906,176.081z"/>
		<path fill="#4B4B4B" d="M279.335,206.489c-1.086,0-1.96-0.879-1.96-1.961l0,0c0-1.084,0.874-1.963,1.96-1.963l0,0h9.563
			c1.084,0,1.963,0.879,1.963,1.963l0,0c0,1.082-0.879,1.961-1.963,1.961l0,0H279.335L279.335,206.489z"/>
		<path fill="#4B4B4B" d="M277.372,219.243v-9.564c0-1.084,0.877-1.963,1.961-1.963l0,0c1.086,0,1.964,0.879,1.964,1.963l0,0v9.564
			c0,1.082-0.878,1.963-1.964,1.963l0,0C278.249,221.206,277.372,220.325,277.372,219.243L277.372,219.243z"/>
		<path fill="#D8D8D8" d="M21.91,187.293c0,2.926-1.406,5.299-3.14,5.299h-0.262c-1.732,0-3.138-2.373-3.138-5.299v-12.947
			c0-2.926,1.406-5.299,3.138-5.299h0.262c1.733,0,3.14,2.373,3.14,5.299V187.293z"/>
		<path fill="#D8D8D8" d="M85.929,222.891c0,10.922-8.853,19.777-19.773,19.777c-10.917,0-19.771-8.855-19.771-19.777
			c0-10.918,8.854-19.771,19.771-19.771C77.077,203.12,85.929,211.973,85.929,222.891z"/>
		<path fill="#D8D8D8" d="M245.83,222.891c0,10.922-8.853,19.777-19.773,19.777c-10.919,0-19.771-8.855-19.771-19.777
			c0-10.918,8.853-19.771,19.771-19.771C236.978,203.12,245.83,211.973,245.83,222.891z"/>
		<g>
			<g>
				<path fill="#D8D8D8" d="M93.402,159.002c0,1.957,1.587,3.547,3.546,3.547h39.707v-7.094H96.948
					C94.99,155.456,93.402,157.045,93.402,159.002z M212.521,155.456h-66.887v7.094h66.887c1.956,0,3.544-1.59,3.544-3.547
					S214.478,155.456,212.521,155.456z"/>
			</g>
		</g>
		<path fill="#D8D8D8" d="M159.775,117.352v27.889h46.086C205.861,145.241,195.699,126.805,159.775,117.352z"/>
		<g>
			<g>
				<path fill="#4B4B4B" d="M225.271,193.245c-16.081,0-29.115,13.031-29.115,29.113c0,1.956,0.196,3.865,0.563,5.713h4.027
					c-0.429-1.836-0.663-3.746-0.667-5.713c0.024-13.912,11.277-25.166,25.191-25.189c13.913,0.023,25.165,11.277,25.188,25.189
					c-0.023,13.91-11.277,25.164-25.188,25.189c-10.244-0.019-19.04-6.128-22.979-14.898h-4.259
					c4.158,10.998,14.781,18.822,27.238,18.824c16.082-0.002,29.113-13.037,29.114-29.115
					C254.385,206.276,241.352,193.245,225.271,193.245z"/>
			</g>
		</g>
		<g>
			<g>
				<path fill="#4B4B4B" d="M301.896,178.04c0-1.08-0.877-1.961-1.962-1.961h-12.098v3.924h12.098
					C301.02,180.002,301.896,179.125,301.896,178.04z M277.567,185.692v-0.588c0.007-2.816,2.286-5.096,5.104-5.102h1.568v-3.924
					h-1.568c-4.986,0-9.022,4.039-9.026,9.025v0.588c0.004,4.984,4.04,9.023,9.026,9.025h10.725v-3.924h-10.725
					C279.854,190.788,277.574,188.508,277.567,185.692z M299.935,190.793h-3.595v3.924h3.595c1.085,0,1.962-0.879,1.962-1.961
					C301.896,191.672,301.02,190.793,299.935,190.793z"/>
			</g>
		</g>
		<g>
			<g>
				<path fill="#4B4B4B" d="M9.008,212.827c-1.066-1.521-1.827-2.893-2.316-3.871c-0.245-0.492-0.421-0.883-0.534-1.143
					c-0.01-0.023-0.019-0.043-0.027-0.063v-23.088H2.208l-0.002,23.824l0.125,0.334c0.098,0.189,4.067,10.977,15.179,16.582
					l0.416,0.209h9.051v-3.924h-8.115C14.29,219.297,11.08,215.79,9.008,212.827z M6.131,178.042H2.209l0,2.943h3.923V178.042z
					 M6.131,169.342c-0.008-4.16,1.229-9.207,2.492-13.137c0.63-1.971,1.264-3.672,1.736-4.871c0.104-0.264,0.199-0.502,0.287-0.717
					h7.994v-3.924H8.064l-0.517,1.166c-0.025,0.125-5.296,11.758-5.337,21.482l0,5.51h3.922V169.342z M32.618,225.612h7.357v-3.924
					h-7.357V225.612z M114.857,110.489h-3.27v3.927h3.27V110.489z M303.327,176.114c-0.515-2.934-2.141-5.416-4.395-7.389
					c-7.915-6.814-23.491-9.211-39.069-11.578c-7.773-1.146-15.515-2.211-22.134-3.58c-6.612-1.352-12.118-3.078-15.229-5.236
					c-14.312-9.713-23.414-28.671-62.725-37.79l-0.222-0.052h-41.426v3.927h40.977c38.075,9,45.617,26.393,61.179,37.151
					c4.579,3.102,11.54,4.898,19.629,6.426c12.112,2.254,26.727,3.713,38.51,6.395c5.885,1.334,11.05,2.986,14.741,5.074
					c3.721,2.115,5.799,4.488,6.3,7.338c0.556,3.137,0.803,6.123,0.803,8.953c0,11.654-4.19,20.734-8.402,26.947
					c-2.104,3.104-4.212,5.475-5.779,7.061c-0.785,0.793-1.436,1.389-1.881,1.781c-0.061,0.053-0.116,0.1-0.167,0.146h-31.515v3.924
					h32.899l0.53-0.418c0.173-0.152,18.191-14.156,18.239-39.441C304.189,182.694,303.923,179.477,303.327,176.114z
					 M137.093,225.612h61.801v-3.924h-61.801V225.612z M93.604,225.612h37.276v-3.924H93.604V225.612z M94.587,114.411l0.051,0.005
					h12.698v-3.927H94.678v0.001c-0.076-0.001-0.199-0.005-0.362-0.005c-3.823-0.039-31.821,1.345-56.262,36.208H23.298v3.924H40.11
					l0.587-0.848c23.801-34.467,50.556-35.323,53.619-35.361C94.521,114.409,94.587,114.414,94.587,114.411z"/>
			</g>
		</g>
		<g>
			<g>
				<path fill="#4B4B4B" d="M24.278,180.985v8.631c-0.004,2.816-2.284,5.096-5.101,5.102h-0.586
					c-2.818-0.006-5.098-2.285-5.104-5.102l0.002-17.264c0.004-2.816,2.284-5.098,5.102-5.104h0.586
					c2.816,0.006,5.097,2.287,5.101,5.104v3.727h3.924v-3.727c0-4.986-4.04-9.025-9.024-9.025h-0.586
					c-4.987,0-9.026,4.039-9.026,9.025l-0.001,17.264c0.001,4.986,4.04,9.023,9.027,9.027h0.586
					c4.984-0.004,9.024-4.041,9.024-9.027v-8.631H24.278z"/>
			</g>
		</g>
		<g>
			<g>
				<path fill="#4B4B4B" d="M66.234,247.547c-13.915-0.025-25.168-11.279-25.192-25.189c0.018-10.329,6.228-19.188,15.119-23.078
					v-4.245c-11.117,4.098-19.042,14.782-19.044,27.323c0.003,16.078,13.034,29.113,29.117,29.115
					c12.005-0.002,22.308-7.268,26.761-17.639h-4.354C84.464,241.965,76.009,247.53,66.234,247.547z M66.234,193.245
					c-1.422,0-2.819,0.107-4.187,0.304v3.979c1.362-0.229,2.759-0.356,4.187-0.358c13.913,0.023,25.164,11.277,25.189,25.189
					c-0.004,2.127-0.273,4.191-0.771,6.164h4.037c0.429-1.987,0.66-4.049,0.66-6.164C95.349,206.276,82.313,193.245,66.234,193.245z
					"/>
			</g>
		</g>
	</g>
</g>
</svg>
