<?xml version="1.0" encoding="utf-8"?>
<!-- Generator: Adobe Illustrator 13.0.0, SVG Export Plug-In . SVG Version: 6.00 Build 14948)  -->
<!DOCTYPE svg PUBLIC "-//W3C//DTD SVG 1.1//EN" "http://www.w3.org/Graphics/SVG/1.1/DTD/svg11.dtd">
<svg version="1.1" id="Layer_1" xmlns="http://www.w3.org/2000/svg" xmlns:xlink="http://www.w3.org/1999/xlink" x="0px" y="0px"
	 width="306.768px" height="290.566px" viewBox="0 0 306.768 290.566" enable-background="new 0 0 306.768 290.566"
	 xml:space="preserve">
<g>
	<path fill="#D8D8D8" d="M128.246,151h-15.73v-15.338c0-8.772,7.113-15.886,15.887-15.886l0,0L128.246,151z"/>
	<path fill="#D8D8D8" d="M177.672,151h-15.732v-15.338c0-8.772,7.111-15.886,15.885-15.886l0,0L177.672,151z"/>
	<path fill="#D8D8D8" d="M177.672,210.163h-15.732v-15.341c0-8.771,7.111-15.885,15.885-15.885l0,0L177.672,210.163z"/>
	<path fill="#D8D8D8" d="M128.246,209.798h-15.73v-15.339c0-8.771,7.113-15.887,15.887-15.887l0,0L128.246,209.798z"/>
	<path fill="#464646" d="M111.053,211.867v-16.799c0.001-9.582,7.767-17.346,17.348-17.349l0,0
		c9.581,0.003,17.345,7.767,17.347,17.349l0,0v15.338v1.461H111.053L111.053,211.867z M144.286,210.406v-1.465V210.406
		L144.286,210.406z M113.975,195.068v13.873h28.85v-13.873c-0.016-7.969-6.459-14.414-14.424-14.426l0,0
		C120.433,180.654,113.989,187.102,113.975,195.068L113.975,195.068z"/>
	<rect x="3.145" y="225.238" fill="#D8D8D8" width="199.64" height="62.392"/>
	<path fill="#464646" d="M106.859,226.943c-0.81,0-1.462-0.65-1.462-1.459l0,0c0-0.808,0.652-1.459,1.462-1.459l0,0h59.647
		c0.807,0,1.46,0.651,1.46,1.459l0,0c0,0.809-0.653,1.459-1.46,1.459l0,0H106.859L106.859,226.943z"/>
	<path fill="#464646" d="M172.593,226.945c-0.808,0-1.459-0.652-1.459-1.459l0,0c0-0.812,0.651-1.463,1.459-1.463l0,0h26.054
		c0.806,0,1.461,0.651,1.461,1.463l0,0c0,0.807-0.655,1.459-1.461,1.459l0,0H172.593L172.593,226.945z"/>
	<g>
		<g>
			<path fill="#464646" d="M177.092,118.315c-9.579,0.002-17.345,7.767-17.347,17.346v16.8h20.603v-2.922h-17.68v-13.876
				c0.015-7.965,6.459-14.41,14.424-14.423c7.965,0.013,14.41,6.458,14.425,14.423v13.876h-5.813v2.922h8.735v-16.8
				C194.439,126.081,186.674,118.317,177.092,118.315z"/>
		</g>
	</g>
	<g>
		<g>
			<path fill="#464646" d="M132.508,152.461h1.583v-2.922h-1.583V152.461z M128.399,118.317c-9.581,0-17.347,7.765-17.348,17.345
				v16.8h19.021v-2.922h-16.099v-13.878c0.016-7.966,6.458-14.409,14.426-14.424c7.965,0.015,14.408,6.458,14.424,14.424v13.878
				h-6.3v2.922h9.223v-16.8C145.744,126.081,137.98,118.317,128.399,118.317z"/>
		</g>
	</g>
	<g>
		<g>
			<path fill="#464646" d="M182.418,211.865h1.642v-2.924h-1.642V211.865z M177.092,177.723
				c-9.579,0.002-17.345,7.766-17.347,17.348v16.797h19.201v-2.924h-16.278V195.07c0.015-7.967,6.459-14.412,14.424-14.426
				c7.965,0.014,14.41,6.459,14.425,14.426v13.873h-3.986v2.924h6.91V195.07C194.439,185.486,186.674,177.723,177.092,177.723z"/>
		</g>
	</g>
	<g>
		<g>
			<path fill="#464646" d="M101.011,102.429v10.834h2.921v-7.91h98.965v32.988h2.921v-35.912H101.011z M202.896,147.349h2.921
				v-3.895h-2.921V147.349z M103.933,116.186h-2.921v3.104h2.921V116.186z M202.897,287.574h-98.966V122.211h-2.921v168.288h104.808
				V152.462h-2.921V287.574L202.897,287.574z"/>
		</g>
	</g>
	<rect x="205.676" y="225.238" fill="#D8D8D8" width="98.323" height="61.844"/>
	<path fill="#464646" d="M203.052,290.566v-67.926h103.716v66.465v1.461H203.052L203.052,290.566z M305.307,289.107v-1.461V289.107
		L305.307,289.107z M205.973,287.646h97.874l-0.002-62.086h-97.872V287.646L205.973,287.646z"/>
	<path fill="#464646" d="M0,290.566v-67.926h103.715v66.465v1.461H0L0,290.566z M102.256,289.105v-1.459V289.105L102.256,289.105z
		 M2.924,287.646h97.872v-62.084H2.924V287.646L2.924,287.646z"/>
	<g>
		<path fill="#FFFFFF" d="M45.246,267.682v-15.34c0-8.771-7.109-15.884-15.884-15.884l0,0c-8.771,0-15.887,7.11-15.887,15.884v15.34
			H45.246z"/>
		<path fill="#464646" d="M12.016,269.143v-16.801c0.002-9.578,7.767-17.344,17.348-17.347l0,0
			c9.581,0.003,17.345,7.769,17.345,17.347l0,0v15.34v1.461H12.016L12.016,269.143z M45.246,267.682v-1.466V267.682L45.246,267.682z
			 M14.938,252.343v13.874h28.848v-13.874c-0.016-7.966-6.459-14.409-14.423-14.424l0,0
			C21.395,237.934,14.952,244.377,14.938,252.343L14.938,252.343z"/>
	</g>
	<g>
		<path fill="#FFFFFF" d="M88.585,267.682v-15.34c0-8.771-7.113-15.884-15.888-15.884l0,0c-8.771,0-15.885,7.11-15.885,15.884v15.34
			H88.585z"/>
		<path fill="#464646" d="M55.352,269.143v-16.8c0.003-9.581,7.766-17.347,17.348-17.347l0,0c9.579,0,17.347,7.766,17.349,17.347
			l0,0v15.341v1.459H55.352L55.352,269.143z M88.584,267.684v-1.466V267.684L88.584,267.684z M58.273,252.344v13.875h28.852v-13.875
			c-0.016-7.967-6.458-14.41-14.426-14.426l0,0C64.732,237.932,58.288,244.377,58.273,252.344L58.273,252.344z"/>
	</g>
	<g>
		<path fill="#FFFFFF" d="M147.259,267.682v-15.34c0-8.771-7.111-15.884-15.885-15.884l0,0c-8.773,0-15.888,7.11-15.888,15.884
			v15.34H147.259z"/>
		<path fill="#464646" d="M114.026,269.143v-16.801c0-9.581,7.767-17.346,17.349-17.347l0,0c9.578,0.001,17.345,7.766,17.347,17.347
			l0,0v15.34v1.461H114.026L114.026,269.143z M147.259,267.682v-1.466V267.682L147.259,267.682z M116.949,252.343v13.874h28.85
			v-13.874c-0.017-7.966-6.459-14.409-14.424-14.425l0,0C123.406,237.932,116.964,244.377,116.949,252.343L116.949,252.343z"/>
	</g>
	<g>
		<path fill="#FFFFFF" d="M191.813,267.682v-15.34c0-8.771-7.112-15.884-15.886-15.884l0,0c-8.773,0-15.886,7.11-15.886,15.884
			v15.34H191.813z"/>
		<path fill="#464646" d="M158.58,269.143v-16.8c0-9.579,7.769-17.347,17.351-17.347l0,0c9.578,0,17.345,7.768,17.347,17.347l0,0
			v15.341v1.459H158.58L158.58,269.143z M191.814,267.684v-1.468V267.684L191.814,267.684z M161.504,252.344l-0.001,13.873h28.852
			v-13.873c-0.017-7.967-6.459-14.41-14.425-14.426l0,0C167.961,237.932,161.519,244.377,161.504,252.344L161.504,252.344z"/>
	</g>
	<g>
		<path fill="#FFFFFF" d="M249.759,267.682v-15.34c0-8.771-7.109-15.884-15.884-15.884l0,0c-8.774,0-15.889,7.11-15.889,15.884
			v15.34H249.759z"/>
		<path fill="#464646" d="M216.523,269.143v-16.801c0.002-9.581,7.771-17.346,17.35-17.346l0,0c9.58,0,17.347,7.765,17.347,17.346
			l0,0v15.34v1.461H216.523L216.523,269.143z M249.758,267.682v-1.464V267.682L249.758,267.682z M219.448,252.343v13.876H248.3
			v-13.876c-0.019-7.966-6.46-14.409-14.425-14.425l0,0C225.905,237.934,219.464,244.377,219.448,252.343L219.448,252.343z"/>
	</g>
	<g>
		<path fill="#FFFFFF" d="M293.582,267.682v-15.34c0-8.771-7.108-15.884-15.886-15.884l0,0c-8.771,0-15.886,7.11-15.886,15.884
			v15.34H293.582z"/>
		<path fill="#464646" d="M260.351,269.143v-16.801c0.004-9.581,7.766-17.345,17.347-17.347l0,0
			c9.582,0.002,17.344,7.766,17.346,17.347l0,0v15.34v1.461H260.351L260.351,269.143z M293.583,267.682v-1.464V267.682
			L293.583,267.682z M263.272,252.343v13.876h28.848v-13.876c-0.014-7.966-6.459-14.409-14.424-14.425l0,0
			C269.73,237.934,263.285,244.377,263.272,252.343L263.272,252.343z"/>
	</g>
	<g>
		<path fill="#464646" d="M73.315,107.912c-0.749-0.906-0.925-1.971-0.927-2.886l0,0c0.021-2.137,0.926-4.021,0.951-4.114l0,0
			l0.031-0.081l8.59-14.21l-52.056,17.354c-3.094,1.334-5.369,1.813-7.113,1.817l0,0c-2.9,0.052-4.25-1.519-4.545-2.088l0,0
			c-0.907-1.231-1.378-2.505-1.376-3.74l0,0c-0.002-1.486,0.683-2.75,1.532-3.687l0,0c0.859-0.947,1.914-1.652,2.932-2.212l0,0
			c0.69-0.377,1.372-0.687,1.971-0.93l0,0L1.529,65.834L1.483,65.76c-0.941-1.526-1.353-2.917-1.351-4.146l0,0
			c-0.006-1.546,0.665-2.727,1.31-3.426l0,0c0.581-0.64,1.134-0.954,1.314-1.051l0,0l5.199-2.972l0.118-0.042
			c0.904-0.326,1.819-0.442,2.689-0.442l0,0c3.292,0.024,6.063,1.588,6.205,1.646l0,0l30.948,17.856l101.775-54.037l11.219-1.463
			c4.226-2.103,7.938-2.929,11.125-2.929l0,0c4.778-0.005,8.304,1.864,10.562,3.721l0,0c2.27,1.855,3.328,3.69,3.39,3.792l0,0
			l0.086,0.152l0.049,0.165c0.271,0.915,0.4,1.845,0.4,2.771l0,0c-0.06,5.327-4.021,10.123-9.497,14.604l0,0
			c-5.515,4.479-12.748,8.645-19.97,12.244l0,0c-13.157,6.557-26.261,11.206-28.499,11.986l0,0l-37.303,38.517l-12.842,6.419
			l-0.218,0.036c-0.522,0.087-1.013,0.131-1.475,0.131l0,0c-0.025,0-0.05,0-0.075,0l0,0
			C75.274,109.293,74.054,108.812,73.315,107.912L73.315,107.912z M75.904,102.355c-0.064,0.171-0.154,0.418-0.248,0.711l0,0
			c-0.183,0.583-0.35,1.351-0.345,1.961l0,0c-0.004,0.536,0.125,0.877,0.244,1.011l0,0c0.119,0.122,0.305,0.316,1.166,0.334l0,0
			c0.222,0,0.483-0.019,0.789-0.061l0,0l11.986-5.994l37.198-38.411l0.246-0.252l0.333-0.113c0.004-0.003,1.988-0.679,5.242-1.908
			l0,0c3.258-1.229,7.77-3.003,12.777-5.187l0,0c10.014-4.354,22.036-10.364,29.885-16.755l0,0c5.271-4.25,8.476-8.652,8.416-12.336
			l0,0c0-0.594-0.074-1.179-0.229-1.767l0,0c-0.013-0.021-0.026-0.046-0.047-0.072l0,0c-0.104-0.157-0.271-0.391-0.492-0.675l0,0
			c-0.449-0.567-1.143-1.34-2.079-2.106l0,0c-1.888-1.535-4.705-3.055-8.712-3.061l0,0c-2.729,0.002-6.045,0.711-10.03,2.729l0,0
			l-0.225,0.112l-11.184,1.459L47.858,76.523L15.544,57.877c-0.002,0.001-0.117-0.065-0.378-0.186l0,0
			c-0.26-0.121-0.644-0.285-1.102-0.449l0,0c-0.92-0.328-2.146-0.642-3.3-0.64l0,0c-0.565,0-1.104,0.07-1.59,0.23l0,0L4.153,59.7
			l-0.041,0.021c-0.021,0.013-0.059,0.035-0.108,0.072l0,0c-0.104,0.071-0.252,0.192-0.396,0.353l0,0
			c-0.288,0.332-0.55,0.749-0.556,1.466l0,0c0,0.567,0.178,1.392,0.873,2.541l0,0l24.34,30.523l-2.156,0.577
			c0,0.001-0.21,0.055-0.602,0.186l0,0c-0.389,0.128-0.936,0.326-1.534,0.587l0,0c-1.201,0.514-2.61,1.322-3.4,2.211l0,0
			c-0.535,0.602-0.777,1.145-0.779,1.729l0,0c0.004,0.514,0.188,1.188,0.895,2.119l0,0l0.104,0.139l0.034,0.078
			c0.021,0.028,0.073,0.086,0.175,0.155l0,0c0.225,0.151,0.702,0.409,1.791,0.414l0,0c1.2,0.003,3.137-0.351,6.014-1.603l0,0
			l0.059-0.027l59.701-19.9l-12.594,20.844C75.955,102.224,75.933,102.281,75.904,102.355L75.904,102.355z"/>
		<polygon fill="#D8D8D8" points="162.016,20.56 150.45,26.16 49.655,85.322 47.952,76.436 150.693,22.022 		"/>
		<path fill="#D8D8D8" d="M49.655,85.322L4.554,59.392l4.775-2.679c0,0,3.015-0.641,5.937,1.005l32.687,18.717L49.655,85.322z"/>
		<polygon fill="#D8D8D8" points="127.018,61.645 99.444,77.531 89.22,100.538 		"/>
		<polygon fill="#D8D8D8" points="13.928,63.775 8.327,66.452 13.683,69.375 22.204,66.21 		"/>
		<path fill="#D8D8D8" d="M181.798,21.839c0,0,0.729,16.067-54.78,39.807C127.018,61.645,194.396,36.995,181.798,21.839z"/>
	</g>
	<g>
		<line fill="none" x1="91.295" y1="97.202" x2="162.505" y2="97.202"/>
		<path fill="#464646" d="M91.294,98.663c-0.809,0-1.461-0.655-1.461-1.461l0,0c0-0.809,0.652-1.461,1.461-1.461l0,0h71.211
			c0.807,0,1.46,0.652,1.46,1.461l0,0c0,0.807-0.653,1.461-1.46,1.461l0,0H91.294L91.294,98.663z"/>
	</g>
	<g>
		<line fill="none" x1="169.078" y1="97.202" x2="215.091" y2="97.202"/>
		<path fill="#464646" d="M169.078,98.662c-0.81,0-1.46-0.652-1.46-1.461l0,0c0-0.807,0.649-1.46,1.46-1.46l0,0h46.015
			c0.806,0,1.461,0.653,1.461,1.46l0,0c0,0.809-0.655,1.461-1.461,1.461l0,0H169.078L169.078,98.662z"/>
	</g>
</g>
</svg>
