<?xml version="1.0" encoding="utf-8"?>
<!-- Generator: Adobe Illustrator 13.0.0, SVG Export Plug-In . SVG Version: 6.00 Build 14948)  -->
<!DOCTYPE svg PUBLIC "-//W3C//DTD SVG 1.1//EN" "http://www.w3.org/Graphics/SVG/1.1/DTD/svg11.dtd">
<svg version="1.1" id="Layer_1" xmlns="http://www.w3.org/2000/svg" xmlns:xlink="http://www.w3.org/1999/xlink" x="0px" y="0px"
	 width="307.111px" height="292.844px" viewBox="0.594 7.844 307.111 292.844" enable-background="new 0.594 7.844 307.111 292.844"
	 xml:space="preserve">
<g>
	<g>
		<g>
			<path fill="#454545" d="M3.996,132.665l-0.101-0.145l-0.062-0.159c-0.043-0.113-0.829-2.148-0.833-5.154l0,0
				c-0.064-4.896,2.33-12.43,12.998-17.276l0,0l8.183-7.829L130.22,56.664l5.514-35.381c0.015-0.067,0.246-1.349,0.913-2.93l0,0
				c0.675-1.574,1.763-3.504,3.724-4.723l0,0l0.108-0.069l5.598-2.193c0.229-0.098,0.93-0.365,1.93-0.369l0,0
				c0.864-0.006,1.98,0.229,3.014,0.998l0,0c1.036,0.763,1.932,2,2.567,3.795l0,0l0.026,0.085l7.622,34.118
				c1.476-0.831,3.664-1.812,5.94-1.855l0,0c1.129-0.006,2.353,0.285,3.376,1.093l0,0c1.007,0.788,1.728,1.996,2.119,3.541l0,0
				c0.093,0.245,0.205,0.656,0.206,1.202l0,0c-0.008,1.956-1.411,4.878-7.329,7.971l0,0l-46.219,29.701l16.469,2.227l0.087,0.023
				c0.103,0.063,2.709,0.614,4.464,2.458l0,0c0.577,0.626,1.077,1.527,1.074,2.604l0,0c-0.008,1.396-0.789,2.688-2.157,3.903l0,0
				l-0.167,0.147l-13.062,5.979l-53.453,4.907c-1.686,1.051-10.268,6.334-20.862,11.634l0,0
				c-11.846,5.899-26.076,11.87-36.466,11.905l0,0c-0.021,0-0.043,0-0.065,0l0,0C10.543,137.436,6.41,136.137,3.996,132.665
				L3.996,132.665z M15.256,134.511c6.975,0.018,16.739-3.21,26.061-7.312l0,0c9.335-4.097,18.285-9.031,23.939-12.319l0,0
				c3.769-2.191,6.058-3.639,6.063-3.645l0,0l0.298-0.188l53.657-4.925l12.204-5.586c0.908-0.858,1.03-1.389,1.022-1.578l0,0
				c0.019-0.221-0.183-0.61-0.805-1.064l0,0c-0.59-0.435-1.424-0.794-1.971-0.982l0,0c-0.237-0.084-0.408-0.137-0.5-0.163l0,0
				l-24.159-3.268l52.999-34.061l0.06-0.028c5.581-2.955,5.833-5.007,5.829-5.417l0,0c-0.002-0.08-0.012-0.132-0.018-0.159l0,0
				l-0.039-0.076l-0.039-0.165c-0.29-1.153-0.706-1.722-1.112-2.042l0,0c-0.407-0.317-0.896-0.466-1.568-0.469l0,0
				c-1.784-0.042-4.41,1.35-5.492,2.074l0,0c-0.37,0.238-0.558,0.375-0.561,0.375l0,0l-1.807,1.323l-8.515-38.141
				c-0.494-1.349-1.061-2.007-1.523-2.348l0,0c-0.471-0.345-0.887-0.422-1.273-0.426l0,0c-0.367-0.002-0.686,0.097-0.771,0.129l0,0
				l-0.042,0.018l-5.409,2.123c-1.647,1.042-2.698,3.687-3.015,4.959l0,0c-0.099,0.361-0.142,0.579-0.151,0.639l0,0l-5.754,36.925
				L25.824,104.581l-8.16,7.807l-0.229,0.104C7.5,117.056,5.993,123.127,5.928,127.208l0,0c-0.002,1.861,0.376,3.296,0.549,3.85l0,0
				c0.012,0.034,0.021,0.064,0.029,0.09l0,0C8.183,133.438,11.115,134.499,15.256,134.511L15.256,134.511z"/>
			<polygon fill="#D8D8D8" points="17.552,112.599 29.18,107.096 138.597,65.641 132.737,58.732 25.8,104.687 			"/>
			<path fill="#D8D8D8" d="M138.597,65.641l8.097-51.449l-5.088,2.044c0,0-2.39,1.948-2.942,5.26l-5.927,37.237L138.597,65.641z"/>
			<polygon fill="#D8D8D8" points="71.563,111.102 101.262,99.573 125.624,106.045 			"/>
			<polygon fill="#D8D8D8" points="144.225,24.252 149.83,21.567 148.745,27.578 140.928,32.235 			"/>
			<path fill="#D8D8D8" d="M6.13,128.826c0,0,12.071,10.657,65.433-17.726C71.563,111.102,10.038,148.167,6.13,128.826z"/>
		</g>
	</g>
	<path fill="#D8D8D8" d="M128.984,160.964h-15.75v-15.355c0-8.782,7.12-15.902,15.903-15.902l0,0L128.984,160.964z"/>
	<path fill="#D8D8D8" d="M178.464,160.964h-15.749v-15.355c0-8.782,7.12-15.902,15.902-15.902l0,0L178.464,160.964z"/>
	<path fill="#D8D8D8" d="M178.464,220.192h-15.749v-15.354c0-8.782,7.12-15.902,15.902-15.902l0,0L178.464,220.192z"/>
	<path fill="#D8D8D8" d="M128.984,219.827h-15.75v-15.355c0-8.782,7.12-15.902,15.903-15.902l0,0L128.984,219.827z"/>
	<path fill="#454545" d="M111.771,221.898v-16.815c0.001-9.593,7.775-17.365,17.367-17.367l0,0
		c9.591,0.002,17.364,7.774,17.366,17.367l0,0v15.354v1.461H111.771L111.771,221.898z M145.041,220.438v-1.464V220.438
		L145.041,220.438z M114.697,205.082l-0.001,13.892h28.882v-13.892c-0.015-7.978-6.466-14.429-14.439-14.441l0,0
		C121.161,190.654,114.711,197.105,114.697,205.082L114.697,205.082z"/>
	<rect x="3.741" y="235.288" fill="#D8D8D8" width="199.865" height="62.458"/>
	<path fill="#454545" d="M107.573,236.993c-0.81,0-1.463-0.654-1.463-1.462l0,0c0-0.807,0.654-1.462,1.463-1.462l0,0h59.717
		c0.807,0,1.461,0.655,1.461,1.462l0,0c0,0.808-0.654,1.462-1.461,1.462l0,0H107.573L107.573,236.993z"/>
	<path fill="#454545" d="M173.383,236.996c-0.808,0-1.463-0.656-1.463-1.463l0,0c0-0.811,0.655-1.465,1.463-1.465l0,0h26.08
		c0.808,0,1.462,0.654,1.462,1.465l0,0c0,0.807-0.654,1.463-1.462,1.463l0,0H173.383L173.383,236.996z"/>
	<g>
		<g>
			<path fill="#454545" d="M177.886,128.242c-9.591,0.002-17.363,7.774-17.366,17.366v16.817h20.625V159.5h-17.699v-13.893
				c0.016-7.974,6.467-14.427,14.44-14.438c7.974,0.013,14.426,6.465,14.439,14.438V159.5h-5.817v2.925h8.742v-16.817
				C195.25,136.017,187.477,128.244,177.886,128.242z"/>
		</g>
	</g>
	<g>
		<g>
			<path fill="#454545" d="M129.138,128.243c-9.592,0-17.366,7.773-17.367,17.364v16.817h19.042V159.5h-16.117l0.001-13.893
				c0.015-7.974,6.465-14.426,14.44-14.439c7.974,0.014,14.425,6.466,14.439,14.439V159.5h-6.307v2.925h9.233v-16.817
				C146.502,136.017,138.729,128.243,129.138,128.243z M133.25,162.426h1.585V159.5h-1.585V162.426z"/>
		</g>
	</g>
	<g>
		<g>
			<path fill="#454545" d="M183.216,221.898h1.646v-2.925h-1.646V221.898z M177.886,187.715
				c-9.591,0.002-17.363,7.774-17.366,17.367v16.815h19.225v-2.925h-16.299v-13.892c0.016-7.978,6.467-14.429,14.44-14.441
				c7.974,0.014,14.426,6.465,14.439,14.441v13.892h-3.99v2.925h6.915v-16.815C195.25,195.49,187.477,187.717,177.886,187.715z"/>
		</g>
	</g>
	<g>
		<g>
			<path fill="#454545" d="M101.718,112.338v10.847h2.924v-7.921h99.075v33.027h2.927v-35.953H101.718z M203.717,157.309h2.927
				v-3.898h-2.927V157.309z M203.719,297.692h-99.077v-165.55h-2.924v168.478h104.925V162.427h-2.927L203.719,297.692z
				 M104.642,126.11h-2.924v3.108h2.924V126.11z"/>
		</g>
	</g>
	<rect x="206.5" y="235.288" fill="#D8D8D8" width="98.437" height="61.908"/>
	<path fill="#454545" d="M203.873,300.688v-68.003h103.832v66.542v1.461H203.873L203.873,300.688z M306.242,299.227v-1.463V299.227
		L306.242,299.227z M206.796,297.764h97.983v-62.155h-97.983V297.764L206.796,297.764z"/>
	<path fill="#454545" d="M0.594,300.688v-68.005h103.833v66.543v1.462H0.594L0.594,300.688z M102.965,299.227v-1.464V299.227
		L102.965,299.227z M3.517,297.763h97.986V235.61H3.517V297.763L3.517,297.763z"/>
	<g>
		<path fill="#FFFFFF" d="M45.892,277.776v-15.354c0-8.784-7.12-15.903-15.903-15.903l0,0c-8.782,0-15.902,7.119-15.902,15.903
			v15.354H45.892z"/>
		<path fill="#454545" d="M12.622,279.238v-16.815c0.002-9.592,7.774-17.366,17.365-17.366l0,0c9.592,0,17.365,7.774,17.367,17.366
			l0,0v15.354v1.462H12.622L12.622,279.238z M45.892,277.776v-1.463V277.776L45.892,277.776z M15.547,262.422v13.892h28.882v-13.892
			c-0.014-7.977-6.466-14.428-14.441-14.442l0,0C22.011,247.994,15.562,254.446,15.547,262.422L15.547,262.422z"/>
	</g>
	<g>
		<path fill="#FFFFFF" d="M89.277,277.776v-15.354c0-8.784-7.119-15.903-15.902-15.903l0,0c-8.783,0-15.903,7.119-15.903,15.903
			v15.354H89.277z"/>
		<path fill="#454545" d="M56.007,279.239v-16.816c0.002-9.592,7.776-17.366,17.368-17.366l0,0c9.589,0,17.362,7.774,17.366,17.366
			l0,0v15.354v1.465H56.007V279.239z M89.276,277.775v-1.462V277.775L89.276,277.775z M58.933,262.422v13.892h28.881v-13.892
			c-0.013-7.977-6.466-14.428-14.438-14.442l0,0C65.398,247.994,58.947,254.446,58.933,262.422L58.933,262.422z"/>
	</g>
	<g>
		<path fill="#FFFFFF" d="M148.019,277.776v-15.354c0-8.784-7.121-15.903-15.902-15.903l0,0c-8.784,0-15.904,7.119-15.904,15.903
			v15.354H148.019z"/>
		<path fill="#454545" d="M114.748,279.237v-16.814c0.001-9.593,7.773-17.366,17.365-17.367l0,0
			c9.591,0.001,17.365,7.774,17.367,17.367l0,0v15.354v1.462L114.748,279.237L114.748,279.237z M148.019,277.775v-1.462V277.775
			L148.019,277.775z M117.673,262.422v13.892h28.881v-13.892c-0.014-7.976-6.465-14.427-14.438-14.442l0,0
			C124.138,247.995,117.689,254.447,117.673,262.422L117.673,262.422z"/>
	</g>
	<g>
		<path fill="#FFFFFF" d="M192.622,277.776v-15.354c0-8.784-7.12-15.903-15.902-15.903l0,0c-8.783,0-15.903,7.119-15.903,15.903
			v15.354H192.622z"/>
		<path fill="#454545" d="M159.352,279.239v-16.816c0.002-9.593,7.775-17.366,17.369-17.366l0,0c9.59,0,17.362,7.773,17.362,17.366
			l0,0v15.354v1.465h-34.731V279.239z M192.623,277.775v-1.462V277.775L192.623,277.775z M162.279,262.422v13.892h28.881v-13.892
			c-0.016-7.978-6.467-14.427-14.438-14.44l0,0C168.743,247.995,162.294,254.445,162.279,262.422L162.279,262.422z"/>
	</g>
	<g>
		<path fill="#FFFFFF" d="M250.633,277.776v-15.354c0-8.784-7.12-15.903-15.903-15.903l0,0c-8.783,0-15.902,7.119-15.902,15.903
			v15.354H250.633z"/>
		<path fill="#454545" d="M217.363,279.237v-16.813c0.003-9.593,7.773-17.367,17.365-17.367l0,0c9.591,0,17.365,7.774,17.368,17.367
			l0,0v15.354v1.461L217.363,279.237L217.363,279.237z M250.633,277.776v-1.462V277.776L250.633,277.776z M220.289,262.423v13.892
			h28.881v-13.892c-0.016-7.978-6.466-14.429-14.441-14.443l0,0C226.754,247.994,220.304,254.446,220.289,262.423L220.289,262.423z"
			/>
	</g>
	<g>
		<path fill="#FFFFFF" d="M294.506,277.776v-15.354c0-8.784-7.12-15.903-15.902-15.903l0,0c-8.783,0-15.902,7.119-15.902,15.903
			v15.354H294.506z"/>
		<path fill="#454545" d="M261.235,279.239v-16.816c0.002-9.591,7.775-17.366,17.368-17.366l0,0c9.591,0,17.362,7.775,17.365,17.366
			l0,0v15.354v1.464L261.235,279.239L261.235,279.239z M294.506,277.776v-1.462V277.776L294.506,277.776z M264.163,262.422v13.893
			h28.881v-13.893c-0.017-7.979-6.467-14.427-14.44-14.44l0,0C270.627,247.995,264.175,254.444,264.163,262.422L264.163,262.422z"/>
	</g>
	<g>
		<line fill="none" x1="91.991" y1="107.105" x2="163.28" y2="107.105"/>
		<path fill="#454545" d="M91.989,108.567c-0.807,0-1.461-0.653-1.461-1.461l0,0c0-0.81,0.654-1.464,1.461-1.464l0,0h71.291
			c0.809,0,1.465,0.654,1.465,1.464l0,0c0,0.808-0.656,1.461-1.465,1.461l0,0H91.989L91.989,108.567z"/>
	</g>
	<g>
		<line fill="none" x1="169.862" y1="107.105" x2="215.926" y2="107.105"/>
		<path fill="#454545" d="M169.862,108.568c-0.809,0-1.464-0.655-1.464-1.462l0,0c0-0.809,0.655-1.463,1.464-1.463l0,0h46.063
			c0.807,0,1.463,0.654,1.463,1.463l0,0c0,0.807-0.656,1.462-1.463,1.462l0,0H169.862L169.862,108.568z"/>
	</g>
</g>
</svg>
