<?xml version="1.0" encoding="utf-8"?>
<!-- Generator: Adobe Illustrator 13.0.0, SVG Export Plug-In . SVG Version: 6.00 Build 14948)  -->
<!DOCTYPE svg PUBLIC "-//W3C//DTD SVG 1.1//EN" "http://www.w3.org/Graphics/SVG/1.1/DTD/svg11.dtd">
<svg version="1.1" id="Layer_1" xmlns="http://www.w3.org/2000/svg" xmlns:xlink="http://www.w3.org/1999/xlink" x="0px" y="0px"
	 width="353.216px" height="310.526px" viewBox="0 0 353.216 310.526" enable-background="new 0 0 353.216 310.526"
	 xml:space="preserve">
<g>
	<path fill="#D8D8D8" d="M65.863,88.543H46.301V69.472c0-10.909,8.844-19.753,19.753-19.753l0,0L65.863,88.543z"/>
	<path fill="#D8D8D8" d="M127.319,88.543h-19.562V69.472c0-10.909,8.844-19.753,19.753-19.753l0,0L127.319,88.543z"/>
	<path fill="#D8D8D8" d="M127.319,162.109h-19.562v-19.073c0-10.909,8.844-19.752,19.753-19.752l0,0L127.319,162.109z"/>
	<path fill="#D8D8D8" d="M65.863,161.655H46.301v-19.073c0-10.909,8.844-19.752,19.753-19.752l0,0L65.863,161.655z"/>
	<path fill="#454545" d="M44.482,164.229V143.34c0.002-11.913,9.657-21.568,21.57-21.57l0,0c11.913,0.002,21.568,9.657,21.57,21.57
		l0,0v19.072v1.816H44.482L44.482,164.229z M85.806,162.412v-1.818V162.412L85.806,162.412z M48.117,143.34l-0.002,17.254h35.873
		V143.34c-0.018-9.907-8.031-17.919-17.936-17.937l0,0C56.146,125.42,48.135,133.433,48.117,143.34L48.117,143.34z"/>
	<rect x="35.637" y="180.857" fill="#D8D8D8" width="122.912" height="76.896"/>
	<path fill="#454545" d="M44.482,235.35v-20.885c0.002-11.915,9.657-21.57,21.57-21.57l0,0c11.913,0,21.568,9.655,21.57,21.57l0,0
		v19.069v1.815H44.482L44.482,235.35z M85.806,233.534v-1.816V233.534L85.806,233.534z M48.117,214.465l-0.002,17.253h35.873
		v-17.253c-0.018-9.907-8.031-17.921-17.936-17.938l0,0C56.146,196.544,48.135,204.558,48.117,214.465L48.117,214.465z"/>
	<path fill="#454545" d="M105.031,235.35v-20.887c0.003-11.913,9.658-21.568,21.57-21.57l0,0
		c11.912,0.002,21.567,9.657,21.567,21.57l0,0v19.072v1.814H105.031L105.031,235.35z M146.354,233.535v-1.818V233.535
		L146.354,233.535z M108.664,214.463v17.254h35.872v-17.254c-0.018-9.903-8.031-17.92-17.935-17.938l0,0
		C116.695,196.543,108.683,204.56,108.664,214.463L108.664,214.463z"/>
	<path fill="#454545" d="M39.269,182.977c-1.006,0-1.818-0.813-1.818-1.815l0,0c0-1.003,0.812-1.815,1.818-1.815l0,0h74.17
		c1.002,0,1.814,0.813,1.814,1.815l0,0c0,1.003-0.812,1.815-1.814,1.815l0,0H39.269L39.269,182.977z"/>
	<path fill="#454545" d="M121.008,182.979c-1.002,0-1.816-0.814-1.816-1.816l0,0c0-1.006,0.814-1.817,1.816-1.817l0,0h32.393
		c1.003,0,1.816,0.812,1.816,1.817l0,0c0,1.002-0.813,1.816-1.816,1.816l0,0H121.008L121.008,182.979z"/>
	<g>
		<path fill="#454545" d="M27.462,25.856c-1.004,0-1.817-0.813-1.817-1.817l0,0c0-1.002,0.813-1.815,1.817-1.815l0,0h96.875
			c1.004,0,1.815,0.813,1.815,1.815l0,0c0,1.004-0.811,1.817-1.815,1.817l0,0H27.462L27.462,25.856z"/>
		<path fill="#454545" d="M133.419,26.764c-1.002,0-1.815-0.813-1.815-1.815l0,0c0-1.005,0.813-1.818,1.815-1.818l0,0h34.21
			c1.003,0,1.815,0.813,1.815,1.818l0,0c0,1.002-0.812,1.815-1.815,1.815l0,0H133.419L133.419,26.764z"/>
	</g>
	<g>
		<g>
			<path fill="#454545" d="M126.602,47.9c-11.913,0.002-21.567,9.657-21.57,21.57v20.888h25.617v-3.633h-21.984V69.471
				c0.019-9.904,8.031-17.919,17.938-17.935c9.903,0.016,17.917,8.031,17.935,17.935v17.255h-7.227v3.633h10.859V69.471
				C148.169,57.558,138.514,47.903,126.602,47.9z"/>
		</g>
	</g>
	<g>
		<g>
			<path fill="#454545" d="M71.161,90.359h1.968v-3.633h-1.968V90.359z M66.053,47.902c-11.913,0-21.568,9.655-21.57,21.568v20.889
				h23.651v-3.633H48.115l0.002-17.255c0.018-9.905,8.028-17.918,17.936-17.936c9.904,0.018,17.917,8.031,17.936,17.936v17.255
				h-7.833v3.633h11.467V69.471C87.621,57.558,77.966,47.902,66.053,47.902z"/>
		</g>
	</g>
	<g>
		<g>
			<path fill="#454545" d="M126.602,121.77c-11.913,0.003-21.567,9.657-21.57,21.57v20.887h23.876v-3.633h-20.244V143.34
				c0.019-9.906,8.031-17.919,17.938-17.937c9.903,0.018,17.917,8.031,17.935,17.937v17.254h-4.957v3.633h8.59V143.34
				C148.169,131.427,138.514,121.772,126.602,121.77z M133.222,164.227h2.043v-3.633h-2.043V164.227z"/>
		</g>
	</g>
	<g>
		<g>
			<path fill="#454545" d="M31.997,28.147V41.62h3.632v-9.838h123.056l0,41.021h3.634V28.147H31.997z M158.685,84.003h3.634V79.16
				h-3.634V84.003z M158.687,258.369H35.628V52.746h-3.632v209.258h130.322V90.361h-3.634L158.687,258.369z M35.628,45.252h-3.632
				v3.86h3.632V45.252z"/>
		</g>
	</g>
</g>
<g>
	<path fill="#D8D8D8" d="M310.031,145.005h-13.668V131.68c0-7.623,6.179-13.802,13.801-13.802l0,0L310.031,145.005z"/>
	<path fill="#454545" d="M294.096,196.013v-14.629c0.002-8.332,6.754-15.085,15.09-15.087l0,0
		c8.331,0.002,15.084,6.755,15.084,15.087l0,0v12.813v1.815H294.096L294.096,196.013z M322.456,194.197v-1.815V194.197
		L322.456,194.197z M297.728,181.384v10.998h22.912v-10.998c-0.014-6.325-5.132-11.444-11.454-11.455l0,0
		C302.857,169.939,297.739,175.059,297.728,181.384L297.728,181.384z"/>
	<rect x="283.299" y="206.592" fill="#D8D8D8" width="49.021" height="51.664"/>
	<path fill="#454545" d="M294.096,243.8v-14.63c0.002-8.332,6.754-15.087,15.09-15.087l0,0c8.331,0,15.084,6.755,15.084,15.087l0,0
		v12.814v1.815H294.096L294.096,243.8z M322.456,241.984v-1.816V241.984L322.456,241.984z M297.728,229.17v10.998h22.912V229.17
		c-0.014-6.326-5.132-11.443-11.454-11.455l0,0C302.857,217.727,297.739,222.844,297.728,229.17L297.728,229.17z"/>
	<path fill="#454545" d="M285.74,208.61c-1.003,0-1.816-0.813-1.816-1.814l0,0c0-1.003,0.813-1.816,1.816-1.816l0,0h49.833
		c1.003,0,1.816,0.813,1.816,1.816l0,0c0,1.002-0.813,1.814-1.816,1.814l0,0H285.74L285.74,208.61z"/>
	<g>
		<path fill="#454545" d="M291.625,102.139c-0.709,0-1.281-0.814-1.281-1.816l0,0c0-1.004,0.572-1.818,1.281-1.818l0,0h31.704
			c0.707,0,1.279,0.814,1.279,1.818l0,0c0,1.002-0.572,1.816-1.279,1.816l0,0H291.625L291.625,102.139z"/>
		<path fill="#454545" d="M327.008,102.75c-1.005,0-1.816-0.813-1.816-1.818l0,0c0-1.002,0.812-1.816,1.816-1.816l0,0h15.886
			c1.004,0,1.818,0.814,1.818,1.816l0,0c0,1.005-0.814,1.818-1.818,1.818l0,0H327.008L327.008,102.75z"/>
	</g>
	<g>
		<g>
			<path fill="#454545" d="M280.255,103.395v158.313h60.686v-88.396h-3.635v84.764H283.89V107.027h53.416v49.028h3.635v-52.66
				H280.255z M337.306,166.953h3.635v-4.541h-3.635V166.953z"/>
		</g>
	</g>
	<g>
		<g>
			<path fill="#454545" d="M309.186,116.666c-8.336,0.002-15.088,6.754-15.09,15.089v14.63h18.952v-3.634h-15.32v-10.996
				c0.011-6.326,5.129-11.443,11.458-11.458c6.322,0.014,11.44,5.132,11.454,11.458v10.996h-2.597v3.634h6.227v-14.63
				C324.27,123.42,317.517,116.668,309.186,116.666z"/>
		</g>
	</g>
</g>
<g>
	<path fill="#D8D8D8" d="M249.787,145.61h-13.669v-13.325c0-7.622,6.18-13.802,13.802-13.802l0,0L249.787,145.61z"/>
	<path fill="#D8D8D8" d="M249.787,194.654h-13.669v-13.325c0-7.623,6.18-13.803,13.802-13.803l0,0L249.787,194.654z"/>
	<path fill="#454545" d="M234.156,196.016v-14.632c0-8.333,6.753-15.086,15.086-15.089l0,0c8.333,0.003,15.086,6.756,15.088,15.089
		l0,0v12.814v1.817H234.156L234.156,196.016z M262.513,194.198v-1.816V194.198L262.513,194.198z M237.787,181.384v10.998h22.911
		v-10.998c-0.014-6.325-5.131-11.443-11.456-11.454l0,0C242.916,169.94,237.798,175.059,237.787,181.384L237.787,181.384z"/>
	<rect x="222.45" y="206.592" fill="#D8D8D8" width="49.02" height="51.664"/>
	<path fill="#454545" d="M224.887,208.611c-1.004,0-1.814-0.813-1.814-1.815l0,0c0-1.004,0.811-1.816,1.814-1.816l0,0h49.834
		c1.004,0,1.817,0.813,1.817,1.816l0,0c0,1.002-0.813,1.815-1.817,1.815l0,0H224.887L224.887,208.611z"/>
	<g>
		<path fill="#454545" d="M216.956,102.138c-1.002,0-1.817-0.813-1.817-1.817l0,0c0-1.002,0.815-1.815,1.817-1.815l0,0h44.986
			c1.002,0,1.816,0.813,1.816,1.815l0,0c0,1.004-0.814,1.817-1.816,1.817l0,0H216.956L216.956,102.138z"/>
		<path fill="#454545" d="M266.16,102.749c-1.005,0-1.816-0.814-1.816-1.816l0,0c0-1.004,0.812-1.816,1.816-1.816l0,0h15.886
			c1.002,0,1.816,0.812,1.816,1.816l0,0c0,1.002-0.814,1.816-1.816,1.816l0,0H266.16L266.16,102.749z"/>
	</g>
	<g>
		<g>
			<path fill="#454545" d="M276.455,123.663h3.636v-3.937h-3.636V123.663z M219.406,103.395v10.882h3.633v-7.25h53.416v7.553h3.636
				v-11.185H219.406z M276.457,258.075h-53.418V129.716h-3.633v131.992h60.685V128.809h-3.636L276.457,258.075z M223.039,120.029
				h-3.633v3.935h3.633V120.029z"/>
		</g>
	</g>
	<g>
		<g>
			<path fill="#454545" d="M249.242,116.667c-8.333,0-15.086,6.755-15.086,15.088v14.629h17.892v-3.631h-14.261v-10.998
				c0.012-6.326,5.129-11.443,11.455-11.458c6.325,0.014,11.442,5.132,11.456,11.458v10.998h-3.201v3.631h6.833v-14.629
				C264.328,123.421,257.575,116.667,249.242,116.667z"/>
		</g>
	</g>
	<g>
		<g>
			<path fill="#454545" d="M249.242,214.084c-8.333,0-15.086,6.752-15.086,15.086v14.631h14.864v-3.633h-11.235l0.002-10.998
				c0.012-6.326,5.129-11.443,11.455-11.454c6.325,0.011,11.442,5.128,11.456,11.454v10.998h-6.834v3.633h10.466V229.17
				C264.328,220.836,257.575,214.084,249.242,214.084z"/>
		</g>
	</g>
</g>
<g>
	<rect x="96.105" y="195.988" fill="#D8D8D8" width="10.476" height="25.712"/>
	<rect x="72.934" y="196.94" fill="#D8D8D8" width="10.475" height="25.712"/>
	<g>
		<path fill="#FFFFFF" d="M132.294,221.597c0,0-5.078-38.518-43.594-38.939c0,0-37.247,1.27-41.056,39.785
			c0,0-38.514,5.502-30.473,46.558h159.563C176.734,269,178.427,229.638,132.294,221.597z"/>
		<path fill="#454545" d="M15.676,270.816l-0.288-1.467c-0.783-3.988-1.141-7.667-1.141-11.065l0,0
			c-0.036-16.317,8.373-25.98,16.629-31.201l0,0c6.252-3.985,12.417-5.61,15.105-6.178l0,0
			c2.276-18.993,12.823-29.239,22.774-34.407l0,0c10.185-5.331,19.726-5.644,19.881-5.656l0,0l0.042-0.002h0.04
			c19.901,0.182,31.497,10.433,37.758,20.479l0,0c4.959,7.909,6.813,15.688,7.392,18.718l0,0
			c21.148,3.993,32.517,14.737,38.348,25.149l0,0c5.963,10.609,6.334,20.746,6.341,23.283l0,0c0,0.371-0.008,0.579-0.008,0.6l0,0
			l-0.07,1.748H15.676L15.676,270.816z M174.893,267.182c-0.16-3.501-1.081-11.774-5.842-20.214l0,0
			c-5.534-9.771-16.054-19.89-37.069-23.583l0,0l0.312-1.788l1.802-0.237l-1.802,0.237l-0.312,1.788l-1.315-0.23l-0.173-1.321
			c-0.004,0-0.07-0.523-0.274-1.531l0,0c-0.204-1.008-0.541-2.463-1.063-4.213l0,0c-1.041-3.499-2.827-8.178-5.755-12.837l0,0
			c-5.901-9.31-16.091-18.522-34.676-18.777l0,0c-0.129,0.007-0.613,0.029-1.44,0.117l0,0c-0.977,0.105-2.391,0.297-4.105,0.645l0,0
			c-3.423,0.695-8.04,2.015-12.737,4.478l0,0c-9.391,4.974-19.108,14.258-20.992,32.908l0,0l-0.141,1.416l-1.408,0.202
			c-0.003,0.002-0.418,0.058-1.235,0.233l0,0c-0.817,0.174-2,0.459-3.422,0.899l0,0c-2.845,0.875-6.646,2.363-10.412,4.772l0,0
			c-7.534,4.865-14.915,13.125-14.951,28.139l0,0c0,2.733,0.248,5.692,0.8,8.897l0,0H174.893L174.893,267.182z"/>
	</g>
	<path fill="#454545" d="M94.201,223.834v-1.814h1.816h-1.816V223.834h-1.816v-28.715c-0.006-0.064-0.006-0.126,0-0.187l0,0l0,0
		c0-0.001,0-0.002,0-0.002l0,0c0-0.015,0-0.03,0-0.045l0,0c0.01-0.385,0.138-0.739,0.35-1.028l0,0
		c0.003-0.003,0.005-0.007,0.008-0.011l0,0c0.003-0.004,0.007-0.009,0.01-0.013l0,0c0.05-0.066,0.104-0.128,0.163-0.187l0,0l0,0l0,0
		c0.011-0.011,0.021-0.021,0.032-0.031l0,0c0.004-0.004,0.008-0.007,0.012-0.011l0,0c0.007-0.007,0.014-0.013,0.021-0.02l0,0
		c0.003-0.003,0.005-0.005,0.008-0.008l0,0c0.009-0.007,0.017-0.015,0.025-0.022l0,0c0.001-0.001,0.003-0.001,0.005-0.003l0,0
		c0.01-0.009,0.02-0.018,0.03-0.026l0,0l0,0l0,0c0.137-0.111,0.291-0.204,0.457-0.272l0,0c0,0,0,0,0.001-0.001l0,0
		c0.011-0.005,0.024-0.009,0.036-0.015l0,0c0.007-0.003,0.014-0.005,0.021-0.008l0,0c0.005-0.002,0.01-0.005,0.015-0.006l0,0
		c0.198-0.072,0.409-0.11,0.622-0.11l0,0c0.165,0.01,6.557-0.009,13.198,3.609l0,0c6.66,3.576,13.425,11.158,13.59,25.267l0,0
		l0.029,1.844H94.201L94.201,223.834z M117.283,220.201c-0.638-10.178-4.853-15.668-9.487-18.962l0,0
		c-4.341-3.058-9.202-4.053-11.778-4.356l0,0v23.318H117.283L117.283,220.201z M94.016,196.738c-0.091-0.01-0.18-0.024-0.267-0.048
		l0,0C93.855,196.72,93.942,196.732,94.016,196.738L94.016,196.738z M93.396,196.561c-0.002-0.001-0.005-0.003-0.009-0.004l0,0l0,0
		C93.391,196.559,93.394,196.56,93.396,196.561L93.396,196.561z"/>
	<g>
		<circle fill="#FFFFFF" cx="139.49" cy="269" r="12.273"/>
		<path fill="#454545" d="M125.399,269c0.001-7.784,6.307-14.09,14.09-14.092l0,0c7.782,0.002,14.089,6.308,14.09,14.092l0,0
			c-0.001,7.782-6.309,14.089-14.09,14.089l0,0C131.706,283.089,125.4,276.782,125.399,269L125.399,269z M139.489,279.457
			c5.774-0.011,10.447-4.684,10.457-10.457l0,0c-0.01-5.775-4.682-10.448-10.457-10.458l0,0c-5.776,0.01-10.447,4.683-10.457,10.458
			l0,0C129.042,274.773,133.713,279.446,139.489,279.457L139.489,279.457z"/>
	</g>
	<path fill="#454545" d="M57.223,223.834l0.03-1.844c0.162-14.109,6.928-21.69,13.586-25.267l0,0
		c6.642-3.617,13.035-3.6,13.201-3.609l0,0l0.44,0.055h0.002l1.376,0.345v28.506v1.814H57.223L57.223,223.834z M84.042,222.02
		v-1.818V222.02L84.042,222.02z M82.224,220.201v-23.316c-0.491,0.058-1.063,0.14-1.7,0.257l0,0
		c-2.168,0.395-5.071,1.196-7.941,2.769l0,0c-5.441,3.041-10.881,8.583-11.621,20.291l0,0H82.224L82.224,220.201z"/>
	<path fill="#454545" d="M159.381,233.024v12.273h11.427C170.809,245.298,167.846,238.103,159.381,233.024z"/>
	<rect x="93.884" y="228.686" fill="#454545" width="11.427" height="5.714"/>
	<rect x="73.78" y="257.678" fill="#454545" width="44.864" height="5.713"/>
	<rect x="56.744" y="228.686" fill="#454545" width="11.428" height="5.714"/>
	<rect x="20.557" y="237.256" fill="#454545" width="11.11" height="6.349"/>
	<rect x="33.889" y="237.256" fill="#D8D8D8" width="53.012" height="6.349"/>
	<rect x="94.202" y="237.256" fill="#D8D8D8" width="53.011" height="6.349"/>
	<g>
		<circle fill="#FFFFFF" cx="51.03" cy="269" r="12.273"/>
		<path fill="#454545" d="M36.938,268.998c0.001-7.782,6.307-14.088,14.091-14.09l0,0c7.783,0.002,14.088,6.308,14.09,14.09l0,0
			c-0.002,7.782-6.307,14.09-14.09,14.092l0,0C43.245,283.088,36.94,276.78,36.938,268.998L36.938,268.998z M51.03,279.457
			c5.776-0.013,10.444-4.684,10.455-10.459l0,0c-0.011-5.773-4.679-10.446-10.455-10.457l0,0
			c-5.775,0.011-10.449,4.684-10.456,10.457l0,0C40.581,274.773,45.254,279.444,51.03,279.457L51.03,279.457z"/>
	</g>
	<polygon fill="#454545" points="8.281,287.744 8.281,284.113 190.281,284.113 190.281,287.744 8.281,287.744 	"/>
</g>
</svg>
