<?xml version="1.0" encoding="utf-8"?>
<!-- Generator: Adobe Illustrator 13.0.0, SVG Export Plug-In . SVG Version: 6.00 Build 14948)  -->
<!DOCTYPE svg PUBLIC "-//W3C//DTD SVG 1.1//EN" "http://www.w3.org/Graphics/SVG/1.1/DTD/svg11.dtd">
<svg version="1.1" id="Layer_1" xmlns="http://www.w3.org/2000/svg" xmlns:xlink="http://www.w3.org/1999/xlink" x="0px" y="0px"
	 width="352.078px" height="327.186px" viewBox="3.836 -144.896 352.078 327.186"
	 enable-background="new 3.836 -144.896 352.078 327.186" xml:space="preserve">
<g>
	<rect x="193.238" y="34.241" fill="#D8D8D8" width="16.847" height="41.346"/>
	<rect x="155.977" y="35.773" fill="#D8D8D8" width="16.843" height="41.346"/>
	<g>
		<path fill="#FFFFFF" d="M251.43,75.418c0,0-8.164-61.934-70.102-62.614c0,0-59.893,2.041-66.02,63.975
			c0,0-61.931,8.848-49.001,74.866H322.89C322.891,151.645,325.615,88.351,251.43,75.418z"/>
		<g>
			<g>
				<path fill="#464646" d="M163.479,154.564h5.111v-5.842h-5.111V154.564z M67.451,134.414
					c0.059-24.146,11.926-37.425,24.042-45.25c6.057-3.871,12.17-6.264,16.742-7.673c2.286-0.706,4.188-1.165,5.5-1.446
					c1.315-0.281,1.984-0.371,1.984-0.375l2.268-0.321l0.229-2.281c0.384-3.808,0.974-7.37,1.737-10.708h-6.003
					c-0.539,2.538-0.982,5.183-1.313,7.947c-4.327,0.912-14.239,3.526-24.291,9.937c-13.274,8.397-26.794,23.936-26.737,50.17
					c0,5.463,0.572,11.383,1.833,17.793l0.466,2.357h92.271v-5.842h-87.44C67.849,143.568,67.451,138.809,67.451,134.414z
					 M124.208,53.46h-6.322c-0.816,2.024-1.58,4.117-2.248,6.328h6.135C122.501,57.563,123.32,55.462,124.208,53.46z
					 M304.045,154.564h3.649v-5.842h-3.649V154.564z M175.892,154.564h121.58v-5.842h-121.58V154.564L175.892,154.564z
					 M324.596,138.408h-5.953c0.861,4.386,1.183,8.005,1.288,10.314h-6.759v5.842h12.523l0.11-2.81
					c0.002-0.037,0.013-0.366,0.013-0.964C325.816,148.902,325.685,144.395,324.596,138.408z M323.406,132.932
					c-1.492-5.896-3.898-12.677-7.779-19.582c-9.379-16.743-27.657-34.018-61.663-40.438c-0.928-4.872-3.909-17.382-11.886-30.098
					c-10.067-16.158-28.717-32.636-60.718-32.93h-0.072l-0.06,0.004c-0.249,0.019-15.591,0.525-31.969,9.093
					c-10.809,5.615-22.047,14.966-29.335,29.855h6.58c6.635-12.138,16.144-19.741,25.469-24.682
					c7.552-3.96,14.974-6.082,20.482-7.201c2.754-0.559,5.027-0.868,6.597-1.034c1.415-0.151,2.206-0.184,2.35-0.191
					c29.868,0.422,46.241,15.229,55.73,30.192c4.708,7.492,7.578,15.018,9.253,20.647c0.84,2.811,1.38,5.151,1.709,6.773
					c0.328,1.617,0.433,2.462,0.438,2.462l0.279,2.126l2.115,0.37c33.793,5.938,50.706,22.21,59.604,37.922
					c3.281,5.814,5.425,11.577,6.826,16.715h6.049V132.932z"/>
			</g>
		</g>
	</g>
	<g>
		<circle fill="#FFFFFF" cx="263.001" cy="151.645" r="19.736"/>
		<path fill="#454545" d="M240.344,151.645c0.003-12.514,10.142-22.653,22.656-22.658l0,0c12.514,0.005,22.653,10.146,22.659,22.658
			l0,0c-0.006,12.517-10.146,22.653-22.659,22.658l0,0C250.485,174.298,240.347,164.159,240.344,151.645L240.344,151.645z
			 M263,168.46c9.285-0.017,16.8-7.528,16.813-16.815l0,0c-0.015-9.287-7.527-16.799-16.813-16.814l0,0
			c-9.288,0.02-16.8,7.527-16.815,16.814l0,0C246.2,160.932,253.712,168.443,263,168.46L263,168.46z"/>
	</g>
	<path fill="#D8D8D8" d="M263.12,134.828c-9.354,0-16.935,7.583-16.935,16.936c0,9.354,7.579,16.934,16.935,16.934V134.828z"/>
	<path fill="#D8D8D8" d="M174.572,76.464V32.906c0,0-39.478,0-40.155,43.558H174.572z"/>
	<path fill="#454545" d="M130.715,79.02l0.049-2.967c0.26-22.688,11.14-34.88,21.847-40.631l0,0
		c10.682-5.814,20.961-5.786,21.229-5.802l0,0l0.706,0.086l2.217,0.553V76.1v2.919L130.715,79.02L130.715,79.02z M173.84,76.1
		v-2.923V76.1L173.84,76.1z M170.916,73.177V35.682c-0.787,0.094-1.708,0.225-2.731,0.413l0,0c-3.49,0.637-8.151,1.923-12.771,4.455
		l0,0c-8.75,4.889-17.501,13.804-18.688,32.627l0,0H170.916L170.916,73.177z"/>
	<path fill="#D8D8D8" d="M110.49,81.525c0,0-52.387,7.01-42.544,67.471h41.54L110.49,81.525z"/>
	<path fill="#454545" d="M294.987,93.795v19.736h18.376C313.363,113.531,308.597,101.963,294.987,93.795z"/>
	<rect x="189.666" y="86.818" fill="#454545" width="18.376" height="5.689"/>
	<rect x="157.337" y="135.014" fill="#454545" width="72.143" height="5.789"/>
	<rect x="129.943" y="86.818" fill="#454545" width="18.378" height="5.689"/>
	<rect x="71.754" y="100.6" fill="#454545" width="17.865" height="10.208"/>
	<g>
		<circle fill="#FFFFFF" cx="120.755" cy="151.645" r="19.736"/>
		<path fill="#454545" d="M98.096,151.645c0.004-12.516,10.143-22.658,22.659-22.658l0,0c12.515,0,22.654,10.145,22.658,22.658l0,0
			c-0.004,12.516-10.145,22.656-22.658,22.658l0,0C108.242,174.301,98.1,164.158,98.096,151.645L98.096,151.645z M120.755,168.461
			c9.286-0.02,16.796-7.527,16.812-16.816l0,0c-0.015-9.285-7.524-16.799-16.812-16.813l0,0c-9.285,0.018-16.8,7.527-16.816,16.813
			l0,0C103.955,160.934,111.468,168.441,120.755,168.461L120.755,168.461z"/>
	</g>
	<g>
		<g>
			<path fill="#454545" d="M213.133,79.02h20.165l-0.048-2.968c-0.265-22.688-11.146-34.877-21.853-40.628
				c-10.682-5.817-20.956-5.789-21.223-5.805c-0.774,0-1.479,0.301-1.999,0.791c-0.022,0.021-0.048,0.043-0.069,0.065
				c-0.021,0.02-0.039,0.041-0.06,0.061c-0.493,0.524-0.798,1.228-0.798,2.004c0,0.011,0.002,0.023,0.002,0.036
				c-0.007,0.09-0.006,0.181,0.002,0.275L187.25,79.02h11.644v-5.842h-5.797V35.68c4.145,0.489,11.956,2.089,18.938,7.006
				c7.456,5.297,14.229,14.127,15.256,30.492h-14.159L213.133,79.02L213.133,79.02z M204.37,79.02h3.283v-5.842h-3.283V79.02z"/>
		</g>
	</g>
	<g>
		<g>
			<path fill="#454545" stroke="#454545" stroke-width="0.75" d="M52.014,181.789H169.32v-3.413H52.014V181.789z M182.464,178.376
				v3.413H344.67v-3.413H182.464z"/>
		</g>
		<g>
			<path fill="none" stroke="#454545" stroke-linecap="round" d="M52.014,181.789H169.32v-4.592H52.014V181.789z M182.464,177.197
				v4.592H344.67v-4.592H182.464z"/>
		</g>
	</g>
</g>
<g>
	<path fill="#454545" d="M329.226,17.346c0-7.372,5.974-13.344,13.345-13.346l0,0c7.371,0.002,13.344,5.975,13.344,13.346l0,0
		c0,7.371-5.973,13.344-13.344,13.345l0,0C335.198,30.69,329.226,24.717,329.226,17.346L329.226,17.346z M332.99,17.346
		c0.014,5.289,4.289,9.567,9.578,9.577l0,0c5.288-0.01,9.566-4.289,9.575-9.577l0,0c-0.009-5.288-4.287-9.566-9.575-9.578l0,0
		C337.281,7.78,333.004,12.058,332.99,17.346L332.99,17.346z"/>
	<path fill="#454545" d="M340.687,52.551V30.117c0-1.038,0.843-1.883,1.884-1.883l0,0c1.041,0,1.886,0.845,1.886,1.883l0,0v22.434
		c0,1.041-0.845,1.884-1.886,1.884l0,0C341.529,54.435,340.687,53.591,340.687,52.551L340.687,52.551z"/>
</g>
<g>
	<g>
		<path fill="#464646" d="M227.096,54.89c2.422-0.842,4.825-1.602,7.21-2.289v-4.5c-2.385,0.666-4.789,1.408-7.21,2.222V54.89z
			 M75.019,130.676c-19.021,0-34.129-6.117-44.505-12.242c-5.184-3.063-9.177-6.123-11.86-8.408
			c-1.34-1.142-2.354-2.087-3.028-2.744c-0.672-0.654-0.976-0.987-0.978-0.987c-0.807-0.88-2.177-0.938-3.057-0.133
			c-0.879,0.805-0.94,2.175-0.133,3.055c0.188,0.188,23.588,25.75,63.562,25.787h0.034c25.363,0,57.151-10.434,93.308-43.786
			c17.235-15.881,34.371-26.49,50.806-33.308v-4.664c-17.424,6.986-35.589,18.045-53.737,34.79
			C129.811,120.854,99.171,130.664,75.019,130.676z M345.141,62.187c-0.196-0.113-30.027-19.283-72.833-19.299
			c-9.456-0.005-19.546,0.946-30.071,3.243v4.426c10.538-2.372,20.624-3.336,30.071-3.341c20.746,0,38.413,4.667,50.878,9.339
			c6.229,2.335,11.161,4.671,14.519,6.411c1.683,0.873,2.966,1.593,3.825,2.095c0.861,0.503,1.271,0.768,1.273,0.768
			c1.004,0.643,2.342,0.354,2.988-0.652C346.436,64.17,346.145,62.832,345.141,62.187z"/>
	</g>
</g>
<g>
	<g>
		<path fill="#454545" d="M15.332,89.658h3.778v-2.141h-3.778V89.658z M18.127,53.093v-3.78c-0.301-0.02-0.602-0.046-0.906-0.046
			c-0.594,0-1.174,0.052-1.748,0.127v3.82c0.567-0.105,1.15-0.168,1.748-0.169C17.527,53.046,17.828,53.064,18.127,53.093z
			 M20.904,49.793v3.992c3.476,1.447,5.915,4.869,5.924,8.868c-0.011,5.305-4.302,9.597-9.605,9.608
			c-5.305-0.011-9.597-4.303-9.606-9.608c0.008-3.667,2.063-6.849,5.081-8.468v-4.116c-5.161,1.857-8.859,6.781-8.86,12.584
			c0.001,6.75,5.001,12.317,11.498,13.237v9.159h3.778v-9.16c6.495-0.921,11.493-6.487,11.495-13.237
			C30.604,56.538,26.503,51.395,20.904,49.793z M15.332,97.963c0,1.045,0.844,1.891,1.889,1.891c1.044,0,1.891-0.846,1.891-1.891
			v-5.839h-3.778L15.332,97.963L15.332,97.963z"/>
	</g>
</g>
</svg>
