<svg width="40" height="39" viewBox="0 0 40 39" fill="none" xmlns="http://www.w3.org/2000/svg">
<path d="M20 0.670898C16.2302 0.670898 12.5452 1.7888 9.41082 3.8831C6.27642 5.9774 3.83342 8.9542 2.39082 12.437C0.948217 15.9197 0.570716 19.752 1.30622 23.4493C2.04162 27.1466 3.85692 30.5428 6.52252 33.2084C9.18812 35.8739 12.5843 37.6892 16.2815 38.4247C19.9788 39.1601 23.8111 38.7827 27.2939 37.34C30.7767 35.8974 33.7534 33.4545 35.8478 30.3201C37.9421 27.1857 39.06 23.5006 39.06 19.7309C39.0547 14.6775 37.0449 9.8326 33.4716 6.2593C29.8983 2.686 25.0534 0.676198 20 0.670898ZM20 36.7909C16.6258 36.7909 13.3274 35.7904 10.5219 33.9158C7.71642 32.0412 5.52982 29.3768 4.23862 26.2595C2.94732 23.1422 2.60952 19.712 3.26782 16.4027C3.92602 13.0933 5.55082 10.0535 7.93672 7.6677C10.3226 5.2818 13.3624 3.657 16.6717 2.9987C19.981 2.3404 23.4112 2.6783 26.5285 3.9695C29.6458 5.2607 32.3102 7.4474 34.1848 10.2529C36.0594 13.0584 37.06 16.3568 37.06 19.7309C37.0547 24.2539 35.2556 28.5901 32.0573 31.7883C28.8591 34.9865 24.5229 36.7856 20 36.7909Z" fill="#464646"/>
<path d="M22.5877 31.7305L13.6818 23.5909V22.9091H17.7727C17.7727 22.9091 24.5909 23.4205 24.5909 17.4545C24.5909 12.0852 17.7727 12 17.7727 12H13" stroke="#464646" stroke-width="1.5" stroke-miterlimit="10"/>
<path d="M13 12H28" stroke="#464646" stroke-width="1.5" stroke-miterlimit="10"/>
<path d="M13 17.4928H28" stroke="#464646" stroke-width="1.5" stroke-miterlimit="10"/>
<line x1="8.73376" y1="5.32059" x2="33.7338" y2="32.3206" stroke="#464646" stroke-width="2"/>
</svg>
