<svg width="71" height="120" viewBox="0 0 71 120" fill="none" xmlns="http://www.w3.org/2000/svg">
<path d="M5.35254 54.5434L32.6563 100.24C33.0852 100.959 33.8584 101.402 34.6955 101.409C34.7019 101.409 34.7099 101.409 34.7163 101.409C35.5454 101.409 36.3169 100.98 36.7555 100.275L65.1765 54.5786C65.2469 54.465 65.3077 54.3465 65.3558 54.2265C68.7539 48.677 70.5466 42.3385 70.5466 35.8671C70.5466 16.4193 54.7211 0.597 35.2685 0.597C15.8223 0.597 0 16.4193 0 35.8671C0 42.3401 1.79432 48.6802 5.19408 54.2313C5.2389 54.3385 5.29172 54.4426 5.35254 54.5434ZM35.2701 5.40052C52.0752 5.40052 65.7463 19.0684 65.7463 35.8687C65.7463 41.575 64.1281 47.166 61.0676 52.0352C60.994 52.1504 60.9332 52.2705 60.8836 52.3953L34.7579 94.3962L9.68227 52.4289C9.62785 52.2929 9.56222 52.16 9.48219 52.0336C6.42177 47.1644 4.80352 41.575 4.80352 35.8671C4.80352 19.0684 18.4714 5.40052 35.2701 5.40052Z" fill="#10AC84"/>
<path d="M35.2746 48.9828C42.5047 48.9828 48.387 43.1004 48.387 35.8703C48.387 28.6402 42.5047 22.7579 35.2746 22.7579C28.0445 22.7579 22.1621 28.6402 22.1621 35.8703C22.1621 43.1004 28.0445 48.9828 35.2746 48.9828ZM35.2746 27.5598C39.8572 27.5598 43.5851 31.2877 43.5851 35.8703C43.5851 40.453 39.8572 44.1809 35.2746 44.1809C30.6919 44.1809 26.964 40.453 26.964 35.8703C26.9624 31.2877 30.6919 27.5598 35.2746 27.5598Z" fill="#10AC84"/>
<path d="M65.5974 115.198H4.95077C3.62383 115.198 2.5498 116.274 2.5498 117.599C2.5498 118.924 3.62383 120 4.95077 120H65.5974C66.9228 120 67.9984 118.924 67.9984 117.599C67.9984 116.274 66.9228 115.198 65.5974 115.198Z" fill="#10AC84"/>
</svg>
