<svg width="182" height="209" viewBox="0 0 182 209" fill="none" xmlns="http://www.w3.org/2000/svg">
<path d="M174.5 178C174.5 179.067 173.877 181.219 170.144 184.226C166.479 187.178 160.715 190.168 152.928 192.821C137.428 198.101 115.533 201.5 91 201.5C66.4667 201.5 44.5716 198.101 29.0717 192.821C21.2846 190.168 15.5214 187.178 11.8557 184.226C8.12289 181.219 7.5 179.067 7.5 178C7.5 176.933 8.12289 174.781 11.8557 171.774C15.5214 168.822 21.2846 165.832 29.0717 163.179C44.5716 157.899 66.4667 154.5 91 154.5C115.533 154.5 137.428 157.899 152.928 163.179C160.715 165.832 166.479 168.822 170.144 171.774C173.877 174.781 174.5 176.933 174.5 178Z" fill="#DBE5F1" stroke="#475F7B" stroke-width="15"/>
<path d="M132 165.5L92 184L103 161.5L111.5 162.5L132 165.5Z" fill="#ACC1D9"/>
<path fill-rule="evenodd" clip-rule="evenodd" d="M145.367 22.3675C115.544 -7.45584 67.1908 -7.45584 37.3675 22.3675C7.54415 52.1909 7.54417 100.544 37.3675 130.367L91.3675 184.367L145.367 130.367C175.191 100.544 175.191 52.1909 145.367 22.3675ZM91.3675 137.368C125.057 137.368 152.367 110.057 152.367 76.3675C152.367 42.6782 125.057 15.3675 91.3675 15.3675C57.6781 15.3675 30.3675 42.6782 30.3675 76.3675C30.3675 110.057 57.6781 137.368 91.3675 137.368Z" fill="#8ACB9E"/>
<circle cx="91" cy="78" r="31.5" stroke="#8ACB9E" stroke-width="15"/>
</svg>
