<svg width="120" height="121" viewBox="0 0 120 121" fill="none" xmlns="http://www.w3.org/2000/svg">
<path d="M119.683 43.0861C119.306 41.9752 118.612 40.9992 117.686 40.2784C116.761 39.5576 115.644 39.1236 114.475 39.03L80.2686 36.312L65.4665 3.54583C64.9951 2.49049 64.2284 1.59414 63.2588 0.964957C62.2892 0.335769 61.1583 0.000635278 60.0025 9.02277e-07C58.8466 -0.000633473 57.7153 0.333259 56.745 0.961382C55.7748 1.5895 55.007 2.48501 54.5345 3.53983L39.7324 36.312L5.52619 39.03C4.37692 39.1211 3.2782 39.5413 2.3615 40.2404C1.4448 40.9396 0.74892 41.888 0.357119 42.9722C-0.0346825 44.0565 -0.105816 45.2307 0.152228 46.3543C0.410272 47.4779 0.986568 48.5034 1.81217 49.3081L27.0903 73.9502L18.1503 112.662C17.8788 113.834 17.9658 115.061 18.4 116.182C18.8342 117.304 19.5955 118.269 20.5851 118.953C21.5747 119.637 22.747 120.007 23.9498 120.016C25.1526 120.026 26.3304 119.673 27.3303 119.005L60.0005 97.2244L92.6707 119.005C93.6927 119.683 94.898 120.032 96.1245 120.006C97.351 119.979 98.5398 119.577 99.5311 118.854C100.522 118.131 101.269 117.122 101.669 115.963C102.07 114.803 102.106 113.549 101.773 112.368L90.7987 73.9682L118.015 49.4761C119.797 47.8681 120.451 45.3601 119.683 43.0861Z" fill="#60C17E"/>
</svg>
