<?xml version="1.0" encoding="iso-8859-1"?>
<!-- Generator: Adobe Illustrator 19.0.0, SVG Export Plug-In . SVG Version: 6.00 Build 0)  -->
<svg version="1.1" id="Layer_1" xmlns="http://www.w3.org/2000/svg" xmlns:xlink="http://www.w3.org/1999/xlink" x="0px" y="0px"
	 viewBox="0 0 495.348 495.348" style="enable-background:new 0 0 495.348 495.348;" xml:space="preserve">
<path style="fill:#05AF8F;" d="M230.432,302.305h-50.097c31.35-30.397,54.965-56.667,54.965-89.49
	c0-27.538-17.881-55.32-57.817-55.32c-18.912,0-36.99,6.498-50.979,18.322c-3.001,2.536-3.946,6.735-2.339,10.327l6.9,15.281
	c1.126,2.505,3.379,4.34,6.057,4.955c2.67,0.654,5.498-0.063,7.593-1.82c5.159-4.301,15.675-11.508,28.349-11.508
	c15.455,0,22.977,7.349,22.977,22.402c-0.213,20.291-16.928,39.424-56.942,77.517l-16.991,16.494
	c-1.701,1.654-2.662,3.931-2.662,6.309v13.296c0,4.868,3.931,8.799,8.799,8.799h102.203c4.868,0,8.791-3.931,8.791-8.799v-17.967
	C239.214,306.219,235.292,302.305,230.432,302.305z"/>
<path style="fill:#049696;" d="M367.135,259.667h-13.619v-90.671c0-4.868-3.931-8.799-8.791-8.799h-23.402
	c-2.859,0-5.553,1.41-7.215,3.765l-71.42,102.203c-1.024,1.473-1.575,3.222-1.575,5.041v14.273c0,4.868,3.923,8.791,8.791,8.791
	h65.583v34.8c0,4.868,3.938,8.799,8.799,8.799h20.449c4.86,0,8.791-3.931,8.791-8.799v-34.8h13.619c4.852,0,8.783-3.923,8.783-8.791
	v-16.991C375.918,263.597,371.988,259.667,367.135,259.667z M288.626,259.667l26.86-37.392v37.392H288.626z"/>
<g>
	<path style="fill:#12D69A;" d="M41.157,257.784c-5.577,0-10.098-4.521-10.098-10.098c0-119.461,97.178-216.631,216.615-216.631
		c5.577,0,10.098,4.537,10.098,10.114s-4.521,10.075-10.098,10.075c-108.3,0-196.419,88.119-196.419,196.435
		C51.255,253.263,46.734,257.784,41.157,257.784z"/>
	<path style="fill:#12D69A;" d="M247.674,464.301c-5.577,0-10.114-4.537-10.114-10.114s4.537-10.09,10.114-10.09
		c108.3,0,196.411-88.119,196.411-196.411c0-5.577,4.529-10.114,10.106-10.114c5.577,0,10.098,4.537,10.098,10.114
		C464.289,367.116,367.112,464.301,247.674,464.301z"/>
</g>
<g>
	<path style="fill:#05AF8F;" d="M230.605,86.02c-3.868,0-7.727-1.465-10.689-4.427c-5.908-5.892-5.908-15.462,0-21.354
		l17.211-17.227l-17.211-17.203c-5.908-5.908-5.908-15.462,0-21.378c5.908-5.908,15.47-5.908,21.37,0l38.573,38.573l-38.573,38.573
		C238.332,84.555,234.464,86.02,230.605,86.02z"/>
	<path style="fill:#05AF8F;" d="M264.743,409.336c3.868-0.016,7.735,1.465,10.689,4.419c5.908,5.908,5.908,15.462,0,21.37
		l-17.203,17.227l17.203,17.203c5.908,5.892,5.9,15.462,0,21.362c-5.9,5.908-15.455,5.908-21.362,0l-38.589-38.573l38.589-38.565
		C257.016,410.801,260.884,409.336,264.743,409.336z"/>
</g>
<path style="fill:#049696;" d="M177.475,157.487c-18.456,0-36.1,6.231-49.924,17.51l24.411,24.411
	c5.53-3.308,12.847-6.365,21.087-6.365c15.455,0,22.977,7.349,22.977,22.402c-0.071,7.034-2.174,13.942-6.498,21.528l26.482,26.482
	c11.926-16.069,19.291-32.335,19.291-50.649C235.292,185.269,217.411,157.487,177.475,157.487z"/>
<g>
</g>
<g>
</g>
<g>
</g>
<g>
</g>
<g>
</g>
<g>
</g>
<g>
</g>
<g>
</g>
<g>
</g>
<g>
</g>
<g>
</g>
<g>
</g>
<g>
</g>
<g>
</g>
<g>
</g>
</svg>
