<svg id="Filled_outline" height="512" viewBox="0 0 64 64" width="512" xmlns="http://www.w3.org/2000/svg" data-name="Filled outline"><rect fill="#ffd04a" height="36" rx="2" width="40" x="21" y="19"/><circle cx="32" cy="58" fill="#bcbcbc" r="3"/><circle cx="50" cy="58" fill="#bcbcbc" r="3"/><g fill="#e6bb43"><path d="m34 55v-29a2 2 0 0 0 -2-2 2 2 0 0 0 -2 2v29z"/><path d="m43 55v-29a2 2 0 0 0 -2-2 2 2 0 0 0 -2 2v29z"/><path d="m52 55v-29a2 2 0 0 0 -2-2 2 2 0 0 0 -2 2v29z"/><path d="m28.78078 15h4.21922a1 1 0 0 1 1 1v3h-7l.81063-3.24254a1 1 0 0 1 .97015-.75746z"/><path d="m53.21922 15h-4.21922a1 1 0 0 0 -1 1v3h7l-.81063-3.24254a1 1 0 0 0 -.97015-.75746z"/></g><rect fill="#ffd04a" height="4" rx="1" width="26" x="28" y="3"/><path d="m8 35v-5a2 2 0 0 1 2-2h14a2 2 0 0 1 2 2v14a2 2 0 0 1 -2 2h-14a2 2 0 0 1 -2-2v-5" fill="#efefef"/><path d="m21.1142 36.24074-4.46341-3.82574a1 1 0 0 0 -1.65079.75922v1.82578h-11a1 1 0 0 0 -1 1v2a1 1 0 0 0 1 1h11v1.82578a1 1 0 0 0 1.65079.75926l4.46341-3.82578a1 1 0 0 0 0-1.51852z" fill="#73c97c"/><path d="m59 18h-3.2196l-.62122-2.48535a1.99618 1.99618 0 0 0 -1.94043-1.51465h-1.21875v-6h1a2.00229 2.00229 0 0 0 2-2v-2a2.00229 2.00229 0 0 0 -2-2h-24a2.00229 2.00229 0 0 0 -2 2v2a2.00229 2.00229 0 0 0 2 2h1v6h-1.21875a1.99618 1.99618 0 0 0 -1.94043 1.51465l-.62122 2.48535h-3.2196a3.00328 3.00328 0 0 0 -3 3v4h2v-4a1.001 1.001 0 0 1 1-1h36a1.001 1.001 0 0 1 1 1v32a1.001 1.001 0 0 1 -1 1h-6v-28a3 3 0 0 0 -6 0v28h-3v-28a3 3 0 0 0 -6 0v28h-3v-28a3 3 0 0 0 -6 0v28h-6a1.001 1.001 0 0 1 -1-1v-4h-2v4a3.00328 3.00328 0 0 0 3 3h5.55634a3.95426 3.95426 0 0 0 -.55634 2 4 4 0 0 0 8 0 3.95426 3.95426 0 0 0 -.55634-2h11.11268a3.95426 3.95426 0 0 0 -.55634 2 4 4 0 0 0 8 0 3.95426 3.95426 0 0 0 -.55634-2h5.55634a3.00328 3.00328 0 0 0 3-3v-32a3.00328 3.00328 0 0 0 -3-3zm-30-14h24v2h-24zm-.71973 14 .5-1.99951.00098-.00049h4.21875v2zm6.71973 0v-2a2.00229 2.00229 0 0 0 -2-2h-1v-6h18v6h-1a2.00229 2.00229 0 0 0 -2 2v2zm14 0v-2h4.21875l.501 2zm-18 8a1 1 0 0 1 2 0v28h-2zm1 34a2 2 0 1 1 2-2 2.00229 2.00229 0 0 1 -2 2zm8-6v-28a1 1 0 0 1 2 0v28zm9-28a1 1 0 0 1 2 0v28h-2zm1 34a2 2 0 1 1 2-2 2.00229 2.00229 0 0 1 -2 2z"/><path d="m4 40h3v4a3.00328 3.00328 0 0 0 3 3h14a3.00328 3.00328 0 0 0 3-3v-14a3.00328 3.00328 0 0 0 -3-3h-14a3.00328 3.00328 0 0 0 -3 3v4h-3a2.00229 2.00229 0 0 0 -2 2v2a2.00229 2.00229 0 0 0 2 2zm5-10a1.001 1.001 0 0 1 1-1h14a1.001 1.001 0 0 1 1 1v14a1.001 1.001 0 0 1 -1 1h-14a1.001 1.001 0 0 1 -1-1v-4h5v.82568a1.98062 1.98062 0 0 0 1.16406 1.81739 2.01488 2.01488 0 0 0 .8418.186 1.98126 1.98126 0 0 0 1.29492-.48486l4.46387-3.8252a1.99912 1.99912 0 0 0 0-3.03759l-4.46289-3.82569a1.99982 1.99982 0 0 0 -3.30176 1.51859v.82568h-5zm-5 6h12v-2.82568l4.46387 3.82568-4.46387 3.82568v-2.82568h-12z"/></svg>