<?xml version="1.0" encoding="utf-8"?>
<!-- Generator: Adobe Illustrator 13.0.0, SVG Export Plug-In . SVG Version: 6.00 Build 14948)  -->
<!DOCTYPE svg PUBLIC "-//W3C//DTD SVG 1.1//EN" "http://www.w3.org/Graphics/SVG/1.1/DTD/svg11.dtd">
<svg version="1.1" id="Capa_1" xmlns="http://www.w3.org/2000/svg" xmlns:xlink="http://www.w3.org/1999/xlink" x="0px" y="0px"
	 width="3600px" height="3600px" viewBox="0 0 3600 3600" enable-background="new 0 0 3600 3600" xml:space="preserve">
<path fill="#FEDB41" d="M1807.031,0C817.748,0,0,803.672,0,1792.969S817.748,3600,1807.031,3600S3600,2782.266,3600,1792.969
	S2796.314,0,1807.031,0z"/>
<path fill="#FFCC33" d="M3600,1792.969C3600,2782.266,2796.314,3600,1807.031,3600V0C2796.314,0,3600,803.672,3600,1792.969z"/>
<path fill="#FEA832" d="M1807.031,421.875c-755.171,0-1385.156,615.931-1385.156,1371.094
	c0,755.164,629.985,1385.156,1385.156,1385.156c755.17,0,1371.094-629.992,1371.094-1385.156
	C3178.125,1037.805,2562.201,421.875,1807.031,421.875z"/>
<path fill="#FE9923" d="M3178.125,1792.969c0,755.164-615.924,1385.156-1371.094,1385.156V421.875
	C2562.201,421.875,3178.125,1037.805,3178.125,1792.969z"/>
<g>
	<g>
		<g>
			<path fill="#FFF652" d="M2232.169,902.744c289.675,153.427,487.022,457.953,487.022,808.578
				c0,505.007-409.39,914.401-914.401,914.401c-505.014,0-914.401-409.394-914.401-914.401
				c0-350.626,197.347-655.152,487.023-808.579c-312.692,156.804-527.329,480.291-527.329,853.921
				c0,527.27,427.436,954.704,954.706,954.704c527.27,0,954.704-427.435,954.704-954.704
				C2759.494,1383.035,2544.86,1059.549,2232.169,902.744z"/>
		</g>
	</g>
	<g>
		<path fill="#FFF652" d="M2191.881,2622.368c0,0,172.976-69.686,234.27,77.253
			C2426.151,2699.621,2233.868,2791.143,2191.881,2622.368z"/>
		<path fill="#FFF652" d="M2340.995,2544.15c0,0,150.614-114.442,249.885,12.943
			C2590.88,2557.094,2427.211,2698.066,2340.995,2544.15z"/>
		<path fill="#FFF652" d="M2468.397,2420.315c0,0,140.795-126.329,250.105-7.454
			C2718.502,2412.861,2566.865,2566.693,2468.397,2420.315z"/>
		<path fill="#FFF652" d="M2570.5,2294.774c0,0,116.135-149.312,244.811-51.724
			C2815.311,2243.051,2693.381,2421.355,2570.5,2294.774z"/>
		<path fill="#FFF652" d="M2665.967,2146.864c0,0,81.755-162.258,221.119-94.156
			C2887.086,2052.708,2805.256,2243.364,2665.967,2146.864z"/>
		<path fill="#FFF652" d="M2719.811,1986.529c0,0,44.54-176.149,195.378-139.962
			C2915.189,1846.567,2876.744,2050.455,2719.811,1986.529z"/>
		<path fill="#FFF652" d="M2737.709,1805.185c0,0,21.116-180.458,175.393-164.312
			C2913.102,1640.874,2901.649,1848.038,2737.709,1805.185z"/>
		<path fill="#FFF652" d="M2735.869,1625.991c0,0-21.234-165.281,119.641-185.128
			C2855.51,1440.863,2891.268,1627.762,2735.869,1625.991z"/>
		<path fill="#FFF652" d="M2701.863,1468.365c0,0-62.276-154.565,69.018-209.338
			C2770.88,1259.027,2852.666,1430.841,2701.863,1468.365z"/>
		<path fill="#FFF652" d="M2631.162,1307.025c0,0-72.889-144.255,49.494-207.984
			C2680.656,1099.041,2773.825,1258.363,2631.162,1307.025z"/>
		<path fill="#FFF652" d="M2535.731,1158.689c0,0-96.461-119.646,4.669-203.237C2540.4,955.452,2658.706,1085.077,2535.731,1158.689
			z"/>
		<path fill="#FFF652" d="M2417.24,1030.102c0,0-114.352-89.54-39.11-188.088C2378.13,842.014,2514.718,936.08,2417.24,1030.102z"/>
		<path fill="#FFF652" d="M2275.785,928.604c0,0-114.719-60.494-64.278-159.05C2211.507,769.553,2346.485,830.488,2275.785,928.604z
			"/>
		<path fill="#FFF652" d="M2134.647,867.807c0,0-121.789-44.577-85.007-149.002C2049.64,718.805,2191.567,761.104,2134.647,867.807z
			"/>
		<path fill="#FFF652" d="M1984.978,949.275c0,0,127.233,25.099,149.984-83.253C2134.962,866.022,1991.693,828.526,1984.978,949.275
			z"/>
		<path fill="#FFF652" d="M2108.272,994.029c0,0,127.858,44.668,167.328-64.017C2275.6,930.012,2132.98,870.167,2108.272,994.029z"
			/>
		<path fill="#FFF652" d="M2240.688,1077.838c0,0,121.724,59.396,173.703-43.891
			C2414.391,1033.947,2279.8,957.742,2240.688,1077.838z"/>
		<path fill="#FFF652" d="M2353.029,1180.022c0,0,111.103,77.468,178.397-16.563
			C2531.426,1163.46,2410.205,1067.4,2353.029,1180.022z"/>
		<path fill="#FFF652" d="M2425.53,1296.053c0,0,107.756,107.407,200.565,16.547C2626.095,1312.6,2510.788,1182.66,2425.53,1296.053
			z"/>
		<path fill="#FFF652" d="M2500.18,1428.726c0,0,91.781,121.34,196.319,44.264C2696.499,1472.99,2600.369,1328.282,2500.18,1428.726
			z"/>
		<path fill="#FFF652" d="M2549.492,1558.091c0,0,58.66,140.381,179.105,91.777
			C2728.598,1649.868,2671.552,1485.772,2549.492,1558.091z"/>
		<path fill="#FFF652" d="M2562.274,1696.489c0,0,38.897,153.64,170.456,122.039
			C2732.73,1818.528,2699.126,1640.706,2562.274,1696.489z"/>
		<path fill="#FFF652" d="M2558.063,1820.719c0,0-1.076,165.447,140.146,168.099
			C2698.208,1988.817,2710.985,1800.323,2558.063,1820.719z"/>
		<path fill="#FFF652" d="M2530.974,1963.553c0,0-34.745,161.762,102.979,193.117
			C2633.953,2156.671,2684.844,1974.726,2530.974,1963.553z"/>
		<path fill="#FFF652" d="M2470.41,2093.032c0,0-61.255,160.783,76.691,213.814
			C2547.102,2306.846,2628.249,2127.791,2470.41,2093.032z"/>
		<path fill="#FFF652" d="M2389.604,2213.334c0,0-83.482,150.447,45.529,222.544
			C2435.133,2435.878,2540.902,2270.174,2389.604,2213.334z"/>
		<path fill="#FFF652" d="M2301.556,2321.51c0,0-114.694,128.252-4.827,227.099
			C2296.729,2548.608,2436.531,2410.407,2301.556,2321.51z"/>
		<path fill="#FFF652" d="M2194.891,2391.26c0,0-146.309,108.528-53.47,234.474
			C2141.421,2625.733,2315.883,2512.25,2194.891,2391.26z"/>
		<path fill="#FFF652" d="M2053.356,2434.504c0,0-172.71,96.155-90.563,244.748
			C1962.792,2679.252,2166.498,2581.729,2053.356,2434.504z"/>
		<path fill="#FFF652" d="M2008.785,2679.38c0,0,213.108-21.411,233.604,160.292
			C2242.39,2839.672,2000.988,2878.972,2008.785,2679.38z"/>
	</g>
	<g>
		<path fill="#FFF652" d="M1406.113,2622.368c0,0-172.976-69.686-234.269,77.253
			C1171.844,2699.621,1364.125,2791.143,1406.113,2622.368z"/>
		<path fill="#FFF652" d="M1256.998,2544.15c0,0-150.614-114.442-249.885,12.943
			C1007.114,2557.094,1170.781,2698.066,1256.998,2544.15z"/>
		<path fill="#FFF652" d="M1129.596,2420.315c0,0-140.794-126.329-250.105-7.454
			C879.491,2412.861,1031.13,2566.693,1129.596,2420.315z"/>
		<path fill="#FFF652" d="M1027.493,2294.774c0,0-116.136-149.312-244.813-51.724
			C782.681,2243.051,904.613,2421.355,1027.493,2294.774z"/>
		<path fill="#FFF652" d="M932.026,2146.864c0,0-81.754-162.258-221.122-94.156C710.905,2052.708,792.738,2243.364,932.026,2146.864
			z"/>
		<path fill="#FFF652" d="M878.182,1986.529c0,0-44.54-176.149-195.375-139.962C682.807,1846.567,721.251,2050.455,878.182,1986.529
			z"/>
		<path fill="#FFF652" d="M860.283,1805.185c0,0-21.116-180.458-175.391-164.312
			C684.892,1640.874,696.342,1848.038,860.283,1805.185z"/>
		<path fill="#FFF652" d="M862.124,1625.991c0,0,21.234-165.281-119.638-185.128
			C742.486,1440.863,706.727,1627.762,862.124,1625.991z"/>
		<path fill="#FFF652" d="M896.131,1468.365c0,0,62.276-154.565-69.017-209.338C827.114,1259.027,745.324,1430.841,896.131,1468.365
			z"/>
		<path fill="#FFF652" d="M966.83,1307.025c0,0,72.889-144.255-49.495-207.984C917.335,1099.041,824.166,1258.363,966.83,1307.025z"
			/>
		<path fill="#FFF652" d="M1062.262,1158.689c0,0,96.461-119.646-4.668-203.237
			C1057.594,955.452,939.288,1085.077,1062.262,1158.689z"/>
		<path fill="#FFF652" d="M1180.754,1030.102c0,0,114.35-89.54,39.109-188.088C1219.863,842.014,1083.275,936.08,1180.754,1030.102z
			"/>
		<path fill="#FFF652" d="M1322.207,928.604c0,0,114.719-60.494,64.279-159.05C1386.486,769.553,1251.508,830.488,1322.207,928.604z
			"/>
		<path fill="#FFF652" d="M1463.346,867.807c0,0,121.788-44.577,85.007-149.002C1548.353,718.805,1406.427,761.104,1463.346,867.807
			z"/>
		<path fill="#FFF652" d="M1613.016,949.275c0,0-127.236,25.099-149.986-83.253C1463.03,866.022,1606.299,828.526,1613.016,949.275z
			"/>
		<path fill="#FFF652" d="M1489.721,994.029c0,0-127.859,44.668-167.327-64.017C1322.394,930.012,1465.014,870.167,1489.721,994.029
			z"/>
		<path fill="#FFF652" d="M1357.306,1077.838c0,0-121.725,59.396-173.704-43.891
			C1183.603,1033.947,1318.193,957.742,1357.306,1077.838z"/>
		<path fill="#FFF652" d="M1244.965,1180.022c0,0-111.102,77.468-178.398-16.563
			C1066.567,1163.46,1187.789,1067.4,1244.965,1180.022z"/>
		<path fill="#FFF652" d="M1172.464,1296.053c0,0-107.757,107.407-200.566,16.547
			C971.898,1312.6,1087.206,1182.66,1172.464,1296.053z"/>
		<path fill="#FFF652" d="M1097.814,1428.726c0,0-91.781,121.34-196.32,44.264C901.493,1472.99,997.624,1328.282,1097.814,1428.726z
			"/>
		<path fill="#FFF652" d="M1048.501,1558.091c0,0-58.66,140.381-179.105,91.777
			C869.395,1649.868,926.442,1485.772,1048.501,1558.091z"/>
		<path fill="#FFF652" d="M1035.719,1696.489c0,0-38.897,153.64-170.456,122.039
			C865.263,1818.528,898.866,1640.706,1035.719,1696.489z"/>
		<path fill="#FFF652" d="M1039.931,1820.719c0,0,1.077,165.447-140.145,168.099
			C899.786,1988.817,887.009,1800.323,1039.931,1820.719z"/>
		<path fill="#FFF652" d="M1067.02,1963.553c0,0,34.745,161.762-102.979,193.117
			C964.041,2156.671,913.148,1974.726,1067.02,1963.553z"/>
		<path fill="#FFF652" d="M1127.584,2093.032c0,0,61.253,160.783-76.692,213.814
			C1050.892,2306.846,969.743,2127.791,1127.584,2093.032z"/>
		<path fill="#FFF652" d="M1208.389,2213.334c0,0,83.482,150.447-45.528,222.544
			C1162.861,2435.878,1057.091,2270.174,1208.389,2213.334z"/>
		<path fill="#FFF652" d="M1296.437,2321.51c0,0,114.693,128.252,4.826,227.099
			C1301.263,2548.608,1161.464,2410.407,1296.437,2321.51z"/>
		<path fill="#FFF652" d="M1403.1,2391.26c0,0,146.309,108.528,53.471,234.474C1456.571,2625.733,1282.11,2512.25,1403.1,2391.26z"
			/>
		<path fill="#FFF652" d="M1544.638,2434.504c0,0,172.71,96.155,90.561,244.748
			C1635.199,2679.252,1431.494,2581.729,1544.638,2434.504z"/>
		<path fill="#FFF652" d="M1589.208,2679.38c0,0-213.107-21.411-233.604,160.292
			C1355.604,2839.672,1597.006,2878.972,1589.208,2679.38z"/>
	</g>
	<path fill="#FFF652" d="M1555.407,2884.34c0,0,58.773-164.576,203.194-186.406h122.597c0,0,107.479,70.537,142.745,157.861h-63.82
		c0,0-15.105-115.874-162.89-136.027c0,0-125.951,6.717-171.293,152.819L1555.407,2884.34z"/>
</g>
</svg>
