<?xml version="1.0" encoding="utf-8"?>
<!-- Generator: Adobe Illustrator 13.0.0, SVG Export Plug-In . SVG Version: 6.00 Build 14948)  -->
<!DOCTYPE svg PUBLIC "-//W3C//DTD SVG 1.1//EN" "http://www.w3.org/Graphics/SVG/1.1/DTD/svg11.dtd">
<svg version="1.1" id="Capa_1" xmlns="http://www.w3.org/2000/svg" xmlns:xlink="http://www.w3.org/1999/xlink" x="0px" y="0px"
	 width="3600px" height="3600px" viewBox="0 0 3600 3600" enable-background="new 0 0 3600 3600" xml:space="preserve">
<path fill="#727272" d="M269.66,3090.516h3059.924c117.221,0,212.254,94.862,212.254,211.876l0,0
	c0,117.014-95.033,211.876-212.254,211.876H269.66c-117.222,0-212.254-94.862-212.254-211.876l0,0
	C57.406,3185.379,152.439,3090.516,269.66,3090.516z"/>
<g>
	<path fill="#D1D1D1" d="M269.66,1082.795l1005.371,659.421L1800,501.176l524.969,1241.04l1005.371-659.421v2007.722h-434.326
		H703.987H269.66V1082.795z"/>
	<path fill="#AAAAAA" d="M1800,501.176l524.968,1241.04l1005.372-659.421v2007.722h-434.326H1800V501.176z"/>
</g>
<g>
	<circle fill="#727272" cx="174.486" cy="927.948" r="174.486"/>
	<circle fill="#727272" cx="3425.514" cy="946.832" r="174.486"/>
	<circle fill="#727272" cx="1800" cy="293.454" r="207.722"/>
</g>
<g>
	<path fill="#FFFFFF" d="M1800,1870.626l149.559,199.412l150.314,199.412l-150.314,199.413L1800,2668.275l-149.56-199.412
		l-150.315-199.413l150.315-199.412L1800,1870.626z"/>
	<path fill="#727272" d="M2763.072,2048.133l107.26,142.006l106.505,142.762l-106.505,142.006l-107.26,142.006l-107.259-142.006
		L2549.307,2332.9l106.505-142.762L2763.072,2048.133z"/>
	<path fill="#727272" d="M836.928,2048.133l107.26,142.006l106.504,142.762l-106.504,142.006l-107.26,142.006l-107.26-142.006
		L622.408,2332.9l107.26-142.762L836.928,2048.133z"/>
</g>
</svg>
