<svg width="20" height="20" viewBox="0 0 20 20" fill="none" xmlns="http://www.w3.org/2000/svg">
<g clip-path="url(#clip0)">
<path d="M10.3998 19.6769C15.7017 19.6769 19.9998 15.3789 19.9998 10.0769C19.9998 4.775 15.7017 0.476929 10.3998 0.476929C5.09787 0.476929 0.799805 4.775 0.799805 10.0769C0.799805 15.3789 5.09787 19.6769 10.3998 19.6769Z" fill="#3C5A9A"/>
<path d="M13.5209 3.42346H11.3943C10.1323 3.42346 8.72854 3.95425 8.72854 5.78361C8.7347 6.42103 8.72854 7.03149 8.72854 7.71852H7.26855V10.0418H8.77372V16.7301H11.5395V9.99766H13.3651L13.5302 7.712H11.4919C11.4919 7.712 11.4964 6.69524 11.4919 6.39997C11.4919 5.67705 12.2441 5.71845 12.2893 5.71845C12.6473 5.71845 13.3433 5.71949 13.522 5.71845V3.42346H13.5209V3.42346Z" fill="white"/>
</g>
<defs>
<clipPath id="clip0">
<rect width="19.2" height="19.2" fill="white" transform="translate(0.799805 0.476929)"/>
</clipPath>
</defs>
</svg>
