<?xml version="1.0" encoding="utf-8"?>
<!-- Generator: Adobe Illustrator 13.0.0, SVG Export Plug-In . SVG Version: 6.00 Build 14948)  -->
<!DOCTYPE svg PUBLIC "-//W3C//DTD SVG 1.1//EN" "http://www.w3.org/Graphics/SVG/1.1/DTD/svg11.dtd">
<svg version="1.1" id="Layer_1" xmlns="http://www.w3.org/2000/svg" xmlns:xlink="http://www.w3.org/1999/xlink" x="0px" y="0px"
	 width="483px" height="483px" viewBox="0 -1 483 483" enable-background="new 0 -1 483 483" xml:space="preserve">
<path fill="#FFFFFF" d="M55.917,187.914 M95.859,240.356v223.67H0v15.977h327.517h151.776v-15.977H335.505v-223.67h7.988v147.781
	c0,28.677,23.247,51.924,51.924,51.924c28.676,0,51.923-23.247,51.923-51.924V112.544h7.988c4.412,0,7.988-3.576,7.988-7.988V56.627
	c0-4.412-3.576-7.988-7.988-7.988h-3.994l8.675-20.88l22.989-11.981l-7.379-14.171l-25.564,13.316
	c-1.653,0.861-2.96,2.273-3.689,3.994l-12.35,29.722h-10.641c-4.411,0-7.988,3.576-7.988,7.988v47.929
	c0,4.412,3.577,7.988,7.988,7.988h7.988v275.594c0,19.854-16.093,35.947-35.946,35.947s-35.947-16.094-35.947-35.947V240.356h7.988
	c4.411,0,7.988-3.577,7.988-7.988V176.45c0-4.411-3.577-7.988-7.988-7.988h-31.953V8.697c0-4.411-3.577-7.988-7.988-7.988h-223.67
	c-4.411,0-7.988,3.577-7.988,7.988v159.765 M431.364,64.615h15.977v31.953h-15.977V64.615z M359.47,184.438v39.941h-23.965v-39.941
	H359.47z M111.835,16.685h207.693v415.388H111.835V16.685z M95.859,184.438v39.941 M111.835,448.05h207.693v15.977H111.835V448.05z"
	/>
<g>
	<g>
		<path fill="#FFFFFF" d="M109.5,12v457h217V12H109.5z M299.5,218.943h-163V43.257h163V218.943z"/>
	</g>
</g>
</svg>
