<?xml version="1.0" encoding="utf-8"?>
<!-- Generator: Adobe Illustrator 13.0.0, SVG Export Plug-In . SVG Version: 6.00 Build 14948)  -->
<!DOCTYPE svg PUBLIC "-//W3C//DTD SVG 1.0//EN" "http://www.w3.org/TR/2001/REC-SVG-20010904/DTD/svg10.dtd">
<svg version="1.0" id="Layer_1" xmlns="http://www.w3.org/2000/svg" xmlns:xlink="http://www.w3.org/1999/xlink" x="0px" y="0px"
	 width="273.458px" height="122.841px" viewBox="0 0 273.458 122.841" enable-background="new 0 0 273.458 122.841"
	 xml:space="preserve">
<g>
	<g>
		<g>
			<path fill="#1C4FA2" d="M49.159,1.609h15.679v53.76c0,10.616-2.132,18.426-6.388,23.43c-5.733,6.769-14.369,10.156-25.907,10.156
				c-6.158,0-11.334-0.773-15.519-2.317c-4.189-1.535-7.729-3.796-10.618-6.777C3.526,76.888,1.389,73.265,0,68.996h17.377
				c1.531,1.77,3.508,3.102,5.928,3.998c2.429,0.907,5.295,1.362,8.6,1.362c4.234,0,7.636-0.653,10.21-1.964
				c2.57-1.311,4.389-3.004,5.451-5.079c1.062-2.079,1.592-5.647,1.592-10.723c-2.774,2.772-5.68,4.769-8.724,5.979
				c-3.035,1.203-6.472,1.805-10.316,1.805c-8.423,0-15.537-3.033-21.341-9.112C2.972,49.189,0.07,41.496,0.07,32.188
				c0-9.953,3.07-17.951,9.219-23.995C14.868,2.733,21.521,0,29.25,0c3.61,0,7.017,0.668,10.229,2
				c3.22,1.322,6.445,3.503,9.679,6.547L49.159,1.609L49.159,1.609z M32.826,14.705c-4.955,0-9.051,1.662-12.281,4.99
				c-3.234,3.326-4.849,7.512-4.849,12.545c0,5.237,1.65,9.533,4.955,12.883c3.313,3.341,7.468,5.009,12.458,5.009
				c4.884,0,8.91-1.634,12.086-4.902c3.172-3.265,4.76-7.556,4.76-12.864c0-5.225-1.602-9.472-4.795-12.74
				C41.975,16.346,37.86,14.705,32.826,14.705z"/>
		</g>
	</g>
</g>
<g>
	<g>
		<g>
			<path fill="#1C4FA2" d="M110.246,0c5.919,0,11.485,1.481,16.687,4.44c5.211,2.964,9.277,6.985,12.193,12.068
				c2.924,5.073,4.389,10.547,4.389,16.421c0,5.924-1.469,11.463-4.406,16.617c-2.938,5.158-6.95,9.184-12.033,12.086
				c-5.074,2.902-10.666,4.353-16.775,4.353c-9.002,0-16.687-3.192-23.058-9.591c-6.362-6.406-9.538-14.183-9.538-23.341
				c0-9.804,3.597-17.97,10.794-24.508C94.797,2.849,102.043,0,110.246,0z M110.475,14.828c-4.883,0-8.953,1.709-12.209,5.114
				c-3.248,3.397-4.866,7.75-4.866,13.06c0,5.464,1.603,9.888,4.813,13.271c3.207,3.376,7.272,5.062,12.191,5.062
				c4.928,0,9.029-1.707,12.299-5.131c3.266-3.42,4.902-7.821,4.902-13.201c0-5.389-1.61-9.769-4.831-13.131
				C119.561,16.51,115.465,14.828,110.475,14.828z"/>
		</g>
	</g>
</g>
<g>
	<g>
		<g>
			<path fill="#F36E32" d="M153.667,1.609h48.166l-28.277,49.441h26.649v13.324H149.33l28.384-49.441h-24.047V1.609z"/>
		</g>
	</g>
</g>
<g>
	<g>
		<g>
			<path fill="#1C4FA2" d="M240.189,0c5.919,0,11.483,1.481,16.687,4.44c5.213,2.964,9.277,6.985,12.191,12.068
				c2.926,5.073,4.391,10.547,4.391,16.421c0,5.924-1.471,11.463-4.406,16.617c-2.939,5.158-6.951,9.184-12.033,12.086
				c-5.074,2.902-10.666,4.353-16.775,4.353c-9.003,0-16.688-3.192-23.059-9.591c-6.36-6.406-9.537-14.183-9.537-23.341
				c0-9.804,3.597-17.97,10.794-24.508C224.74,2.849,231.987,0,240.189,0z M240.418,14.828c-4.884,0-8.953,1.709-12.209,5.114
				c-3.248,3.397-4.867,7.75-4.867,13.06c0,5.464,1.603,9.888,4.813,13.271c3.207,3.376,7.272,5.062,12.192,5.062
				c4.928,0,9.029-1.707,12.297-5.131c3.268-3.42,4.902-7.821,4.902-13.201c0-5.389-1.609-9.769-4.83-13.131
				C249.506,16.51,245.409,14.828,240.418,14.828z"/>
		</g>
	</g>
</g>
<g>
	<g>
		<defs>
			<rect id="SVGID_1_" x="230.84" y="18.509" width="18.687" height="26.332"/>
		</defs>
		<clipPath id="SVGID_2_">
			<use xlink:href="#SVGID_1_"  overflow="visible"/>
		</clipPath>
		<g clip-path="url(#SVGID_2_)">
			<path fill="#1C4FA2" d="M240.184,18.514c-5.164,0-9.344,4.127-9.344,9.21c0,6.91,9.344,17.112,9.344,17.112
				s9.343-10.202,9.343-17.112C249.526,22.641,245.342,18.514,240.184,18.514z M240.184,31.015c-1.846,0-3.34-1.474-3.34-3.292
				c0-1.814,1.494-3.287,3.34-3.287c1.84,0,3.336,1.473,3.336,3.287C243.52,29.541,242.023,31.015,240.184,31.015z"/>
		</g>
	</g>
</g>
<g>
	<path fill="#1C4FA2" d="M109.72,107.035c-0.556,5.113-2.384,9.025-5.484,11.737c-3.102,2.713-7.23,4.068-12.388,4.068
		c-3.602,0-6.786-0.9-9.553-2.701s-4.908-4.352-6.419-7.652c-1.512-3.301-2.279-7.074-2.301-11.32v-6.303
		c0-4.313,0.755-8.136,2.268-11.47c1.511-3.335,3.685-5.907,6.519-7.72c2.834-1.812,6.097-2.718,9.787-2.718
		c5.202,0,9.309,1.4,12.321,4.201c3.012,2.802,4.762,6.681,5.251,11.638h-4.134c-1.023-8.247-5.502-12.371-13.438-12.371
		c-4.401,0-7.908,1.646-10.52,4.939c-2.612,3.293-3.918,7.842-3.918,13.648v5.939c0,5.606,1.272,10.078,3.818,13.415
		c2.545,3.338,5.985,5.006,10.32,5.006c4.29,0,7.524-1.028,9.703-3.085c2.179-2.056,3.523-5.14,4.035-9.253H109.72z"/>
	<path fill="#1C4FA2" d="M141.532,122.174c-0.4-1.134-0.656-2.812-0.768-5.035c-1.4,1.823-3.185,3.229-5.352,4.218
		c-2.167,0.989-4.463,1.484-6.886,1.484c-3.468,0-6.274-0.967-8.42-2.901c-2.146-1.934-3.218-4.379-3.218-7.336
		c0-3.512,1.462-6.29,4.386-8.336c2.923-2.045,6.996-3.067,12.221-3.067h7.235v-4.102c0-2.578-0.795-4.606-2.384-6.085
		c-1.59-1.479-3.907-2.218-6.953-2.218c-2.778,0-5.079,0.712-6.901,2.134c-1.823,1.423-2.734,3.135-2.734,5.136l-4.002-0.034
		c0-2.867,1.334-5.352,4.002-7.452c2.667-2.101,5.946-3.151,9.836-3.151c4.023,0,7.197,1.007,9.521,3.019
		c2.322,2.012,3.518,4.817,3.584,8.419v17.072c0,3.49,0.367,6.103,1.101,7.836v0.4H141.532z M128.994,119.307
		c2.668,0,5.052-0.645,7.152-1.935c2.101-1.289,3.629-3.012,4.585-5.168v-7.937h-7.136c-3.979,0.045-7.092,0.772-9.337,2.185
		s-3.367,3.351-3.367,5.818c0,2.023,0.75,3.701,2.251,5.035C124.642,118.64,126.593,119.307,128.994,119.307z"/>
	<path fill="#1C4FA2" d="M184.379,104.501c0,5.625-1.245,10.087-3.734,13.388c-2.49,3.302-5.836,4.952-10.037,4.952
		c-5.024,0-8.825-1.867-11.404-5.602l-0.166,4.935h-3.735V70.957h3.969V91.33c2.534-3.935,6.29-5.902,11.271-5.902
		c4.268,0,7.641,1.629,10.12,4.886c2.479,3.257,3.718,7.785,3.718,13.588V104.501z M180.377,103.801
		c0-4.757-0.922-8.431-2.768-11.021c-1.845-2.589-4.446-3.885-7.803-3.885c-2.557,0-4.724,0.629-6.502,1.885
		s-3.123,3.096-4.034,5.519v16.271c2,4.535,5.535,6.803,10.604,6.803c3.289,0,5.862-1.301,7.719-3.901
		S180.377,108.98,180.377,103.801z"/>
	<path fill="#1C4FA2" d="M214.789,113.004c0-1.979-0.795-3.567-2.384-4.769c-1.59-1.2-3.984-2.139-7.186-2.817
		c-3.201-0.678-5.686-1.455-7.452-2.334c-1.768-0.878-3.08-1.95-3.936-3.218c-0.855-1.267-1.283-2.801-1.283-4.602
		c0-2.845,1.188-5.196,3.567-7.053c2.379-1.855,5.424-2.784,9.137-2.784c4.023,0,7.253,0.995,9.687,2.984
		c2.435,1.99,3.651,4.585,3.651,7.786h-4.001c0-2.111-0.884-3.868-2.651-5.269s-3.996-2.101-6.686-2.101
		c-2.623,0-4.729,0.584-6.318,1.751c-1.59,1.167-2.385,2.684-2.385,4.552c0,1.8,0.661,3.195,1.984,4.185
		c1.322,0.989,3.734,1.896,7.235,2.718s6.124,1.7,7.869,2.634s3.04,2.057,3.885,3.368s1.268,2.9,1.268,4.768
		c0,3.046-1.229,5.48-3.685,7.303c-2.457,1.823-5.663,2.734-9.62,2.734c-4.201,0-7.608-1.018-10.22-3.051
		c-2.612-2.034-3.918-4.607-3.918-7.72h4.001c0.155,2.334,1.139,4.151,2.951,5.452c1.812,1.3,4.206,1.95,7.186,1.95
		c2.778,0,5.023-0.611,6.735-1.834C213.933,116.417,214.789,114.871,214.789,113.004z"/>
</g>
</svg>
