<?xml version="1.0"?><svg version="1.2" baseProfile="tiny-ps" viewBox="0 0 256 256" xmlns="http://www.w3.org/2000/svg" xmlns:xlink="http://www.w3.org/1999/xlink"><title>Gozo Cabs</title><g><g fill="#f46e34" transform="matrix(.1 0 0 -.1 0 256)"><path d="M240 1671c-50-15-89-41-123-82l-36-41-15-46-16-46v-129l11-37c7-21 28-60 48-86l36-48 46-24c55-28 111-37 173-28l45 7 36 25c20 13 39 24 42 24s3-18 0-41l-5-41-19-20c-10-11-31-27-47-35l-29-15-66 4-66 3-32 23-31 22H50v-13c0-21 54-92 90-117 17-12 52-29 77-36l46-14h143l50 15 50 15 41 35 41 35 18 42 19 43 3 303 3 303-68-3-68-3-5-28-5-29-27 21c-15 12-46 28-69 36l-42 15-41-1c-22 0-52-4-66-8zm163-135 33-13 26-32 27-31 7-46 7-47-19-46-19-46-34-22-34-23H295l-33 20-32 20-20 32-20 33v100l18 35 18 35 44 23 44 22h28c16 0 43-6 61-14zm543 128-49-16-57-56-57-57-18-54-17-54 4-66 5-66 22-42c11-23 35-58 52-77l30-35 54-27 54-26 83 4 83 3 48 25 49 24 29 34c16 18 39 52 50 75l22 42 5 66 4 66-16 51-17 50-41 47-41 46-51 26-51 26-65 3-65 4-49-16zm183-142c14-10 33-30 44-44l19-26 5-46 6-46-18-45-17-46-36-24-37-25H993l-34 23-34 22-17 35-18 35v42c0 74 34 131 95 159l30 14 45-5 45-5 24-18zm1005 147c-18-5-54-24-80-41l-49-33-32-48-32-47-11-56-12-56 7-45c10-65 31-109 78-160l42-46 50-23 50-24h150l45 21 45 20 38 37c48 46 75 97 88 168l10 54-15 61-16 60-29 43-29 42-40 28c-22 15-61 34-88 42l-47 14-46-1c-25 0-60-5-77-10zm156-141 44-23 18-35 18-35v-110l-20-33-20-32-32-20-33-20h-98l-31 19-31 20-20 33-19 33-1 55v55l20 35 20 35 45 23 44 22h52l44-22zm-121-28c-9-5-22-23-29-39l-12-30 12-35c6-19 25-53 41-76l30-41 16 12c8 7 28 36 44 64l29 50v56l-25 24-24 25h-33c-18 0-40-5-49-10zm71-55 12-15-12-15c-25-30-61-7-46 30 3 8 12 15 19 15 8 0 20-7 27-15zm-806 211c-3-7-4-35-2-62l3-49 103-1c56-1 104-2 106-3 3 0-51-98-120-217-68-118-124-217-124-220 0-2 103-4 228-4h228l-1 58v57l-118 3c-64 1-117 5-117 8 0 2 54 99 120 214s120 214 120 220v10h-421l-5-14z"/></g><g fill="#1a50a3" transform="matrix(.1 0 0 -.1 0 256)"><path d="M240 1671c-50-15-89-41-123-82l-36-41-15-46-16-46v-129l11-37c7-21 28-60 48-86l36-48 46-24c55-28 111-37 173-28l45 7 36 25c20 13 39 24 42 24s3-18 0-41l-5-41-19-20c-10-11-31-27-47-35l-29-15-66 4-66 3-32 23-31 22H50v-13c0-21 54-92 90-117 17-12 52-29 77-36l46-14h143l50 15 50 15 41 35 41 35 18 42 19 43 3 303 3 303-68-3-68-3-5-28-5-29-27 21c-15 12-46 28-69 36l-42 15-41-1c-22 0-52-4-66-8zm163-135 33-13 26-32 27-31 7-46 7-47-19-46-19-46-34-22-34-23H295l-33 20-32 20-20 32-20 33v100l18 35 18 35 44 23 44 22h28c16 0 43-6 61-14zm543 128-49-16-57-56-57-57-18-54-17-54 4-66 5-66 22-42c11-23 35-58 52-77l30-35 54-27 54-26 83 4 83 3 48 25 49 24 29 34c16 18 39 52 50 75l22 42 5 66 4 66-16 51-17 50-41 47-41 46-51 26-51 26-65 3-65 4-49-16zm183-142c14-10 33-30 44-44l19-26 5-46 6-46-18-45-17-46-36-24-37-25H993l-34 23-34 22-17 35-18 35v42c0 74 34 131 95 159l30 14 45-5 45-5 24-18zm1005 147c-18-5-54-24-80-41l-49-33-32-48-32-47-11-56-12-56 7-45c10-65 31-109 78-160l42-46 50-23 50-24h150l45 21 45 20 38 37c48 46 75 97 88 168l10 54-15 61-16 60-29 43-29 42-40 28c-22 15-61 34-88 42l-47 14-46-1c-25 0-60-5-77-10zm156-141 44-23 18-35 18-35v-110l-20-33-20-32-32-20-33-20h-98l-31 19-31 20-20 33-19 33-1 55v55l20 35 20 35 45 23 44 22h52l44-22zm-121-28c-9-5-22-23-29-39l-12-30 12-35c6-19 25-53 41-76l30-41 16 12c8 7 28 36 44 64l29 50v56l-25 24-24 25h-33c-18 0-40-5-49-10zm71-55 12-15-12-15c-25-30-61-7-46 30 3 8 12 15 19 15 8 0 20-7 27-15z"/></g></g></svg>