<svg width="137" height="116" viewBox="0 0 137 116" fill="none" xmlns="http://www.w3.org/2000/svg">
<path d="M81.301 113.453H55.6349V107.031C55.6349 104.677 57.54 102.771 59.9161 102.771C62.2708 102.771 64.1974 104.679 64.1974 107.031H64.2188V104.891C64.2188 102.536 66.1454 100.609 68.5 100.609C70.8547 100.609 72.7813 102.536 72.7813 104.891V107.031C72.7813 104.677 74.7079 102.771 77.0625 102.771C79.4172 102.771 81.3438 104.679 81.3438 107.031H81.301V113.453Z" fill="#A0D468"/>
<path d="M102.75 89.9277C86.203 89.9277 72.7812 76.5059 72.7812 59.9589C72.7812 43.414 86.203 0 102.75 0C119.297 0 132.719 43.4119 132.719 59.9589C132.719 76.5059 119.297 89.9277 102.75 89.9277Z" fill="#A0D468"/>
<path d="M34.2714 85.6465H34.25C17.703 85.6465 4.28125 72.2248 4.28125 55.6777C4.28125 39.1328 17.703 25.709 34.25 25.709C50.797 25.709 64.2188 39.1328 64.2188 55.6777C64.2188 72.2248 50.8184 85.6251 34.2714 85.6465Z" fill="#A0D468"/>
<path d="M34.2629 74.9306C33.7149 74.9306 33.1669 74.7208 32.7494 74.3034C31.9125 73.4664 31.9125 72.1135 32.7494 71.2765L43.4461 60.5777C44.2831 59.7407 45.636 59.7407 46.473 60.5777C47.31 61.4147 47.31 62.7675 46.473 63.6045L35.7763 74.3034C35.3589 74.7208 34.8109 74.9306 34.2629 74.9306Z" fill="#844747"/>
<path d="M102.739 74.9306C102.191 74.9306 101.643 74.7208 101.226 74.3034L90.5292 63.6045C89.6922 62.7675 89.6922 61.4147 90.5292 60.5777C91.3662 59.7407 92.7191 59.7407 93.5561 60.5777L104.253 71.2765C105.09 72.1135 105.09 73.4664 104.253 74.3034C103.835 74.7208 103.287 74.9306 102.739 74.9306Z" fill="#844747"/>
<path d="M34.2628 115.602C33.0791 115.602 32.1222 114.645 32.1222 113.462V55.6648C32.1222 54.481 33.0791 53.5242 34.2628 53.5242C35.4466 53.5242 36.4034 54.481 36.4034 55.6648V113.462C36.4034 114.645 35.4466 115.602 34.2628 115.602Z" fill="#965353"/>
<path d="M102.739 115.602C101.555 115.602 100.599 114.645 100.599 113.462V55.6648C100.599 54.481 101.555 53.5242 102.739 53.5242C103.923 53.5242 104.88 54.481 104.88 55.6648V113.462C104.88 114.645 103.923 115.602 102.739 115.602Z" fill="#965353"/>
<path d="M4.28552 115.602C3.10176 115.602 2.1449 114.645 2.1449 113.462V111.321C2.1449 110.137 3.10176 109.18 4.28552 109.18C5.46929 109.18 6.42615 110.137 6.42615 111.321V113.462C6.42615 114.645 5.46929 115.602 4.28552 115.602Z" fill="#8CC152"/>
<path d="M12.8438 115.602C11.66 115.602 10.7031 114.645 10.7031 113.462V111.321C10.7031 110.137 11.66 109.18 12.8438 109.18C14.0275 109.18 14.9844 110.137 14.9844 111.321V113.462C14.9844 114.645 14.0275 115.602 12.8438 115.602Z" fill="#8CC152"/>
<path d="M21.402 115.602C20.2182 115.602 19.2614 114.645 19.2614 113.462V111.321C19.2614 110.137 20.2182 109.18 21.402 109.18C22.5857 109.18 23.5426 110.137 23.5426 111.321V113.462C23.5426 114.645 22.5857 115.602 21.402 115.602Z" fill="#8CC152"/>
<path d="M29.9602 115.602C28.7764 115.602 27.8196 114.645 27.8196 113.462V111.321C27.8196 110.137 28.7764 109.18 29.9602 109.18C31.144 109.18 32.1008 110.137 32.1008 111.321V113.462C32.1008 114.645 31.144 115.602 29.9602 115.602Z" fill="#8CC152"/>
<path d="M38.5184 115.602C37.3347 115.602 36.3778 114.645 36.3778 113.462V111.321C36.3778 110.137 37.3347 109.18 38.5184 109.18C39.7022 109.18 40.6591 110.137 40.6591 111.321V113.462C40.6591 114.645 39.7022 115.602 38.5184 115.602Z" fill="#8CC152"/>
<path d="M47.0767 115.602C45.8929 115.602 44.936 114.645 44.936 113.462V111.321C44.936 110.137 45.8929 109.18 47.0767 109.18C48.2604 109.18 49.2173 110.137 49.2173 111.321V113.462C49.2173 114.645 48.2604 115.602 47.0767 115.602Z" fill="#8CC152"/>
<path d="M55.6349 115.602C54.4511 115.602 53.4943 114.645 53.4943 113.462V111.321C53.4943 110.137 54.4511 109.18 55.6349 109.18C56.8187 109.18 57.7755 110.137 57.7755 111.321V113.462C57.7755 114.645 56.8187 115.602 55.6349 115.602Z" fill="#8CC152"/>
<path d="M89.8677 115.602C88.6839 115.602 87.7271 114.645 87.7271 113.462V111.321C87.7271 110.137 88.6839 109.18 89.8677 109.18C91.0514 109.18 92.0083 110.137 92.0083 111.321V113.462C92.0083 114.645 91.0514 115.602 89.8677 115.602Z" fill="#8CC152"/>
<path d="M81.3438 115.602C80.16 115.602 79.2031 114.645 79.2031 113.462V111.321C79.2031 110.137 80.16 109.18 81.3438 109.18C82.5275 109.18 83.4844 110.137 83.4844 111.321V113.462C83.4844 114.645 82.5275 115.602 81.3438 115.602Z" fill="#8CC152"/>
<path d="M72.7812 115.602C71.5975 115.602 70.6406 114.645 70.6406 113.462V111.321C70.6406 110.137 71.5975 109.18 72.7812 109.18C73.965 109.18 74.9219 110.137 74.9219 111.321V113.462C74.9219 114.645 73.965 115.602 72.7812 115.602Z" fill="#8CC152"/>
<path d="M64.2188 115.602C63.035 115.602 62.0781 114.645 62.0781 113.462V111.321C62.0781 110.137 63.035 109.18 64.2188 109.18C65.4025 109.18 66.3594 110.137 66.3594 111.321V113.462C66.3594 114.645 65.4025 115.602 64.2188 115.602Z" fill="#8CC152"/>
<path d="M98.4259 115.602C97.2421 115.602 96.2853 114.645 96.2853 113.462V111.321C96.2853 110.137 97.2421 109.18 98.4259 109.18C99.6097 109.18 100.567 110.137 100.567 111.321V113.462C100.567 114.645 99.6097 115.602 98.4259 115.602Z" fill="#8CC152"/>
<path d="M106.986 115.602C105.803 115.602 104.846 114.645 104.846 113.462V111.321C104.846 110.137 105.803 109.18 106.986 109.18C108.17 109.18 109.127 110.137 109.127 111.321V113.462C109.127 114.645 108.168 115.602 106.986 115.602Z" fill="#8CC152"/>
<path d="M115.545 115.602C114.361 115.602 113.404 114.645 113.404 113.462V111.321C113.404 110.137 114.361 109.18 115.545 109.18C116.728 109.18 117.685 110.137 117.685 111.321V113.462C117.685 114.645 116.726 115.602 115.545 115.602Z" fill="#8CC152"/>
<path d="M124.103 115.602C122.919 115.602 121.962 114.645 121.962 113.462V111.321C121.962 110.137 122.919 109.18 124.103 109.18C125.286 109.18 126.243 110.137 126.243 111.321V113.462C126.243 114.645 125.284 115.602 124.103 115.602Z" fill="#8CC152"/>
<path d="M132.661 115.602C131.477 115.602 130.52 114.645 130.52 113.462V111.321C130.52 110.137 131.477 109.18 132.661 109.18C133.845 109.18 134.802 110.137 134.802 111.321V113.462C134.802 114.645 133.843 115.602 132.661 115.602Z" fill="#8CC152"/>
<path d="M134.859 115.602H2.14062C0.956859 115.602 0 114.645 0 113.462C0 112.278 0.956859 111.321 2.14062 111.321H134.859C136.043 111.321 137 112.278 137 113.462C137 114.645 136.043 115.602 134.859 115.602Z" fill="#A0D468"/>
</svg>
