<?xml version="1.0" encoding="utf-8"?>
<!-- Generator: Adobe Illustrator 13.0.0, SVG Export Plug-In . SVG Version: 6.00 Build 14948)  -->
<!DOCTYPE svg PUBLIC "-//W3C//DTD SVG 1.1//EN" "http://www.w3.org/Graphics/SVG/1.1/DTD/svg11.dtd">
<svg version="1.1" id="Layer_1" xmlns="http://www.w3.org/2000/svg" xmlns:xlink="http://www.w3.org/1999/xlink" x="0px" y="0px"
	 width="450px" height="300px" viewBox="0 0 450 300" enable-background="new 0 0 450 300" xml:space="preserve">
<g>
	<defs>
		<circle id="SVGID_1_" cx="225" cy="150" r="150"/>
	</defs>
	<clipPath id="SVGID_2_">
		<use xlink:href="#SVGID_1_"  overflow="visible"/>
	</clipPath>
	<rect clip-path="url(#SVGID_2_)" fill="#FF9933" width="450" height="300"/>
	<rect y="100" clip-path="url(#SVGID_2_)" fill="#FFFFFF" width="450" height="100"/>
	<rect y="200" clip-path="url(#SVGID_2_)" fill="#128807" width="450" height="100"/>
	<path clip-path="url(#SVGID_2_)" fill="#000088" d="M225,110c22.091,0,40,17.909,40,40s-17.909,40-40,40s-40-17.909-40-40
		S202.909,110,225,110"/>
	<path clip-path="url(#SVGID_2_)" fill="#FFFFFF" d="M225,115c19.33,0,35,15.67,35,35s-15.67,35-35,35s-35-15.67-35-35
		S205.67,115,225,115"/>
	<path clip-path="url(#SVGID_2_)" fill="#000088" d="M225,143c3.866,0,7,3.134,7,7s-3.134,7-7,7s-7-3.134-7-7S221.134,143,225,143"
		/>
	<path clip-path="url(#SVGID_2_)" fill="#000088" d="M259.929,152.834c0.958,0.126,1.633,1.005,1.507,1.963
		c-0.126,0.959-1.005,1.633-1.964,1.507c-0.958-0.126-1.632-1.005-1.506-1.963C258.092,153.382,258.971,152.708,259.929,152.834"/>
	<polygon clip-path="url(#SVGID_2_)" fill="#000088" points="225,185 226.2,164 225,154 223.8,164 	"/>
	<path clip-path="url(#SVGID_2_)" fill="#000088" d="M258.005,161.777c0.894,0.37,1.317,1.394,0.947,2.286s-1.393,1.317-2.286,0.947
		c-0.893-0.369-1.316-1.394-0.947-2.286C256.088,161.831,257.112,161.407,258.005,161.777"/>
	<polygon clip-path="url(#SVGID_2_)" fill="#000088" points="215.941,183.808 222.535,163.834 223.964,153.863 220.217,163.213 	"/>
	<path clip-path="url(#SVGID_2_)" fill="#000088" d="M253.833,169.918c0.767,0.589,0.911,1.688,0.322,2.454
		c-0.589,0.768-1.687,0.911-2.453,0.323c-0.767-0.589-0.911-1.688-0.323-2.454S253.065,169.33,253.833,169.918"/>
	<polygon clip-path="url(#SVGID_2_)" fill="#000088" points="207.5,180.312 219.039,162.725 223,153.464 216.961,161.524 	"/>
	<path clip-path="url(#SVGID_2_)" fill="#000088" d="M247.695,176.702c0.588,0.767,0.443,1.865-0.323,2.454
		c-0.767,0.588-1.866,0.442-2.454-0.323c-0.588-0.767-0.444-1.866,0.323-2.454C246.008,175.791,247.106,175.936,247.695,176.702"/>
	<polygon clip-path="url(#SVGID_2_)" fill="#000088" points="200.251,174.749 215.949,160.748 222.172,152.828 214.252,159.051 	"/>
	<path clip-path="url(#SVGID_2_)" fill="#000088" d="M240.011,181.666c0.37,0.894-0.055,1.917-0.947,2.286
		c-0.894,0.37-1.917-0.054-2.286-0.947c-0.37-0.893,0.054-1.916,0.947-2.285C238.616,180.35,239.641,180.773,240.011,181.666"/>
	<polygon clip-path="url(#SVGID_2_)" fill="#000088" points="194.689,167.5 213.476,158.039 221.536,152 212.276,155.961 	"/>
	<path clip-path="url(#SVGID_2_)" fill="#000088" d="M231.304,184.473c0.126,0.958-0.549,1.837-1.507,1.964
		c-0.958,0.125-1.838-0.549-1.964-1.507s0.549-1.839,1.507-1.965C230.299,182.839,231.178,183.515,231.304,184.473"/>
	<polygon clip-path="url(#SVGID_2_)" fill="#000088" points="191.192,159.059 211.788,154.783 221.136,151.036 211.167,152.465 	"/>
	<path clip-path="url(#SVGID_2_)" fill="#000088" d="M222.167,184.929c-0.126,0.958-1.005,1.633-1.963,1.507
		c-0.959-0.126-1.633-1.005-1.507-1.964c0.126-0.958,1.005-1.632,1.963-1.506C221.618,183.092,222.292,183.971,222.167,184.929"/>
	<polygon clip-path="url(#SVGID_2_)" fill="#000088" points="190,150 211,151.2 221,150 211,148.8 	"/>
	<path clip-path="url(#SVGID_2_)" fill="#000088" d="M213.223,183.006c-0.37,0.893-1.394,1.316-2.286,0.946
		c-0.893-0.37-1.318-1.393-0.947-2.286c0.369-0.893,1.393-1.316,2.286-0.946C213.169,181.089,213.593,182.112,213.223,183.006"/>
	<polygon clip-path="url(#SVGID_2_)" fill="#000088" points="191.192,140.941 211.167,147.535 221.136,148.964 211.788,145.217 	"/>
	<path clip-path="url(#SVGID_2_)" fill="#000088" d="M205.082,178.833c-0.589,0.767-1.687,0.911-2.454,0.323
		c-0.767-0.589-0.911-1.688-0.323-2.454c0.589-0.767,1.687-0.911,2.454-0.323S205.67,178.066,205.082,178.833"/>
	<polygon clip-path="url(#SVGID_2_)" fill="#000088" points="194.689,132.5 212.276,144.039 221.536,148 213.476,141.961 	"/>
	<path clip-path="url(#SVGID_2_)" fill="#000088" d="M198.298,172.695c-0.767,0.588-1.866,0.444-2.454-0.323
		c-0.588-0.767-0.443-1.865,0.323-2.454c0.767-0.588,1.866-0.443,2.454,0.323C199.209,171.008,199.065,172.106,198.298,172.695"/>
	<polygon clip-path="url(#SVGID_2_)" fill="#000088" points="200.251,125.251 214.252,140.949 222.172,147.172 215.949,139.252 	"/>
	<path clip-path="url(#SVGID_2_)" fill="#000088" d="M193.333,165.011c-0.893,0.37-1.917-0.054-2.286-0.947
		c-0.37-0.893,0.054-1.917,0.947-2.286c0.893-0.37,1.916,0.055,2.286,0.947S194.227,164.641,193.333,165.011"/>
	<polygon clip-path="url(#SVGID_2_)" fill="#000088" points="207.5,119.689 216.961,138.475 223,146.536 219.039,137.276 	"/>
	<path clip-path="url(#SVGID_2_)" fill="#000088" d="M190.528,156.304c-0.958,0.126-1.837-0.548-1.964-1.507
		c-0.125-0.958,0.549-1.837,1.507-1.963s1.838,0.548,1.964,1.506C192.161,155.299,191.486,156.178,190.528,156.304"/>
	<polygon clip-path="url(#SVGID_2_)" fill="#000088" points="215.941,116.193 220.217,136.788 223.964,146.137 222.535,136.167 	"/>
	<path clip-path="url(#SVGID_2_)" fill="#000088" d="M190.071,147.167c-0.958-0.126-1.633-1.005-1.507-1.963
		c0.126-0.959,1.005-1.633,1.964-1.507c0.958,0.126,1.632,1.005,1.506,1.963C191.908,146.619,191.029,147.292,190.071,147.167"/>
	<polygon clip-path="url(#SVGID_2_)" fill="#000088" points="225,115 223.8,136 225,146 226.2,136 	"/>
	<path clip-path="url(#SVGID_2_)" fill="#000088" d="M191.995,138.223c-0.893-0.37-1.317-1.394-0.947-2.286
		c0.37-0.893,1.393-1.318,2.286-0.948c0.893,0.37,1.317,1.394,0.947,2.287C193.912,138.169,192.888,138.593,191.995,138.223"/>
	<polygon clip-path="url(#SVGID_2_)" fill="#000088" points="234.059,116.193 227.465,136.167 226.035,146.137 229.782,136.788 	"/>
	<path clip-path="url(#SVGID_2_)" fill="#000088" d="M196.167,130.082c-0.767-0.588-0.911-1.687-0.323-2.453
		c0.588-0.767,1.687-0.912,2.454-0.324c0.766,0.589,0.911,1.687,0.322,2.454C198.032,130.526,196.934,130.671,196.167,130.082"/>
	<polygon clip-path="url(#SVGID_2_)" fill="#000088" points="242.5,119.689 230.961,137.276 227,146.536 233.039,138.475 	"/>
	<path clip-path="url(#SVGID_2_)" fill="#000088" d="M202.305,123.298c-0.588-0.767-0.444-1.866,0.323-2.454
		c0.767-0.588,1.865-0.443,2.454,0.323c0.588,0.767,0.444,1.866-0.323,2.454S202.894,124.065,202.305,123.298"/>
	<polygon clip-path="url(#SVGID_2_)" fill="#000088" points="249.749,125.251 234.051,139.252 227.828,147.172 235.748,140.949 	"/>
	<path clip-path="url(#SVGID_2_)" fill="#000088" d="M209.989,118.334c-0.37-0.893,0.054-1.917,0.947-2.286
		c0.893-0.37,1.917,0.054,2.286,0.946c0.37,0.894-0.054,1.917-0.947,2.287C211.383,119.651,210.359,119.227,209.989,118.334"/>
	<polygon clip-path="url(#SVGID_2_)" fill="#000088" points="255.311,132.5 236.523,141.961 228.464,148 237.724,144.039 	"/>
	<path clip-path="url(#SVGID_2_)" fill="#000088" d="M218.696,115.528c-0.126-0.958,0.548-1.837,1.507-1.964
		c0.958-0.126,1.837,0.549,1.963,1.507s-0.548,1.838-1.506,1.964C219.701,117.161,218.822,116.486,218.696,115.528"/>
	<polygon clip-path="url(#SVGID_2_)" fill="#000088" points="258.808,140.941 238.212,145.217 228.863,148.964 238.833,147.535 	"/>
	<path clip-path="url(#SVGID_2_)" fill="#000088" d="M227.833,115.071c0.126-0.958,1.005-1.632,1.963-1.507
		c0.959,0.127,1.634,1.006,1.508,1.964s-1.006,1.633-1.964,1.507C228.381,116.909,227.707,116.029,227.833,115.071"/>
	<polygon clip-path="url(#SVGID_2_)" fill="#000088" points="260,150 239,148.8 229,150 239,151.2 	"/>
	<path clip-path="url(#SVGID_2_)" fill="#000088" d="M236.777,116.995c0.37-0.893,1.394-1.317,2.285-0.947
		c0.894,0.37,1.318,1.394,0.947,2.287c-0.369,0.892-1.393,1.317-2.286,0.947C236.831,118.912,236.407,117.888,236.777,116.995"/>
	<polygon clip-path="url(#SVGID_2_)" fill="#000088" points="258.808,159.059 238.833,152.465 228.863,151.036 238.212,154.783 	"/>
	<path clip-path="url(#SVGID_2_)" fill="#000088" d="M244.918,121.167c0.589-0.767,1.688-0.911,2.454-0.323s0.911,1.687,0.323,2.454
		c-0.589,0.766-1.688,0.911-2.454,0.323C244.474,123.033,244.33,121.934,244.918,121.167"/>
	<polygon clip-path="url(#SVGID_2_)" fill="#000088" points="255.311,167.5 237.724,155.961 228.464,152 236.523,158.039 	"/>
	<path clip-path="url(#SVGID_2_)" fill="#000088" d="M251.702,127.305c0.767-0.588,1.864-0.444,2.454,0.323
		c0.588,0.767,0.442,1.866-0.323,2.454c-0.768,0.588-1.866,0.443-2.454-0.323C250.791,128.992,250.935,127.894,251.702,127.305"/>
	<polygon clip-path="url(#SVGID_2_)" fill="#000088" points="249.749,174.749 235.748,159.051 227.828,152.828 234.051,160.748 	"/>
	<path clip-path="url(#SVGID_2_)" fill="#000088" d="M256.666,134.989c0.893-0.37,1.917,0.054,2.286,0.947
		c0.37,0.893-0.054,1.917-0.947,2.287c-0.893,0.37-1.916-0.054-2.286-0.948C255.349,136.383,255.773,135.359,256.666,134.989"/>
	<polygon clip-path="url(#SVGID_2_)" fill="#000088" points="242.5,180.312 233.039,161.524 227,153.464 230.961,162.725 	"/>
	<path clip-path="url(#SVGID_2_)" fill="#000088" d="M259.472,143.697c0.958-0.126,1.837,0.549,1.964,1.507
		c0.126,0.958-0.549,1.837-1.507,1.963s-1.838-0.548-1.964-1.506C257.839,144.702,258.514,143.823,259.472,143.697"/>
	<polygon clip-path="url(#SVGID_2_)" fill="#000088" points="234.059,183.808 229.782,163.213 226.035,153.863 227.465,163.834 	"/>
</g>
</svg>
