<svg width="8" height="8" viewBox="0 0 8 8" fill="none" xmlns="http://www.w3.org/2000/svg">
<path d="M7.76562 5.65625L6.01562 4.90625C5.96875 4.89062 5.90625 4.875 5.85938 4.875C5.76562 4.875 5.64062 4.9375 5.57812 5.01562L4.79688 5.96875C3.76562 5.46875 2.51562 4.23438 2.03125 3.20312L2.98438 2.42188C3.0625 2.35938 3.125 2.23438 3.125 2.125C3.125 2.09375 3.10938 2.03125 3.09375 1.98438L2.34375 0.234375C2.28125 0.109375 2.125 0.015625 1.98438 0.015625C1.96875 0.015625 1.9375 0.015625 1.90625 0.015625L0.28125 0.390625C0.125 0.421875 0 0.59375 0 0.75C0 4.76562 3.23438 8 7.25 8C7.40625 8 7.57812 7.875 7.60938 7.71875L7.98438 6.09375C7.98438 6.0625 7.98438 6.03125 7.98438 6.01562C7.98438 5.875 7.89062 5.71875 7.76562 5.65625Z" fill="#474747"/>
</svg>
