<svg width="11" height="11" viewBox="0 0 11 11" fill="none" xmlns="http://www.w3.org/2000/svg">
<path d="M0.875 2.59375H10.625C10.8125 2.59375 11 2.42969 11 2.21875V1.28125C11 1.09375 10.8125 0.90625 10.625 0.90625H0.875C0.664062 0.90625 0.5 1.09375 0.5 1.28125V2.21875C0.5 2.42969 0.664062 2.59375 0.875 2.59375ZM0.875 6.34375H10.625C10.8125 6.34375 11 6.17969 11 5.96875V5.03125C11 4.84375 10.8125 4.65625 10.625 4.65625H0.875C0.664062 4.65625 0.5 4.84375 0.5 5.03125V5.96875C0.5 6.17969 0.664062 6.34375 0.875 6.34375ZM0.875 10.0938H10.625C10.8125 10.0938 11 9.92969 11 9.71875V8.78125C11 8.59375 10.8125 8.40625 10.625 8.40625H0.875C0.664062 8.40625 0.5 8.59375 0.5 8.78125V9.71875C0.5 9.92969 0.664062 10.0938 0.875 10.0938Z" fill="black"/>
</svg>
