<svg id="Capa_1" enable-background="new 0 0 512 512" height="512" viewBox="0 0 512 512" width="512" xmlns="http://www.w3.org/2000/svg"><path d="m337.511 152.55c-8.297 0-15.023-6.726-15.023-15.023v-65.339c0-2.571-2.091-4.663-4.663-4.663h-123.65c-2.571 0-4.663 2.092-4.663 4.663v65.339c0 8.297-6.726 15.023-15.023 15.023s-15.023-6.726-15.023-15.023v-65.339c0-19.139 15.57-34.709 34.709-34.709h123.65c19.139 0 34.709 15.571 34.709 34.709v65.339c0 8.296-6.726 15.023-15.023 15.023z" fill="#b95e4b"/><path d="m474.81 474.521h-437.62c-16.397 0-29.69-13.293-29.69-29.69v-301.648c0-16.397 13.293-29.69 29.69-29.69h437.62c16.397 0 29.69 13.293 29.69 29.69v301.648c0 16.397-13.293 29.69-29.69 29.69z" fill="#fd7e42"/><path d="m474.81 113.493h-34.554c16.397 0 29.69 13.293 29.69 29.69v301.648c0 16.397-13.293 29.69-29.69 29.69h34.554c16.397 0 29.69-13.293 29.69-29.69v-301.648c0-16.398-13.293-29.69-29.69-29.69z" fill="#fa6931"/><g fill="#fbd307"><path d="m436.953 474.521h37.857c16.397 0 29.69-13.293 29.69-29.69v-38.974c-33.637 8.079-60.007 34.82-67.547 68.664z"/><path d="m75.047 474.521h-37.857c-16.397 0-29.69-13.293-29.69-29.69v-38.974c33.637 8.079 60.007 34.82 67.547 68.664z"/><path d="m436.953 113.493h37.857c16.397 0 29.69 13.293 29.69 29.69v38.974c-33.637-8.08-60.007-34.821-67.547-68.664z"/></g><path d="m504.5 444.831v-38.974c-12.78 3.069-24.506 8.838-34.554 16.662v22.312c0 16.397-13.293 29.69-29.69 29.69h34.554c16.397 0 29.69-13.293 29.69-29.69z" fill="#f9c301"/><path d="m474.81 113.493h-34.554c16.397 0 29.69 13.293 29.69 29.69v22.312c10.048 7.823 21.774 13.592 34.554 16.662v-38.974c0-16.398-13.293-29.69-29.69-29.69z" fill="#f9c301"/><path d="m75.047 113.493h-37.857c-16.397 0-29.69 13.293-29.69 29.69v38.974c33.637-8.08 60.007-34.821 67.547-68.664z" fill="#fbd307"/><path d="m128.768 113.493h38.389v361.028h-38.389z" fill="#fcd0a3"/><path d="m344.898 113.493h38.389v361.028h-38.389z" fill="#fcd0a3"/><path d="m173.788 250.561h-51.706c-4.693 0-8.497-3.804-8.497-8.497v-33.619c0-4.693 3.804-8.497 8.497-8.497h51.706c4.693 0 8.497 3.804 8.497 8.497v33.619c0 4.693-3.804 8.497-8.497 8.497z" fill="#f9c301"/><path d="m389.918 250.561h-51.706c-4.693 0-8.497-3.804-8.497-8.497v-33.619c0-4.693 3.804-8.497 8.497-8.497h51.706c4.693 0 8.497 3.804 8.497 8.497v33.619c0 4.693-3.804 8.497-8.497 8.497z" fill="#f9c301"/><path d="m147.962 299.497c-10.601 0-19.195-8.594-19.195-19.195v-29.742h38.389v29.742c.001 10.602-8.593 19.195-19.194 19.195z" fill="#e89858"/><path d="m364.092 299.497c-10.601 0-19.195-8.594-19.195-19.195v-29.742h38.389v29.742c.001 10.602-8.593 19.195-19.194 19.195z" fill="#e89858"/><path d="m474.81 105.992h-114.776v-33.804c0-23.274-18.935-42.209-42.209-42.209h-123.65c-23.274 0-42.209 18.935-42.209 42.209v33.805h-114.776c-20.507 0-37.19 16.684-37.19 37.19v301.648c0 20.507 16.683 37.19 37.19 37.19h437.62c20.507 0 37.19-16.684 37.19-37.19v-301.648c0-20.507-16.683-37.191-37.19-37.191zm-84.023 361.029v-139.825c0-4.142-3.358-7.5-7.5-7.5s-7.5 3.358-7.5 7.5v139.826h-23.389v-139.208c0-4.142-3.358-7.5-7.5-7.5s-7.5 3.358-7.5 7.5v139.207h-162.741v-139.207c0-4.142-3.358-7.5-7.5-7.5s-7.5 3.358-7.5 7.5v139.207h-23.389v-139.207c0-4.142-3.358-7.5-7.5-7.5s-7.5 3.358-7.5 7.5v139.207h-40.415c-9.204-31.766-34.225-57.177-65.853-66.874v-212.281c31.628-9.696 56.649-35.107 65.853-66.873h40.415v71.497c-8.441.428-15.183 7.41-15.183 15.956v33.619c0 8.546 6.741 15.528 15.183 15.956v22.283c0 14.719 11.975 26.694 26.695 26.694 14.719 0 26.694-11.975 26.694-26.694v-22.286c8.416-.455 15.128-7.426 15.128-15.953v-33.619c0-8.528-6.712-15.498-15.128-15.953v-71.5h162.741v71.497c-8.441.428-15.183 7.41-15.183 15.956v33.619c0 8.546 6.741 15.528 15.183 15.956v22.283c0 14.719 11.975 26.694 26.694 26.694 14.72 0 26.695-11.975 26.695-26.694v-22.286c8.416-.455 15.128-7.426 15.128-15.953v-33.619c0-8.527-6.712-15.498-15.128-15.953v-71.5h40.36c9.204 31.767 34.224 57.177 65.853 66.873v212.282c-31.628 9.696-56.649 35.107-65.853 66.874h-40.36zm-254.519-208.96h23.389v22.242c0 6.448-5.246 11.694-11.694 11.694-6.449 0-11.695-5.246-11.695-11.694zm37.52-15h-51.706c-.55 0-.997-.447-.997-.997v-33.619c0-.55.447-.997.997-.997h51.706c.549 0 .997.447.997.997v33.619c0 .55-.448.997-.997.997zm-14.131-122.069v71.456h-23.389v-71.456zm155.33-15h-117.974v-30.967h117.975v30.967zm37.411 152.069h23.389v22.242c0 6.448-5.246 11.694-11.695 11.694-6.448 0-11.694-5.246-11.694-11.694zm37.52-15h-51.706c-.549 0-.997-.447-.997-.997v-33.619c0-.55.447-.997.997-.997h51.706c.55 0 .997.447.997.997v33.619c0 .55-.447.997-.997.997zm-14.131-50.613h-23.389v-71.456h23.389zm121.213-49.265v28.861c-23.367-8.629-41.926-27.527-50.119-51.052h27.929c12.236 0 22.19 9.955 22.19 22.191zm-330.034-70.995c0-15.003 12.206-27.209 27.209-27.209h123.649c15.003 0 27.209 12.206 27.209 27.209v33.805h-15.047v-33.805c0-6.707-5.456-12.163-12.163-12.163h-123.648c-6.707 0-12.163 5.456-12.163 12.163v33.805h-15.047v-33.805zm-129.776 48.804h27.929c-8.193 23.525-26.752 42.423-50.119 51.052v-28.861c0-12.236 9.954-22.191 22.19-22.191zm-22.19 323.839v-28.861c23.367 8.629 41.926 27.528 50.119 51.052h-27.929c-12.236-.001-22.19-9.955-22.19-22.191zm459.81 22.19h-27.929c8.193-23.524 26.752-42.423 50.119-51.052v28.861c0 12.237-9.954 22.191-22.19 22.191z"/></svg>