<svg width="22" height="23" viewBox="0 0 22 23" fill="none" xmlns="http://www.w3.org/2000/svg">
<path d="M11.1916 19.8654C9.35118 19.8654 7.63357 19.3106 6.19869 18.3665L2.70988 19.4812L3.8408 16.1099C2.75263 14.6162 2.11265 12.7759 2.11265 10.7915C2.11265 5.78785 6.18274 1.71776 11.1864 1.71776C16.19 1.71776 20.2601 5.78785 20.2601 10.7915C20.2601 15.795 16.19 19.8652 11.1864 19.8652H11.1916V19.8654ZM11.1916 0C5.23292 0 0.400159 4.83322 0.400159 10.7916C0.400159 12.8293 0.965619 14.739 1.94705 16.366L0 22.1538L5.97468 20.2389C7.57162 21.1219 9.36682 21.5845 11.1916 21.5831C17.1502 21.5831 21.9831 16.7502 21.9831 10.7916C21.983 4.83322 17.1502 0 11.1916 0Z" fill="#FEFEFE"/>
<path d="M11.1919 1.71777C6.18825 1.71777 2.11816 5.78786 2.11816 10.7915C2.11816 12.7759 2.7583 14.6162 3.84646 16.1099L2.71554 19.4812L6.20421 18.3665C7.63909 19.316 9.35143 19.8654 11.1972 19.8654C16.2008 19.8654 20.2709 15.7951 20.2709 10.7916C20.2709 5.78801 16.2008 1.71792 11.1972 1.71792H11.1919V1.71777Z" fill="url(#paint0_linear)"/>
<path d="M8.6584 6.32676C8.48241 5.90538 8.34902 5.88942 8.0824 5.87858C7.98116 5.87206 7.87974 5.86854 7.77829 5.86804C7.43143 5.86804 7.06876 5.96936 6.85001 6.19338C6.58339 6.46542 5.92188 7.10013 5.92188 8.40178C5.92188 9.70342 6.87139 10.9623 6.99935 11.1385C7.13274 11.3143 8.8505 14.0242 11.5176 15.1286C13.6033 15.9927 14.2222 15.9127 14.6969 15.8113C15.3903 15.662 16.2599 15.1497 16.4787 14.5311C16.6974 13.9122 16.6974 13.384 16.6333 13.272C16.5693 13.16 16.3931 13.0962 16.1265 12.9627C15.8599 12.8293 14.5635 12.1891 14.3181 12.1038C14.078 12.0131 13.8487 12.0452 13.6675 12.3013C13.4114 12.6587 13.1607 13.0215 12.9579 13.2401C12.7979 13.4108 12.5364 13.4322 12.3178 13.3414C12.0244 13.2189 11.203 12.9306 10.1893 12.0291C9.40512 11.3304 8.87173 10.461 8.71711 10.1996C8.56235 9.93301 8.70115 9.77809 8.8237 9.63417C8.95709 9.46872 9.08505 9.35144 9.21844 9.19667C9.35183 9.04206 9.4265 8.96197 9.51186 8.78056C9.60264 8.60457 9.53851 8.42315 9.47452 8.28977C9.41054 8.15638 8.87715 6.85474 8.6584 6.32676V6.32676Z" fill="#FEFEFE"/>
<defs>
<linearGradient id="paint0_linear" x1="-66.087" y1="-28.6829" x2="-66.087" y2="-28.017" gradientUnits="userSpaceOnUse">
<stop stop-color="#6EBF61"/>
<stop offset="0.231" stop-color="#50A557"/>
<stop offset="0.522" stop-color="#2A904F"/>
<stop offset="0.812" stop-color="#50A557"/>
<stop offset="1" stop-color="#6EBF63"/>
</linearGradient>
</defs>
</svg>
