<svg width="26" height="26" viewBox="0 0 26 26" fill="none" xmlns="http://www.w3.org/2000/svg">
<circle cx="13" cy="13" r="12.75" fill="#FEDA02" stroke="#B08000" stroke-width="0.5"/>
<circle cx="13" cy="13" r="9.75" fill="#D29900" stroke="#B08000" stroke-width="0.5"/>
<path d="M6.81969 15.64C6.81969 15.0853 6.91035 14.536 7.09169 13.992C7.27302 13.448 7.52902 12.9307 7.85969 12.44C8.19035 11.9387 8.59035 11.48 9.05969 11.064C9.52902 10.648 10.0464 10.2853 10.6117 9.976C11.1877 9.66667 11.8064 9.42667 12.4677 9.256C13.1397 9.07467 13.833 8.984 14.5477 8.984C15.5184 8.984 16.313 9.112 16.9317 9.368C17.5504 9.624 18.0037 9.93867 18.2917 10.312C18.4304 10.4827 18.4997 10.6853 18.4997 10.92C18.4997 11.144 18.409 11.336 18.2277 11.496C18.0464 11.656 17.8117 11.736 17.5237 11.736C17.3744 11.736 17.225 11.6987 17.0757 11.624C16.9264 11.5387 16.793 11.4267 16.6757 11.288C16.3237 10.8613 15.913 10.5573 15.4437 10.376C14.985 10.184 14.4464 10.088 13.8277 10.088C13.1024 10.088 12.425 10.2267 11.7957 10.504C11.177 10.7707 10.6384 11.1387 10.1797 11.608C9.72102 12.0667 9.35835 12.6 9.09169 13.208C8.82502 13.8053 8.69169 14.4347 8.69169 15.096C8.69169 15.5227 8.77169 15.9173 8.93169 16.28C9.10235 16.6427 9.33169 16.9627 9.61969 17.24C9.91835 17.5067 10.2704 17.72 10.6757 17.88C11.0917 18.0293 11.545 18.104 12.0357 18.104C12.6757 18.104 13.257 17.992 13.7797 17.768C14.3024 17.544 14.745 17.288 15.1077 17C15.481 16.7013 15.7637 16.4133 15.9557 16.136C16.1584 15.8587 16.2597 15.6667 16.2597 15.56C16.2597 15.464 16.1904 15.416 16.0517 15.416H12.8037C12.5264 15.416 12.3877 15.224 12.3877 14.84C12.3877 14.4773 12.5264 14.296 12.8037 14.296H16.9157C17.225 14.296 17.4437 14.36 17.5717 14.488C17.7104 14.616 17.7797 14.7867 17.7797 15C17.7797 15.224 17.705 15.4853 17.5557 15.784C17.4064 16.072 17.1984 16.376 16.9317 16.696C16.6757 17.0053 16.361 17.3147 15.9877 17.624C15.625 17.9227 15.225 18.1947 14.7877 18.44C14.3504 18.6747 13.881 18.8613 13.3797 19C12.889 19.1493 12.3824 19.224 11.8597 19.224C11.017 19.224 10.281 19.1387 9.65169 18.968C9.02235 18.7867 8.49435 18.536 8.06769 18.216C7.65169 17.896 7.33702 17.5173 7.12369 17.08C6.92102 16.6427 6.81969 16.1627 6.81969 15.64Z" fill="#7D5C03"/>
<path d="M6.81969 14.64C6.81969 14.0853 6.91035 13.536 7.09169 12.992C7.27302 12.448 7.52902 11.9307 7.85969 11.44C8.19035 10.9387 8.59035 10.48 9.05969 10.064C9.52902 9.648 10.0464 9.28533 10.6117 8.976C11.1877 8.66667 11.8064 8.42667 12.4677 8.256C13.1397 8.07467 13.833 7.984 14.5477 7.984C15.5184 7.984 16.313 8.112 16.9317 8.368C17.5504 8.624 18.0037 8.93867 18.2917 9.312C18.4304 9.48267 18.4997 9.68533 18.4997 9.92C18.4997 10.144 18.409 10.336 18.2277 10.496C18.0464 10.656 17.8117 10.736 17.5237 10.736C17.3744 10.736 17.225 10.6987 17.0757 10.624C16.9264 10.5387 16.793 10.4267 16.6757 10.288C16.3237 9.86133 15.913 9.55733 15.4437 9.376C14.985 9.184 14.4464 9.088 13.8277 9.088C13.1024 9.088 12.425 9.22667 11.7957 9.504C11.177 9.77067 10.6384 10.1387 10.1797 10.608C9.72102 11.0667 9.35835 11.6 9.09169 12.208C8.82502 12.8053 8.69169 13.4347 8.69169 14.096C8.69169 14.5227 8.77169 14.9173 8.93169 15.28C9.10235 15.6427 9.33169 15.9627 9.61969 16.24C9.91835 16.5067 10.2704 16.72 10.6757 16.88C11.0917 17.0293 11.545 17.104 12.0357 17.104C12.6757 17.104 13.257 16.992 13.7797 16.768C14.3024 16.544 14.745 16.288 15.1077 16C15.481 15.7013 15.7637 15.4133 15.9557 15.136C16.1584 14.8587 16.2597 14.6667 16.2597 14.56C16.2597 14.464 16.1904 14.416 16.0517 14.416H12.8037C12.5264 14.416 12.3877 14.224 12.3877 13.84C12.3877 13.4773 12.5264 13.296 12.8037 13.296H16.9157C17.225 13.296 17.4437 13.36 17.5717 13.488C17.7104 13.616 17.7797 13.7867 17.7797 14C17.7797 14.224 17.705 14.4853 17.5557 14.784C17.4064 15.072 17.1984 15.376 16.9317 15.696C16.6757 16.0053 16.361 16.3147 15.9877 16.624C15.625 16.9227 15.225 17.1947 14.7877 17.44C14.3504 17.6747 13.881 17.8613 13.3797 18C12.889 18.1493 12.3824 18.224 11.8597 18.224C11.017 18.224 10.281 18.1387 9.65169 17.968C9.02235 17.7867 8.49435 17.536 8.06769 17.216C7.65169 16.896 7.33702 16.5173 7.12369 16.08C6.92102 15.6427 6.81969 15.1627 6.81969 14.64Z" fill="white"/>
</svg>
