<?xml version="1.0" encoding="utf-8"?>
<!-- Generator: Adobe Illustrator 13.0.0, SVG Export Plug-In . SVG Version: 6.00 Build 14948)  -->
<!DOCTYPE svg PUBLIC "-//W3C//DTD SVG 1.1//EN" "http://www.w3.org/Graphics/SVG/1.1/DTD/svg11.dtd">
<svg version="1.1" id="Layer_1" xmlns="http://www.w3.org/2000/svg" xmlns:xlink="http://www.w3.org/1999/xlink" x="0px" y="0px"
	 width="240.46px" height="227.583px" viewBox="0 0 240.46 227.583" enable-background="new 0 0 240.46 227.583"
	 xml:space="preserve">
<g>
	<polyline fill="#D8D8D8" points="13.519,85.462 66.52,80.333 114.392,121.367 161.692,111.679 192.466,134.474 232.075,104.554 
		190.757,115.098 162.264,109.399 109.832,112.248 	"/>
	<g>
		<circle fill="none" stroke="#464646" stroke-width="4" cx="13.238" cy="58.233" r="6.721"/>
		<line fill="none" stroke="#464646" stroke-width="4" stroke-linecap="round" x1="13.237" y1="65.721" x2="13.237" y2="78.875"/>
	</g>
	<g>
		<circle fill="none" stroke="#464646" stroke-width="4" cx="103.635" cy="70.464" r="6.721"/>
		<line fill="none" stroke="#464646" stroke-width="4" stroke-linecap="round" x1="103.635" y1="77.952" x2="103.635" y2="91.107"/>
	</g>
	<g>
		<circle fill="none" stroke="#464646" stroke-width="4" cx="231.74" cy="76.225" r="6.72"/>
		<line fill="none" stroke="#464646" stroke-width="4" stroke-linecap="round" x1="231.741" y1="83.713" x2="231.741" y2="96.868"/>
	</g>
	<g>
		<circle fill="none" stroke="#464646" stroke-width="4" cx="162.5" cy="101.869" r="6.72"/>
		<line fill="none" stroke="#464646" stroke-width="4" stroke-linecap="round" x1="162.5" y1="109.358" x2="162.5" y2="122.512"/>
	</g>
	<polyline fill="none" stroke="#464646" stroke-width="4" stroke-linecap="round" points="232.565,105.457 162.05,132.858 
		101.654,98.301 11.569,85.726 	"/>
	<line fill="none" stroke="#464646" stroke-width="4" stroke-linecap="round" x1="18.364" y1="92.445" x2="57.258" y2="98.001"/>
	<line fill="none" stroke="#464646" stroke-width="4" stroke-linecap="round" x1="186.767" y1="129.628" x2="223.1" y2="114.674"/>
	
		<line fill="none" stroke="#464646" stroke-width="4" stroke-linecap="round" x1="100.907" y1="104.931" x2="122.562" y2="117.255"/>
	<g>
		<g>
			<g>
				<polygon fill="#D8D8D8" points="104.61,196.587 104.61,204.706 97.524,204.706 97.524,196.587 60.985,196.587 66.302,206.762 
					138.381,206.762 141.039,196.587 				"/>
			</g>
		</g>
		<polygon fill="#4C4C4C" points="64.632,157.314 53.498,144.522 53.499,144.522 55.586,142.703 65.893,154.544 154.692,154.544 
			154.692,157.314 		"/>
		<path fill="#4C4C4C" d="M96.729,155.458v-17.338c0-0.764,0.621-1.385,1.385-1.385l0,0c0.764,0,1.384,0.621,1.384,1.385l0,0v17.338
			c0,0.766-0.62,1.385-1.384,1.385l0,0C97.351,156.842,96.729,156.223,96.729,155.458L96.729,155.458z"/>
		<path fill="#4C4C4C" d="M96.729,184.063v-21.02c0-0.767,0.621-1.384,1.385-1.384l0,0c0.764,0,1.384,0.617,1.384,1.384l0,0v21.02
			c0,0.764-0.62,1.386-1.384,1.386l0,0C97.351,185.449,96.729,184.827,96.729,184.063L96.729,184.063z"/>
		<path fill="#4C4C4C" d="M96.729,203.449v-12.711c0-0.766,0.621-1.386,1.385-1.386l0,0c0.764,0,1.384,0.62,1.384,1.386l0,0v12.711
			c0,0.765-0.62,1.387-1.384,1.387l0,0C97.351,204.834,96.729,204.213,96.729,203.449L96.729,203.449z"/>
		<path fill="#4C4C4C" d="M39.118,161.217V147.37c0-0.766,0.619-1.386,1.387-1.386l0,0c0.764,0,1.385,0.62,1.385,1.386l0,0v13.848
			c0,0.764-0.622,1.382-1.385,1.382l0,0C39.737,162.599,39.118,161.981,39.118,161.217L39.118,161.217z"/>
		<path fill="#4C4C4C" d="M58.503,174.371c-0.764,0-1.384-0.62-1.384-1.385l0,0c0-0.767,0.62-1.385,1.384-1.385l0,0h13.848
			c0.765,0,1.384,0.618,1.384,1.385l0,0c0,0.765-0.619,1.385-1.384,1.385l0,0H58.503L58.503,174.371z"/>
		<path fill="#4C4C4C" d="M52.723,129.188l-5.472-3.167c-0.663-0.383-0.888-1.23-0.504-1.893l0,0
			c0.383-0.662,1.231-0.889,1.893-0.505l0,0l5.473,3.168c0.662,0.384,0.89,1.23,0.503,1.894l0,0
			c-0.254,0.443-0.72,0.691-1.196,0.691l0,0C53.182,129.376,52.943,129.315,52.723,129.188L52.723,129.188z"/>
		<path fill="#4C4C4C" d="M7.962,196.526c-0.765,0-1.383-0.621-1.383-1.386l0,0c0-0.766,0.619-1.386,1.383-1.386l0,0h13.848
			c0.764,0,1.385,0.62,1.385,1.386l0,0c0,0.765-0.621,1.386-1.385,1.386l0,0H7.962L7.962,196.526z"/>
		<path fill="#4C4C4C" d="M105.583,174.373c-0.766,0-1.385-0.622-1.385-1.386l0,0c0-0.765,0.619-1.386,1.385-1.386l0,0h13.844
			c0.764,0,1.388,0.621,1.388,1.386l0,0c0,0.764-0.624,1.386-1.388,1.386l0,0H105.583L105.583,174.373z"/>
		<path fill="#4C4C4C" d="M124.708,174.373c-0.765,0-1.385-0.622-1.385-1.387l0,0c0-0.764,0.62-1.385,1.385-1.385l0,0h6.75
			c0.766,0,1.387,0.621,1.387,1.385l0,0c0,0.765-0.621,1.387-1.387,1.387l0,0H124.708L124.708,174.373z"/>
		<path fill="#4C4C4C" d="M195.587,195.833c-0.767,0-1.383-0.62-1.383-1.384l0,0c0-0.766,0.616-1.386,1.383-1.386l0,0h6.75
			c0.765,0,1.385,0.62,1.385,1.386l0,0c0,0.764-0.62,1.384-1.385,1.384l0,0H195.587L195.587,195.833z"/>
		<path fill="#4C4C4C" d="M194.201,204.834v-6.75c0-0.765,0.619-1.386,1.385-1.386l0,0c0.766,0,1.386,0.621,1.386,1.386l0,0v6.75
			c0,0.764-0.62,1.385-1.386,1.385l0,0C194.82,206.219,194.201,205.598,194.201,204.834L194.201,204.834z"/>
		<path fill="#D8D8D8" d="M13.906,182.285c0,2.066-0.992,3.74-2.216,3.74h-0.188c-1.22,0-2.214-1.674-2.214-3.74v-9.136
			c0-2.066,0.993-3.741,2.214-3.741h0.188c1.221,0,2.216,1.675,2.216,3.741V182.285z"/>
		<path fill="#D8D8D8" d="M59.089,207.409c0,7.708-6.249,13.957-13.955,13.957c-7.705,0-13.954-6.249-13.954-13.957
			c0-7.706,6.249-13.953,13.954-13.953C52.841,193.456,59.089,199.703,59.089,207.409z"/>
		<path fill="#D8D8D8" d="M171.94,207.409c0,7.708-6.248,13.957-13.953,13.957s-13.954-6.249-13.954-13.957
			c0-7.706,6.249-13.953,13.954-13.953C165.693,193.456,171.94,199.703,171.94,207.409z"/>
		<g>
			<g>
				<path fill="#D8D8D8" d="M64.363,162.319c0,1.381,1.12,2.503,2.502,2.503h28.024v-5.007H66.865
					C65.483,159.816,64.363,160.937,64.363,162.319z M148.433,159.816h-47.209v5.007h47.209c1.381,0,2.501-1.122,2.501-2.504
					C150.934,160.938,149.813,159.816,148.433,159.816z"/>
			</g>
		</g>
		<path fill="#D8D8D8" d="M111.207,132.923v19.684h32.526C143.732,152.607,136.561,139.595,111.207,132.923z"/>
		<g>
			<g>
				<path fill="#4C4C4C" d="M157.431,186.486c-11.349,0-20.548,9.196-20.548,20.547c0,1.379,0.139,2.728,0.397,4.031h2.84
					c-0.303-1.296-0.468-2.643-0.471-4.031c0.017-9.819,7.959-17.762,17.779-17.777c9.819,0.016,17.76,7.958,17.776,17.777
					c-0.015,9.816-7.957,17.76-17.776,17.776c-7.23-0.015-13.438-4.325-16.219-10.514h-3.006
					c2.936,7.762,10.433,13.284,19.225,13.285c11.35-0.001,20.544-9.201,20.545-20.548
					C177.979,195.682,168.78,186.486,157.431,186.486z"/>
			</g>
		</g>
		<g>
			<g>
				<path fill="#4C4C4C" d="M211.51,175.754c0-0.762-0.618-1.384-1.385-1.384h-8.54v2.77h8.54
					C210.892,177.139,211.51,176.52,211.51,175.754z M194.34,181.155v-0.415c0.005-1.986,1.613-3.598,3.602-3.602h1.106v-2.77
					h-1.106c-3.517,0-6.366,2.851-6.368,6.368v0.415c0.003,3.517,2.852,6.367,6.368,6.368h7.571v-2.769h-7.571
					C195.954,184.751,194.345,183.142,194.34,181.155z M210.126,184.755h-2.54v2.77h2.54c0.766,0,1.385-0.621,1.385-1.385
					C211.51,185.375,210.892,184.755,210.126,184.755z"/>
			</g>
		</g>
		<g>
			<g>
				<path fill="#4C4C4C" d="M4.8,200.306c-0.75-1.073-1.287-2.042-1.632-2.732c-0.173-0.347-0.297-0.623-0.377-0.807
					c-0.007-0.016-0.013-0.03-0.02-0.045v-16.295H0.001L0,197.241l0.088,0.236c0.071,0.132,2.871,7.747,10.712,11.703l0.293,0.147
					h6.391v-2.77h-5.728C8.528,204.873,6.263,202.397,4.8,200.306z M2.77,175.756H0.002v2.076h2.769L2.77,175.756L2.77,175.756z
					 M2.77,169.616c-0.005-2.935,0.868-6.496,1.759-9.271c0.445-1.392,0.895-2.591,1.226-3.438c0.073-0.188,0.141-0.354,0.203-0.506
					h5.642v-2.771H4.135l-0.368,0.822c-0.015,0.089-3.737,8.3-3.767,15.161v3.89H2.77L2.77,169.616L2.77,169.616z M21.464,209.329
					h5.192v-2.77h-5.192V209.329z M79.505,128.08h-2.309v2.772h2.309V128.08z M212.52,174.395c-0.363-2.07-1.511-3.822-3.102-5.215
					c-5.586-4.808-16.579-6.501-27.573-8.171c-5.486-0.809-10.95-1.561-15.621-2.527c-4.667-0.954-8.553-2.172-10.749-3.694
					c-10.1-6.854-16.524-20.234-44.268-26.67l-0.157-0.038H81.811v2.772h28.922c26.872,6.352,32.194,18.628,43.178,26.219
					c3.231,2.19,8.145,3.456,13.853,4.536c8.549,1.591,18.865,2.62,27.179,4.515c4.156,0.941,7.802,2.106,10.404,3.58
					c2.626,1.492,4.096,3.167,4.449,5.18c0.392,2.214,0.566,4.32,0.566,6.317c0,8.224-2.958,14.632-5.931,19.019
					c-1.484,2.19-2.973,3.865-4.078,4.984c-0.553,0.56-1.014,0.98-1.328,1.256c-0.042,0.038-0.082,0.071-0.117,0.104h-22.242v2.77
					h23.217l0.374-0.296c0.122-0.106,12.839-9.99,12.872-27.835C213.128,179.039,212.943,176.769,212.52,174.395z M95.198,209.329
					h43.62v-2.77h-43.62V209.329L95.198,209.329z M64.505,209.329h26.306v-2.77H64.505V209.329z M65.199,130.848l0.039,0.003h8.959
					v-2.772h-8.933v0c-0.054,0-0.141-0.003-0.256-0.003c-2.698-0.027-22.458,0.95-39.707,25.554H14.886v2.771h11.866l0.414-0.6
					c16.798-24.326,35.68-24.93,37.842-24.956C65.153,130.847,65.199,130.85,65.199,130.848z"/>
			</g>
		</g>
		<g>
			<g>
				<path fill="#4C4C4C" d="M15.578,177.833v6.093c-0.002,1.986-1.612,3.597-3.6,3.602h-0.415c-1.986-0.005-3.598-1.612-3.602-3.602
					l0.001-12.186c0.003-1.986,1.612-3.598,3.601-3.602h0.417c1.985,0.004,3.597,1.614,3.6,3.602v2.632h2.77v-2.632
					c0-3.518-2.852-6.368-6.367-6.368h-0.416c-3.518,0-6.368,2.851-6.368,6.368l-0.001,12.186c0.001,3.518,2.852,6.367,6.369,6.37
					h0.416c3.515-0.003,6.367-2.853,6.367-6.37v-6.093H15.578z"/>
			</g>
		</g>
		<g>
			<g>
				<path fill="#4C4C4C" d="M45.189,224.81c-9.821-0.017-17.763-7.959-17.78-17.776c0.016-7.291,4.397-13.543,10.671-16.288v-2.995
					c-7.846,2.892-13.439,10.433-13.44,19.283c0.002,11.348,9.199,20.547,20.55,20.549c8.472-0.002,15.744-5.132,18.887-12.451
					h-3.073C58.054,220.871,52.087,224.797,45.189,224.81z M45.189,186.486c-1.004,0-1.99,0.075-2.956,0.215v2.808
					c0.961-0.161,1.95-0.25,2.956-0.251c9.819,0.015,17.76,7.958,17.776,17.776c-0.003,1.501-0.191,2.957-0.544,4.351h2.849
					c0.303-1.401,0.466-2.857,0.466-4.351C65.737,195.682,56.537,186.486,45.189,186.486z"/>
			</g>
		</g>
	</g>
</g>
</svg>
