<?xml version="1.0" encoding="utf-8"?>
<!-- Generator: Adobe Illustrator 13.0.0, SVG Export Plug-In . SVG Version: 6.00 Build 14948)  -->
<!DOCTYPE svg PUBLIC "-//W3C//DTD SVG 1.1//EN" "http://www.w3.org/Graphics/SVG/1.1/DTD/svg11.dtd">
<svg version="1.1" id="Layer_1" xmlns="http://www.w3.org/2000/svg" xmlns:xlink="http://www.w3.org/1999/xlink" x="0px" y="0px"
	 width="328.859px" height="226px" viewBox="6.432 32.763 328.859 226" enable-background="new 6.432 32.763 328.859 226"
	 xml:space="preserve">
<rect x="18.181" y="165.374" fill="#D8D8D8" width="301.343" height="4.518"/>
<g>
	<g>
		<path fill="#454545" d="M43.389,71.703v3.817c3.321,1.384,5.656,4.655,5.664,8.479c-0.01,5.071-4.113,9.176-9.187,9.186
			c-5.072-0.009-9.176-4.113-9.186-9.186c0.006-3.507,1.972-6.549,4.858-8.098v-3.937c-4.937,1.776-8.473,6.485-8.474,12.034
			c0.001,6.455,4.782,11.777,10.994,12.658v8.757h3.613v-8.757c6.211-0.882,10.99-6.203,10.992-12.658
			C52.665,78.154,48.743,73.235,43.389,71.703z M38.06,109.822h3.613v-2.046H38.06V109.822z M40.733,74.859v-3.614
			c-0.288-0.021-0.574-0.044-0.867-0.044c-0.567,0-1.123,0.05-1.67,0.121v3.654c0.542-0.101,1.099-0.161,1.67-0.162
			C40.159,74.815,40.447,74.833,40.733,74.859z M38.06,117.766c0,0.999,0.807,1.809,1.806,1.809s1.808-0.81,1.808-1.809v-5.583
			H38.06V117.766z"/>
	</g>
</g>
<path fill="#D8D8D8" d="M329.916,174.409c0,9.729-9.695,17.619-19.427,17.619H33.994c-9.73,0-22.137-7.89-22.137-17.619h4.518"/>
<g>
	<g>
		<path fill="#454545" d="M279.617,123.356h-6.928v3.614h6.928V123.356z M322.196,136.498c5.488,5.494,9.021,12.927,9.474,21.193
			h3.622c-0.942-19.121-16.742-34.334-36.099-34.336h-14.154v3.614h14.154C308.18,126.972,316.302,130.609,322.196,136.498z
			 M263.954,195.644h6.325v-3.614h-6.325V195.644z M277.207,195.644h6.324v-3.614h-6.324V195.644z M91.975,123.356h-7.229v3.614
			h7.229V123.356z M267.268,123.356h-166.86v3.614h166.86V123.356z M19.577,182.502c-5.89-5.893-9.528-14.014-9.528-23.002
			c0-8.989,3.639-17.11,9.528-23.002c5.893-5.89,14.013-9.526,22.999-9.527h18.375v-3.614H42.576
			C22.615,123.358,6.435,139.539,6.432,159.5c0.002,19.963,16.183,36.142,36.144,36.144h214.45v-3.614H42.576
			C33.59,192.027,25.469,188.391,19.577,182.502z M322.196,182.502c-5.895,5.889-14.016,9.524-23.003,9.526h-8.734v3.614h8.734
			c18.431-0.002,33.627-13.797,35.854-31.625h-3.646C330.406,171.194,327.077,177.616,322.196,182.502z M76.312,123.356h-6.929
			v3.614h6.929V123.356z"/>
	</g>
</g>
<g>
	<rect x="113.809" y="150.169" fill="#D8D8D8" width="10.423" height="25.582"/>
	<rect x="136.864" y="151.117" fill="#D8D8D8" width="10.421" height="25.579"/>
	<g>
		<path fill="#FFFFFF" d="M88.228,175.647c0,0,5.051-38.32,43.372-38.741c0,0,37.056,1.264,40.846,39.583
			c0,0,38.317,5.474,30.317,46.318H44.015C44.015,222.808,42.329,183.647,88.228,175.647z"/>
		<g>
			<g>
				<path fill="#454545" d="M53.416,224.616h2.259v-3.614h-2.259V224.616z M46.643,214.618h-3.679
					c-0.672,3.698-0.76,6.494-0.762,7.662c0,0.369,0.006,0.573,0.008,0.598l0.068,1.738h7.749v-3.614h-4.182
					C45.911,219.571,46.11,217.332,46.643,214.618z M168.425,165.976h3.805c-0.413-1.367-0.887-2.662-1.393-3.915h-3.92
					C167.467,163.299,167.974,164.6,168.425,165.976z M165.497,159.198h4.08c-4.506-9.208-11.451-14.998-18.135-18.471
					c-10.134-5.301-19.625-5.615-19.78-5.626l-0.036-0.002h-0.046c-19.799,0.182-31.336,10.377-37.564,20.374
					c-4.936,7.867-6.779,15.608-7.354,18.623c-21.04,3.973-32.35,14.661-38.151,25.021c-2.402,4.275-3.884,8.466-4.807,12.115h3.733
					c0.868-3.178,2.192-6.743,4.224-10.342c5.506-9.72,15.97-19.788,36.879-23.462l1.31-0.229l0.174-1.315
					c0.002,0,0.067-0.521,0.271-1.522c0.203-1.003,0.537-2.449,1.058-4.189c1.036-3.482,2.812-8.14,5.725-12.773
					c5.871-9.258,16.001-18.42,34.48-18.682c0.089,0.005,0.578,0.025,1.452,0.119c0.972,0.103,2.379,0.294,4.082,0.64
					c3.408,0.692,8,2.004,12.673,4.455C155.527,146.982,161.397,151.694,165.497,159.198z M139.481,224.616h3.162v-3.614h-3.162
					V224.616z M189.128,181.106c-6.219-3.967-12.352-5.584-15.028-6.146c-0.206-1.718-0.501-3.34-0.837-4.917h-3.691
					c0.472,2.065,0.838,4.27,1.076,6.625l0.141,1.411l1.403,0.197c0,0.002,0.414,0.06,1.228,0.232
					c0.814,0.173,1.988,0.458,3.403,0.895c2.83,0.872,6.611,2.354,10.359,4.748c7.496,4.843,14.838,13.059,14.874,27.996
					c0,2.721-0.246,5.664-0.797,8.854H147.16v3.613h57.089l0.286-1.46c0.78-3.966,1.135-7.629,1.135-11.009
					C205.707,195.916,197.341,186.302,189.128,181.106z M59.741,224.616h75.223v-3.614H59.741V224.616z"/>
			</g>
		</g>
	</g>
	<g>
		<circle fill="#FFFFFF" cx="81.068" cy="222.808" r="12.211"/>
		<path fill="#454545" d="M95.087,222.809c-0.002,7.742-6.274,14.017-14.018,14.019l0,0c-7.742-0.002-14.017-6.275-14.021-14.019
			l0,0c0.003-7.743,6.277-14.018,14.021-14.02l0,0C88.812,208.791,95.085,215.065,95.087,222.809L95.087,222.809z M81.069,233.212
			c5.747-0.01,10.394-4.658,10.404-10.403l0,0c-0.011-5.747-4.657-10.395-10.404-10.405l0,0
			c-5.744,0.012-10.395,4.658-10.403,10.405l0,0C70.675,228.554,75.325,233.202,81.069,233.212L81.069,233.212z"/>
	</g>
	<path fill="#D8D8D8" d="M80.995,212.403c5.787,0,10.478,4.692,10.478,10.479c0,5.788-4.69,10.478-10.478,10.478V212.403z"/>
	<path fill="#D8D8D8" d="M135.78,176.293v-26.949c0,0,24.425-0.001,24.845,26.949H135.78z"/>
	<path fill="#454545" d="M162.914,177.874h-28.489v-1.807v-28.361l1.371-0.343l0.438-0.054l0,0c0.166,0.01,6.526-0.008,13.135,3.59
		l0,0c6.624,3.558,13.356,11.102,13.517,25.139L162.914,177.874L162.914,177.874z M136.233,176.068v-1.81V176.068L136.233,176.068z
		 M138.042,174.259h21.154l0,0c-0.734-11.646-6.148-17.161-11.563-20.187l0,0c-2.856-1.565-5.742-2.361-7.901-2.756l0,0
		c-0.633-0.116-1.203-0.197-1.69-0.256V174.259L138.042,174.259z"/>
	<path fill="#D8D8D8" d="M175.428,179.426c0,0,32.41,4.336,26.32,41.743h-25.701L175.428,179.426z"/>
	<path fill="#454545" d="M61.278,187.017v12.211H49.909C49.909,199.228,52.858,192.069,61.278,187.017z"/>
	<rect x="115.072" y="182.699" fill="#454545" width="11.369" height="5.686"/>
	<rect x="101.808" y="211.544" fill="#454545" width="44.635" height="5.685"/>
	<rect x="152.022" y="182.699" fill="#454545" width="11.371" height="5.686"/>
	<rect x="188.341" y="191.226" fill="#454545" width="11.054" height="6.316"/>
	<g>
		<circle fill="#FFFFFF" cx="169.077" cy="222.808" r="12.211"/>
		<path fill="#454545" d="M183.096,222.808c-0.002,7.742-6.277,14.019-14.02,14.021l0,0c-7.743-0.002-14.016-6.277-14.019-14.021
			l0,0c0.003-7.742,6.275-14.019,14.019-14.019l0,0C176.821,208.789,183.094,215.065,183.096,222.808L183.096,222.808z
			 M169.077,233.212c5.746-0.011,10.395-4.658,10.404-10.404l0,0c-0.01-5.745-4.659-10.394-10.404-10.403l0,0
			c-5.746,0.011-10.392,4.658-10.402,10.403l0,0C158.685,228.554,163.332,233.201,169.077,233.212L169.077,233.212z"/>
	</g>
	<g>
		<g>
			<path fill="#454545" d="M115.311,177.874h2.033v-3.613h-2.033V177.874z M127.934,149.139c0-0.007,0.001-0.015,0.001-0.021
				c0-0.48-0.188-0.916-0.493-1.24c-0.013-0.014-0.024-0.026-0.036-0.038c-0.014-0.014-0.029-0.027-0.043-0.041
				c-0.323-0.303-0.758-0.489-1.237-0.489c-0.165,0.01-6.521-0.008-13.131,3.591c-6.624,3.56-13.355,11.103-13.519,25.138
				l-0.029,1.836h12.477v-3.613h-8.761c0.634-10.127,4.826-15.589,9.439-18.866c4.319-3.042,9.154-4.032,11.717-4.334v23.201h-3.586
				v3.613h7.203l-0.002-28.564C127.938,149.251,127.938,149.195,127.934,149.139z"/>
		</g>
	</g>
	<g>
		<g>
			<path fill="#454545" d="M114.262,242.931h5.723v-3.614h-5.723V242.931z M102.215,242.931h5.12v-3.614h-5.12V242.931z
				 M215.463,239.316h-88.551v3.614h88.551c0.997,0,1.806-0.809,1.806-1.807S216.46,239.316,215.463,239.316z M37.156,241.124
				c0,0.998,0.809,1.807,1.807,1.807h56.324v-3.614H38.963C37.965,239.316,37.156,240.125,37.156,241.124z"/>
		</g>
	</g>
</g>
</svg>
