<?xml version="1.0" encoding="utf-8"?>
<!-- Generator: Adobe Illustrator 13.0.0, SVG Export Plug-In . SVG Version: 6.00 Build 14948)  -->
<!DOCTYPE svg PUBLIC "-//W3C//DTD SVG 1.1//EN" "http://www.w3.org/Graphics/SVG/1.1/DTD/svg11.dtd">
<svg version="1.1" id="Layer_1" xmlns="http://www.w3.org/2000/svg" xmlns:xlink="http://www.w3.org/1999/xlink" x="0px" y="0px"
	 width="63px" height="56.333px" viewBox="0 0 63 56.333" enable-background="new 0 0 63 56.333" xml:space="preserve">
<polygon fill="#474747" points="20.753,1.721 6.76,6.628 12.839,13.673 "/>
<g>
	<path fill="#474747" d="M25.146,39H11.765V37.65l7.321-8.305c1.213-1.398,2.055-2.553,2.523-3.462
		c0.47-0.91,0.705-1.795,0.705-2.656c0-1.35-0.396-2.418-1.188-3.206c-0.793-0.788-1.884-1.181-3.272-1.181
		c-1.438,0-2.6,0.46-3.484,1.379c-0.886,0.919-1.328,2.113-1.328,3.58h-1.745c0-1.203,0.271-2.298,0.813-3.287
		c0.543-0.988,1.315-1.763,2.318-2.325c1.003-0.562,2.145-0.844,3.426-0.844c1.956,0,3.485,0.514,4.585,1.541
		c1.101,1.027,1.651,2.426,1.651,4.196c0,0.998-0.312,2.088-0.932,3.271c-0.622,1.184-1.715,2.661-3.279,4.431l-5.957,6.734h11.224
		V39z"/>
	<path fill="#474747" d="M39.201,32.118h3.33V33.6h-3.33V39h-1.762v-5.4H27.39v-0.998l9.889-14.965h1.922V32.118z M29.547,32.118
		h7.895V19.911l-0.777,1.35L29.547,32.118z"/>
</g>
<g>
	<g>
		<path fill="#474747" d="M50.318,22.37h1.705c-0.196-0.947-0.444-1.873-0.742-2.778h-1.766
			C49.838,20.495,50.107,21.421,50.318,22.37z M10.132,10.691c1.313-1.313,2.781-2.471,4.369-3.451V5.309
			C9.708,8.01,5.88,12.213,3.642,17.277h1.826C6.644,14.821,8.227,12.597,10.132,10.691z M50.436,17.37
			c-0.937-2.142-2.143-4.138-3.601-5.926h-2.201c1.606,1.752,2.937,3.754,3.968,5.926H50.436z M52.384,24.592h-1.68
			c0.123,0.982,0.209,1.976,0.209,2.992c-0.001,6.598-2.673,12.565-6.997,16.89c-4.325,4.323-10.293,6.998-16.893,6.998
			c-1.044,0-2.069-0.074-3.078-0.204v1.68c1.01,0.122,2.035,0.191,3.078,0.191c14.114-0.002,25.556-11.442,25.556-25.555
			C52.579,26.57,52.499,25.576,52.384,24.592z M19.223,51.92c0.816,0.262,1.65,0.484,2.5,0.664v-1.711
			c-0.852-0.192-1.686-0.431-2.5-0.711V51.92z M4.643,19.222H2.875c-0.221,0.636-0.41,1.287-0.58,1.945h1.719
			C4.197,20.507,4.405,19.857,4.643,19.222z M3.136,27.584c0-1.53,0.149-3.024,0.424-4.473H1.874
			c-0.257,1.454-0.405,2.945-0.405,4.473C1.47,38.139,7.87,47.198,17.001,51.096v-1.829c-2.567-1.188-4.892-2.815-6.869-4.793
			C5.808,40.149,3.136,34.182,3.136,27.584z"/>
	</g>
</g>
<g>
	<circle fill="#FFFFFF" cx="50.75" cy="40.75" r="9.583"/>
	<path fill="#474747" d="M40.334,40.749c0-5.754,4.663-10.416,10.416-10.416l0,0c5.753,0,10.416,4.662,10.416,10.416l0,0
		c0,5.752-4.663,10.416-10.416,10.416l0,0C44.997,51.165,40.334,46.5,40.334,40.749L40.334,40.749z M42,40.749
		c0.009,4.832,3.918,8.741,8.75,8.75l0,0c4.831-0.009,8.74-3.918,8.749-8.75l0,0c-0.009-4.832-3.918-8.74-8.749-8.75l0,0
		C45.918,32.008,42.009,35.917,42,40.749L42,40.749z"/>
</g>
<circle fill="#D8D8D8" cx="50.918" cy="40.751" r="7.916"/>
<g>
	<path fill="#474747" d="M54.57,36.73l-4.264,9.679h-1.869l4.258-9.24h-5.518V35.74h7.393V36.73z"/>
</g>
</svg>
