<?xml version="1.0" encoding="utf-8"?>
<!-- Generator: Adobe Illustrator 13.0.0, SVG Export Plug-In . SVG Version: 6.00 Build 14948)  -->
<!DOCTYPE svg PUBLIC "-//W3C//DTD SVG 1.1//EN" "http://www.w3.org/Graphics/SVG/1.1/DTD/svg11.dtd">
<svg version="1.1" id="Layer_1" xmlns="http://www.w3.org/2000/svg" xmlns:xlink="http://www.w3.org/1999/xlink" x="0px" y="0px"
	 width="342.082px" height="357.5px" viewBox="0 -83.145 342.082 357.5" enable-background="new 0 -83.145 342.082 357.5"
	 xml:space="preserve">
<g>
	<polyline fill="#D8D8D8" points="21.361,50.605 96.459,43.338 164.289,101.478 231.309,87.751 274.913,120.05 331.035,77.656 
		272.491,92.596 232.118,84.521 157.828,88.558 	"/>
	<g>
		<circle fill="none" stroke="#454545" stroke-width="4" cx="20.963" cy="12.023" r="9.523"/>
		<line fill="none" stroke="#454545" stroke-width="4" stroke-linecap="round" x1="20.962" y1="22.634" x2="20.962" y2="41.272"/>
	</g>
	<g>
		<circle fill="none" stroke="#454545" stroke-width="4" cx="149.048" cy="29.354" r="9.523"/>
		<line fill="none" stroke="#454545" stroke-width="4" stroke-linecap="round" x1="149.048" y1="39.964" x2="149.048" y2="58.603"/>
	</g>
	<g>
		<circle fill="none" stroke="#454545" stroke-width="4" cx="330.56" cy="37.516" r="9.522"/>
		<line fill="none" stroke="#454545" stroke-width="4" stroke-linecap="round" x1="330.561" y1="48.127" x2="330.561" y2="66.765"/>
	</g>
	<g>
		<circle fill="none" stroke="#454545" stroke-width="4" cx="232.454" cy="73.852" r="9.522"/>
		
			<line fill="none" stroke="#454545" stroke-width="4" stroke-linecap="round" x1="232.454" y1="84.463" x2="232.454" y2="103.101"/>
	</g>
	<polyline fill="none" stroke="#454545" stroke-width="4" stroke-linecap="round" points="331.729,78.935 231.815,117.761 
		146.24,68.796 18.598,50.978 	"/>
	<line fill="none" stroke="#454545" stroke-width="4" stroke-linecap="round" x1="28.225" y1="60.499" x2="83.336" y2="68.372"/>
	<line fill="none" stroke="#454545" stroke-width="4" stroke-linecap="round" x1="266.837" y1="113.185" x2="318.318" y2="91.995"/>
	<line fill="none" stroke="#454545" stroke-width="4" stroke-linecap="round" x1="145.181" y1="78.19" x2="175.864" y2="95.651"/>
	<g>
		<g>
			<g>
				<polygon fill="#D8D8D8" points="150.428,208.06 150.428,219.562 140.388,219.562 140.388,208.06 88.616,208.06 96.149,222.476 
					198.279,222.476 202.045,208.06 				"/>
			</g>
		</g>
		<polygon fill="#4B4B4B" points="93.784,152.412 78.008,134.287 78.009,134.287 80.967,131.709 95.57,148.487 221.391,148.487 
			221.391,152.412 		"/>
		<path fill="#4B4B4B" d="M139.262,149.782v-24.567c0-1.083,0.88-1.963,1.963-1.963l0,0c1.083,0,1.961,0.88,1.961,1.963l0,0v24.567
			c0,1.085-0.879,1.962-1.961,1.962l0,0C140.142,151.744,139.262,150.867,139.262,149.782L139.262,149.782z"/>
		<path fill="#4B4B4B" d="M139.262,190.313V160.53c0-1.086,0.88-1.961,1.963-1.961l0,0c1.083,0,1.961,0.875,1.961,1.961l0,0v29.783
			c0,1.082-0.879,1.963-1.961,1.963l0,0C140.142,192.276,139.262,191.396,139.262,190.313L139.262,190.313z"/>
		<path fill="#4B4B4B" d="M139.262,217.78v-18.01c0-1.084,0.88-1.963,1.963-1.963l0,0c1.083,0,1.961,0.879,1.961,1.963l0,0v18.01
			c0,1.084-0.879,1.965-1.961,1.965l0,0C140.142,219.744,139.262,218.864,139.262,217.78L139.262,217.78z"/>
		<path fill="#4B4B4B" d="M57.633,157.942v-19.621c0-1.084,0.877-1.963,1.965-1.963l0,0c1.082,0,1.963,0.879,1.963,1.963l0,0v19.621
			c0,1.082-0.881,1.959-1.963,1.959l0,0C58.51,159.901,57.633,159.024,57.633,157.942L57.633,157.942z"/>
		<path fill="#4B4B4B" d="M85.099,176.58c-1.083,0-1.961-0.879-1.961-1.963l0,0c0-1.085,0.878-1.962,1.961-1.962l0,0h19.621
			c1.084,0,1.961,0.877,1.961,1.962l0,0c0,1.084-0.877,1.963-1.961,1.963l0,0H85.099L85.099,176.58z"/>
		<path fill="#4B4B4B" d="M76.909,112.562l-7.753-4.488c-0.938-0.543-1.258-1.742-0.715-2.682l0,0
			c0.543-0.938,1.745-1.26,2.682-0.716l0,0l7.755,4.489c0.938,0.544,1.262,1.742,0.714,2.684l0,0
			c-0.36,0.627-1.021,0.979-1.694,0.979l0,0C77.559,112.827,77.221,112.741,76.909,112.562L76.909,112.562z"/>
		<path fill="#4B4B4B" d="M13.488,207.972c-1.084,0-1.96-0.88-1.96-1.964l0,0c0-1.084,0.876-1.963,1.96-1.963l0,0h19.621
			c1.083,0,1.963,0.879,1.963,1.963l0,0c0,1.084-0.879,1.964-1.963,1.964l0,0H13.488L13.488,207.972z"/>
		<path fill="#4B4B4B" d="M151.807,176.582c-1.086,0-1.963-0.881-1.963-1.963l0,0c0-1.084,0.877-1.964,1.963-1.964l0,0h19.615
			c1.083,0,1.967,0.88,1.967,1.964l0,0c0,1.082-0.884,1.963-1.967,1.963l0,0H151.807L151.807,176.582z"/>
		<path fill="#4B4B4B" d="M178.906,176.582c-1.084,0-1.962-0.881-1.962-1.965l0,0c0-1.082,0.878-1.962,1.962-1.962l0,0h9.564
			c1.084,0,1.964,0.88,1.964,1.962l0,0c0,1.084-0.88,1.965-1.964,1.965l0,0H178.906L178.906,176.582z"/>
		<path fill="#4B4B4B" d="M279.335,206.989c-1.086,0-1.96-0.879-1.96-1.961l0,0c0-1.084,0.874-1.963,1.96-1.963l0,0h9.563
			c1.084,0,1.963,0.879,1.963,1.963l0,0c0,1.082-0.879,1.961-1.963,1.961l0,0H279.335L279.335,206.989z"/>
		<path fill="#4B4B4B" d="M277.372,219.744v-9.563c0-1.084,0.877-1.964,1.961-1.964l0,0c1.086,0,1.964,0.88,1.964,1.964l0,0v9.563
			c0,1.082-0.878,1.963-1.964,1.963l0,0C278.249,221.707,277.372,220.826,277.372,219.744L277.372,219.744z"/>
		<path fill="#D8D8D8" d="M21.91,187.794c0,2.928-1.406,5.299-3.14,5.299h-0.266c-1.729,0-3.138-2.371-3.138-5.299v-12.945
			c0-2.928,1.406-5.301,3.138-5.301h0.266c1.729,0,3.14,2.373,3.14,5.301V187.794z"/>
		<path fill="#D8D8D8" d="M85.929,223.392c0,10.922-8.854,19.776-19.773,19.776c-10.917,0-19.771-8.854-19.771-19.776
			c0-10.918,8.854-19.771,19.771-19.771C77.077,203.621,85.929,212.474,85.929,223.392z"/>
		<path fill="#D8D8D8" d="M245.83,223.392c0,10.922-8.853,19.776-19.771,19.776s-19.771-8.854-19.771-19.776
			c0-10.918,8.854-19.771,19.771-19.771C236.978,203.621,245.83,212.474,245.83,223.392z"/>
		<g>
			<g>
				<path fill="#D8D8D8" d="M93.402,159.503c0,1.957,1.587,3.547,3.546,3.547h39.707v-7.094H96.948
					C94.99,155.957,93.402,157.546,93.402,159.503z M212.521,155.957h-66.891v7.094h66.891c1.956,0,3.544-1.59,3.544-3.547
					S214.478,155.957,212.521,155.957z"/>
			</g>
		</g>
		<path fill="#D8D8D8" d="M159.775,117.853v27.891h46.086C205.861,145.742,195.699,127.306,159.775,117.853z"/>
		<g>
			<g>
				<path fill="#4B4B4B" d="M225.271,193.746c-16.081,0-29.115,13.03-29.115,29.112c0,1.955,0.196,3.865,0.563,5.713h4.023
					c-0.429-1.836-0.663-3.745-0.667-5.713c0.024-13.912,11.277-25.166,25.191-25.188c13.913,0.022,25.165,11.276,25.188,25.188
					c-0.021,13.91-11.273,25.164-25.188,25.188c-10.244-0.02-19.04-6.128-22.979-14.896h-4.259
					c4.158,10.998,14.781,18.822,27.238,18.824c16.082-0.002,29.109-13.037,29.11-29.115
					C254.385,206.776,241.352,193.746,225.271,193.746z"/>
			</g>
		</g>
		<g>
			<g>
				<path fill="#4B4B4B" d="M301.896,178.541c0-1.08-0.877-1.961-1.962-1.961h-12.102v3.924h12.102
					C301.02,180.503,301.896,179.626,301.896,178.541z M277.567,186.192v-0.588c0.007-2.814,2.286-5.098,5.104-5.104h1.568v-3.924
					h-1.568c-4.982,0-9.021,4.039-9.022,9.023v0.588c0.004,4.982,4.04,9.021,9.022,9.023h10.729v-3.924h-10.729
					C279.854,191.289,277.574,189.009,277.567,186.192z M299.935,191.294h-3.599v3.924h3.599c1.085,0,1.962-0.879,1.962-1.961
					C301.896,192.173,301.02,191.294,299.935,191.294z"/>
			</g>
		</g>
		<g>
			<g>
				<path fill="#4B4B4B" d="M9.008,213.328c-1.063-1.521-1.823-2.894-2.313-3.871c-0.245-0.492-0.421-0.884-0.534-1.144
					c-0.01-0.022-0.019-0.043-0.027-0.063v-23.088H2.208l-0.002,23.823l0.125,0.334c0.102,0.188,4.067,10.978,15.179,16.582
					l0.416,0.209h9.055v-3.924h-8.115C14.29,219.798,11.08,216.291,9.008,213.328z M6.131,178.543H2.209v2.942h3.923L6.131,178.543
					L6.131,178.543z M6.131,169.843c-0.008-4.158,1.229-9.205,2.492-13.137c0.63-1.973,1.268-3.672,1.736-4.871
					c0.104-0.266,0.199-0.502,0.287-0.717h7.994v-3.926H8.064l-0.521,1.166c-0.021,0.125-5.296,11.76-5.337,21.481v5.511H6.13
					L6.131,169.843L6.131,169.843z M32.618,226.112h7.357v-3.924h-7.357V226.112z M114.857,110.989h-3.271v3.929h3.271V110.989z
					 M303.327,176.614c-0.515-2.934-2.141-5.416-4.395-7.389c-7.915-6.813-23.491-9.211-39.069-11.578
					c-7.773-1.146-15.515-2.211-22.134-3.58c-6.612-1.353-12.118-3.078-15.229-5.234c-14.312-9.713-23.414-28.671-62.725-37.79
					l-0.222-0.054h-41.43v3.929h40.979c38.075,9,45.617,26.394,61.179,37.149c4.579,3.104,11.54,4.897,19.629,6.428
					c12.112,2.254,26.729,3.713,38.51,6.396c5.889,1.334,11.054,2.984,14.741,5.072c3.721,2.115,5.803,4.488,6.304,7.34
					c0.556,3.137,0.803,6.121,0.803,8.951c0,11.652-4.19,20.732-8.402,26.947c-2.104,3.104-4.212,5.477-5.779,7.063
					c-0.783,0.793-1.436,1.389-1.881,1.779c-0.061,0.055-0.116,0.102-0.167,0.146h-31.515v3.924h32.896l0.53-0.418
					c0.173-0.151,18.191-14.155,18.239-39.44C304.189,183.194,303.927,179.978,303.327,176.614z M137.093,226.112h61.805v-3.924
					h-61.805V226.112L137.093,226.112z M93.604,226.112h37.272v-3.924H93.604V226.112z M94.587,114.912l0.055,0.005h12.694v-3.928
					H94.678l0,0c-0.076,0-0.199-0.004-0.362-0.004c-3.823-0.039-31.821,1.346-56.262,36.207H23.298v3.926H40.11l0.587-0.85
					c23.801-34.467,50.556-35.322,53.619-35.359C94.521,114.91,94.587,114.915,94.587,114.912z"/>
			</g>
		</g>
		<g>
			<g>
				<path fill="#4B4B4B" d="M24.278,181.485v8.633c-0.004,2.814-2.284,5.096-5.101,5.104H18.59
					c-2.814-0.008-5.098-2.285-5.104-5.104l0.002-17.266c0.004-2.814,2.284-5.099,5.102-5.104h0.59
					c2.813,0.006,5.097,2.287,5.101,5.104v3.729h3.924v-3.729c0-4.984-4.04-9.023-9.021-9.023h-0.589
					c-4.984,0-9.023,4.039-9.023,9.023L9.57,190.118c0.001,4.984,4.04,9.021,9.024,9.025h0.589c4.98-0.004,9.021-4.041,9.021-9.025
					v-8.633H24.278z"/>
			</g>
		</g>
		<g>
			<g>
				<path fill="#4B4B4B" d="M66.234,248.048c-13.915-0.023-25.168-11.277-25.192-25.188c0.021-10.33,6.229-19.188,15.119-23.078
					v-4.244c-11.117,4.098-19.042,14.781-19.044,27.322c0.003,16.078,13.034,29.113,29.117,29.115
					c12.005-0.002,22.308-7.271,26.761-17.642h-4.354C84.464,242.466,76.009,248.03,66.234,248.048z M66.234,193.746
					c-1.422,0-2.819,0.106-4.188,0.304v3.979c1.362-0.229,2.763-0.354,4.188-0.355c13.913,0.021,25.164,11.275,25.188,25.188
					c-0.004,2.127-0.271,4.189-0.771,6.164h4.037c0.429-1.985,0.66-4.049,0.66-6.164C95.349,206.776,82.313,193.746,66.234,193.746z
					"/>
			</g>
		</g>
	</g>
</g>
</svg>
