<?xml version="1.0" encoding="utf-8"?>
<!-- Generator: Adobe Illustrator 13.0.0, SVG Export Plug-In . SVG Version: 6.00 Build 14948)  -->
<!DOCTYPE svg PUBLIC "-//W3C//DTD SVG 1.1//EN" "http://www.w3.org/Graphics/SVG/1.1/DTD/svg11.dtd">
<svg version="1.1" id="Layer_1" xmlns="http://www.w3.org/2000/svg" xmlns:xlink="http://www.w3.org/1999/xlink" x="0px" y="0px"
	 width="148.422px" height="208.15px" viewBox="0 0 148.422 208.15" enable-background="new 0 0 148.422 208.15"
	 xml:space="preserve">
<g>
	<g>
		<path fill="#7E9CCA" d="M68.821,154.73c15.811,0,30.33-5.504,41.772-14.686c-1.556-21.722-19.655-38.86-41.772-38.86
			s-40.218,17.141-41.773,38.859C38.491,149.227,53.01,154.73,68.821,154.73z"/>
	</g>
	<g>
		<path fill="#1C4FA2" d="M68.82,156.729v-2v-2.001c14.962,0,28.714-5.074,39.688-13.586l0,0
			c-1.976-20.184-18.984-35.962-39.688-35.958l0,0c-20.703-0.004-37.713,15.776-39.688,35.957l0,0
			c10.973,8.516,24.725,13.588,39.688,13.588l0,0v2.001V156.729c-16.279,0.002-31.244-5.671-43.023-15.126l0,0l-0.819-0.656
			l0.074-1.047c1.63-22.761,20.595-40.714,43.768-40.716l0,0c23.174,0.002,42.135,17.953,43.767,40.718l0,0l0.075,1.045
			l-0.819,0.658c-11.776,9.452-26.737,15.125-43.014,15.124l0,0C68.827,156.729,68.822,156.729,68.82,156.729L68.82,156.729z"/>
	</g>
</g>
<path fill="#1C4FA2" d="M70.059,12.131c-1.104,0-2-0.895-2-1.999l0,0c0-1.105,0.896-2.001,2-2.001l0,0H119.2
	c1.104,0,2.001,0.896,2.001,2.001l0,0c0,1.104-0.896,1.999-2.001,1.999l0,0H70.059L70.059,12.131z"/>
<path fill="#1C4FA2" d="M47.433,3.999c-1.106,0-2-0.896-2-2l0,0c0-1.104,0.895-2,2-2l0,0h24.745c1.106,0,2,0.896,2,2l0,0
	c0,1.104-0.894,2-2,2l0,0H47.433L47.433,3.999z"/>
<path fill="#1C4FA2" d="M23.745,12.485c-1.105,0-2-0.896-2-2l0,0c0-1.105,0.895-2,2-2l0,0h29.343c1.104,0,2,0.894,2,2l0,0
	c0,1.104-0.896,2-2,2l0,0H23.745L23.745,12.485z"/>
<path fill="#1C4FA2" d="M105.766,153.546c-1.104,0-2-0.895-2-2.001l0,0c0-1.104,0.896-1.999,2-1.999l0,0h29.344
	c1.104,0,2,0.896,2,1.999l0,0c0,1.106-0.896,2.001-2,2.001l0,0H105.766L105.766,153.546z"/>
<path fill="#1C4FA2" d="M124.854,160.97c-1.104,0-2-0.896-2-1.999l0,0c0-1.106,0.896-2,2-2l0,0h21.567c1.104,0,2,0.894,2,2l0,0
	c0,1.104-0.896,1.999-2,1.999l0,0H124.854L124.854,160.97z"/>
<path fill="#1C4FA2" d="M35.764,166.627c-1.104,0-1.999-0.896-1.999-2.001l0,0c0-1.104,0.895-1.999,1.999-1.999l0,0H57.33
	c1.104,0,1.999,0.895,1.999,1.999l0,0c0,1.104-0.895,2.001-1.999,2.001l0,0H35.764L35.764,166.627z"/>
<path fill="#1C4FA2" d="M64.93,166.627c-1.104,0-1.999-0.896-1.999-2.001l0,0c0-1.104,0.895-1.999,1.999-1.999l0,0h9.724
	c1.104,0,1.999,0.895,1.999,1.999l0,0c0,1.104-0.895,2.001-1.999,2.001l0,0H64.93L64.93,166.627z"/>
<path fill="#1C4FA2" d="M100.991,20.262c-1.104,0-1.999-0.895-1.999-1.999l0,0c0-1.105,0.895-2,1.999-2l0,0h9.723
	c1.104,0,2.001,0.895,2.001,2l0,0c0,1.104-0.896,1.999-2.001,1.999l0,0H100.991L100.991,20.262z"/>
<path fill="#1C4FA2" d="M15.789,159.557c-1.104,0-2-0.896-2-2.001l0,0c0-1.105,0.896-2,2-2l0,0h28.46c1.103,0,2,0.895,2,2l0,0
	c0,1.104-0.896,2.001-2,2.001l0,0H15.789L15.789,159.557z"/>
<g>
	<g>
		<path fill="#1C4FA2" d="M68.82,33.939c-15.749,0-28.514,12.765-28.516,28.516C40.306,77.72,52.3,90.181,67.378,90.934v-4.014
			c-12.866-0.765-23.049-11.41-23.073-24.466c0.025-13.54,10.976-24.492,24.515-24.516c13.54,0.023,24.493,10.976,24.516,24.517
			c-0.021,11.98-8.604,21.93-19.958,24.078v4.07C86.96,88.42,97.336,76.652,97.336,62.456C97.336,46.704,84.568,33.939,68.82,33.939
			z"/>
	</g>
</g>
<g>
	<g>
		<path fill="#1C4FA2" d="M127.747,114.912h4.39c0.742-1.74,1.403-3.522,2.004-5.334h-4.223
			C129.273,111.395,128.545,113.173,127.747,114.912z M68.821,19.088c-34.265,0-62.668,25.042-67.936,57.821h4.063
			C7.254,63.417,13.71,51.35,22.984,42.073c11.739-11.734,27.931-18.985,45.837-18.985s34.098,7.251,45.833,18.985
			c11.734,11.736,18.986,27.929,18.986,45.835c0,6.009-0.834,11.817-2.363,17.337h4.158c1.438-5.539,2.207-11.348,2.207-17.337
			C137.641,49.898,106.828,19.088,68.821,19.088z M4.261,82.242H0.25c-0.135,1.651-0.218,3.317-0.234,5h4
			C4.033,85.558,4.118,83.892,4.261,82.242z M114.654,133.744c-11.735,11.732-27.928,18.983-45.833,18.985
			c-17.906-0.002-34.098-7.253-45.837-18.985C12.281,123.038,5.328,108.616,4.185,92.575H0.174
			c2.404,35.831,32.208,64.153,68.647,64.155c26.717-0.001,49.863-15.237,61.266-37.485h-4.521
			C122.611,124.581,118.938,129.462,114.654,133.744z"/>
	</g>
</g>
</svg>
