<?xml version="1.0" encoding="utf-8"?>
<!-- Generator: Adobe Illustrator 13.0.0, SVG Export Plug-In . SVG Version: 6.00 Build 14948)  -->
<!DOCTYPE svg PUBLIC "-//W3C//DTD SVG 1.1//EN" "http://www.w3.org/Graphics/SVG/1.1/DTD/svg11.dtd">
<svg version="1.1" id="Layer_1" xmlns="http://www.w3.org/2000/svg" xmlns:xlink="http://www.w3.org/1999/xlink" x="0px" y="0px"
	 width="68px" height="68.667px" viewBox="0 0 68 68.667" enable-background="new 0 0 68 68.667" xml:space="preserve">
<circle fill="#D8D8D8" cx="34.917" cy="34.5" r="27.75"/>
<g>
	<path fill="none" stroke="#474747" stroke-width="2" stroke-linecap="round" stroke-miterlimit="10" d="M39.063,54.208
		L24.067,40.501v-1.146h6.888c0,0,11.479,0.86,11.479-9.184c0-9.041-11.479-9.183-11.479-9.183h-8.036"/>
	<path fill="none" stroke="#474747" stroke-width="2" stroke-linecap="round" stroke-miterlimit="10" d="M27.263,21.078h19.068"/>
	<path fill="none" stroke="#474747" stroke-width="2" stroke-linecap="round" stroke-miterlimit="10" d="M22.285,29.712
		l24.786,0.092"/>
</g>
<g>
	<g>
		<path fill="#474747" d="M34.678,65.673C17.767,65.642,4.089,51.965,4.059,35.054c0.031-16.907,13.708-30.588,30.62-30.62
			C49.158,4.461,61.26,14.5,64.461,28h2.061C63.297,13.379,50.27,2.436,34.678,2.434c-18.017,0.002-32.62,14.607-32.62,32.62
			c0,18.017,14.603,32.618,32.62,32.62C50.041,67.672,62.915,57.05,66.375,42.75h-2.066C60.883,55.928,48.928,65.647,34.678,65.673z
			 M65.295,35h1.999c-0.002-1.012-0.055-2.012-0.146-3H65.14C65.239,32.987,65.292,33.987,65.295,35z M64.84,40.25h2.041
			c0.145-0.904,0.247-1.822,0.315-2.75h-2.011C65.111,38.429,64.996,39.346,64.84,40.25z"/>
	</g>
</g>
<g>
	<g>
		<path fill="#474747" d="M8.128,16.568l3.996,3.484l1.301-1.517l-3.984-3.474L8.128,16.568z M14.574,22.188l28.393,24.756
			l1.302-1.518L15.875,20.671L14.574,22.188z M46.718,47.563l-1.303,1.518l11.093,9.672l1.314-1.508L46.718,47.563z"/>
	</g>
</g>
</svg>
