<?xml version="1.0" encoding="utf-8"?>
<!-- Generator: Adobe Illustrator 13.0.0, SVG Export Plug-In . SVG Version: 6.00 Build 14948)  -->
<!DOCTYPE svg PUBLIC "-//W3C//DTD SVG 1.1//EN" "http://www.w3.org/Graphics/SVG/1.1/DTD/svg11.dtd">
<svg version="1.1" id="Layer_1" xmlns="http://www.w3.org/2000/svg" xmlns:xlink="http://www.w3.org/1999/xlink" x="0px" y="0px"
	 width="306.768px" height="275.813px" viewBox="62.841 -40.641 306.768 275.813"
	 enable-background="new 62.841 -40.641 306.768 275.813" xml:space="preserve">
<g>
	<path fill="#D8D8D8" d="M151.113,127.246h-15.73v-15.338c0-8.772,7.113-15.886,15.887-15.886l0,0L151.113,127.246z"/>
	<path fill="#D8D8D8" d="M200.538,127.246h-15.732v-15.338c0-8.772,7.111-15.886,15.885-15.886l0,0L200.538,127.246z"/>
	<path fill="#D8D8D8" d="M200.538,186.409h-15.732v-15.341c0-8.771,7.111-15.885,15.885-15.885l0,0L200.538,186.409z"/>
	<path fill="#D8D8D8" d="M151.113,186.044h-15.73v-15.339c0-8.771,7.113-15.887,15.887-15.887l0,0L151.113,186.044z"/>
	<path fill="#454545" d="M133.919,188.113v-16.799c0.001-9.582,7.767-17.346,17.348-17.349l0,0
		c9.581,0.003,17.345,7.767,17.347,17.349l0,0v15.338v1.461H133.919L133.919,188.113z M167.153,186.652v-1.465V186.652
		L167.153,186.652z M136.841,171.314v13.873h28.85v-13.873c-0.016-7.969-6.459-14.414-14.424-14.426l0,0
		C143.299,156.9,136.856,163.348,136.841,171.314L136.841,171.314z"/>
	<rect x="26.011" y="201.484" fill="#D8D8D8" width="199.64" height="62.392"/>
	<path fill="#454545" d="M129.726,203.189c-0.81,0-1.462-0.65-1.462-1.459l0,0c0-0.808,0.652-1.459,1.462-1.459l0,0h59.647
		c0.807,0,1.46,0.651,1.46,1.459l0,0c0,0.809-0.653,1.459-1.46,1.459l0,0H129.726L129.726,203.189z"/>
	<path fill="#454545" d="M195.459,203.191c-0.808,0-1.459-0.652-1.459-1.459l0,0c0-0.812,0.651-1.463,1.459-1.463l0,0h26.054
		c0.806,0,1.461,0.651,1.461,1.463l0,0c0,0.807-0.655,1.459-1.461,1.459l0,0H195.459L195.459,203.191z"/>
	<g>
		<g>
			<path fill="#454545" d="M199.958,94.561c-9.579,0.002-17.345,7.767-17.347,17.346v16.8h20.603v-2.922h-17.68v-13.876
				c0.015-7.965,6.459-14.41,14.424-14.423c7.965,0.013,14.41,6.458,14.425,14.423v13.876h-5.813v2.922h8.735v-16.8
				C217.306,102.327,209.54,94.563,199.958,94.561z"/>
		</g>
	</g>
	<g>
		<g>
			<path fill="#454545" d="M155.374,128.707h1.583v-2.922h-1.583V128.707z M151.266,94.563c-9.581,0-17.347,7.765-17.348,17.345
				v16.8h19.021v-2.922H136.84v-13.878c0.016-7.966,6.458-14.409,14.426-14.424c7.965,0.015,14.408,6.458,14.424,14.424v13.878h-6.3
				v2.922h9.223v-16.8C168.611,102.327,160.847,94.563,151.266,94.563z"/>
		</g>
	</g>
	<g>
		<g>
			<path fill="#454545" d="M205.284,188.111h1.642v-2.924h-1.642V188.111z M199.958,153.969
				c-9.579,0.002-17.345,7.766-17.347,17.348v16.797h19.201v-2.924h-16.278v-13.873c0.015-7.967,6.459-14.412,14.424-14.426
				c7.965,0.014,14.41,6.459,14.425,14.426v13.873h-3.986v2.924h6.91v-16.797C217.306,161.732,209.54,153.969,199.958,153.969z"/>
		</g>
	</g>
	<g>
		<g>
			<path fill="#454545" d="M123.877,78.675v10.834h2.921v-7.91h98.965v32.988h2.921V78.675H123.877z M225.763,123.595h2.921V119.7
				h-2.921V123.595z M126.799,92.432h-2.921v3.104h2.921V92.432z M225.764,263.82h-98.966V98.457h-2.921v168.288h104.808V128.708
				h-2.921V263.82L225.764,263.82z"/>
		</g>
	</g>
	<rect x="228.542" y="201.484" fill="#D8D8D8" width="98.323" height="61.844"/>
	<path fill="#454545" d="M225.918,266.813v-67.926h103.716v66.465v1.461H225.918L225.918,266.813z M328.173,265.354v-1.461V265.354
		L328.173,265.354z M228.839,263.893h97.874l-0.002-62.086h-97.872V263.893L228.839,263.893z"/>
	<path fill="#454545" d="M22.866,266.813v-67.926h103.715v66.465v1.461H22.866L22.866,266.813z M125.122,265.352v-1.459V265.352
		L125.122,265.352z M25.79,263.893h97.872v-62.084H25.79V263.893L25.79,263.893z"/>
	<g>
		<path fill="#FFFFFF" d="M68.113,243.928v-15.34c0-8.771-7.109-15.884-15.884-15.884l0,0c-8.771,0-15.887,7.11-15.887,15.884v15.34
			H68.113z"/>
		<path fill="#454545" d="M34.882,245.389v-16.801c0.002-9.578,7.767-17.344,17.348-17.347l0,0
			c9.581,0.003,17.345,7.769,17.345,17.347l0,0v15.34v1.461H34.882L34.882,245.389z M68.113,243.928v-1.466V243.928L68.113,243.928z
			 M37.804,228.589v13.874h28.848v-13.874c-0.016-7.966-6.459-14.409-14.423-14.424l0,0
			C44.261,214.18,37.819,220.623,37.804,228.589L37.804,228.589z"/>
	</g>
	<g>
		<path fill="#FFFFFF" d="M111.451,243.928v-15.34c0-8.771-7.113-15.884-15.888-15.884l0,0c-8.771,0-15.885,7.11-15.885,15.884
			v15.34H111.451z"/>
		<path fill="#454545" d="M78.218,245.389v-16.8c0.003-9.581,7.766-17.347,17.348-17.347l0,0c9.579,0,17.347,7.766,17.349,17.347
			l0,0v15.341v1.459H78.218L78.218,245.389z M111.45,243.93v-1.466V243.93L111.45,243.93z M81.14,228.59v13.875h28.852V228.59
			c-0.016-7.967-6.458-14.41-14.426-14.426l0,0C87.599,214.178,81.155,220.623,81.14,228.59L81.14,228.59z"/>
	</g>
	<g>
		<path fill="#FFFFFF" d="M170.125,243.928v-15.34c0-8.771-7.111-15.884-15.885-15.884l0,0c-8.773,0-15.888,7.11-15.888,15.884
			v15.34H170.125z"/>
		<path fill="#454545" d="M136.893,245.389v-16.801c0-9.581,7.767-17.346,17.349-17.347l0,0c9.578,0.001,17.345,7.766,17.347,17.347
			l0,0v15.34v1.461H136.893L136.893,245.389z M170.125,243.928v-1.466V243.928L170.125,243.928z M139.816,228.589v13.874h28.85
			v-13.874c-0.017-7.966-6.459-14.409-14.424-14.425l0,0C146.273,214.178,139.83,220.623,139.816,228.589L139.816,228.589z"/>
	</g>
	<g>
		<path fill="#FFFFFF" d="M214.68,243.928v-15.34c0-8.771-7.112-15.884-15.886-15.884l0,0c-8.773,0-15.886,7.11-15.886,15.884v15.34
			H214.68z"/>
		<path fill="#454545" d="M181.447,245.389v-16.8c0-9.579,7.769-17.347,17.351-17.347l0,0c9.578,0,17.345,7.768,17.347,17.347l0,0
			v15.341v1.459H181.447L181.447,245.389z M214.681,243.93v-1.468V243.93L214.681,243.93z M184.37,228.59l-0.001,13.873h28.852
			V228.59c-0.017-7.967-6.459-14.41-14.425-14.426l0,0C190.827,214.178,184.385,220.623,184.37,228.59L184.37,228.59z"/>
	</g>
	<g>
		<path fill="#FFFFFF" d="M272.625,243.928v-15.34c0-8.771-7.109-15.884-15.884-15.884l0,0c-8.774,0-15.889,7.11-15.889,15.884
			v15.34H272.625z"/>
		<path fill="#454545" d="M239.39,245.389v-16.801c0.002-9.581,7.771-17.346,17.35-17.346l0,0c9.58,0,17.347,7.765,17.347,17.346
			l0,0v15.34v1.461H239.39L239.39,245.389z M272.624,243.928v-1.464V243.928L272.624,243.928z M242.315,228.589v13.876h28.852
			v-13.876c-0.019-7.966-6.46-14.409-14.425-14.425l0,0C248.772,214.18,242.33,220.623,242.315,228.589L242.315,228.589z"/>
	</g>
	<g>
		<path fill="#FFFFFF" d="M316.448,243.928v-15.34c0-8.771-7.108-15.884-15.886-15.884l0,0c-8.771,0-15.886,7.11-15.886,15.884
			v15.34H316.448z"/>
		<path fill="#454545" d="M283.217,245.389v-16.801c0.004-9.581,7.766-17.345,17.347-17.347l0,0
			c9.582,0.002,17.344,7.766,17.346,17.347l0,0v15.34v1.461H283.217L283.217,245.389z M316.449,243.928v-1.464V243.928
			L316.449,243.928z M286.139,228.589v13.876h28.848v-13.876c-0.014-7.966-6.459-14.409-14.424-14.425l0,0
			C292.597,214.18,286.152,220.623,286.139,228.589L286.139,228.589z"/>
	</g>
	<g>
		<path fill="#454545" d="M96.182,84.158c-0.749-0.906-0.925-1.971-0.927-2.886l0,0c0.021-2.137,0.926-4.021,0.951-4.114l0,0
			l0.031-0.081l8.59-14.21L52.772,80.221c-3.094,1.334-5.369,1.813-7.113,1.817l0,0c-2.9,0.052-4.25-1.519-4.545-2.088l0,0
			c-0.907-1.231-1.378-2.505-1.376-3.74l0,0c-0.002-1.486,0.683-2.75,1.532-3.687l0,0c0.859-0.947,1.914-1.652,2.932-2.212l0,0
			c0.69-0.377,1.372-0.687,1.971-0.93l0,0L24.396,42.08l-0.046-0.074c-0.941-1.526-1.353-2.917-1.351-4.146l0,0
			c-0.006-1.546,0.665-2.727,1.31-3.426l0,0c0.581-0.64,1.134-0.954,1.314-1.051l0,0l5.199-2.972l0.118-0.042
			c0.904-0.326,1.819-0.442,2.689-0.442l0,0c3.292,0.024,6.063,1.588,6.205,1.646l0,0l30.948,17.856L172.559-4.608l11.219-1.463
			C188.003-8.174,191.715-9,194.903-9l0,0c4.778-0.005,8.304,1.864,10.562,3.721l0,0c2.27,1.855,3.328,3.69,3.39,3.792l0,0
			l0.086,0.152l0.049,0.165c0.271,0.915,0.4,1.845,0.4,2.771l0,0c-0.06,5.327-4.021,10.123-9.497,14.604l0,0
			c-5.515,4.479-12.748,8.645-19.97,12.244l0,0c-13.157,6.557-26.261,11.206-28.499,11.986l0,0L114.12,78.952l-12.842,6.419
			l-0.218,0.036c-0.522,0.087-1.013,0.131-1.475,0.131l0,0c-0.025,0-0.05,0-0.075,0l0,0C98.141,85.539,96.92,85.058,96.182,84.158
			L96.182,84.158z M98.771,78.601c-0.064,0.171-0.154,0.418-0.248,0.711l0,0c-0.183,0.583-0.35,1.351-0.345,1.961l0,0
			c-0.004,0.536,0.125,0.877,0.244,1.011l0,0c0.119,0.122,0.305,0.316,1.166,0.334l0,0c0.222,0,0.483-0.019,0.789-0.061l0,0
			l11.986-5.994l37.198-38.411l0.246-0.252l0.333-0.113c0.004-0.003,1.988-0.679,5.242-1.908l0,0
			c3.258-1.229,7.77-3.003,12.777-5.187l0,0c10.014-4.354,22.036-10.364,29.885-16.755l0,0c5.271-4.25,8.476-8.652,8.416-12.336l0,0
			c0-0.594-0.074-1.179-0.229-1.767l0,0c-0.013-0.021-0.026-0.046-0.047-0.072l0,0c-0.104-0.157-0.271-0.391-0.492-0.675l0,0
			c-0.449-0.567-1.143-1.34-2.079-2.106l0,0c-1.888-1.535-4.705-3.055-8.712-3.061l0,0c-2.729,0.002-6.045,0.711-10.03,2.729l0,0
			l-0.225,0.112L173.463-1.78L70.725,52.769L38.41,34.123c-0.002,0.001-0.117-0.065-0.378-0.186l0,0
			c-0.26-0.121-0.644-0.285-1.102-0.449l0,0c-0.92-0.328-2.146-0.642-3.3-0.64l0,0c-0.565,0-1.104,0.07-1.59,0.23l0,0l-5.021,2.868
			l-0.041,0.021c-0.021,0.013-0.059,0.035-0.108,0.072l0,0c-0.104,0.071-0.252,0.192-0.396,0.353l0,0
			c-0.288,0.332-0.55,0.749-0.556,1.466l0,0c0,0.567,0.178,1.392,0.873,2.541l0,0l24.34,30.523l-2.156,0.577
			c0,0.001-0.21,0.055-0.602,0.186l0,0c-0.389,0.128-0.936,0.326-1.534,0.587l0,0c-1.201,0.514-2.61,1.322-3.4,2.211l0,0
			c-0.535,0.602-0.777,1.145-0.779,1.729l0,0c0.004,0.514,0.188,1.188,0.895,2.119l0,0l0.104,0.139l0.034,0.078
			c0.021,0.028,0.073,0.086,0.175,0.155l0,0c0.225,0.151,0.702,0.409,1.791,0.414l0,0c1.2,0.003,3.137-0.351,6.014-1.603l0,0
			l0.059-0.027l59.701-19.9L98.838,78.431C98.822,78.47,98.799,78.527,98.771,78.601L98.771,78.601z"/>
		<polygon fill="#D8D8D8" points="184.882,-3.194 173.317,2.406 72.522,61.568 70.819,52.682 173.56,-1.732 		"/>
		<path fill="#D8D8D8" d="M72.522,61.568L27.42,35.638l4.775-2.679c0,0,3.015-0.641,5.937,1.005l32.687,18.717L72.522,61.568z"/>
		<polygon fill="#D8D8D8" points="149.884,37.891 122.311,53.777 112.086,76.784 		"/>
		<polygon fill="#D8D8D8" points="36.794,40.021 31.194,42.698 36.549,45.621 45.071,42.456 		"/>
		<path fill="#D8D8D8" d="M204.664-1.915c0,0,0.729,16.067-54.78,39.807C149.884,37.891,217.262,13.241,204.664-1.915z"/>
	</g>
	<g>
		<line fill="none" x1="114.161" y1="73.448" x2="185.371" y2="73.448"/>
		<path fill="#454545" d="M114.16,74.909c-0.809,0-1.461-0.655-1.461-1.461l0,0c0-0.809,0.652-1.461,1.461-1.461l0,0h71.211
			c0.807,0,1.46,0.652,1.46,1.461l0,0c0,0.807-0.653,1.461-1.46,1.461l0,0H114.16L114.16,74.909z"/>
	</g>
	<g>
		<line fill="none" x1="191.945" y1="73.448" x2="237.957" y2="73.448"/>
		<path fill="#454545" d="M191.945,74.908c-0.81,0-1.46-0.652-1.46-1.461l0,0c0-0.807,0.649-1.46,1.46-1.46l0,0h46.015
			c0.806,0,1.461,0.653,1.461,1.46l0,0c0,0.809-0.655,1.461-1.461,1.461l0,0H191.945L191.945,74.908z"/>
	</g>
</g>
</svg>
