<?xml version="1.0" encoding="utf-8"?>
<!-- Generator: Adobe Illustrator 13.0.0, SVG Export Plug-In . SVG Version: 6.00 Build 14948)  -->
<!DOCTYPE svg PUBLIC "-//W3C//DTD SVG 1.1//EN" "http://www.w3.org/Graphics/SVG/1.1/DTD/svg11.dtd">
<svg version="1.1" id="Layer_1" xmlns="http://www.w3.org/2000/svg" xmlns:xlink="http://www.w3.org/1999/xlink" x="0px" y="0px"
	 width="353.216px" height="310.526px" viewBox="0 0 353.216 310.526" enable-background="new 0 0 353.216 310.526"
	 xml:space="preserve">
<rect x="48.281" y="193.829" fill="#D8D8D8" width="82.667" height="19.334"/>
<g>
	<g>
		<g>
			<g>
				<path fill="#D8D8D8" d="M158.615,86.829h-21.539V65.83c0-12.012,9.737-21.749,21.749-21.749l0,0L158.615,86.829z"/>
				<path fill="#D8D8D8" d="M226.282,86.829h-21.539V65.83c0-12.012,9.737-21.749,21.749-21.749l0,0L226.282,86.829z"/>
				<path fill="#D8D8D8" d="M226.282,167.829h-21.539v-21c0-12.012,9.737-21.749,21.749-21.749l0,0L226.282,167.829z"/>
				<path fill="#D8D8D8" d="M158.615,167.329h-21.539v-21c0-12.012,9.737-21.749,21.749-21.749l0,0L158.615,167.329z"/>
				<path fill="#454545" d="M135.074,170.163v-23c0.002-13.117,10.633-23.748,23.75-23.75l0,0
					c13.117,0.002,23.748,10.633,23.75,23.75l0,0v21v2H135.074L135.074,170.163z M180.574,168.163v-2.002V168.163L180.574,168.163z
					 M139.076,147.164l-0.002,18.998h39.498v-18.998c-0.02-10.908-8.843-19.731-19.748-19.75l0,0
					C147.916,127.432,139.095,136.255,139.076,147.164L139.076,147.164z"/>
				<rect x="125.334" y="188.472" fill="#D8D8D8" width="135.333" height="84.668"/>
				<path fill="#454545" d="M135.074,248.472v-22.996c0.002-13.119,10.633-23.75,23.75-23.75l0,0
					c13.117,0,23.748,10.631,23.75,23.75l0,0v20.997v1.999H135.074L135.074,248.472z M180.574,246.473v-2V246.473L180.574,246.473z
					 M139.076,225.476l-0.002,18.997h39.498v-18.997c-0.02-10.908-8.843-19.731-19.748-19.751l0,0
					C147.916,205.744,139.095,214.567,139.076,225.476L139.076,225.476z"/>
				<path fill="#454545" d="M201.742,248.472v-22.998c0.003-13.117,10.634-23.748,23.75-23.75l0,0
					c13.116,0.002,23.747,10.633,23.747,23.75l0,0v21v1.998H201.742L201.742,248.472z M247.24,246.474v-2.002V246.474
					L247.24,246.474z M205.742,225.474v18.998h39.497v-18.998c-0.02-10.904-8.843-19.73-19.747-19.75l0,0
					C214.584,205.743,205.762,214.569,205.742,225.474L205.742,225.474z"/>
				<path fill="#454545" d="M129.333,190.806c-1.107,0-2.002-0.895-2.002-1.999l0,0c0-1.104,0.895-1.999,2.002-1.999l0,0H211
					c1.104,0,1.998,0.895,1.998,1.999l0,0c0,1.104-0.895,1.999-1.998,1.999l0,0H129.333L129.333,190.806z"/>
				<path fill="#454545" d="M219.333,190.808c-1.104,0-2-0.896-2-2l0,0c0-1.107,0.896-2.001,2-2.001l0,0H255
					c1.104,0,2,0.894,2,2.001l0,0c0,1.104-0.896,2-2,2l0,0H219.333L219.333,190.808z"/>
				<g>
					<path fill="#454545" d="M116.333,17.807c-1.105,0-2.001-0.896-2.001-2.001l0,0c0-1.104,0.896-1.999,2.001-1.999l0,0H223
						c1.105,0,1.998,0.896,1.998,1.999l0,0c0,1.105-0.893,2.001-1.998,2.001l0,0H116.333L116.333,17.807z"/>
					<path fill="#454545" d="M232.999,18.806c-1.104,0-1.999-0.895-1.999-1.999l0,0c0-1.106,0.896-2.001,1.999-2.001l0,0h37.668
						c1.104,0,1.999,0.895,1.999,2.001l0,0c0,1.104-0.895,1.999-1.999,1.999l0,0H232.999L232.999,18.806z"/>
				</g>
				<g>
					<g>
						<path fill="#454545" d="M225.492,42.079c-13.116,0.002-23.747,10.633-23.75,23.75v22.999h28.206v-4h-24.206V65.829
							c0.021-10.905,8.843-19.73,19.75-19.747c10.904,0.017,19.728,8.842,19.747,19.747v18.999h-7.957v4h11.957V65.829
							C249.239,52.712,238.608,42.081,225.492,42.079z"/>
					</g>
				</g>
				<g>
					<g>
						<path fill="#454545" d="M164.448,88.828h2.167v-4h-2.167V88.828z M158.824,42.081c-13.117,0-23.748,10.631-23.75,23.748v23
							h26.041v-4h-22.041l0.002-19c0.02-10.906,8.84-19.729,19.748-19.748c10.905,0.02,19.729,8.842,19.748,19.748v19h-8.624v4
							h12.626v-23C182.572,52.712,171.941,42.081,158.824,42.081z"/>
					</g>
				</g>
				<g>
					<g>
						<path fill="#454545" d="M225.492,123.414c-13.116,0.002-23.747,10.633-23.75,23.75v22.998h26.289v-4h-22.289v-18.998
							c0.021-10.907,8.843-19.73,19.75-19.75c10.904,0.02,19.728,8.842,19.747,19.75v18.998h-5.458v4h9.458v-22.998
							C249.239,134.046,238.608,123.416,225.492,123.414z M232.781,170.161h2.25v-4h-2.25V170.161z"/>
					</g>
				</g>
				<g>
					<g>
						<path fill="#454545" d="M121.326,20.329v14.834h3.999V24.331h135.492l0.001,45.166h4.001V20.329H121.326z M260.818,81.83
							h4.001v-5.333h-4.001V81.83z M125.325,39.163h-3.999v4.25h3.999V39.163z M260.82,273.817H125.325V47.413h-3.999v230.406
							h143.493V88.83h-4.001L260.82,273.817z"/>
					</g>
				</g>
			</g>
			<g>
				<path fill="#454545" d="M51.674,277.492V103.181h66.818v172.313v1.999H51.674L51.674,277.492z M116.492,275.493v-2.001V275.493
					L116.492,275.493z M55.676,273.492h58.813V107.18H55.676V273.492L55.676,273.492z"/>
				<path fill="#D8D8D8" d="M84.458,148.997h-15.05v-14.672c0-8.393,6.804-15.197,15.196-15.197l0,0L84.458,148.997z"/>
				<path fill="#454545" d="M66.914,150.516v-16.108c0.002-9.177,7.437-16.612,16.614-16.614l0,0
					c9.174,0.002,16.609,7.437,16.609,16.614l0,0v14.108v2H66.914L66.914,150.516z M98.139,148.516v-2.002V148.516L98.139,148.516z
					 M70.913,134.408v12.106H96.14v-12.106c-0.015-6.965-5.65-12.601-12.612-12.615l0,0
					C76.56,121.807,70.924,127.442,70.913,134.408L70.913,134.408z"/>
				<path fill="#454545" d="M66.914,205.159v-16.107c0.002-9.174,7.437-16.609,16.614-16.611l0,0
					c9.174,0.002,16.609,7.438,16.609,16.611l0,0v14.108v1.999H66.914L66.914,205.159z M98.139,203.16v-1.999V203.16L98.139,203.16z
					 M70.913,189.052v12.109H96.14v-12.109c-0.015-6.965-5.65-12.601-12.612-12.612l0,0
					C76.56,176.451,70.924,182.087,70.913,189.052L70.913,189.052z"/>
				<rect x="55.026" y="216.808" fill="#D8D8D8" width="53.974" height="56.885"/>
				<path fill="#454545" d="M66.914,257.775v-16.108c0.002-9.174,7.437-16.611,16.614-16.611l0,0
					c9.174,0,16.609,7.438,16.609,16.611l0,0v14.109v1.999H66.914L66.914,257.775z M98.139,255.776v-2V255.776L98.139,255.776z
					 M70.913,241.667v12.109H96.14v-12.109c-0.015-6.965-5.65-12.6-12.612-12.612l0,0C76.56,229.067,70.924,234.702,70.913,241.667
					L70.913,241.667z"/>
				<path fill="#454545" d="M57.712,219.03c-1.104,0-2-0.895-2-1.998l0,0c0-1.104,0.896-2,2-2l0,0h54.869c1.104,0,2,0.896,2,2l0,0
					c0,1.104-0.896,1.998-2,1.998l0,0H57.712L57.712,219.03z"/>
				<g>
					<path fill="#454545" d="M48.979,100.798c-1.106,0-2.002-0.896-2.002-2l0,0c0-1.105,0.896-2.002,2.002-2.002l0,0H98.51
						c1.104,0,1.999,0.896,1.999,2.002l0,0c0,1.104-0.896,2-1.999,2l0,0H48.979L48.979,100.798z"/>
					<path fill="#454545" d="M103.152,101.471c-1.106,0-2-0.896-2-2.002l0,0c0-1.104,0.894-2,2-2l0,0h17.491
						c1.105,0,2.002,0.896,2.002,2l0,0c0,1.106-0.896,2.002-2.002,2.002l0,0H103.152L103.152,101.471z"/>
				</g>
			</g>
			<g>
				<path fill="#D8D8D8" d="M301.125,149.663h-15.05v-14.672c0-8.393,6.804-15.197,15.196-15.197l0,0L301.125,149.663z"/>
				<path fill="#D8D8D8" d="M301.125,203.663h-15.05v-14.672c0-8.393,6.804-15.197,15.196-15.197l0,0L301.125,203.663z"/>
				<path fill="#454545" d="M283.916,205.162v-16.11c0-9.175,7.436-16.61,16.61-16.613l0,0c9.175,0.003,16.61,7.438,16.612,16.613
					l0,0v14.109v2.001H283.916L283.916,205.162z M315.138,203.161v-2V203.161L315.138,203.161z M287.914,189.052v12.109h25.227
					v-12.109c-0.016-6.965-5.649-12.6-12.614-12.611l0,0C293.561,176.452,287.926,182.087,287.914,189.052L287.914,189.052z"/>
				<rect x="271.026" y="216.808" fill="#D8D8D8" width="53.974" height="56.885"/>
				<path fill="#454545" d="M273.71,219.031c-1.105,0-1.998-0.896-1.998-1.999l0,0c0-1.105,0.893-2,1.998-2l0,0h54.87
					c1.105,0,2.001,0.895,2.001,2l0,0c0,1.104-0.896,1.999-2.001,1.999l0,0H273.71L273.71,219.031z"/>
				<g>
					<path fill="#454545" d="M264.977,101.797c-1.104,0-2.001-0.895-2.001-2l0,0c0-1.104,0.897-1.998,2.001-1.998l0,0h49.532
						c1.104,0,2,0.895,2,1.998l0,0c0,1.106-0.896,2-2,2l0,0H264.977L264.977,101.797z"/>
					<path fill="#454545" d="M319.154,102.47c-1.106,0-2-0.896-2-2l0,0c0-1.106,0.894-2,2-2l0,0h17.491c1.104,0,2,0.894,2,2l0,0
						c0,1.104-0.896,2-2,2l0,0H319.154L319.154,102.47z"/>
				</g>
				<g>
					<g>
						<path fill="#454545" d="M267.674,103.182v174.312h66.817v-146.33h-4.003l0.002,142.33h-58.815V107.18h58.813v8.316h4.003
							v-12.315H267.674z M330.489,125.497h4.003v-4.333h-4.003V125.497z"/>
					</g>
				</g>
				<g>
					<g>
						<path fill="#454545" d="M300.526,117.794c-9.175,0-16.61,7.438-16.61,16.613v16.108h19.699v-3.999h-15.701v-12.109
							c0.013-6.965,5.647-12.599,12.612-12.614c6.965,0.015,12.599,5.649,12.614,12.614v12.109h-3.525v3.999h7.523v-16.108
							C317.136,125.232,309.701,117.794,300.526,117.794z"/>
					</g>
				</g>
				<g>
					<g>
						<path fill="#454545" d="M300.526,225.057c-9.175,0-16.61,7.435-16.61,16.61v16.109h16.366v-4h-12.37l0.002-12.109
							c0.013-6.965,5.647-12.6,12.612-12.611c6.965,0.012,12.599,5.646,12.614,12.611v12.109h-7.525v4h11.523v-16.109
							C317.136,232.491,309.701,225.057,300.526,225.057z"/>
					</g>
				</g>
			</g>
		</g>
	</g>
	<g>
		<g>
			<path fill="#FFFFFF" d="M161.026,260.506v20.224c0,3.617-2.92,6.549-6.521,6.549H27.008c-3.601,0-6.521-2.932-6.521-6.549
				v-20.224"/>
			<path fill="#454545" d="M27.008,288.777c-4.435-0.003-8.021-3.605-8.021-8.048l0,0v-20.225h3v20.225
				c0.005,2.793,2.252,5.043,5.021,5.049l0,0h127.494c2.77-0.006,5.018-2.256,5.022-5.049l0,0v-20.225h2.999v20.225
				c0,4.442-3.586,8.045-8.021,8.048l0,0H27.008L27.008,288.777z"/>
		</g>
		<g>
			<path fill="#FFFFFF" d="M34.626,216.187c0,0.668-0.54,1.209-1.209,1.209h-17.01c-0.669,0-1.21-0.541-1.21-1.209v-8.683
				c0-0.668,0.541-1.21,1.21-1.21h17.01c0.669,0,1.209,0.542,1.209,1.21V216.187z"/>
			<path fill="#454545" d="M16.408,219.396c-1.773-0.003-3.207-1.437-3.212-3.21l0,0l0.003-8.683c0-1.771,1.436-3.207,3.209-3.21
				l0,0h17.01c1.773,0,3.204,1.44,3.209,3.21l0,0v8.683c-0.005,1.771-1.436,3.207-3.209,3.21l0,0H16.408L16.408,219.396z
				 M32.625,215.396v-7.101H17.198v7.101H32.625L32.625,215.396z"/>
		</g>
		<g>
			<path fill="#FFFFFF" d="M166.165,216.187c0,0.668-0.544,1.209-1.213,1.209h-17.009c-0.669,0-1.21-0.541-1.21-1.209v-8.683
				c0-0.668,0.541-1.21,1.21-1.21h17.009c0.669,0,1.213,0.542,1.213,1.21V216.187z"/>
			<path fill="#454545" d="M147.942,219.395c-1.771-0.003-3.208-1.437-3.21-3.208l0,0v-8.684c0-1.771,1.437-3.207,3.21-3.209l0,0
				h17.009c1.771,0.002,3.21,1.431,3.215,3.209l0,0v8.684c-0.005,1.779-1.446,3.208-3.215,3.208l0,0H147.942L147.942,219.395z
				 M164.165,215.396v-7.102h-15.432v7.102H164.165L164.165,215.396z"/>
		</g>
		<g>
			<path fill="#FFFFFF" d="M49.468,169.778c0,0-14.733,7.475-16.655,44.844c0,0-18.791,2.561-12.385,45.481h140.719
				c0,0,5.337-39.931-12.813-45.481c0,0-0.428-35.66-16.869-44.844H49.468z"/>
			<path fill="#454545" d="M18.704,262.103l-0.254-1.705c-0.948-6.334-1.356-11.827-1.356-16.596l0,0
				c-0.007-13.974,3.529-21.824,7.361-26.156l0,0c2.41-2.731,4.871-3.993,6.439-4.563l0,0c2.192-36.641,17.035-44.828,17.67-45.089
				l0,0l0.424-0.216h82.994l0.456,0.254c9.17,5.227,13.332,16.945,15.58,27.192l0,0c1.696,7.901,2.15,15.054,2.271,17.978l0,0
				c5.782,2.395,9.124,7.914,11.01,13.968l0,0c2.055,6.569,2.576,14.057,2.581,20.28l0,0c-0.003,7.312-0.742,12.861-0.752,12.919
				l0,0l-0.233,1.733H18.704L18.704,262.103z M159.357,258.104c0.05-0.503,0.105-1.105,0.161-1.798l0,0
				c0.18-2.224,0.359-5.335,0.359-8.856l0,0c0.005-5.986-0.533-13.164-2.396-19.082l0,0c-1.882-5.971-4.938-10.385-9.732-11.836l0,0
				l-1.399-0.426l-0.017-1.461c-0.003-0.004-0.024-2.144-0.317-5.57l0,0c-0.291-3.424-0.85-8.091-1.906-13.012l0,0
				c-2.033-9.676-6.174-20.141-13.173-24.286l0,0H50.027c-0.022,0.015-0.045,0.03-0.068,0.046l0,0
				c-0.333,0.229-0.842,0.606-1.478,1.186l0,0c-1.269,1.154-3.044,3.103-4.906,6.207l0,0c-3.723,6.206-7.816,17.073-8.765,35.508
				l0,0l-0.085,1.656l-1.62,0.221l0,0c0,0-0.001,0-0.008,0.001l0,0c-0.008,0.001-0.022,0.003-0.043,0.009l0,0
				c-0.056,0.01-0.155,0.034-0.296,0.07l0,0c-0.279,0.078-0.708,0.221-1.242,0.471l0,0c-1.066,0.502-2.541,1.421-4.064,3.143l0,0
				c-3.026,3.43-6.35,10.17-6.356,23.508l0,0c-0.002,4.117,0.318,8.856,1.065,14.303l0,0H159.357L159.357,258.104z M49.468,171.777
				v-1.999V171.777L49.468,171.777z"/>
		</g>
		<rect x="48.282" y="197.661" fill="#D8D8D8" width="83.332" height="15.168"/>
		<rect x="62.782" y="236.911" fill="#D8D8D8" width="12.832" height="20.918"/>
		<rect x="78.282" y="236.911" fill="#D8D8D8" width="4.832" height="20.918"/>
		<g>
			<path fill="#FFFFFF" d="M51.917,288.278v6.273c0,2.007-1.625,3.633-3.632,3.633H35.048c-2.006,0-3.63-1.626-3.63-3.633v-6.273
				H51.917z"/>
			<path fill="#454545" d="M35.047,300.183c-3.112,0-5.63-2.521-5.63-5.631l0,0v-8.275h22.5v2.002v-2.002h1.997l0.002,8.275
				c-0.002,3.111-2.522,5.631-5.632,5.631l0,0H35.047L35.047,300.183z M33.417,294.552c0.003,0.903,0.731,1.63,1.631,1.633l0,0
				h13.237c0.901-0.003,1.631-0.732,1.631-1.633l0,0v-4.273H33.417V294.552L33.417,294.552z"/>
		</g>
		<g>
			<path fill="#FFFFFF" d="M150.404,288.278v6.273c0,2.007-1.626,3.633-3.633,3.633h-13.235c-2.007,0-3.631-1.626-3.631-3.633
				v-6.273H150.404z"/>
			<path fill="#454545" d="M133.535,300.185c-3.113,0-5.63-2.521-5.63-5.633l0,0v-8.274h22.499v2.001v-2.001h1.998v8.274
				c0,3.111-2.519,5.633-5.632,5.633l0,0H133.535L133.535,300.185z M131.904,294.552c0,0.904,0.729,1.631,1.631,1.633l0,0h13.235
				c0.901-0.002,1.631-0.731,1.633-1.633l0,0v-4.272h-16.499V294.552L131.904,294.552z"/>
		</g>
		<path fill="#454545" d="M28.07,242.374c0.003-5.766,4.676-10.434,10.437-10.436l0,0c5.764,0.002,10.435,4.67,10.435,10.436l0,0
			c0,5.762-4.671,10.432-10.435,10.432l0,0C32.746,252.806,28.073,248.138,28.07,242.374L28.07,242.374z M32.07,242.374
			c0.007,3.549,2.885,6.426,6.437,6.432l0,0c3.554-0.006,6.43-2.883,6.437-6.432l0,0c-0.007-3.554-2.883-6.43-6.437-6.437l0,0
			C34.955,235.944,32.077,238.82,32.07,242.374L32.07,242.374z"/>
		<path fill="#454545" d="M131.565,242.374c0-5.764,4.667-10.434,10.436-10.436l0,0c5.763,0.002,10.431,4.672,10.431,10.436l0,0
			c0,5.762-4.668,10.433-10.431,10.433l0,0C136.232,252.807,131.565,248.136,131.565,242.374L131.565,242.374z M135.561,242.374
			c0.008,3.551,2.883,6.426,6.439,6.434l0,0c3.551-0.008,6.426-2.883,6.431-6.434l0,0c-0.005-3.555-2.88-6.43-6.431-6.438l0,0
			C138.444,235.944,135.569,238.819,135.561,242.374L135.561,242.374z"/>
		<path fill="#454545" d="M34.571,274.095c0.002-3.642,2.949-6.592,6.591-6.594l0,0c3.64,0.002,6.59,2.952,6.592,6.594l0,0h-0.002
			c0,3.641-2.95,6.59-6.59,6.592l0,0C37.52,280.685,34.573,277.735,34.571,274.095L34.571,274.095z M38.57,274.095
			c0.005,1.432,1.162,2.588,2.592,2.591l0,0c1.429-0.003,2.588-1.162,2.591-2.591l0,0c-0.003-1.433-1.16-2.59-2.591-2.592l0,0
			C39.732,271.505,38.575,272.662,38.57,274.095L38.57,274.095z"/>
		<path fill="#454545" d="M133.607,274.095c0.002-3.641,2.951-6.59,6.592-6.592l0,0c3.642,0,6.59,2.951,6.593,6.592l0,0h-0.003
			c0,3.639-2.948,6.59-6.59,6.592l0,0C136.555,280.685,133.609,277.733,133.607,274.095L133.607,274.095z M137.606,274.095
			c0.002,1.431,1.162,2.588,2.593,2.593l0,0c1.431-0.005,2.588-1.162,2.591-2.593l0,0c-0.003-1.432-1.16-2.59-2.591-2.593l0,0
			C138.765,271.505,137.608,272.663,137.606,274.095L137.606,274.095z"/>
		<path fill="#454545" d="M96.282,181.997"/>
		<g>
			<g>
				<path fill="#454545" d="M79.449,178.05h-4.667v3.999h4.667V178.05z M126.201,178.05H83.115v3.999h43.086
					c2.51,0.005,4.544,2.038,4.549,4.55v21.467c-0.005,2.512-2.036,4.543-4.549,4.549H53.795c-2.515-0.006-4.545-2.039-4.55-4.549
					v-21.467c0.005-2.512,2.035-4.545,4.55-4.55h14.653v-3.999H53.795c-4.725,0-8.55,3.824-8.55,8.549l-0.002,21.467
					c0.002,4.723,3.827,8.547,8.552,8.547h72.405c4.723,0,8.548-3.824,8.548-8.547h0.002v-21.467
					C134.749,181.874,130.923,178.05,126.201,178.05z"/>
			</g>
		</g>
		<g>
			<g>
				<path fill="#454545" d="M98.114,236.479h2.333v-4h-2.333V236.479z M144.874,216.071c-0.38-1.036-1.527-1.571-2.563-1.193
					c-12,4.429-19.411,14.445-21.536,17.602H103.78v4h19.207l0.583-0.971c0,0,0.092-0.155,0.313-0.489
					c1.527-2.368,8.743-12.386,19.798-16.386C144.718,218.257,145.25,217.109,144.874,216.071z M38.472,214.261
					c-1.026-0.412-2.19,0.082-2.602,1.108c-0.414,1.024,0.082,2.188,1.105,2.603c0,0,0.157,0.061,0.506,0.22
					c2.465,1.104,13.156,6.489,19.895,17.346l0.586,0.942h35.318v-4H60.167C51.614,219.53,38.647,214.353,38.472,214.261z"/>
			</g>
		</g>
		<g>
			<g>
				<path fill="#454545" d="M83.281,266.222h-2.499v4.002h2.499V266.222z M120.65,276.337v-4.482c0-3.111-2.518-5.63-5.628-5.633
					H86.615v4.002h28.407c0.896,0,1.627,0.729,1.627,1.631l0.003,4.482h-0.003c0,0.897-0.731,1.629-1.627,1.631H65.914
					c-0.903-0.002-1.633-0.733-1.635-1.631v-4.482c0.002-0.902,0.731-1.631,1.635-1.631h11.534v-4.002H65.914
					c-3.115,0-5.636,2.521-5.636,5.633v4.482c0.003,3.109,2.521,5.63,5.636,5.63h49.108c3.11,0,5.628-2.521,5.631-5.63H120.65z"/>
			</g>
		</g>
	</g>
</g>
</svg>
