<svg width="58" height="56" viewBox="0 0 58 56" fill="none" xmlns="http://www.w3.org/2000/svg">
<path d="M54.2 23.031C53.03 22.191 51.69 21.241 51.43 20.441C51.17 19.641 51.68 17.971 52.15 16.561C52.86 14.431 53.59 12.241 52.46 10.681C51.33 9.12099 49 9.13099 46.73 9.15099C45.25 9.15099 43.58 9.15099 42.86 8.65099C42.14 8.15099 41.66 6.55099 41.22 5.161C40.54 2.991 39.84 0.730998 38 0.140998C36.16 -0.449002 34.36 0.920998 32.58 2.241C31.32 3.131 30 4.151 29 4.151C28 4.151 26.68 3.151 25.46 2.241C23.68 0.920998 21.84 -0.439002 20 0.140998C18.16 0.720998 17.42 2.991 16.74 5.141C16.3 6.53099 15.81 8.14099 15.1 8.63099C14.39 9.12099 12.7 9.14099 11.23 9.13099C8.98 9.13099 6.64 9.13099 5.5 10.661C4.36 12.191 5.1 14.411 5.81 16.541C6.28 17.951 6.81 19.541 6.53 20.421C6.25 21.301 5 22.191 3.8 23.031C1.93 24.351 0 25.731 0 27.731C0 29.731 1.93 31.111 3.8 32.431C4.97 33.271 6.31 34.221 6.57 35.021C6.83 35.821 6.32 37.491 5.85 38.901C5.14 41.031 4.41 43.221 5.54 44.781C6.67 46.341 9 46.331 11.27 46.311C12.74 46.311 14.42 46.311 15.14 46.811C15.86 47.311 16.34 48.911 16.78 50.301C17.46 52.471 18.16 54.711 20.04 55.301C20.3279 55.3922 20.628 55.4394 20.93 55.441C22.44 55.441 23.93 54.301 25.46 53.201C26.68 52.311 28.05 51.291 29 51.291C29.95 51.291 31.32 52.291 32.54 53.201C34.32 54.521 36.16 55.881 37.96 55.301C39.76 54.721 40.54 52.451 41.22 50.301C41.66 48.911 42.15 47.301 42.86 46.811C43.57 46.321 45.26 46.291 46.73 46.311C48.98 46.311 51.32 46.311 52.46 44.781C53.6 43.251 52.86 41.031 52.15 38.901C51.68 37.491 51.15 35.901 51.43 35.021C51.71 34.141 53 33.271 54.2 32.431C56.07 31.111 58 29.731 58 27.731C58 25.731 56.07 24.351 54.2 23.031ZM53 30.801C51.44 31.921 50 32.971 49.49 34.401C48.98 35.831 49.62 37.751 50.22 39.531C50.74 41.101 51.33 42.881 50.8 43.601C50.27 44.321 48.37 44.321 46.71 44.311C44.84 44.311 42.9 44.311 41.64 45.191C40.38 46.071 39.87 47.931 39.31 49.731C38.81 51.341 38.24 53.161 37.31 53.451C36.38 53.741 35 52.611 33.68 51.641C32.15 50.511 30.56 49.341 28.96 49.341C27.36 49.341 25.77 50.511 24.24 51.641C22.92 52.641 21.43 53.711 20.61 53.451C19.79 53.191 19.15 51.341 18.61 49.731C18.05 47.961 17.48 46.121 16.24 45.221C14.9475 44.5057 13.4722 44.189 12 44.311H11.25C9.58 44.311 7.69 44.311 7.16 43.601C6.63 42.891 7.22 41.101 7.74 39.531C8.34 37.751 8.96 35.901 8.47 34.401C7.98 32.901 6.47 31.921 4.96 30.801C3.57 29.821 2 28.731 2 27.731C2 26.731 3.57 25.641 5 24.661C6.56 23.541 8 22.491 8.51 21.061C9.02 19.631 8.38 17.711 7.78 15.931C7.26 14.361 6.67 12.581 7.2 11.861C7.73 11.141 9.63 11.141 11.29 11.151C13.16 11.151 15.1 11.151 16.36 10.271C17.62 9.39099 18.13 7.53099 18.69 5.73099C19.19 4.121 19.76 2.301 20.69 2.011C21.62 1.721 23 2.851 24.32 3.821C25.85 4.951 27.44 6.12099 29.04 6.12099C30.64 6.12099 32.23 4.951 33.76 3.821C35.08 2.821 36.57 1.751 37.39 2.011C38.21 2.271 38.85 4.121 39.39 5.73099C39.95 7.50099 40.52 9.34099 41.76 10.241C43 11.141 44.95 11.141 46.83 11.121C48.5 11.121 50.39 11.121 50.92 11.831C51.45 12.541 50.86 14.331 50.34 15.901C49.74 17.681 49.12 19.531 49.61 21.031C50.1 22.531 51.56 23.511 53.12 24.631C54.51 25.631 56.12 26.731 56.12 27.701C56.12 28.671 54.43 29.821 53 30.801Z" fill="#464646"/>
<path d="M29 8.6709C25.2302 8.6709 21.5452 9.7888 18.4108 11.8831C15.2764 13.9774 12.8334 16.9542 11.3908 20.437C9.94822 23.9197 9.57072 27.752 10.3062 31.4493C11.0416 35.1466 12.8569 38.5428 15.5225 41.2084C18.1881 43.8739 21.5843 45.6892 25.2815 46.4247C28.9788 47.1601 32.8111 46.7827 36.2939 45.34C39.7767 43.8974 42.7534 41.4545 44.8478 38.3201C46.9421 35.1857 48.06 31.5006 48.06 27.7309C48.0547 22.6775 46.0449 17.8326 42.4716 14.2593C38.8983 10.686 34.0534 8.6762 29 8.6709ZM29 44.7909C25.6258 44.7909 22.3274 43.7904 19.5219 41.9158C16.7164 40.0412 14.5298 37.3768 13.2386 34.2595C11.9473 31.1422 11.6095 27.712 12.2678 24.4027C12.926 21.0933 14.5508 18.0535 16.9367 15.6677C19.3226 13.2818 22.3624 11.657 25.6717 10.9987C28.981 10.3404 32.4112 10.6783 35.5285 11.9695C38.6458 13.2607 41.3102 15.4474 43.1848 18.2529C45.0594 21.0584 46.06 24.3568 46.06 27.7309C46.0547 32.2539 44.2556 36.5901 41.0573 39.7883C37.8591 42.9865 33.5229 44.7856 29 44.7909Z" fill="#464646"/>
<path d="M31.5877 39.7305L22.6818 31.5909V30.9091H26.7727C26.7727 30.9091 33.5909 31.4205 33.5909 25.4545C33.5909 20.0852 26.7727 20 26.7727 20H22" stroke="#464646" stroke-width="1.5" stroke-miterlimit="10"/>
<path d="M22 20H37" stroke="#464646" stroke-width="1.5" stroke-miterlimit="10"/>
<path d="M22 25.4928H37" stroke="#464646" stroke-width="1.5" stroke-miterlimit="10"/>
</svg>
