<?xml version="1.0" encoding="utf-8"?>
<!-- Generator: Adobe Illustrator 13.0.0, SVG Export Plug-In . SVG Version: 6.00 Build 14948)  -->
<!DOCTYPE svg PUBLIC "-//W3C//DTD SVG 1.1//EN" "http://www.w3.org/Graphics/SVG/1.1/DTD/svg11.dtd">
<svg version="1.1" id="Layer_1" xmlns="http://www.w3.org/2000/svg" xmlns:xlink="http://www.w3.org/1999/xlink" x="0px" y="0px"
	 width="64px" height="65.334px" viewBox="0 0 64 65.334" enable-background="new 0 0 64 65.334" xml:space="preserve">
<circle fill="#D8D8D8" cx="32.001" cy="29.833" r="15.167"/>
<g>
	<path fill="#474747" d="M33.625,41.284l-8.683-7.937V31.27h4.876l0.035,0.004c0-0.002,0.092,0.006,0.298,0.006l0,0
		c0.597,0.007,1.977-0.092,3.068-0.661l0,0c1.086-0.599,1.924-1.419,1.959-3.465l0,0c-0.021-1.555-0.66-2.358-1.58-3l0,0
		c-0.92-0.623-2.144-0.923-2.958-1.036l0,0c-0.543-0.078-0.868-0.08-0.858-0.08l0,0h-4.477c-0.553,0-1.001-0.449-1.001-1l0,0
		c0-0.553,0.448-1.001,1.001-1.001l0,0l4.489,0.002c0.068,0.004,1.756,0.014,3.563,0.742l0,0c1.787,0.681,3.849,2.371,3.82,5.374
		l0,0c0.036,2.731-1.459,4.475-3.044,5.247l0,0c-1.581,0.801-3.214,0.877-3.981,0.881l0,0c-0.174,0-0.303-0.006-0.375-0.008l0,0
		h-1.957l7.156,6.537c0.406,0.375,0.437,1.006,0.063,1.414l0,0c-0.198,0.215-0.469,0.323-0.739,0.323l0,0
		C34.059,41.545,33.816,41.458,33.625,41.284L33.625,41.284z"/>
	<path fill="#474747" d="M27.724,23.084c-0.553,0-1-0.448-1-1l0,0c0-0.553,0.446-1,1-1l0,0H38.35c0.553,0,1,0.446,1,1l0,0
		c0,0.551-0.447,1-1,1l0,0H27.724L27.724,23.084z"/>
	<path fill="#474747" d="M38.756,27.947l-13.809-0.052c-0.554-0.002-0.998-0.45-0.996-1.003l0,0c0.002-0.552,0.45-0.998,1.004-0.996
		l0,0l13.809,0.052c0.555,0.002,0.998,0.45,0.995,1.004l0,0c-0.002,0.55-0.448,0.996-1,0.996l0,0
		C38.759,27.947,38.758,27.947,38.756,27.947L38.756,27.947z"/>
</g>
<g>
	<g>
		<path fill="#474747" d="M5.923,25.177l1.384,1.611c1.53-1.103,2.908-2.165,3.414-3.581c0.534-1.496-0.137-3.506-0.765-5.368
			c-0.544-1.643-1.161-3.506-0.607-4.26c0.555-0.755,2.544-0.755,4.281-0.745c1.957,0,3.988,0,5.306-0.918
			c1.319-0.923,1.853-2.869,2.439-4.755c0.523-1.684,1.12-3.589,2.094-3.892c0.974-0.306,2.418,0.88,3.799,1.894
			c1.602,1.184,3.267,2.407,4.941,2.407c1.219,0,2.43-0.649,3.615-1.458l-1.362-1.587c-0.833,0.552-1.632,0.982-2.296,0.982
			c-1.046,0-2.428-1.046-3.705-1.998c-1.862-1.383-3.789-2.806-5.714-2.199c-1.926,0.608-2.701,2.984-3.412,5.234
			C18.874,8,18.361,9.686,17.618,10.197c-0.743,0.514-2.512,0.533-4.05,0.523c-2.355,0-4.804,0-5.998,1.603
			c-1.194,1.602-0.419,3.925,0.324,6.154c0.492,1.476,1.047,3.14,0.753,4.061C8.365,23.427,7.137,24.324,5.923,25.177z
			 M58.543,25.271c-1.225-0.88-2.628-1.874-2.9-2.711c-0.271-0.839,0.265-2.586,0.756-4.063c0.742-2.227,1.506-4.52,0.324-6.152
			c-1.184-1.632-3.623-1.623-5.998-1.602c-1.55,0-3.297,0-4.052-0.523c-0.753-0.524-1.255-2.198-1.714-3.652
			c-0.714-2.271-1.445-4.638-3.373-5.256c-1.859-0.596-3.682,0.722-5.48,2.058l1.348,1.567c1.302-0.975,2.699-1.919,3.498-1.667
			c0.855,0.271,1.525,2.208,2.094,3.892c0.585,1.854,1.184,3.779,2.479,4.722c1.297,0.941,3.338,0.941,5.308,0.922
			c1.748,0,3.729,0,4.278,0.741c0.558,0.744-0.063,2.618-0.604,4.262c-0.628,1.863-1.276,3.799-0.767,5.369
			c0.514,1.57,2.044,2.596,3.676,3.768c1.455,1.047,3.143,2.198,3.143,3.214c0,0.69-0.824,1.466-1.818,2.216l1.363,1.588
			c1.342-1.063,2.422-2.245,2.422-3.773C62.521,28.096,60.5,26.652,58.543,25.271z M58.482,35.152l-1.385-1.613
			c-1.561,1.121-2.973,2.191-3.484,3.632c-0.533,1.496,0.137,3.507,0.766,5.37c0.543,1.643,1.16,3.505,0.605,4.26
			c-0.555,0.752-2.543,0.752-4.281,0.742c-1.957,0-3.986,0-5.307,0.922c-1.318,0.92-1.854,2.869-2.438,4.751
			c-0.522,1.687-1.12,3.591-2.093,3.896c-0.975,0.305-2.418-0.881-3.801-1.896c-1.603-1.183-3.266-2.407-4.939-2.407
			s-3.339,1.227-4.94,2.407c-0.024,0.019-0.049,0.037-0.074,0.056l1.353,1.574c1.277-0.93,2.709-1.996,3.703-1.996
			c0.995,0,2.431,1.047,3.705,1.998c1.864,1.383,3.79,2.807,5.674,2.199s2.7-2.982,3.414-5.234c0.459-1.453,0.972-3.141,1.714-3.65
			c0.745-0.516,2.514-0.545,4.053-0.521c2.354,0,4.806,0,5.996-1.603c1.192-1.604,0.42-3.927-0.324-6.156
			c-0.49-1.476-1.045-3.14-0.754-4.062C55.932,36.913,57.244,36.018,58.482,35.152z M23.385,57.109
			c-0.858-0.271-1.528-2.209-2.093-3.896c-0.586-1.854-1.183-3.776-2.48-4.721c-1.354-0.747-2.897-1.079-4.438-0.952h-0.785
			c-1.748,0-3.726,0-4.281-0.742c-0.555-0.742,0.063-2.615,0.607-4.26c0.628-1.861,1.276-3.803,0.764-5.37
			c-0.514-1.569-2.093-2.599-3.675-3.771c-1.455-1.025-3.098-2.166-3.098-3.212c0-0.722,0.788-1.489,1.766-2.232L4.303,26.36
			c-1.375,1.079-2.49,2.274-2.49,3.828c0,2.093,2.021,3.539,3.978,4.921c1.225,0.879,2.627,1.873,2.899,2.711
			c0.273,0.836-0.261,2.584-0.753,4.06c-0.743,2.229-1.507,4.522-0.324,6.156c1.183,1.632,3.622,1.62,5.998,1.601
			c1.539,0,3.296,0,4.051,0.523c0.753,0.521,1.256,2.197,1.717,3.652c0.711,2.271,1.444,4.615,3.412,5.232
			c0.301,0.098,0.615,0.146,0.931,0.146c1.036,0,2.063-0.517,3.097-1.192l-1.35-1.571C24.649,56.938,23.894,57.271,23.385,57.109z"
			/>
	</g>
</g>
<g>
	<g>
		<path fill="#474747" d="M15.238,29.873c0.015-8.246,6.014-15.056,13.887-16.373v-2.025c-8.984,1.325-15.887,9.043-15.889,18.397
			c0.002,9.569,7.225,17.444,16.514,18.491V46.34C21.571,45.292,15.253,38.336,15.238,29.873z M32.75,13.299v-2.001
			c-0.298-0.014-0.592-0.045-0.894-0.045c-0.289,0-0.57,0.03-0.856,0.043v2.001c0.286-0.015,0.567-0.044,0.856-0.045
			C32.158,13.253,32.452,13.283,32.75,13.299z M34.625,11.481v2.025c7.854,1.332,13.835,8.135,13.85,16.367
			c-0.017,9.18-7.438,16.602-16.618,16.619c-0.078,0-0.153-0.012-0.231-0.012v2c0.078,0,0.153,0.012,0.231,0.012
			c10.282,0,18.618-8.336,18.62-18.619C50.475,20.532,43.591,12.823,34.625,11.481z"/>
	</g>
</g>
</svg>
