<?xml version="1.0" encoding="utf-8"?>
<!-- Generator: Adobe Illustrator 13.0.0, SVG Export Plug-In . SVG Version: 6.00 Build 14948)  -->
<!DOCTYPE svg PUBLIC "-//W3C//DTD SVG 1.1//EN" "http://www.w3.org/Graphics/SVG/1.1/DTD/svg11.dtd">
<svg version="1.1" id="Layer_1" xmlns="http://www.w3.org/2000/svg" xmlns:xlink="http://www.w3.org/1999/xlink" x="0px" y="0px"
	 width="965.098px" height="776.45px" viewBox="211.5 568.462 965.098 776.45"
	 enable-background="new 211.5 568.462 965.098 776.45" xml:space="preserve">
<g>
	<path fill="#475F7B" d="M955.017,791.181c6.934,2.026,12.056,6.081,15.256,12.269c4.907,9.922,3.095,24.538-6.188,45.449l0,0
		c-0.213,0.426-0.427,0.854-0.64,1.066l-32.754,53.984c-12.696,20.911-25.604,41.928-42.889,58.038
		c-18.03,16.963-40.328,28.165-70.733,28.059c-28.38-0.105-49.824-10.988-67.321-26.992c-16.856-15.47-29.659-35.1-41.821-54.517
		l-28.698-45.77c-10.669-15.896-16.217-30.621-16.645-42.676c-0.213-5.868,0.854-11.202,3.094-15.79
		c2.349-5.015,5.762-9.176,10.563-12.27c2.348-1.6,5.015-2.987,7.896-3.947c-1.707-24.432-2.348-54.73-1.174-80.123
		c0.641-6.188,1.813-12.375,3.521-18.563c7.256-26.244,25.818-47.368,48.543-61.879c8.002-5.12,16.856-9.28,26.139-12.696
		c55.156-19.95,128.452-9.068,167.607,33.394c15.896,17.284,25.925,40.223,28.059,70.415L955.017,791.181L955.017,791.181
		L955.017,791.181z M1128.598,1203.209c-1.921,19.737-13.336,31.26-35.527,32.859h-273.76H540.962
		c-22.297-1.707-33.713-13.229-35.527-33.18l7.682-32.327c2.134-28.165,10.03-50.463,22.938-67.534
		c8.535-11.308,19.097-19.523,30.727-26.03c37.02-20.591,123.437-26.672,157.044-56.864c30.405,89.618,157.471,92.498,185.956,0
		c33.607,30.192,120.13,36.273,157.044,56.865c11.63,6.508,22.298,14.828,30.727,26.031
		C1119.956,1132.474,1122.089,1166.402,1128.598,1203.209L1128.598,1203.209z M342.309,1059.394
		c23.471,68.813,121.624,71.587,143.707,0c5.229,4.693,12.483,8.641,21.018,12.057c-19.098,40.327-21.765,94.099-28.272,138.16
		h-62.52H191.026c-17.283-1.281-26.032-10.136-27.525-25.605c0-31.366,2.454-55.584,47.476-80.657
		C239.569,1087.453,316.384,1082.759,342.309,1059.394L342.309,1059.394L342.309,1059.394z M520.797,882.612
		c5.334,1.6,9.389,4.694,11.735,9.495c3.734,7.574,2.347,18.991-4.801,35.101l0,0c-0.106,0.319-0.213,0.533-0.427,0.96
		l-25.286,41.607c-9.815,16.11-19.737,32.22-33.072,44.809c-13.87,13.123-31.153,21.765-54.625,21.657
		c-21.979,0-38.514-8.427-52.063-20.804c-13.016-11.948-22.938-27.099-32.219-42.141l-22.191-35.313
		c-8.322-12.376-12.483-23.578-12.91-32.967c-0.106-4.588,0.533-8.642,2.347-12.162c1.708-3.841,4.481-7.041,8.215-9.495
		c1.813-1.173,3.84-2.24,6.081-2.988c-1.386-18.989-1.92-42.354-0.959-61.985c0.427-4.801,1.386-9.602,2.667-14.402
		c5.76-20.271,19.844-36.594,37.554-47.796c6.188-3.947,13.016-7.255,20.271-9.815c42.675-15.47,99.113-7.041,129.413,25.712
		c12.27,13.336,20.057,30.939,21.764,54.411L520.797,882.612L520.797,882.612L520.797,882.612z M322.785,893.814
		c-3.84,0.32-6.828,1.174-8.855,2.562c-1.173,0.854-2.134,1.92-2.667,3.094c-0.747,1.387-0.96,3.307-0.96,5.228
		c0.213,6.401,3.627,15.043,10.242,25.072l0.106,0.213l0,0l22.191,35.313c8.855,14.083,18.137,28.379,29.553,38.941
		c10.882,9.922,24.111,16.75,41.608,16.75c18.99,0,32.753-7.041,44.063-17.497c11.842-11.095,21.124-26.352,30.406-41.5
		l24.858-41.075c5.015-11.416,6.509-18.35,4.908-21.657c-1.067-2.027-5.121-2.562-11.949-2.027
		c-4.374,0.96-8.855,0.106-13.656-2.348l12.483-37.447c-45.77-0.532-76.921-8.535-114.05-32.113
		c-12.162-7.682-15.79-16.644-27.952-15.79c-9.281,1.707-16.963,5.868-23.044,12.483c-5.868,6.295-10.242,14.937-13.229,26.031
		l7.361,44.809C330.68,895.202,326.733,895.415,322.785,893.814L322.785,893.814L322.785,893.814z M697.365,805.69
		c-4.268,0.533-7.574,1.6-10.029,3.201c-1.493,1.066-2.773,2.454-3.414,3.947c-0.854,1.814-1.173,4.161-1.173,6.828
		c0.213,8.429,4.694,19.524,13.442,32.22l0.214,0.214l0,0l28.699,45.769c11.415,18.244,23.471,36.808,38.192,50.356
		c14.083,12.911,31.26,21.658,53.771,21.766c24.537,0.105,42.354-9.068,56.971-22.619c15.364-14.296,27.526-34.033,39.475-53.77
		l32.327-53.131c6.508-14.829,8.535-23.685,6.401-27.953c-1.28-2.773-7.042-3.307-16.537-2.453c-0.747,0.106-1.387,0.106-2.135,0
		c-3.946,0-8.215-1.066-12.908-3.201l14.51-48.436c-59.212-0.746-99.753-11.096-147.55-41.715
		c-16.003-10.136-20.697-21.551-36.487-20.483c-11.843,2.348-21.871,7.574-29.873,16.109c-7.574,8.215-13.443,19.417-17.177,33.713
		l10.243,58.679C708.355,807.825,702.7,808.038,697.365,805.69L697.365,805.69L697.365,805.69z"/>
</g>
</svg>
