<svg width="40" height="45" viewBox="0 0 40 45" fill="none" xmlns="http://www.w3.org/2000/svg">
<path d="M15.1329 5.47337L15.1318 5.53643H27.8433C27.8756 5.53643 27.9071 5.53824 27.9382 5.54223C29.1432 5.63899 30.2891 5.84772 31.3668 6.18728L31.3697 6.18837C32.4645 6.53263 33.4908 7.01678 34.4388 7.66039C35.1008 8.10938 35.6723 8.59897 36.1666 9.12189C36.6606 9.6441 37.0824 10.2047 37.4466 10.7954C38.0108 11.7112 38.4634 12.7969 38.8247 13.9275C39.2698 15.3191 39.5771 16.7788 39.7851 18.0642C39.8681 18.5777 39.9293 19.0792 39.9478 19.5155C39.9692 20.0164 39.93 20.4545 39.8032 20.7738C39.7285 20.9618 39.6318 21.1224 39.5129 21.2543C39.3759 21.4068 39.2118 21.5217 39.0212 21.5982C37.6923 22.1302 36.6069 20.8444 35.9554 20.0722L35.9539 20.0733L35.834 19.9308C34.7352 18.6494 33.3853 17.7416 31.8397 17.1289C30.2695 16.5063 28.4869 16.1827 26.5496 16.0768L15.0362 16.0776L15.0416 16.1758V19.4833C15.0416 19.5145 15.0398 19.5449 15.0362 19.575C15.0039 20.3512 14.7466 20.9013 14.2621 21.2217C13.7765 21.5431 13.142 21.5732 12.357 21.3086C12.2719 21.28 12.1947 21.2376 12.128 21.1851C8.34032 18.2135 4.55228 15.243 0.76605 12.2696L0.712779 12.2236C0.0833111 11.6517 -0.090635 11.0567 0.0412741 10.4613C0.157963 9.93509 0.524337 9.48646 1.01682 9.09834L11.479 0.862352C11.9319 0.505762 12.4074 0.228536 12.8549 0.0944522C13.2561 -0.0258605 13.6475 -0.0367321 14.0077 0.0937275C14.4005 0.236146 14.7144 0.524244 14.9144 0.990637C15.0568 1.32295 15.1373 1.75093 15.1373 2.28944V5.39003C15.1376 5.41829 15.1362 5.4462 15.1329 5.47337ZM24.8666 39.0569L24.8677 38.9935H12.1563C12.1244 38.9935 12.0925 38.9917 12.0617 38.9877C10.8567 38.891 9.7105 38.6822 8.63313 38.3427L8.63059 38.3416C7.53582 37.9977 6.50953 37.5135 5.56153 36.8699C4.8951 36.4177 4.32107 35.9252 3.82533 35.399C3.32668 34.8703 2.90269 34.3053 2.53849 33.7117C1.9507 32.7528 1.45857 31.5298 1.06901 30.2545C0.606599 28.7394 0.287335 27.1525 0.124261 25.8533C0.0760634 25.4681 0.04671 25.0916 0.0470723 24.747C0.0474347 24.3589 0.0923708 24.0182 0.197101 23.7558C0.270303 23.5725 0.366336 23.4134 0.486286 23.2797C0.625806 23.1238 0.789967 23.0075 0.979134 22.9314C2.30801 22.3994 3.39372 23.6852 4.04493 24.4578L4.04638 24.4567L4.1667 24.5991C5.26546 25.8805 6.61499 26.7883 8.16093 27.4007C9.73116 28.0233 11.5137 28.3469 13.4511 28.4527L24.9641 28.4517L24.9587 28.3535L24.9583 25.0459C24.9583 25.0148 24.9605 24.9843 24.9641 24.9543C24.9964 24.1777 25.2537 23.6276 25.7382 23.3072C26.2242 22.9858 26.8583 22.9557 27.6433 23.2206C27.7284 23.2489 27.8053 23.2913 27.8723 23.3442L39.2346 32.2596L39.2879 32.3057C39.917 32.8782 40.0913 33.474 39.9594 34.0687C39.8427 34.5949 39.4763 35.0435 38.9838 35.4316L28.5206 43.668C28.0676 44.0246 27.5922 44.3014 27.1446 44.4355C26.7435 44.5558 26.3521 44.5667 25.9915 44.4366C25.5987 44.2942 25.2848 44.0061 25.0848 43.5393C24.9424 43.207 24.8619 42.779 24.8619 42.2405V39.1399C24.8619 39.112 24.8638 39.0845 24.8666 39.0569ZM26.1749 38.06C26.3434 38.3401 26.3934 38.6717 26.3894 39.0859L26.3916 39.1399V42.2405C26.3916 42.5681 26.4267 42.7968 26.4891 42.9421C26.5075 42.9849 26.5097 43.0019 26.5119 43.0026C26.5416 43.0135 26.6112 43.0012 26.709 42.9722C26.9623 42.8964 27.2649 42.7127 27.5773 42.467L38.0391 34.2307C38.2754 34.0444 38.4417 33.8733 38.4714 33.74C38.4837 33.6831 38.4276 33.5892 38.2703 33.4446L27.0341 24.6267C26.7935 24.5545 26.6423 24.539 26.58 24.5803C26.5271 24.6154 26.4956 24.7564 26.4862 25.0025L26.4876 28.3263C26.5148 28.7013 26.4557 29.0347 26.2926 29.317C26.1002 29.6519 25.802 29.8722 25.3809 29.9588C25.3214 29.9737 25.2595 29.9817 25.1953 29.9817H13.4507V29.9798L13.4119 29.9788C11.3043 29.8668 9.34775 29.5102 7.59923 28.8173C5.82716 28.115 4.27759 27.0717 3.0114 25.596L2.88094 25.4428L2.88239 25.4413L2.88094 25.4395C2.52001 25.0115 1.93294 24.3154 1.60643 24.3346C1.58142 24.4136 1.57019 24.5578 1.56983 24.7477C1.56983 24.9952 1.59664 25.3137 1.64122 25.6689C1.79632 26.9072 2.09601 28.4038 2.52617 29.8128C2.8795 30.9692 3.32016 32.0697 3.84019 32.9177C4.14966 33.4229 4.51096 33.9038 4.93568 34.3542C5.36294 34.8069 5.8518 35.2276 6.41531 35.6099C7.22634 36.1604 8.12143 36.58 9.08974 36.8855C10.0519 37.1896 11.0847 37.3765 12.1776 37.465H25.0033V37.4682C25.5733 37.4682 25.9361 37.6636 26.1749 38.06ZM13.8247 6.4703C13.6558 6.19054 13.6058 5.85859 13.6102 5.44438L13.6083 5.39039V2.28944C13.6083 1.96184 13.5728 1.73317 13.5109 1.58785C13.4924 1.54509 13.4902 1.52806 13.488 1.52733C13.458 1.51646 13.3887 1.52878 13.2909 1.55777C13.0376 1.63388 12.7346 1.81724 12.4226 2.06294L1.96084 10.2989C1.72457 10.4852 1.55823 10.6566 1.52888 10.7896C1.51619 10.8469 1.57273 10.9404 1.73 11.0849C5.47419 14.0257 9.22092 16.964 12.9662 19.9033C13.2068 19.9758 13.3579 19.991 13.4195 19.9497C13.4728 19.9145 13.5043 19.7732 13.5134 19.5275L13.5123 16.2037C13.4851 15.8282 13.5442 15.4948 13.7073 15.2125C13.9001 14.8777 14.1983 14.6574 14.6187 14.5708C14.6781 14.5559 14.7401 14.5479 14.8046 14.5479H26.5492V14.5497L26.588 14.5508C28.6953 14.6624 30.6522 15.0194 32.4003 15.7126C34.1724 16.4149 35.722 17.4583 36.9882 18.9339L37.1183 19.0872L37.1168 19.0883L37.1183 19.0897C37.4792 19.5177 38.0663 20.2142 38.3928 20.1947C38.429 20.0841 38.4363 19.8627 38.4243 19.5742C38.4087 19.2057 38.3544 18.7636 38.2793 18.3019C38.0811 17.0763 37.7898 15.6913 37.3727 14.3863C37.0472 13.368 36.6442 12.3979 36.1496 11.5948C35.8412 11.0944 35.4806 10.6164 35.0552 10.1663C34.6301 9.71694 34.1434 9.2991 33.5839 8.91968C32.7729 8.36922 31.8778 7.94957 30.9095 7.64408C29.9473 7.34003 28.9145 7.15304 27.8216 7.06462H14.9963V7.06172C14.4263 7.06208 14.0639 6.86712 13.8247 6.4703Z" fill="#464646"/>
</svg>
