<svg width="12" height="15" viewBox="0 0 12 15" fill="none" xmlns="http://www.w3.org/2000/svg">
<path d="M1.75195 0.419922H11.1465V0.439453C10.5931 1.29232 10.2806 1.74805 10.209 1.80664H7.69922C8.04427 2.21029 8.27865 2.70182 8.40234 3.28125H11.0781C11.1107 3.28776 11.127 3.30078 11.127 3.32031C10.528 4.21875 10.222 4.66797 10.209 4.66797H8.4707C8.43164 5.13021 8.21029 5.68685 7.80664 6.33789C7.27279 6.99544 6.76172 7.42188 6.27344 7.61719C5.36198 8.05339 4.48958 8.27148 3.65625 8.27148V8.29102C3.65625 8.35612 3.86133 8.6263 4.27148 9.10156L8.91016 14.6973V14.9609C8.91016 14.987 8.89388 15 8.86133 15H6.82031C3.14844 10.7227 1.3125 8.57422 1.3125 8.55469V7.25586L1.33203 7.20703C1.65755 7.2526 2.03841 7.27539 2.47461 7.27539C4.5319 7.27539 5.8112 6.60807 6.3125 5.27344C6.39062 5.07812 6.42969 4.8763 6.42969 4.66797H0.84375C0.817708 4.66797 0.804688 4.65495 0.804688 4.62891C1.42318 3.73047 1.73893 3.28125 1.75195 3.28125H6.18555V3.26172C5.93164 2.7474 5.4401 2.34701 4.71094 2.06055C4.1901 1.89128 3.72135 1.80664 3.30469 1.80664H0.824219V1.75781C1.42318 0.865885 1.73242 0.419922 1.75195 0.419922Z" fill="#475F7B"/>
</svg>
