<svg width="184" height="184" viewBox="0 0 184 184" fill="none" xmlns="http://www.w3.org/2000/svg">
<path d="M84 96.5002C38 94.5002 31.8333 137.667 34.5 159.5C46.9 173.5 70 178 80 178.5C119.6 186.1 143.5 165.667 150.5 154.5C154.9 134.5 140.333 112.167 132.5 103.5C117.3 93.9002 93.8333 94.8335 84 96.5002Z" fill="#DADADA" stroke="black"/>
<path d="M92 0C41.2735 0 0 41.2735 0 92C0 119.182 11.8603 143.643 30.6667 160.498V160.563L32.0007 161.713C32.2345 161.916 32.4913 162.085 32.729 162.284C34.3812 163.679 36.0832 165.017 37.8312 166.298C38.3027 166.643 38.7742 166.976 39.2533 167.31C41.1087 168.613 43.0062 169.855 44.9535 171.02C45.2793 171.216 45.6128 171.4 45.9387 171.588C48.0738 172.83 50.255 173.999 52.4937 175.068C52.5167 175.08 52.5397 175.088 52.5627 175.099C57.3505 177.38 62.3722 179.247 67.5702 180.68C67.666 180.707 67.7618 180.738 67.8577 180.761C70.3148 181.432 72.8142 181.995 75.348 182.459C75.5857 182.501 75.8195 182.543 76.0572 182.585C78.5028 183.015 80.9792 183.356 83.49 183.59C83.7775 183.617 84.065 183.632 84.3487 183.655C86.8748 183.866 89.4202 184 92 184C94.5798 184 97.1252 183.866 99.6513 183.655C99.9388 183.632 100.226 183.617 100.51 183.59C103.021 183.36 105.497 183.015 107.943 182.585C108.18 182.543 108.414 182.501 108.652 182.459C111.186 181.995 113.685 181.432 116.142 180.761C116.238 180.734 116.334 180.707 116.43 180.68C121.628 179.247 126.649 177.38 131.437 175.099C131.46 175.088 131.483 175.08 131.506 175.068C133.745 173.999 135.926 172.826 138.061 171.588C138.391 171.396 138.721 171.216 139.046 171.02C140.998 169.855 142.895 168.609 144.747 167.31C145.222 166.976 145.697 166.643 146.169 166.298C147.917 165.017 149.619 163.679 151.271 162.284C151.509 162.085 151.765 161.916 151.999 161.713L153.333 160.563V160.498C172.14 143.639 184 119.182 184 92C184 41.2735 142.726 0 92 0ZM92 92C75.0912 92 61.3333 78.2422 61.3333 61.3333C61.3333 44.4245 75.0912 30.6667 92 30.6667C108.909 30.6667 122.667 44.4245 122.667 61.3333C122.667 78.2422 108.909 92 92 92ZM103.5 99.6667C126.749 99.6667 145.667 118.584 145.667 141.833V157.006C145.506 157.14 145.337 157.263 145.176 157.397C143.662 158.627 142.109 159.796 140.522 160.916C140.17 161.165 139.825 161.422 139.472 161.663C137.758 162.832 135.999 163.929 134.209 164.967C133.883 165.159 133.553 165.347 133.224 165.535C131.345 166.589 129.432 167.578 127.481 168.483C127.278 168.578 127.071 168.671 126.864 168.763C120.497 171.657 113.789 173.754 106.885 174.996C106.666 175.034 106.448 175.076 106.229 175.114C104.056 175.486 101.863 175.774 99.6552 175.977C99.3523 176.004 99.0457 176.023 98.739 176.046C96.5042 176.218 94.2578 176.333 92 176.333C89.7422 176.333 87.4958 176.218 85.261 176.038C84.9582 176.015 84.6515 175.996 84.3448 175.969C82.1368 175.766 79.9442 175.482 77.7707 175.107C77.5522 175.068 77.3337 175.03 77.1152 174.988C70.2113 173.746 63.503 171.649 57.1358 168.755C56.9288 168.659 56.7218 168.571 56.5187 168.475C54.5675 167.57 52.6547 166.581 50.7763 165.527C50.4467 165.339 50.1208 165.152 49.7912 164.96C48.001 163.925 46.2415 162.825 44.528 161.656C44.1715 161.414 43.8265 161.157 43.4777 160.908C41.8907 159.789 40.3382 158.623 38.824 157.389C38.663 157.259 38.4943 157.132 38.3333 156.998V141.833C38.3333 118.584 57.2508 99.6667 80.5 99.6667H103.5ZM153.333 149.791V141.833C153.333 117.794 136.221 97.6772 113.543 93.0158C123.667 86.112 130.333 74.4855 130.333 61.3333C130.333 40.1963 113.137 23 92 23C70.863 23 53.6667 40.1963 53.6667 61.3333C53.6667 74.4855 60.3328 86.112 70.4567 93.0158C47.7787 97.6772 30.6667 117.794 30.6667 141.833V149.791C16.422 134.684 7.66667 114.352 7.66667 92C7.66667 45.4978 45.4978 7.66667 92 7.66667C138.502 7.66667 176.333 45.4978 176.333 92C176.333 114.352 167.578 134.684 153.333 149.791Z" fill="#8D8D8D"/>
</svg>
