<svg width="12" height="12" viewBox="0 0 12 12" fill="none" xmlns="http://www.w3.org/2000/svg">
<path d="M6.53027 6L11.8901 0.640137C12.0366 0.493652 12.0366 0.256348 11.8901 0.109863C11.7437 -0.0366211 11.5063 -0.0366211 11.3599 0.109863L6 5.46973L0.640137 0.109863C0.493652 -0.036621 0.256348 -0.036621 0.109863 0.109863C-0.0366211 0.256348 -0.0366211 0.493652 0.109863 0.640137L5.46973 6L0.109863 11.3599C-0.036621 11.5063 -0.036621 11.7437 0.109863 11.8901C0.183106 11.9634 0.278809 12 0.375 12C0.471191 12 0.566895 11.9634 0.640137 11.8901L6 6.53027L11.3599 11.8901C11.4331 11.9634 11.5288 12 11.625 12C11.7212 12 11.8169 11.9634 11.8901 11.8901C12.0366 11.7437 12.0366 11.5063 11.8901 11.3599L6.53027 6Z" fill="#475F7B"/>
</svg>
